<?xml version="1.0" encoding="UTF-8"?>
<svg id="Layer_2" data-name="Layer 2" xmlns="http://www.w3.org/2000/svg" viewBox="0 0 239.75 269.93">
  <defs>
    <style>
      .cls-1 {
        fill: #fff;
        stroke: #000;
        stroke-miterlimit: 10;
      }
    </style>
  </defs>
  <g id="Layer_1-2" data-name="Layer 1">
    <g>
      <path class="cls-1" d="m78.46,230.16c.23-29.44.46-58.67.69-88.11-.58.2-.99.31-1.36.48-7.57,3.31-15.13,6.63-22.7,9.91-.82.35-1.13.79-1.13,1.69.05,10.95.06,21.9.09,32.86.05,18.74.11,37.49.19,56.23,0,.85-.22,1.37-1,1.8-13.1,7.33-26.17,14.71-39.28,22.02-1.58.88-3.33,1.57-5.08,2.05-4.62,1.24-7.81-1.01-8.25-5.8-.17-1.86-.11-3.74-.11-5.61,0-81.66,0-163.33.01-244.99,0-2.26.15-4.53.34-6.78.07-.81.4-1.63.75-2.38C2.72,1.11,4.83.02,7.41.7c1.45.38,2.89.96,4.19,1.7,28.06,16,56.09,32.05,84.15,48.05.92.53.99,1.18.99,2.06-.01,28.14,0,56.28,0,84.42v1.98c.55-.15.92-.23,1.27-.36,6.26-2.26,12.51-4.55,18.79-6.77.99-.35,1.08-.95,1.08-1.82-.01-21.91-.01-43.81-.01-65.72,0-.52,0-1.03,0-1.73.44.21.76.33,1.05.5,20.53,11.87,41.06,23.76,61.6,35.61.79.46,1.09.95,1.09,1.88-.03,22.98-.02,45.97-.01,68.95,0,.77-.11,1.31-.89,1.74-7.71,4.3-15.39,8.64-23.07,12.97-.33.19-.69.35-1.21.61.16-20.43.32-40.65.48-61.05-.53.21-.9.33-1.25.5-3.59,1.75-7.16,3.52-10.76,5.25-.7.34-.99.76-.99,1.56.05,7.27.06,14.55.09,21.82.05,12.79.11,25.58.18,38.37,0,.77-.22,1.21-.91,1.61-21.28,12.26-42.54,24.53-63.81,36.81-.24.14-.49.24-1,.49Z"/>
      <path class="cls-1" d="m187.25,102.25c.44.23.78.4,1.12.59,15.44,9.03,30.88,18.05,46.28,27.14,1.41.83,2.64,2.07,3.73,3.31,1.17,1.34,1.17,2.69,0,4.02-1.06,1.21-2.28,2.39-3.66,3.21-15.53,9.19-31.11,18.3-46.67,27.43-.23.13-.47.24-.81.41v-66.12Z"/>
    </g>
  </g>
</svg>