<?xml version="1.0" encoding="UTF-8"?>
<svg id="Layer_2" data-name="Layer 2" xmlns="http://www.w3.org/2000/svg" viewBox="0 0 238.92 269.18">
  <defs>
    <style>
      .cls-1 {
        fill: #676867;
      }

      .cls-2 {
        fill: #cf212a;
      }
    </style>
  </defs>
  <g id="Layer_1-2" data-name="Layer 1">
    <g>
      <path class="cls-1" d="m.04,134.66c0-40.93,0-81.85,0-122.78,0-2.27-.2-4.54.44-6.77.16-.54.28-1.09.5-1.6C2.45.1,4.41-.37,7.61.21c1.39.25,2.62.94,3.84,1.63,28.03,16.03,56.06,32.06,84.1,48.06.86.49,1.09,1.05,1.08,1.98-.02,28.3-.02,56.59-.02,84.89q0,1.57,1.52,1.02c6.04-2.19,12.06-4.4,18.12-6.54.92-.32,1.19-.74,1.19-1.7-.03-21.9-.02-43.81-.02-65.71,0-.28,0-.56,0-.84,0-1.27.01-1.27,1.12-.63,13.92,8.06,27.84,16.11,41.77,24.17,6.7,3.88,13.4,7.76,20.12,11.61.75.43,1.05.89,1.05,1.77-.03,23.06-.02,46.12,0,69.18,0,.82-.23,1.29-.96,1.69-7.87,4.4-15.73,8.83-23.57,13.28-.82.47-1.03.41-1.02-.58.12-12.26.22-24.53.32-36.8.06-7.47.12-14.94.21-22.41,0-.7-.1-.87-.78-.54-3.72,1.84-7.44,3.67-11.18,5.46-.58.28-.69.66-.69,1.23.03,7.55.05,15.11.07,22.66.02,6.15.05,12.31.07,18.46.02,6.39.03,12.79.08,19.18,0,.8-.2,1.28-.94,1.71-21.27,12.25-42.53,24.52-63.79,36.78-.36.21-.74.71-1.15.46-.37-.24-.15-.81-.14-1.23.07-9.83.09-19.66.25-29.48.16-9.87.15-19.74.23-29.6.06-8.79.16-17.58.23-26.37.01-1.34,0-1.35-1.24-.81-7.57,3.3-15.13,6.61-22.71,9.89-.7.3-.91.71-.91,1.44.06,25.22.07,50.44.18,75.65.02,4.59,0,9.19.09,13.78.01.73-.22,1.14-.87,1.5-13.2,7.46-26.36,15.01-39.67,22.28-2.05,1.12-4.2,1.91-6.49,2.34-2.47.46-5-.92-6.1-3.39C.23,263.99,0,262.18,0,260.32c0-41.89,0-83.77,0-125.66h.04Z"/>
      <path class="cls-2" d="m186.88,167.85v-66.04c.49-.13.8.27,1.15.47,15.47,9.04,30.93,18.09,46.38,27.15,1.5.88,2.81,1.98,3.8,3.42.96,1.41.95,2.58-.01,3.99-.97,1.42-2.3,2.44-3.76,3.29-15.58,9.16-31.17,18.31-46.76,27.45-.22.13-.43.37-.8.27Z"/>
    </g>
  </g>
</svg>