<?xml version="1.0" encoding="UTF-8"?>
<svg id="Layer_2" data-name="Layer 2" xmlns="http://www.w3.org/2000/svg" xmlns:xlink="http://www.w3.org/1999/xlink" viewBox="0 0 173.5 170.9">
  <defs>
    <style>
      .cls-1 {
        fill: #8b8b8b;
      }

      .cls-2 {
        fill: #c14444;
      }

      .cls-3 {
        fill: #d1d1d1;
      }

      .cls-4 {
        fill: #c8cacc;
      }

      .cls-5 {
        fill: #5f6163;
      }

      .cls-6 {
        fill: #656869;
      }

      .cls-7 {
        clip-path: url(#clippath-2);
      }

      .cls-8 {
        fill: #a6a6a6;
      }

      .cls-9 {
        isolation: isolate;
      }

      .cls-10 {
        fill: #75787a;
      }

      .cls-11 {
        fill: #c9c9c9;
      }

      .cls-12 {
        clip-path: url(#clippath-6);
      }

      .cls-13 {
        fill: #f45b5b;
      }

      .cls-14 {
        clip-path: url(#clippath-7);
      }

      .cls-15 {
        clip-path: url(#clippath-1);
      }

      .cls-16 {
        clip-path: url(#clippath-4);
      }

      .cls-17 {
        fill: #737575;
      }

      .cls-18 {
        fill: #505050;
      }

      .cls-19 {
        fill: #787878;
      }

      .cls-20 {
        clip-path: url(#clippath-9);
      }

      .cls-21 {
        fill: #aaa;
      }

      .cls-22 {
        clip-path: url(#clippath);
      }

      .cls-23 {
        fill: #afafaf;
      }

      .cls-24 {
        fill: #adadad;
      }

      .cls-25 {
        fill: none;
      }

      .cls-26 {
        fill: #ce0909;
      }

      .cls-27 {
        fill: #c1c1c1;
      }

      .cls-28 {
        fill: #8a9d0b;
      }

      .cls-29 {
        clip-path: url(#clippath-3);
      }

      .cls-30 {
        fill: #464849;
      }

      .cls-31 {
        fill: #383838;
      }

      .cls-32 {
        fill: #ccc;
      }

      .cls-33 {
        fill: #979b9e;
      }

      .cls-34 {
        fill: #828688;
      }

      .cls-35 {
        clip-path: url(#clippath-8);
      }

      .cls-36 {
        fill: #efefef;
      }

      .cls-37 {
        fill: #e7edf2;
      }

      .cls-38 {
        fill: #ff5a5a;
      }

      .cls-39 {
        fill: #f73c3c;
      }

      .cls-40 {
        clip-path: url(#clippath-5);
      }

      .cls-41 {
        fill: #595959;
      }

      .cls-42 {
        fill: #a5c11d;
      }

      .cls-43 {
        fill: #5e5e5e;
      }

      .cls-44 {
        fill: #707375;
      }
    </style>
    <clipPath id="clippath">
      <path class="cls-25" d="m93.2,81l.6.3c.1,0,.1.1.2.1l-.6-.3c-.1,0-.2,0-.2-.1Z"/>
    </clipPath>
    <clipPath id="clippath-1">
      <path class="cls-25" d="m92,85.8l-.6-.3c.9.4,2-.2,2.6-1.3.6-1.2.3-2.6-.6-3.1l.6.3c.9.5,1.2,1.9.6,3.1-.5,1.1-1.6,1.7-2.6,1.3Z"/>
    </clipPath>
    <clipPath id="clippath-2">
      <path class="cls-25" d="m98.1,83.7l.6.3c.1,0,.1.1.2.1l-.6-.3c-.1,0-.1-.1-.2-.1Z"/>
    </clipPath>
    <clipPath id="clippath-3">
      <path class="cls-25" d="m97,88.4l-.6-.3c.9.4,2-.2,2.6-1.3.6-1.2.3-2.6-.6-3.1l.6.3c.9.5,1.2,1.9.6,3.1-.6,1.2-1.7,1.7-2.6,1.3Z"/>
    </clipPath>
    <clipPath id="clippath-4">
      <path class="cls-25" d="m22,11.9l.6.3c.1,0,.1.1.2.1l-.6-.3c-.1,0-.2,0-.2-.1Z"/>
    </clipPath>
    <clipPath id="clippath-5">
      <path class="cls-25" d="m20.8,16.7l-.6-.3c.9.4,2-.2,2.6-1.3.6-1.2.3-2.6-.6-3.1l.6.3c.9.5,1.2,1.9.6,3.1-.5,1.1-1.6,1.6-2.6,1.3Z"/>
    </clipPath>
    <clipPath id="clippath-6">
      <path class="cls-25" d="m29.4,16.3l.6.3c.1,0,.1.1.2.1l-.6-.3c0-.1-.1-.1-.2-.1Z"/>
    </clipPath>
    <clipPath id="clippath-7">
      <path class="cls-25" d="m28.3,21l-.6-.3c.9.4,2-.2,2.6-1.3.6-1.2.3-2.6-.6-3.1l.6.3c.9.5,1.2,1.9.6,3.1-.6,1.2-1.7,1.7-2.6,1.3Z"/>
    </clipPath>
    <clipPath id="clippath-8">
      <path class="cls-25" d="m37.9,21.2l.6.3c.1,0,.1.1.2.1l-.6-.3c-.1,0-.1-.1-.2-.1Z"/>
    </clipPath>
    <clipPath id="clippath-9">
      <path class="cls-25" d="m36.8,25.9l-.6-.3c.9.4,2-.2,2.6-1.3.6-1.2.3-2.6-.6-3.1l.6.3c.9.5,1.2,1.9.6,3.1-.6,1.2-1.7,1.7-2.6,1.3Z"/>
    </clipPath>
  </defs>
  <g id="Layer_1-2" data-name="Layer 1">
    <g>
      <g class="cls-9">
        <polygon class="cls-26" points="24.8 83.7 55.3 65.9 55.3 85 24.8 102.7 24.8 83.7"/>
        <polygon class="cls-26" points="143 129.9 142.8 170.9 173.4 153.1 173.5 112.2 143 129.9"/>
        <polygon class="cls-38" points=".1 47.5 30.6 29.7 173.5 112.2 143 129.9 .1 47.5"/>
        <polygon class="cls-39" points="143 129.9 142.9 135.3 142.9 151.8 142.8 170.9 118 156.5 118.1 137.5 24.8 83.7 24.8 102.7 0 88.4 0 69.3 .1 52.8 .1 47.5 143 129.9"/>
      </g>
      <g>
        <g class="cls-9">
          <polygon class="cls-31" points="38.9 69.8 11.4 53.9 11.3 39.9 38.8 55.9 38.9 69.8"/>
          <polygon class="cls-41" points="38.8 55.9 11.3 39.9 43.2 21.3 70.7 37.3 38.8 55.9"/>
          <polygon class="cls-18" points="70.7 37.3 70.8 51.2 38.9 69.8 38.8 55.9 70.7 37.3"/>
        </g>
        <g class="cls-9">
          <polygon class="cls-1" points="61.4 16 33.9 0 43.3 5.4 70.7 21.3 61.4 16"/>
          <polygon class="cls-19" points="38.9 54.6 11.4 38.7 11.4 23.8 38.8 39.7 38.9 54.6"/>
          <polygon class="cls-8" points="38.8 39.7 11.4 23.8 20.7 7.7 48.1 23.6 38.8 39.7"/>
          <polygon class="cls-27" points="48.1 23.6 20.7 7.7 33.9 0 61.4 16 48.1 23.6"/>
          <polygon class="cls-24" points="61.4 16 70.7 21.3 70.8 36.2 38.9 54.6 38.8 39.7 48.1 23.6 61.4 16"/>
        </g>
      </g>
      <g>
        <g class="cls-9">
          <polygon class="cls-17" points="137.3 123.1 162.5 108.5 162.6 99.5 137.4 114.1 137.3 123.1"/>
          <polygon class="cls-32" points="137.4 114.1 162.6 99.5 67.5 44.3 42.4 58.9 137.4 114.1"/>
          <polygon class="cls-21" points="42.4 58.9 42.3 67.9 137.3 123.1 137.4 114.1 42.4 58.9"/>
        </g>
        <g class="cls-9">
          <polygon class="cls-34" points="151.8 97.8 147 100.5 63.3 52.2 68 49.4 151.8 97.8"/>
          <polygon class="cls-34" points="146.2 101 141.4 103.8 57.7 55.4 62.4 52.7 146.2 101"/>
          <polygon class="cls-34" points="140.6 104.3 135.8 107 52.1 58.7 56.8 55.9 140.6 104.3"/>
        </g>
      </g>
      <g class="cls-9">
        <polygon class="cls-31" points="70 70.7 61.1 65.6 61.1 61.1 69.9 66.2 70 70.7"/>
        <polygon class="cls-41" points="69.9 66.2 61.1 61.1 78.8 50.8 87.7 56 69.9 66.2"/>
        <polygon class="cls-18" points="87.7 56 87.7 60.5 70 70.7 69.9 66.2 87.7 56"/>
      </g>
      <g>
        <path class="cls-34" d="m61.3,28.8l-1.7-1c.6.4,1,1.1,1,2.2,0,2.2-1.6,4.9-3.5,6-1,.6-1.9.6-2.5.2l1.7,1c.6.4,1.5.3,2.5-.2,1.9-1.1,3.5-3.8,3.5-6,0-1.1-.4-1.9-1-2.2Z"/>
        <path class="cls-34" d="m61.9,22.2c-1.4-.8-3.4-.7-5.5.5-4.3,2.5-7.8,8.5-7.8,13.5,0,2.5.9,4.2,2.3,5l2.7,1.6c-1.4-.8-2.3-2.5-2.3-5,0-4.9,3.5-11,7.8-13.5,2.2-1.2,4.1-1.4,5.5-.5-.9-.6-1.8-1.1-2.7-1.6Z"/>
        <path class="cls-6" d="m59,24.3c4.3-2.5,7.8-.5,7.8,4.5s-3.5,11-7.8,13.5-7.8.5-7.8-4.5,3.5-11,7.8-13.5Zm-.1,12.8c1.9-1.1,3.5-3.8,3.5-6s-1.6-3.1-3.5-2-3.5,3.8-3.5,6,1.5,3.1,3.5,2h0Z"/>
      </g>
      <g class="cls-9">
        <polygon class="cls-30" points="80.3 110.8 63.5 101.1 63.5 87.6 80.3 97.3 80.3 110.8"/>
        <polygon class="cls-5" points="80.3 97.3 63.5 87.6 69 77.2 85.8 87 80.3 97.3"/>
        <polygon class="cls-44" points="85.8 87 69 77.2 71.7 75.7 88.5 85.5 85.8 87"/>
        <polygon class="cls-6" points="88.5 85.5 88.5 106.1 80.3 110.8 80.3 97.3 85.8 87 88.5 85.5"/>
      </g>
      <g>
        <g>
          <g>
            <path class="cls-32" d="m64.6,93.2c.4-.2,1-.2,1.7.2,1.3.8,2.4,2.6,2.4,4.1,0,.7-.3,1.3-.7,1.5-.5.3-.8.5-1.2.7.4-.2.7-.8.7-1.5,0-1.5-1.1-3.3-2.4-4.1-.7-.4-1.3-.4-1.7-.2.4-.2.7-.4,1.2-.7Z"/>
            <path class="cls-10" d="m65,94.1c-1.3-.8-2.4-.1-2.4,1.4s1.1,3.3,2.4,4.1c1.3.8,2.4.1,2.4-1.4,0-1.5-1.1-3.3-2.4-4.1Z"/>
          </g>
          <g>
            <path class="cls-32" d="m63.3,94.4c.4-.2.9-.2,1.5.2,1.2.7,2.1,2.3,2.1,3.7,0,.7-.2,1.1-.6,1.4-.4.2-.7.4-1.1.7.4-.2.6-.7.6-1.4,0-1.4-.9-3-2.1-3.7-.6-.3-1.1-.4-1.5-.1.4-.4.7-.6,1.1-.8Z"/>
            <path class="cls-10" d="m63.7,95.2c-1.2-.7-2.1-.1-2.1,1.2,0,1.4.9,3,2.1,3.7s2.1.1,2.1-1.2c0-1.4-.9-3-2.1-3.7Z"/>
          </g>
          <g>
            <path class="cls-32" d="m62.2,95.5c.3-.2.8-.2,1.3.1,1,.6,1.9,2,1.9,3.2,0,.6-.2,1-.5,1.2-.4.2-.6.4-1,.6.3-.2.5-.6.5-1.2,0-1.2-.8-2.6-1.9-3.2-.5-.3-1-.3-1.3-.1.4-.3.6-.4,1-.6Z"/>
            <path class="cls-10" d="m62.5,96.2c-1-.6-1.9-.1-1.9,1.1s.8,2.6,1.9,3.2c1,.6,1.9.1,1.9-1.1,0-1.2-.8-2.6-1.9-3.2Z"/>
          </g>
        </g>
        <g>
          <g>
            <path class="cls-23" d="m57.2,98c-.5-1.7-.6-4,.9-4.9-.3.2-.7.4-1,.6-1.8,1-1.4,4-.5,6h0c.7,1.5,1.7,2.9,3,3.8,1.6,1.2,2.9,1.1,3.6.7.2-.1.3-.2.5-.3h.1c.3-.1.1-.1.5-.3-2.3,1.2-5.9-1.7-7.1-5.6Z"/>
            <path class="cls-11" d="m60.7,93.5c2.4,1.4,4.3,4.7,4.3,7.4s-1.9,3.8-4.3,2.5c-2.4-1.4-4.3-4.7-4.3-7.4s1.9-3.9,4.3-2.5Zm1,3.7l-1.7-3.4c-1.5-.5-2.7.1-3,1.7l4.7,1.7h0Zm-1.7,5l1.7-3.4-4.7-1.7c.3,1.9,1.5,3.9,3,5.1h0Zm1.4.8c1.5.5,2.7-.1,3-1.7l-1.2-1.7-1.8,3.4h0Z"/>
            <path class="cls-23" d="m66,100.5c-.4-4.9-5.4-9.8-8.3-8.1l-1,.6c3-1.7,8.1,3.4,8.3,8.4.1,1.3-.3,2.8-1.4,3.5.3-.2.7-.4,1-.6,1.2-.8,1.5-2.4,1.4-3.8Z"/>
            <path class="cls-43" d="m60.1,93.3c2.7,1.5,4.9,5.3,4.8,8.4,0,3.1-2.2,4.3-4.9,2.8-2.7-1.5-4.9-5.3-4.8-8.4,0-3.1,2.2-4.3,4.9-2.8Zm0,10.5c2.4,1.4,4.3.3,4.3-2.5s-1.9-6-4.3-7.4-4.3-.3-4.3,2.5,1.9,6.1,4.3,7.4h0Z"/>
            <g>
              <path class="cls-33" d="m62,97.1c.2-.1.4-.1.6.1.5.3.8.9.8,1.4,0,.3-.1.4-.2.5-.2.1-.3.2-.5.3.1-.1.2-.3.2-.5,0-.5-.4-1.2-.8-1.4-.2-.1-.4-.1-.6-.1.2-.1.4-.2.5-.3Z"/>
              <path class="cls-10" d="m62.1,97.4c-.5-.3-.8-.1-.8.5,0,.5.4,1.2.8,1.4.5.3.8.1.8-.5.1-.5-.3-1.1-.8-1.4Z"/>
            </g>
          </g>
          <g>
            <path class="cls-33" d="m59.4,103.4c.1-.1.2,0,.4,0,.3.2.5.6.5.9,0,.2-.1.3-.2.3-.1.1-2.8,1.6-2.9,1.7.1-.1.2-.2.2-.3,0-.3-.2-.7-.5-.9-.1-.1-.3-.1-.4,0,.1-.1,2.8-1.7,2.9-1.7Z"/>
            <path class="cls-10" d="m56.8,105.1c-.3-.2-.5,0-.5.3s.2.7.5.9.5,0,.5-.3c.1-.4-.2-.8-.5-.9Z"/>
          </g>
        </g>
      </g>
      <g class="cls-9">
        <polygon class="cls-3" points="103.8 82.4 108.8 83.1 102.5 98.4 97.5 97.7 103.8 82.4"/>
        <polygon class="cls-32" points="91.8 75.5 96.8 76.1 108.8 83.1 103.8 82.4 91.8 75.5"/>
        <polygon class="cls-36" points="103.8 82.4 97.5 97.7 85.5 90.8 91.8 75.5 103.8 82.4"/>
      </g>
      <g>
        <g>
          <path class="cls-37" d="m14.6,28.9c.6-.3,1.3-.3,2.2.2,1.7,1,3,3.3,3,5.2,0,1-.3,1.6-.9,1.9-.6.3-1.2.7-1.8,1,.5-.3.9-1,.9-1.9,0-1.9-1.3-4.3-3-5.2-.8-.5-1.6-.5-2.2-.2.6-.3,1.2-.6,1.8-1Z"/>
          <path class="cls-4" d="m15,30.2c-1.7-1-3-.2-3,1.7s1.3,4.3,3,5.2c1.7,1,3,.2,3-1.7s-1.4-4.2-3-5.2Z"/>
        </g>
        <g>
          <path class="cls-33" d="m14.2,32.5c.2-.1.4-.1.6.1.5.3.9,1,.9,1.6,0,.3-.1.5-.3.6s-.4.2-.5.3c.2-.1.3-.3.3-.6,0-.6-.4-1.3-.9-1.6-.3-.1-.5-.2-.6-.1.2-.1.4-.2.5-.3Z"/>
          <path class="cls-10" d="m14.4,32.9c-.5-.3-.9-.1-.9.5s.4,1.3.9,1.6c.5.3.9.1.9-.5,0-.6-.4-1.3-.9-1.6Z"/>
        </g>
      </g>
      <g>
        <path class="cls-37" d="m23.7,34.2c.4-.2,1-.2,1.7.2,1.3.7,2.3,2.6,2.3,4.1,0,.7-.3,1.3-.7,1.5-.5.3-.9.5-1.4.8.4-.2.7-.8.7-1.5,0-1.5-1-3.3-2.3-4.1-.7-.4-1.2-.4-1.7-.2.4-.3.9-.6,1.4-.8Z"/>
        <path class="cls-4" d="m24,35.1c-1.3-.7-2.4-.1-2.4,1.3,0,1.5,1,3.3,2.3,4.1s2.4.1,2.4-1.3c0-1.5-1-3.3-2.3-4.1Z"/>
      </g>
      <g>
        <g class="cls-9">
          <g class="cls-9">
            <g class="cls-22">
              <g class="cls-9">
                <path class="cls-3" d="m93.2,81l.6.3c.1,0,.1.1.2.1l-.6-.3c-.1,0-.2,0-.2-.1h0Z"/>
              </g>
            </g>
          </g>
          <g class="cls-9">
            <g class="cls-15">
              <g class="cls-9">
                <path class="cls-2" d="m93.4,81.2l.6.3c.9.5,1.2,1.9.6,3.1-.6,1.1-1.7,1.6-2.6,1.3l-.6-.3c.9.4,2-.2,2.6-1.3.6-1.2.3-2.6-.6-3.1h0Z"/>
              </g>
            </g>
          </g>
          <path class="cls-13" d="m93.4,81.2c.9.5,1.2,1.9.6,3.1s-1.9,1.7-2.8,1.2-1.2-1.9-.6-3.1c.6-1.3,1.8-1.8,2.8-1.2Z"/>
        </g>
        <g class="cls-9">
          <g class="cls-9">
            <g class="cls-7">
              <g class="cls-9">
                <path class="cls-3" d="m98.1,83.7l.6.3c.1,0,.1.1.2.1l-.6-.3c-.1,0-.1-.1-.2-.1h0Z"/>
              </g>
            </g>
          </g>
          <g class="cls-9">
            <g class="cls-29">
              <path class="cls-28" d="m98.3,83.8l.6.3c.9.5,1.2,1.9.6,3.1-.6,1.1-1.7,1.6-2.6,1.3l-.6-.3c.9.4,2-.2,2.6-1.3.6-1.2.3-2.6-.6-3.1h0Z"/>
            </g>
          </g>
          <path class="cls-42" d="m98.3,83.8c.9.5,1.2,1.9.6,3.1s-1.9,1.7-2.8,1.2-1.2-1.9-.6-3.1c.6-1.2,1.9-1.8,2.8-1.2Z"/>
        </g>
      </g>
      <g class="cls-9">
        <g class="cls-9">
          <g class="cls-16">
            <g class="cls-9">
              <path class="cls-3" d="m22,11.9l.6.3c.1,0,.1.1.2.1l-.6-.3c-.1,0-.2,0-.2-.1h0Z"/>
            </g>
          </g>
        </g>
        <g class="cls-9">
          <g class="cls-40">
            <g class="cls-9">
              <path class="cls-4" d="m22.2,12l.6.3c.9.5,1.2,1.9.6,3.1-.6,1.1-1.7,1.6-2.6,1.3l-.6-.3c.9.4,2-.2,2.6-1.3.6-1.1.3-2.5-.6-3.1h0Z"/>
            </g>
          </g>
        </g>
        <path class="cls-37" d="m22.2,12c.9.5,1.2,1.9.6,3.1-.6,1.2-1.9,1.7-2.8,1.2-.9-.5-1.2-1.9-.6-3.1.6-1.2,1.8-1.7,2.8-1.2Z"/>
      </g>
      <g class="cls-9">
        <g class="cls-9">
          <g class="cls-12">
            <g class="cls-9">
              <path class="cls-3" d="m29.4,16.3l.6.3c.1,0,.1.1.2.1l-.6-.3c0-.1-.1-.1-.2-.1h0Z"/>
            </g>
          </g>
        </g>
        <g class="cls-9">
          <g class="cls-14">
            <path class="cls-4" d="m29.6,16.4l.6.3c.9.5,1.2,1.9.6,3.1-.6,1.1-1.7,1.6-2.6,1.3l-.6-.3c.9.4,2-.2,2.6-1.3.7-1.2.4-2.6-.6-3.1h0Z"/>
          </g>
        </g>
        <path class="cls-37" d="m29.6,16.4c.9.5,1.2,1.9.6,3.1-.6,1.2-1.9,1.7-2.8,1.2-.9-.5-1.2-1.9-.6-3.1.6-1.3,1.9-1.8,2.8-1.2Z"/>
      </g>
      <g class="cls-9">
        <g class="cls-9">
          <g class="cls-35">
            <g class="cls-9">
              <path class="cls-3" d="m37.9,21.2l.6.3c.1,0,.1.1.2.1l-.6-.3c-.1,0-.1-.1-.2-.1h0Z"/>
            </g>
          </g>
        </g>
        <g class="cls-9">
          <g class="cls-20">
            <path class="cls-4" d="m38.1,21.3l.6.3c.9.5,1.2,1.9.6,3.1-.6,1.1-1.7,1.6-2.6,1.3l-.6-.3c.9.4,2-.2,2.6-1.3.6-1.2.4-2.6-.6-3.1h0Z"/>
          </g>
        </g>
        <path class="cls-37" d="m38.1,21.3c.9.5,1.2,1.9.6,3.1-.6,1.2-1.9,1.7-2.8,1.2-.9-.5-1.2-1.9-.6-3.1.6-1.2,1.9-1.7,2.8-1.2Z"/>
      </g>
    </g>
  </g>
</svg>