<?xml version="1.0" encoding="UTF-8"?>
<svg id="Layer_2" data-name="Layer 2" xmlns="http://www.w3.org/2000/svg" xmlns:xlink="http://www.w3.org/1999/xlink" viewBox="0 0 159.1 175.44">
  <defs>
    <style>
      .cls-1 {
        fill: #3e3f41;
      }

      .cls-2 {
        fill: #3c3e3f;
      }

      .cls-3 {
        fill: #ffa6a6;
      }

      .cls-4 {
        fill: #4c4c4c;
      }

      .cls-5 {
        fill: #c8c9ca;
      }

      .cls-6 {
        clip-path: url(#clippath-2);
      }

      .cls-7, .cls-8 {
        isolation: isolate;
      }

      .cls-9 {
        fill: #f22;
      }

      .cls-10 {
        fill: #75787a;
      }

      .cls-11 {
        clip-path: url(#clippath-6);
      }

      .cls-12 {
        fill: #5aae13;
      }

      .cls-13 {
        fill: #696b6d;
      }

      .cls-14 {
        fill: #303132;
      }

      .cls-15 {
        clip-path: url(#clippath-7);
      }

      .cls-16 {
        clip-path: url(#clippath-1);
      }

      .cls-17 {
        clip-path: url(#clippath-4);
      }

      .cls-18 {
        fill: #e25656;
      }

      .cls-19 {
        fill: #656769;
      }

      .cls-20 {
        fill: #cb8704;
      }

      .cls-21 {
        fill: #414141;
      }

      .cls-22 {
        fill: #c43d3d;
      }

      .cls-23 {
        clip-path: url(#clippath-9);
      }

      .cls-8 {
        fill: #0f0f0f;
        opacity: .13;
      }

      .cls-24 {
        clip-path: url(#clippath);
      }

      .cls-25 {
        fill: #3f4041;
      }

      .cls-26 {
        fill: none;
      }

      .cls-27 {
        fill: #e79f01;
      }

      .cls-28 {
        clip-path: url(#clippath-3);
      }

      .cls-29 {
        clip-path: url(#clippath-8);
      }

      .cls-30 {
        fill: #f90d0d;
      }

      .cls-31 {
        fill: #3e4041;
      }

      .cls-32 {
        clip-path: url(#clippath-5);
      }

      .cls-33 {
        fill: #fc8686;
      }

      .cls-34 {
        clip-path: url(#clippath-10);
      }

      .cls-35 {
        fill: #e50303;
      }

      .cls-36 {
        fill: #707375;
      }
    </style>
    <clipPath id="clippath">
      <path class="cls-26" d="m144,2.81c-.3,0-.6.2-.9.7-.5.9-.5,2.4.1,3.4.3.5.6.7,1,.7-7.4.3-3.3.2-10.6.5h0c-.4,0-.7-.2-1-.7-.5-.9-.6-2.5-.1-3.4.2-.4.6-.7.9-.7,7.4-.4,3.3-.2,10.6-.5Z"/>
    </clipPath>
    <clipPath id="clippath-1">
      <path class="cls-26" d="m133.2,1.91c-.5,0-1,.4-1.4,1.2-.7,1.5-.5,4,.4,5.5.5.8,1.1,1.1,1.7,1.1-11.9,1.1-9.2.9-21.1,2h0c-.6.1-1.2-.3-1.7-1.1-1-1.5-1.1-3.9-.4-5.5.4-.7.8-1.1,1.4-1.2,11.9-1.1,9.1-.9,21.1-2Z"/>
    </clipPath>
    <clipPath id="clippath-2">
      <path class="cls-26" d="m108.4,4.11c-.6.4-1,1.1-1,2.3,0,2.3,1.7,5.2,3.8,6.4,1.1.6,2,.7,2.7.3-13.8,8.4-27.6,16.9-41.4,25.3h0c-.7.4-1.6.3-2.7-.3-2-1.2-3.7-4.1-3.8-6.4,0-1.1.4-1.9,1-2.3,13.8-8.4,27.6-16.9,41.4-25.3Z"/>
    </clipPath>
    <clipPath id="clippath-3">
      <path class="cls-26" d="m63.9,60.61l-7-4c4.7-3.6,8.4-10.5,8.3-16.2,0-1.1-.1-2-.4-2.8l7,4c.2.8.4,1.8.4,2.8,0,5.7-3.6,12.6-8.3,16.2Z"/>
    </clipPath>
    <clipPath id="clippath-4">
      <path class="cls-26" d="m62.3,34.01c2.3,1.3,4.6,2.7,7,4,.6.3,1.1.8,1.5,1.3l-7-4c-.4-.5-.9-1-1.5-1.3Z"/>
    </clipPath>
    <clipPath id="clippath-5">
      <path class="cls-26" d="m55.1,62.41c-1.2-.7-2.3-1.3-3.5-2s-2.3-1.3-3.5-2c1.6.9,3.7.9,6.1-.2l7,4c-2.4,1.1-4.5,1.1-6.1.2Z"/>
    </clipPath>
    <clipPath id="clippath-6">
      <path class="cls-26" d="m59.6,54.71c-2.3-1.3-4.6-2.7-7-4-.7-.4-1.1-1.2-1.1-2.4v-.2l7,4v.2c0,1.2.4,2,1.1,2.4Z"/>
    </clipPath>
    <clipPath id="clippath-7">
      <path class="cls-26" d="m57.9,41.71c1.2.7,2.3,1.3,3.5,2s2.3,1.3,3.5,2c-.7-.4-1.6-.3-2.6.3-1,.6-1.9,1.6-2.6,2.7l-7-4c.7-1.1,1.6-2.1,2.6-2.7,1-.7,1.9-.7,2.6-.3Z"/>
    </clipPath>
    <clipPath id="clippath-8">
      <path class="cls-26" d="m68.5,139.81c-2.3-1.3-4.6-2.7-7-4-3-1.7-4.9-5.5-4.9-10.7,0-2.4.4-4.9,1-7.4,1.6-5.8,3-11.9,1.6-16.1-1.7-5-7.2-23.1-9.1-29-1.4-4.4-5-6.5-7.5-9.8-1.3-1.8-2.1-4.3-2.1-7.5,0-9.3,6.5-20.6,14.6-25.3,4.1-2.4,7.8-2.6,10.4-1h0c1.2.7,2.3,1.3,3.5,2s2.3,1.3,3.5,2c-2.7-1.5-6.4-1.3-10.4,1-8.1,4.7-14.6,16-14.6,25.3,0,3.2.8,5.7,2.1,7.5,2.5,3.3,6.1,5.3,7.5,9.8,1.9,5.8,7.4,23.9,9.1,29,1.4,4.1,0,10.3-1.6,16.1-.7,2.5-1,5-1,7.4,0,5.2,1.9,8.9,4.9,10.7Z"/>
    </clipPath>
    <clipPath id="clippath-9">
      <path class="cls-26" d="m66.7,135.21c-2.2,3.5-5,5-8.9,5.9,6.5-1.3,9.4-15.1,4.7-23.4-1.4-2.4-3.1-3.8-4.9-4.2,1.5.3,3,.7,4.8,1.7,6.9,4,7.8,14.2,4.3,20Z"/>
    </clipPath>
    <clipPath id="clippath-10">
      <path class="cls-26" d="m57.1,141.21c-11.2.5-22.5,1-33.7,1.4,2.1-.1,4.2-1.5,5.8-4.2,3.4-5.8,3.5-15.3.1-21.3-1.7-3-3.9-4.5-6.2-4.6l33.8,1c2.1.1,4.1,1.5,5.7,4.2,4.9,8.7,1.4,23.2-5.5,23.5Z"/>
    </clipPath>
  </defs>
  <g id="Layer_1-2" data-name="Layer 1">
    <g>
      <g>
        <path class="cls-4" d="m105.6,146.11l-25.8,15c-12.2,7.1-32.2,7.1-44.5,0l-25.9-15C3.2,142.51.1,137.81.1,133.11c0,11-.1-2-.1,9,0,4.7,3.1,9.4,9.3,13l25.9,15c12.3,7.1,32.2,7.1,44.5,0l25.8-15c6.1-3.5,9.1-8.2,9.1-12.8,0-11,.1,2,.1-9,0,4.6-3,9.2-9.1,12.8Z"/>
        <path class="cls-21" d="m105.5,120.31c12.3,7.1,12.4,18.7.1,25.8l-25.8,15c-12.2,7.1-32.2,7.1-44.5,0l-25.9-15c-12.3-7.1-12.4-18.7-.1-25.8l25.8-15c12.2-7.1,32.2-7.1,44.5,0l25.9,15Z"/>
      </g>
      <g>
        <path d="m39.5,117.21l-1.4-.3c1.8-7,20.1-17.2,20.9-17.6l.7,1.3c-.2,0-18.6,10.1-20.2,16.6Z"/>
        <path class="cls-12" d="m33.6,113.61l-1.3-.7c5.2-9.7,27.2-10.7,28.1-10.7l.1,1.4c-.2,0-22,1-26.9,10Z"/>
        <g>
          <path class="cls-1" d="m50.9,25.41c-1.3-.8-3.2-.7-5.2.5l-11.5,6.6c-4,2.3-7.3,8-7.3,12.6v4c0,2.3.8,3.9,2.1,4.7,3.1,1.8,6.2,3.6,9.3,5.4-1.3-.8-2.1-2.4-2.1-4.7v-4c0-4.6,3.2-10.3,7.3-12.6l11.5-6.6c2-1.2,3.9-1.3,5.2-.5-3.1-1.8-6.2-3.6-9.3-5.4Z"/>
          <path class="cls-14" d="m55,31.31c4-2.3,7.3-.5,7.3,4.2v4c0,4.6-3.2,10.3-7.3,12.6l-11.5,6.6c-4,2.3-7.3.5-7.3-4.2v-4c0-4.6,3.2-10.3,7.3-12.6l11.5-6.6Z"/>
        </g>
        <path class="cls-10" d="m135.7,21.21c-.1,0-.1-.1-.2-.1h-.1l-.1-.1v-.1l-.1-.1v-.1c0-.1-.1-.1-.1-.2h0c0-.1-.1-.2-.1-.3v-.4c0-.2.1-.4.2-.5l-1.8,1c-.1.1-.2.3-.2.5v.4c0,.1.1.2.1.3h0c0,.1.1.1.1.2v.1c0,.1.1.1.1.2h0l.1.1h.1c.1,0,.1.1.2.1.2.1.4.1.6.1l1.8-1c-.2.1-.4.1-.6-.1Z"/>
        <path class="cls-10" d="m133.9,15.81c-.1,0-.1-.1-.2-.1l-.1-.1-.1-.1v-.1l-.1-.1v-.1c0-.1-.1-.1-.1-.2h0c0-.1-.1-.2-.1-.3v-.4c0-.2.1-.4.2-.5l-1.8,1c-.1.1-.2.3-.2.5v.4c0,.1,0,.2.1.3h0c0,.1.1.1.1.2v.1c0,.1.1.1.1.2h0l.1.1h0c.1,0,.1.1.2.1.2.1.4.1.6.1.6-.3,1.2-.7,1.8-1-.1.1-.3.1-.5,0Z"/>
        <polygon class="cls-13" points="133.8 15.01 135.6 13.91 139.3 30.21 137.6 31.21 133.8 15.01"/>
        <path class="cls-10" d="m134.6,11.51c.1,0,.1-.1.2-.1-.1.1-.3.1-.6-.1-.1,0-.1-.1-.2-.1l-.1-.1-.1-.1v-.1s-.1-.1-.1-.2v-.1c0-.1-.1-.1-.1-.2h0c0-.1-.1-.2-.1-.3v-.4c0-.2.1-.4.2-.5l-1.8,1c-.1.1-.2.3-.2.5v.4c0,.1.1.2.1.3h0c0,.1.1.1.1.2v.1c0,.1.1.1.1.2h0l.1.1h0c.1,0,.1.1.2.1.2.1.4.1.6.1.3-.2.6-.3.9-.5h.1l.4-.3c.1.2.2.1.3.1Z"/>
        <path class="cls-10" d="m136.4,8.91c-.1,0-.1-.1-.2-.1h-.1l-.1-.1v-.1l-.1-.1v-.1c0-.1-.1-.1-.1-.2h0c0-.1-.1-.2-.1-.3v-.4c0-.2.1-.4.2-.5-.6.3-1.2.7-1.8,1-.1.1-.2.3-.2.5v.4c0,.1,0,.2.1.3h0c0,.1.1.1.1.2v.1c0,.1.1.1.1.2h0l.1.1h0c.1,0,.1.1.2.1.2.1.4.1.6.1.6-.3,1.2-.7,1.8-1,0,0-.2,0-.5-.1Z"/>
        <polygon class="cls-2" points="137.6 10.61 139.4 9.51 135.6 13.91 133.8 15.01 137.6 10.61"/>
        <path class="cls-10" d="m154.2,31.91c-.1,0-.1-.1-.2-.1h-.1l-.1-.1v-.1s-.1-.1-.1-.2v-.1c0-.1-.1-.1-.1-.2h0c0-.1-.1-.2-.1-.3v-.4c0-.2.1-.4.2-.5l-1.8,1c-.1.1-.2.3-.2.5v.4c0,.1,0,.2.1.3h0c0,.1.1.1.1.2v.1c0,.1.1.1.1.2h0l.1.1h.1c.1,0,.1.1.2.1.2.1.4.1.6.1.6-.3,1.2-.7,1.8-1-.2.1-.4.1-.6,0Z"/>
        <path class="cls-10" d="m156.1,28.61c-.1,0-.1-.1-.2-.1h-.1l-.1-.1v-.1s-.1-.1-.1-.2v-.1c0-.1-.1-.1-.1-.2h0c0-.1-.1-.2-.1-.3v-.4c0-.2.1-.4.2-.5l-1.8,1c-.1.1-.2.3-.2.5v.4c0,.1.1.2.1.3h0c0,.1.1.1.1.2v.1c0,.1.1.1.1.2h0l.1.1h0c.1,0,.1.1.2.1.2.1.4.1.6.1.6-.3,1.2-.7,1.8-1-.1.1-.3.1-.5,0Z"/>
        <path class="cls-10" d="m155.8,23.81c-.1,0-.1-.1-.2-.1l-.1-.1-.1-.1-.1-.1-.1-.1v-.1c0-.1-.1-.1-.1-.2h0c0-.1-.1-.2-.1-.3v-.4c0-.2.1-.4.2-.5l-1.8,1c-.1.1-.2.3-.2.5v.4c0,.1.1.2.1.3h0c0,.1.1.1.1.2v.1c0,.1.1.1.1.2h0l.1.1h0c.1,0,.1.1.2.1.2.1.4.1.6.1.6-.3,1.2-.7,1.8-1,0,.1-.2.1-.4,0Z"/>
        <polygon class="cls-31" points="157.3 28.61 159.1 27.51 152 37.51 150.2 38.51 157.3 28.61"/>
        <path class="cls-10" d="m153.5,18.81c-.1,0-.1-.1-.2-.1h-.1l-.1-.1v-.1s-.1-.1-.1-.2v-.1c0-.1-.1-.1-.1-.2h0c0-.1-.1-.2-.1-.3v-.4c0-.2.1-.4.2-.5-.6.3-1.2.7-1.8,1-.1.1-.2.3-.2.5v.4c0,.1,0,.2.1.3h0c0,.1.1.1.1.2v.1c0,.1.1.1.1.1h0l.1.1.1.1c.1,0,.1.1.2.1.2.1.4.1.6.1l1.8-1c-.1.1-.3.1-.6,0Z"/>
        <polygon class="cls-36" points="150.3 10.41 152.1 9.41 159.1 27.51 157.3 28.61 150.3 10.41"/>
        <path class="cls-25" d="m150.3,10.41l7,18.1-7.1,10-1.5-.8,3.8-11.9-3.7-8.8-11.2-6.5-3.8,4.4,3.8,16.3-1.5-.8-7-18.1,7.1-10,14.1,8.1Zm-17.9,2c.4.2.8,0,.8-.4,0-.5-.3-1.1-.8-1.3-.4-.2-.8,0-.8.4,0,.4.4,1,.8,1.3h0Zm20.8,11.1c0,.5.3,1.1.8,1.3.4.2.8,0,.8-.4,0-.5-.3-1.1-.8-1.3-.4-.3-.8-.1-.8.4h0Zm1.1,6.1c.4.2.8,0,.8-.4,0-.5-.3-1.1-.8-1.3-.4-.2-.8-.1-.8.4,0,.5.3,1.1.8,1.3h0Zm-2.5-9.8c.4.2.8,0,.8-.4,0-.5-.3-1.1-.8-1.3-.4-.2-.8,0-.8.4,0,.4.3,1,.8,1.3h0Zm.6,13.1c.4.2.8,0,.8-.4,0-.5-.3-1.1-.8-1.3-.4-.2-.8-.1-.8.4,0,.5.4,1.1.8,1.3h0Zm-18.5-12.4c-.4-.2-.8,0-.8.4,0,.5.3,1.1.8,1.3.4.2.8,0,.8-.4,0-.5-.3-1.1-.8-1.3h0Zm.8-10.6c.4.2.8.1.8-.4s-.3-1.1-.8-1.3c-.4-.2-.8,0-.8.4,0,.5.3,1.1.8,1.3h0Zm-2.6,6.9c.4.2.8,0,.8-.4,0-.5-.3-1.1-.8-1.3-.4-.2-.8,0-.8.4,0,.5.4,1.1.8,1.3h0Z"/>
        <polygon class="cls-19" points="136.2 2.31 138 1.21 152.1 9.41 150.3 10.41 136.2 2.31"/>
        <g>
          <path class="cls-3" d="m109.8.31c-.8-.5-2-.4-3.3.3-2.6,1.5-4.6,5.1-4.6,8,0,1.5.5,2.5,1.4,3s1.8,1.1,2.7,1.6c-.8-.5-1.4-1.5-1.4-3,0-2.9,2.1-6.5,4.6-8,1.3-.7,2.5-.8,3.3-.3-.9-.6-1.8-1.1-2.7-1.6Z"/>
          <path class="cls-35" d="m109.2,2.21c2.6-1.5,4.7-.3,4.7,2.7s-2.1,6.5-4.6,8c-2.6,1.5-4.7.3-4.7-2.7s2.1-6.5,4.6-8Z"/>
        </g>
        <g>
          <g>
            <g class="cls-7">
              <g class="cls-24">
                <g class="cls-7">
                  <path class="cls-10" d="m144,2.81l-10.6.5c-.3,0-.6.2-.9.7-.2.3-.3.8-.3,1.2l10.6-.5c0-.5.1-.9.3-1.2.3-.5.6-.7.9-.7h0Z"/>
                  <path class="cls-5" d="m142.8,4.71l-10.6.5c0,.4,0,.9.1,1.3l10.6-.5c-.1-.4-.1-.9-.1-1.3h0Z"/>
                  <path class="cls-10" d="m142.9,6.01l-10.6.5c.1.3.2.6.3.8.3.5.6.7,1,.7l10.6-.5c-.4,0-.7-.2-1-.7-.1-.2-.2-.5-.3-.8h0Z"/>
                </g>
              </g>
            </g>
            <path class="cls-9" d="m145,3.51c-.3-.5-.6-.7-1-.7-7.4.3-3.3.2-10.6.5,1.2,0,1.9,2.6,1.1,4.1-.2.4-.6.7-.9.7,7.4-.3,3.3-.2,10.6-.5,1.2-.1,1.7-2.7.8-4.1Z"/>
            <path class="cls-1" d="m134.4,3.91c.5.9.6,2.5.1,3.4s-1.3.9-1.9,0c-.5-.9-.6-2.5-.1-3.4.5-.9,1.4-.9,1.9,0Z"/>
          </g>
          <path class="cls-8" d="m134.8,5.91c0,.5-.1,1-.3,1.4-.2.4-.6.7-.9.7,7.4-.3,3.3-.2,10.6-.5.7,0,1.2-1,1.2-2.1h-.2c-7.3.3-3.4.2-10.4.5Z"/>
        </g>
        <g>
          <g>
            <g class="cls-7">
              <g class="cls-16">
                <g class="cls-7">
                  <path class="cls-10" d="m133.2,1.91l-21.1,2c-.5,0-1,.4-1.4,1.2-.3.6-.4,1.3-.4,2l21.1-2c0-.7.2-1.4.4-2,.3-.8.8-1.2,1.4-1.2h0Z"/>
                  <path class="cls-5" d="m131.3,5.11l-21.1,2c0,.7.1,1.5.3,2.1l21.1-2c-.2-.6-.3-1.4-.3-2.1h0Z"/>
                  <path class="cls-10" d="m131.6,7.21l-21.1,2c.1.5.3.9.6,1.3.5.8,1.1,1.1,1.7,1.1l21.1-2c-.6.1-1.2-.3-1.7-1.1-.2-.3-.4-.8-.6-1.3h0Z"/>
                </g>
              </g>
            </g>
            <path class="cls-9" d="m134.8,3.01c-.5-.8-1.1-1.1-1.7-1.1-11.9,1.1-9.2.9-21.1,2,1.9-.2,3.3,4,2.1,6.5-.3.7-.8,1.1-1.4,1.2,11.9-1.1,9.2-.9,21.1-2,2-.2,2.5-4.4,1-6.6Z"/>
            <path class="cls-20" d="m113.7,4.91c1,1.5,1.1,3.9.4,5.5-.7,1.5-2.1,1.6-3.1.1s-1.1-3.9-.4-5.5c.8-1.5,2.2-1.5,3.1-.1Z"/>
          </g>
          <path class="cls-8" d="m114.6,9.01c-.1.5-.2,1-.4,1.4-.4.7-.8,1.1-1.4,1.2,11.9-1.1,9.2-.9,21.1-2,1-.1,1.6-1.2,1.8-2.6-.1,0-.2.1-.3.1-11.9,1.1-9.3.8-20.8,1.9Z"/>
        </g>
        <g>
          <g>
            <path class="cls-1" d="m111.1,4.41c2,1.2,3.7,4.1,3.8,6.4s-1.6,3.2-3.6,1.9c-2-1.2-3.7-4.1-3.8-6.4-.1-2.2,1.6-3.1,3.6-1.9Z"/>
            <g class="cls-7">
              <g class="cls-6">
                <g class="cls-7">
                  <path class="cls-10" d="m108.4,4.11l-41.4,25.3c-.6.4-1,1.1-1,2.3,0,.9.3,1.8.7,2.7l41.4-25.3c-.4-.9-.6-1.8-.7-2.7,0-1.2.4-1.9,1-2.3h0Z"/>
                  <path class="cls-5" d="m108.1,9.11l-41.4,25.3c.4.9,1,1.7,1.6,2.4l41.4-25.3c-.6-.7-1.2-1.5-1.6-2.4h0Z"/>
                  <path class="cls-10" d="m109.7,11.51l-41.4,25.3c.5.5,1,.9,1.5,1.2,1.1.6,2,.7,2.7.3l41.4-25.3c-.7.4-1.6.3-2.7-.3-.5-.3-1-.7-1.5-1.2h0Z"/>
                </g>
              </g>
            </g>
            <path class="cls-9" d="m111.1,4.41c-1.1-.6-2-.7-2.7-.3-13.8,8.4-27.6,16.9-41.4,25.3,2.3-1.4,6.4,3,6.4,6.7,0,1.1-.4,1.9-1,2.3,13.8-8.4,27.6-16.9,41.4-25.3,2.3-1.4.4-6.8-2.7-8.7Z"/>
            <path class="cls-35" d="m69.7,29.71c2,1.2,3.7,4.1,3.8,6.4,0,2.3-1.6,3.2-3.6,2s-3.7-4.1-3.8-6.4c-.1-2.4,1.6-3.2,3.6-2Z"/>
          </g>
          <path class="cls-8" d="m114.2,8.01c-.1.2-.3.4-.6.5-13.6,8.3-27.2,16.6-40.7,24.9.4.9.6,1.7.6,2.6,0,1.1-.4,1.9-1,2.3,13.8-8.4,27.6-16.9,41.4-25.3,1.3-.8,1.2-2.9.3-5Z"/>
        </g>
        <g>
          <path class="cls-3" d="m80.8,93.81l-2.8-8.6c-.2-.6-.6-1.1-1-1.4l-7-4c.5.3.8.7,1,1.4l2.8,8.6c.7,2.1-.5,5.5-2.7,7.5-.4.4-.8.7-1.2.9-1.1.6-2.2.7-2.9.3l7,4c.8.4,1.8.4,2.9-.3.4-.2.8-.5,1.2-.9,2.2-2.1,3.4-5.4,2.7-7.5Z"/>
          <g class="cls-7">
            <g class="cls-28">
              <path class="cls-3" d="m63.9,60.61l-7-4c4.7-3.6,8.4-10.5,8.3-16.2,0-1.1-.1-2-.4-2.8l7,4c.2.8.4,1.8.4,2.8,0,5.7-3.6,12.6-8.3,16.2h0Z"/>
            </g>
          </g>
          <polygon class="cls-3" points="61.2 62.21 54.2 58.21 54.3 50.81 61.2 54.91 61.2 62.21"/>
          <polygon class="cls-33" points="65 45.81 58 41.81 63.8 35.31 70.8 39.41 65 45.81"/>
          <g class="cls-7">
            <g class="cls-17">
              <path class="cls-27" d="m70.8,39.41l-7-4c-.4-.6-.9-1-1.5-1.3l7,4c.6.3,1.1.7,1.5,1.3h0Z"/>
            </g>
          </g>
          <g class="cls-7">
            <g class="cls-32">
              <path class="cls-3" d="m55.1,62.41l-7-4c1.6.9,3.7.9,6.1-.2l7,4c-2.4,1.1-4.5,1.1-6.1.2h0Z"/>
            </g>
          </g>
          <path class="cls-3" d="m63.9,47.21c-2.3-1.3-4.6-2.7-7-4,.4.2.7.8.7,1.5,0,1.5-1,3.2-2.3,4-.6.4-1.2.4-1.6.2,2.3,1.3,4.6,2.7,7,4,.4.2,1,.2,1.6-.2,1.3-.7,2.3-2.5,2.3-4,0-.7-.3-1.2-.7-1.5Z"/>
          <g class="cls-7">
            <g class="cls-11">
              <g class="cls-7">
                <path class="cls-33" d="m59.6,54.71l-7-4c-.7-.4-1.1-1.2-1.1-2.4v-.2l7,4v.2c0,1.2.4,2,1.1,2.4h0Z"/>
              </g>
            </g>
          </g>
          <g class="cls-7">
            <g class="cls-15">
              <path class="cls-3" d="m59.6,48.71l-7-4c.7-1.1,1.6-2.1,2.6-2.7s2-.6,2.6-.3l7,4c-.7-.4-1.6-.3-2.6.3-1,.6-1.9,1.5-2.6,2.7h0Z"/>
            </g>
          </g>
          <polygon class="cls-33" points="53.7 49.01 46.8 44.91 52.7 44.61 59.6 48.71 53.7 49.01"/>
          <g class="cls-7">
            <g class="cls-29">
              <path class="cls-3" d="m68.5,139.81l-7-4c-3-1.7-4.9-5.5-4.9-10.7,0-2.4.4-4.9,1-7.4,1.6-5.8,3-11.9,1.6-16.1-1.7-5-7.2-23.1-9.1-29-1.4-4.4-5-6.5-7.5-9.8-1.3-1.8-2.1-4.3-2.1-7.5,0-9.3,6.5-20.6,14.6-25.3,4.1-2.4,7.8-2.6,10.4-1l7,4c-2.7-1.5-6.4-1.3-10.4,1-8.1,4.7-14.6,16-14.6,25.3,0,3.2.8,5.7,2.1,7.5,2.5,3.3,6.1,5.3,7.5,9.8,1.9,5.8,7.4,23.9,9.1,29,1.4,4.1,0,10.3-1.6,16.1-.7,2.5-1,5-1,7.4,0,5.2,1.9,8.9,4.9,10.7h0Z"/>
            </g>
          </g>
          <path class="cls-30" d="m85.3,82.71c3.4,8.4,11.7,14.5,11.8,26.9,0,10.6-7.4,23.6-16.7,28.9-9.3,5.3-16.8,1.1-16.8-9.6,0-2.4.4-4.9,1-7.4,1.6-5.8,3-11.9,1.6-16.1-1.7-5-7.2-23.1-9.1-29-1.4-4.4-5-6.5-7.5-9.8-1.3-1.8-2.1-4.3-2.1-7.5,0-9.3,6.5-20.6,14.6-25.3,7.7-4.5,14.1-1.3,14.7,7.1.4,5.3-.6,11.6.8,16.1,1.5,5.8,6.6,22.9,7.7,25.7Zm-7.2,18.5c2.2-2,3.4-5.4,2.7-7.5l-2.8-8.6c-.5-1.7-2.2-2.1-3.9-1.1-.4.2-.8.5-1.2.9-2.2,2-3.4,5.4-2.7,7.5l2.8,8.6c.5,1.7,2.2,2.1,3.9,1.1.4-.2.8-.5,1.2-.9h0Zm-15.9-62.5c-3.6,2.1-6.7,6-8.4,10.2l5.9-.3c.7-1.1,1.6-2.1,2.6-2.7,1.1-.6,2.1-.7,2.8-.2l5.8-6.4c-1.9-2.3-5.1-2.7-8.7-.6h0Zm-1,23.5v-7.4c-1.6.4-2.7-.6-2.7-2.5v-.2l-5.9.3c-.3,1.2-.4,2.4-.4,3.6,0,5.9,4,8.5,9,6.2h0Zm2.7-1.6c4.7-3.6,8.4-10.5,8.3-16.2,0-1.1-.1-2-.4-2.8l-5.9,6.6c0,1.6-.8,3.5-2,4.9v7.5h0Zm-1.6-7.9c1.3-.7,2.3-2.5,2.3-4s-1-2.1-2.3-1.3c-1.3.7-2.3,2.5-2.3,4,0,1.4,1,2,2.3,1.3h0Z"/>
        </g>
        <polygon class="cls-35" points="14.5 133.31 33.6 126.01 56.1 138.21 45.4 150.81 14.5 133.31"/>
        <g>
          <path class="cls-3" d="m116.8,3.21c-.8-.5-2-.4-3.3.3-2.6,1.5-4.6,5.1-4.6,8,0,1.5.5,2.5,1.4,3s1.8,1.1,2.7,1.6c-.8-.5-1.4-1.5-1.4-3,0-2.9,2.1-6.5,4.6-8,1.3-.7,2.5-.8,3.3-.3-.9-.6-1.8-1.1-2.7-1.6Z"/>
          <path class="cls-35" d="m116.2,5.11c2.6-1.5,4.7-.3,4.7,2.7s-2.1,6.5-4.6,8c-2.6,1.5-4.7.3-4.7-2.7s2-6.5,4.6-8Z"/>
        </g>
        <polygon class="cls-3" points="43.1 153.71 14.5 137.71 14.5 133.31 43.1 149.41 43.1 153.71"/>
        <g>
          <g class="cls-7">
            <g class="cls-23">
              <path class="cls-35" d="m66.7,135.21c-2.5,4-5.7,5.2-8.9,5.9,6.5-1.3,9.4-15.1,4.7-23.4-1.4-2.4-3.1-3.8-4.9-4.2,2.2.5,7.4,1.6,9.9,7.7,1.9,4.4,1.5,10.2-.8,14h0Z"/>
            </g>
          </g>
          <path class="cls-3" d="m29.3,117.11c-1.7-3.1-4-4.6-6.3-4.6-19.5.5-20.4,29.5.2,30.2,2.2,0,4.3-1.4,6-4.2,3.4-5.9,3.5-15.4.1-21.4Z"/>
          <g class="cls-7">
            <g class="cls-34">
              <path class="cls-9" d="m57.1,141.21l-33.7,1.4c2.1-.1,4.2-1.5,5.8-4.2,3.4-5.8,3.5-15.3.1-21.3-1.7-3-3.9-4.5-6.2-4.6l33.8,1c2.1.1,4.1,1.5,5.7,4.2,4.9,8.7,1.4,23.2-5.5,23.5h0Z"/>
            </g>
          </g>
        </g>
        <path class="cls-8" d="m64.7,130.41c-2.7,2.6-6.6,3.5-7.7,3.5-.1,0-33.8,1.4-33.9,1.4-8.5-.3-13.4-5.4-14.7-11.3-1.9,8.3,2.8,18.2,14.7,18.5h.3c-.4,0-1.4.1,33.6-1.4.4,0,.8-.1,1.1-.2,2.6-.6,4.7-1.5,6.5-3.4,3.5-3.4,4.7-9,3.6-14-.5,2.8-1.7,5.1-3.5,6.9Z"/>
        <g>
          <path class="cls-3" d="m68.8,138.81l-11.9-5.2c-4.6-2.3-8.2-2.4-10.5-1.1-1.9,1.1-3,3.2-3.2,6.1l-.2,15.1,2.3,1.3.2-15.1c.2-2.9,1.3-5,3.2-6.1,2.3-1.3,5.8-1.2,10.5,1.1l11.9,5.2-2.3-1.3Z"/>
          <path class="cls-35" d="m48.7,133.81c2.3-1.3,5.8-1.2,10.5,1.1l11.9,5.2-25.8,14.9.2-15.1c.2-2.8,1.3-5,3.2-6.1Z"/>
        </g>
        <g>
          <path class="cls-22" d="m13.7,119.41c1.2,0,2.3.8,3.2,2.4,1.7,3.1,1.6,8-.2,11-.9,1.5-2.1,2.2-3.2,2.2h-1.4c1.1,0,2.3-.7,3.2-2.2,1.8-3,1.9-7.9.2-11-.9-1.6-2-2.4-3.2-2.4h1.4Z"/>
          <path class="cls-18" d="m15.4,121.71c-1.7-3.1-4.6-3.2-6.4-.2-1.8,3-1.9,7.9-.2,11s4.6,3.2,6.4.2c1.8-2.9,1.9-7.9.2-11Z"/>
        </g>
        <g>
          <path class="cls-3" d="m52.6,134.91c-.7-.2-1.5,0-2.4.8-1.6,1.5-2.6,4.5-2.1,6.6.2,1.1.8,1.7,1.5,2,.8.2.1,0,.9.3-.7-.2-1.2-.9-1.5-2-.5-2.2.4-5.1,2.1-6.6.8-.8,1.7-1,2.4-.8-.8-.2-.1,0-.9-.3Z"/>
          <path class="cls-9" d="m51.1,136.01c1.6-1.5,3.4-1,3.8,1.2.5,2.2-.5,5.1-2.1,6.6s-3.4,1-3.8-1.2c-.5-2.2.5-5.1,2.1-6.6Z"/>
        </g>
        <path d="m73,98.81h-.8l-.4-1.4c1.9.3,4.9-.5,5.9-2.1,1-1.7-.2-3.8-1.4-5.2-5.6-6.8-33.6-19.8-36.7-21.2-1-.5-2.4-1-3.9-1.5-8-2.9-21.3-7.6-17.8-22.4,4-17.3,19.4-14.1,19.5-14l-2,1.1c-.5,0-12.4-2.7-16.1,13.2-3.2,13.5,8.9,17.9,16.9,20.7,1.6.6,2.9,1.1,4,1.6,3.2,1.5,31.5,14.6,37.2,21.6,2.7,3.3,2.3,5.5,1.5,6.8-1.1,1.8-3.7,2.8-5.9,2.8Z"/>
        <path class="cls-12" d="m71.5,96.51l-.7-2.1c3-6.8,2.5-12.8-.9-16.5-2.1-2.3-5.1-3-8.5-1.8-1.2.4-2.6.9-4.1,1.5-6,2.3-13.5,5.2-19.6,3.7-1.5-.4-15.1-4.6-16.1-32.2-.3-9.1,1.8-15.5,6.2-18.9,6.3-4.9,13.8-2.2,14.1-2.1l-1.8,1c-.1,0-6.3-1.8-11.5,2.2-4.1,3.2-6,9.1-5.7,17.7.4,10.9,2.8,19.3,7.1,25,3.6,4.6,7.2,5.7,7.9,5.9,5.7,1.4,12.9-1.4,18.7-3.6,1.5-.6,2.9-1.1,4.1-1.5,3.9-1.3,7.6-.5,10,2.2,4.1,4.1,4.3,12.5.8,19.5Z"/>
      </g>
    </g>
  </g>
</svg>