<?xml version="1.0" encoding="UTF-8"?>
<svg id="Layer_2" data-name="Layer 2" xmlns="http://www.w3.org/2000/svg" xmlns:xlink="http://www.w3.org/1999/xlink" viewBox="0 0 177.6 167.8">
  <defs>
    <style>
      .cls-1 {
        fill: #ffc618;
      }

      .cls-2 {
        fill: #d8d8d8;
      }

      .cls-3 {
        fill: #a0a0a0;
      }

      .cls-4 {
        clip-path: url(#clippath-2);
      }

      .cls-5 {
        isolation: isolate;
      }

      .cls-6 {
        fill: #696969;
      }

      .cls-7 {
        clip-path: url(#clippath-1);
      }

      .cls-8 {
        fill: #b20808;
      }

      .cls-9 {
        fill: #5a5a5a;
      }

      .cls-10 {
        fill: #767676;
      }

      .cls-11 {
        fill: #898989;
      }

      .cls-12 {
        fill: #babab9;
      }

      .cls-13 {
        clip-path: url(#clippath);
      }

      .cls-14 {
        fill: #494949;
      }

      .cls-15 {
        fill: none;
      }

      .cls-16 {
        fill: #373737;
      }

      .cls-17 {
        fill: #ce0909;
      }

      .cls-18 {
        clip-path: url(#clippath-3);
      }

      .cls-19 {
        fill: #515151;
      }

      .cls-20 {
        fill: #2d2d2d;
      }

      .cls-21 {
        fill: #ff5a5a;
      }

      .cls-22 {
        fill: #f73c3c;
      }

      .cls-23 {
        fill: #a8a8a8;
      }

      .cls-24 {
        fill: #686868;
      }

      .cls-25 {
        fill: #a3a2a0;
      }
    </style>
    <clipPath id="clippath">
      <path class="cls-15" d="m85.7,122.3c0,7.3,0,14.6-.1,22,0,6-4,12-11.8,16.6-15.9,9.2-41.6,9.2-57.6,0-8-4.6-12-10.7-12-16.8l.1-22c0,6.1,4,12.2,12,16.8,16,9.2,41.7,9.2,57.6,0,7.8-4.7,11.8-10.7,11.8-16.6Z"/>
    </clipPath>
    <clipPath id="clippath-1">
      <path class="cls-15" d="m81.4,105.1v10.3c0,4.7-2.7,9.4-7.9,13.1v-10.3c5.2-3.8,7.9-8.4,7.9-13.1Z"/>
    </clipPath>
    <clipPath id="clippath-2">
      <path class="cls-15" d="m8.1,115.2v-10.3c0,4.4,2.3,8.9,7.2,12.7,12.1,9.4,35,11.5,51.3,4.5,1.7-.7,3.3-1.6,4.8-2.4v10.3c-1.4.9-3,1.7-4.8,2.4-16.3,7-39.2,4.9-51.3-4.5-4.9-3.9-7.2-8.3-7.2-12.7Z"/>
    </clipPath>
    <clipPath id="clippath-3">
      <path class="cls-15" d="m89.4,105c0,8,0,7.8-.1,15.8,0,6.6-4.3,13.1-13,18.1-17.4,10.1-45.6,10.1-63.1,0-8.8-5.1-13.2-11.7-13.2-18.4l.1-15.8c0,6.7,4.4,13.3,13.2,18.4,17.5,10.1,45.7,10.1,63.1,0,8.6-5,13-11.5,13-18.1Z"/>
    </clipPath>
  </defs>
  <g id="Layer_1-2" data-name="Layer 1">
    <g>
      <g class="cls-5">
        <polygon class="cls-19" points="177.6 39.2 177.4 116.4 138.5 136.8 138.8 59.6 177.6 39.2"/>
        <polygon class="cls-16" points="138.8 59.6 138.5 136.8 70.2 97.6 70.5 20.5 138.8 59.6"/>
        <polygon class="cls-9" points="109.3 0 177.6 39.2 138.8 59.6 70.5 20.5 109.3 0"/>
      </g>
      <g class="cls-5">
        <g class="cls-5">
          <g class="cls-13">
            <g class="cls-5">
              <path class="cls-23" d="m85.7,122.3l-.1,22c0,6-4,12-11.8,16.6-15.9,9.2-41.6,9.2-57.6,0-8-4.6-12-10.7-12-16.8l.1-22c0,6.1,4,12.2,12,16.8,16,9.2,41.7,9.2,57.6,0,7.8-4.7,11.8-10.7,11.8-16.6h0Z"/>
            </g>
          </g>
        </g>
        <path class="cls-3" d="m73.7,105.5c16,9.2,16,24.1.2,33.4-15.9,9.2-41.6,9.2-57.6,0s-16-24.1-.2-33.4c15.8-9.3,41.6-9.3,57.6,0Z"/>
      </g>
      <path class="cls-11" d="m44.9,129.2c-11.7,0-22.6-2.6-30.8-7.4-8-4.6-12.4-10.7-12.4-17s4.3-12.3,12.2-16.9c8.2-4.8,19.1-7.4,30.8-7.4s22.6,2.6,30.8,7.4c8,4.6,12.4,10.7,12.4,17s-4.3,12.3-12.2,16.9c-8.2,4.8-19.2,7.4-30.8,7.4Z"/>
      <g class="cls-5">
        <polygon class="cls-12" points="47.6 104.8 47.5 115.1 45.4 116.5 45.4 106.2 47.6 104.8"/>
        <polygon class="cls-25" points="73.5 118.2 73.5 128.5 47.5 115.1 47.6 104.8 73.5 118.2"/>
        <g class="cls-5">
          <g class="cls-7">
            <path class="cls-12" d="m81.4,105.1v10.3c0,4.7-2.7,9.4-7.9,13.1v-10.3c5.2-3.8,7.9-8.4,7.9-13.1h0Z"/>
          </g>
        </g>
        <g class="cls-5">
          <g class="cls-4">
            <path class="cls-12" d="m71.4,119.6v10.3c-1.4.9-3,1.7-4.8,2.4-16.3,7-39.2,4.9-51.3-4.5-4.9-3.8-7.2-8.3-7.2-12.7v-10.3c0,4.4,2.3,8.9,7.2,12.7,12.1,9.4,35,11.5,51.3,4.5,1.7-.7,3.3-1.5,4.8-2.4h0Z"/>
          </g>
        </g>
        <path class="cls-2" d="m22.9,87.9c16.3-7,39.2-4.9,51.3,4.5,10.1,7.9,9.3,18.5-.7,25.8l-25.9-13.4-2.2,1.4,26,13.4c-1.4.9-3,1.7-4.8,2.4-16.3,7-39.2,4.9-51.3-4.5-12-9.4-8.6-22.7,7.6-29.6Z"/>
      </g>
      <path class="cls-1" d="m44.6,82h0c11.4,0,22.1,2.5,30.1,7.2.4.2.9.5,1.3.8l3.7-1.1c-1.1-.8-2.2-1.5-3.5-2.2-8.7-5-20.2-7.6-31.6-7.6h-2.6v3c.8-.1,1.7-.1,2.6-.1Z"/>
      <g class="cls-5">
        <polygon class="cls-6" points="118.9 48.3 119 125.7 85.6 133.9 85.7 130.4 87.4 118.2 86.3 97 64.1 103.7 64.2 64.8 118.9 48.3"/>
        <polygon class="cls-14" points="64.2 64.8 64.1 103.7 42 90.9 42.1 52 64.2 64.8"/>
        <polygon class="cls-10" points="70.4 20.3 118.9 48.3 64.2 64.8 42.1 52 70.4 20.3"/>
      </g>
      <polygon class="cls-11" points="79.8 98.9 79.8 92.7 84.8 94.6 84.8 104.7 79.8 98.9"/>
      <path class="cls-21" d="m83.1,91.7l-3.3,1c1.5,1.3,2.8,2.7,3.8,4.2,1.8,2.6,2.8,5.3,2.8,8,0,5.8-4.1,11.3-11.5,15.6-7.9,4.6-18.6,7.2-30,7.2s-22.1-2.5-30.1-7.2c-3.9-2.3-6.9-4.8-8.9-7.7-1.8-2.6-2.8-5.3-2.8-8,0-5.8,4.1-11.3,11.5-15.6,7.3-4.3,17-6.8,27.4-7.1v-3c-10.5.4-20.9,2.9-28.9,7.5-17.4,10.1-17.3,26.5.2,36.5,8.7,5,20.2,7.6,31.6,7.6s22.8-2.5,31.5-7.6c14.6-8.5,16.9-21.5,6.7-31.4Z"/>
      <g class="cls-5">
        <g class="cls-18">
          <path class="cls-22" d="m89.4,105l-.1,15.8c0,6.6-4.3,13.1-13,18.1-17.4,10.1-45.6,10.1-63.1,0-8.8-5.1-13.2-11.7-13.2-18.4l.1-15.8c0,6.7,4.4,13.3,13.2,18.4,17.5,10.1,45.7,10.1,63.1,0,8.6-5,13-11.5,13-18.1h0Z"/>
        </g>
      </g>
      <g>
        <path class="cls-21" d="m71.2,47.3c-7.1-7.1-8.4-8.7-11.5-10.4-1.6-.9-3.2-1.5-4.8-1.8l-6.7-1c-1-.2-1.9,0-2.7.4-1.6,1-3.3,1.9-4.9,2.9.7-.4,1.6-.6,2.7-.4l6.7,1c3.5.6,7,2.9,9.5,5.5,6,6,11,10.4,11.5,17.3v11.5c0,1.6-.6,2.7-1.5,3.3,1.6-1,3.3-1.9,4.9-2.9.9-.5,1.5-1.7,1.5-3.3,0-11.6,1.1-16.3-4.7-22.1Z"/>
        <path class="cls-22" d="m54.8,39.7c1.6.9,3.2,2.2,4.8,3.7l6.7,6.7c2.8,2.9,4.7,7.1,4.7,10.6v11.5c0,3.2-2.3,4.5-5.1,2.9l-22.4-12.9c-2.8-1.6-5.1-5.5-5.1-8.8v-11.5c0-3.5,1.9-5.5,4.8-5.1l6.7,1c1.6.4,3.3,1,4.9,1.9Z"/>
      </g>
      <g>
        <g>
          <polygon class="cls-17" points="57.9 47.5 57.9 56.8 57.9 68 57.9 77.3 63.7 73.9 63.8 64.6 63.8 53.3 63.8 44.1 57.9 47.5"/>
          <polygon class="cls-22" points="39.5 36.9 45.4 33.4 63.8 44.1 57.9 47.5 39.5 36.9"/>
          <polygon class="cls-8" points="57.9 47.5 57.9 56.8 57.9 68 57.9 77.3 39.4 66.6 39.4 57.4 39.5 46.1 39.5 36.9 57.9 47.5"/>
        </g>
        <g>
          <path class="cls-21" d="m63.8,51.4l-3.5,2c2.6,3.1,5.9,8.7,2.5,10.7l3.5-2c.9-.5,1.5-1.5,1.5-2.8-.1-2.7-2.3-5.9-4-7.9Z"/>
          <path class="cls-22" d="m60.3,53.4c5.2,6.1,5.3,11.2,0,11.3v-11.3Z"/>
        </g>
      </g>
      <g class="cls-5">
        <polygon class="cls-8" points="56.4 67.1 40.3 57.8 32.1 44.6 48.2 54 56.4 67.1"/>
        <polygon class="cls-22" points="48.2 54 32.1 44.6 32 21.3 48.1 30.7 48.2 54"/>
        <polygon class="cls-21" points="48.1 30.7 32 21.3 44.7 15.3 60.8 24.7 48.1 30.7"/>
        <polygon class="cls-17" points="60.8 24.7 60.8 43.8 56.3 46.6 56.4 67.1 48.2 54 48.1 30.7 60.8 24.7"/>
      </g>
      <g>
        <path class="cls-21" d="m57.3,67.3c-1.6-2-3.6-3.8-5.7-5.4h0c-1.2-.9-2.4-1.7-3.8-2.5-5.1-2.9-9.5-3.8-11.5-2.6l-7.1,4.1c2.1-1.2,6.5-.3,11.5,2.6,5.3,3.1,12.8,9.7,12.8,14.6,0,1.1-.5,1.9-1.3,2.4,2.4-1.4,4.7-2.7,7.1-4.1.8-.5,1.3-1.3,1.3-2.4,0-2.3-1.8-5-3.3-6.7Z"/>
        <path class="cls-22" d="m40.8,63.5c7.1,4.1,12.8,10.6,12.8,14.6s-5.8,3.9-12.8-.2c-7.1-4.1-12.8-10.6-12.8-14.6-.1-4,5.7-3.9,12.8.2Z"/>
      </g>
      <g>
        <path class="cls-24" d="m31.7,63.5h0c-.4-1-1.3-1.8-1.9-1.4-.1,0-.4.3-.5.3.5-.3,1.3.2,1.7,1.1.3.6.5,1.5-.1,1.8.1-.1.4-.3.5-.3.5-.3.5-.9.3-1.5Z"/>
        <path class="cls-20" d="m30.2,62.4c.7.4,1.2,1.3,1.2,2.1s-.5,1.1-1.2.7c-.7-.4-1.2-1.3-1.2-2.1,0-.7.5-1,1.2-.7Z"/>
      </g>
      <g>
        <path class="cls-24" d="m41.5,65.6h0c-.4-1-1.3-1.8-1.9-1.4-.1,0-.4.3-.5.3.5-.3,1.3.2,1.7,1.1.3.6.5,1.5-.1,1.8.1-.1.4-.3.5-.3.4-.3.5-.9.3-1.5Z"/>
        <path class="cls-20" d="m39.9,64.5c.7.4,1.2,1.3,1.2,2.1s-.5,1.1-1.2.7c-.7-.4-1.2-1.3-1.2-2.1,0-.7.5-1,1.2-.7Z"/>
      </g>
      <g>
        <path class="cls-24" d="m51.8,77.1h0c-.4-1-1.3-1.8-1.9-1.4-.1.1-.4.3-.5.3.5-.3,1.3.2,1.7,1.1.3.6.5,1.5,0,1.8.1,0,.4-.3.5-.3.3-.2.4-.9.2-1.5Z"/>
        <path class="cls-20" d="m50.2,76.1c.7.4,1.2,1.3,1.2,2.1s-.5,1.1-1.2.7c-.7-.4-1.2-1.3-1.2-2.1,0-.8.5-1.1,1.2-.7Z"/>
      </g>
      <g>
        <path class="cls-24" d="m41.2,74.7h0c-.4-1-1.3-1.8-1.9-1.4-.1,0-.4.3-.5.3.5-.3,1.3.2,1.7,1.1.3.6.5,1.5-.1,1.8.1,0,.4-.2.5-.3.5-.2.5-.8.3-1.5Z"/>
        <path class="cls-20" d="m39.6,73.7c.7.4,1.2,1.3,1.2,2.1s-.5,1.1-1.2.7c-.7-.4-1.2-1.3-1.2-2.1,0-.8.6-1.1,1.2-.7Z"/>
      </g>
    </g>
  </g>
</svg>