<?xml version="1.0" encoding="UTF-8"?>
<svg id="Layer_2" data-name="Layer 2" xmlns="http://www.w3.org/2000/svg" xmlns:xlink="http://www.w3.org/1999/xlink" viewBox="0 0 159.18 160.25">
  <defs>
    <style>
      .cls-1 {
        fill: #141313;
      }

      .cls-2 {
        fill: #ce1919;
      }

      .cls-3 {
        fill: #e0a522;
      }

      .cls-4 {
        clip-path: url(#clippath-20);
      }

      .cls-5 {
        clip-path: url(#clippath-11);
      }

      .cls-6 {
        clip-path: url(#clippath-16);
      }

      .cls-7 {
        fill: #3f3f3f;
      }

      .cls-8 {
        fill: #d8d8d8;
      }

      .cls-9 {
        fill: #ea2626;
      }

      .cls-10 {
        fill: #222;
      }

      .cls-11 {
        clip-path: url(#clippath-2);
      }

      .cls-12 {
        fill: #b2b2b2;
      }

      .cls-13 {
        clip-path: url(#clippath-13);
      }

      .cls-14 {
        isolation: isolate;
      }

      .cls-15 {
        clip-path: url(#clippath-25);
      }

      .cls-16 {
        fill: #a3cb04;
      }

      .cls-17 {
        clip-path: url(#clippath-15);
      }

      .cls-18 {
        fill: #303030;
      }

      .cls-19 {
        clip-path: url(#clippath-6);
      }

      .cls-20 {
        clip-path: url(#clippath-26);
      }

      .cls-21 {
        fill: #ecae24;
      }

      .cls-22 {
        clip-path: url(#clippath-7);
      }

      .cls-23 {
        clip-path: url(#clippath-21);
      }

      .cls-24 {
        fill: #1b1b1b;
      }

      .cls-25 {
        fill: #333;
      }

      .cls-26 {
        clip-path: url(#clippath-1);
      }

      .cls-27 {
        clip-path: url(#clippath-4);
      }

      .cls-28 {
        fill: #f7dfa7;
      }

      .cls-29 {
        clip-path: url(#clippath-27);
      }

      .cls-30 {
        fill: #282828;
      }

      .cls-31 {
        fill: #444;
      }

      .cls-32 {
        clip-path: url(#clippath-12);
      }

      .cls-33 {
        fill: #424242;
      }

      .cls-34 {
        clip-path: url(#clippath-24);
      }

      .cls-35 {
        clip-path: url(#clippath-22);
      }

      .cls-36 {
        fill: #141413;
      }

      .cls-37 {
        clip-path: url(#clippath-9);
      }

      .cls-38 {
        clip-path: url(#clippath);
      }

      .cls-39 {
        fill: #494949;
      }

      .cls-40 {
        fill: none;
      }

      .cls-41 {
        clip-path: url(#clippath-19);
      }

      .cls-42 {
        clip-path: url(#clippath-3);
      }

      .cls-43 {
        fill: #2d2d2d;
      }

      .cls-44 {
        fill: #757575;
      }

      .cls-45 {
        fill: #252525;
      }

      .cls-46 {
        clip-path: url(#clippath-8);
      }

      .cls-47 {
        fill: #ff5a5a;
      }

      .cls-48 {
        clip-path: url(#clippath-18);
      }

      .cls-49 {
        clip-path: url(#clippath-14);
      }

      .cls-50 {
        fill: #1a1a1a;
      }

      .cls-51 {
        clip-path: url(#clippath-17);
      }

      .cls-52 {
        clip-path: url(#clippath-5);
      }

      .cls-53 {
        fill: #7f7f7f;
      }

      .cls-54 {
        clip-path: url(#clippath-10);
      }

      .cls-55 {
        fill: #5b5b5b;
      }

      .cls-56 {
        clip-path: url(#clippath-23);
      }

      .cls-57 {
        fill: #001fff;
      }

      .cls-58 {
        fill: #1e1e1e;
      }

      .cls-59 {
        fill: #f2f2f2;
      }

      .cls-60 {
        fill: #ffce57;
      }
    </style>
    <clipPath id="clippath">
      <path class="cls-40" d="m59.2,101.72l.1-23.5c0-.7.5-1.4,1.4-1.9l-.1,23.5c-1,.5-1.4,1.2-1.4,1.9Z"/>
    </clipPath>
    <clipPath id="clippath-1">
      <path class="cls-40" d="m68.6,78.22l-.1,23.5c0,.7-.5,1.4-1.4,1.9l.1-23.5c1-.5,1.4-1.2,1.4-1.9Z"/>
    </clipPath>
    <clipPath id="clippath-2">
      <path class="cls-40" d="m59.2,101.72l.1-23.5c0,.7.5,1.4,1.4,1.9,1.8,1.1,4.8,1.1,6.7,0l-.1,23.5c-1.8,1.1-4.8,1.1-6.7,0-1-.5-1.4-1.2-1.4-1.9Z"/>
    </clipPath>
    <clipPath id="clippath-3">
      <path class="cls-40" d="m85,93.42c0,7.8,0,15.7-.1,23.5,0-1.9-1.2-3.7-3.7-5.2l.1-23.5c2.4,1.4,3.7,3.3,3.7,5.2Z"/>
    </clipPath>
    <clipPath id="clippath-4">
      <path class="cls-40" d="m34,119.12c-1.8-1.1-4.8-1.1-6.7,0l.1-23.5c1.8-1.1,4.8-1.1,6.7,0,0,7.8,0,15.6-.1,23.5Z"/>
    </clipPath>
    <clipPath id="clippath-5">
      <path class="cls-40" d="m35.4,121.02c0-.7-.5-1.4-1.4-1.9,0-7.8,0-15.7.1-23.5.9.5,1.4,1.2,1.4,1.9,0,7-.1,16.4-.1,23.5Z"/>
    </clipPath>
    <clipPath id="clippath-6">
      <path class="cls-40" d="m85,93.42c0,7.8,0,15.7-.1,23.5,0,1.8-1.2,3.7-3.6,5.1l.1-23.5c2.3-1.5,3.6-3.3,3.6-5.1Z"/>
    </clipPath>
    <clipPath id="clippath-7">
      <path class="cls-40" d="m35.5,97.52c0,7.8,0,15.7-.1,23.5,0,.7-.5,1.4-1.4,1.9l.1-23.5c.9-.6,1.4-1.2,1.4-1.9Z"/>
    </clipPath>
    <clipPath id="clippath-8">
      <path class="cls-40" d="m26,121.02c0-7.8,0-15.7.1-23.5,0,.7.5,1.4,1.4,1.9,1.8,1.1,4.8,1.1,6.7,0l-.1,23.5c-1.8,1.1-4.8,1.1-6.7,0-.9-.5-1.4-1.2-1.4-1.9Z"/>
    </clipPath>
    <clipPath id="clippath-9">
      <path class="cls-40" d="m65.8,107.52l-.1,23.5c-4.9,2.8-12.8,2.8-17.7,0l.1-23.5c4.9,2.8,12.8,2.8,17.7,0Z"/>
    </clipPath>
    <clipPath id="clippath-10">
      <path class="cls-40" d="m98.9,100.22c0,7.8,0,15.7-.1,23.5,0,4.5-2.9,8.9-8.8,12.3-11.8,6.8-30.9,6.8-42.8,0-5.1-3-8-6.7-8.8-10.6l.1-23.5c.7,3.9,3.6,7.6,8.8,10.6,11.9,6.8,31,6.8,42.8,0,5.8-3.4,8.8-7.9,8.8-12.3Z"/>
    </clipPath>
    <clipPath id="clippath-11">
      <path class="cls-40" d="m98.8,115.72c0,7,0-4.6-.1,2.4,0,4.4-2.9,8.9-8.8,12.3-11.7,6.8-30.8,6.8-42.6,0-5.9-3.4-8.9-7.9-8.9-12.4l.1-2.4c0,4.5,3,9,8.9,12.4,11.8,6.8,30.9,6.8,42.6,0,5.9-3.4,8.8-7.8,8.8-12.3Z"/>
    </clipPath>
    <clipPath id="clippath-12">
      <path class="cls-40" d="m98.8,114.42c0,7,0-4.6-.1,2.4,0,4.4-2.9,8.9-8.8,12.3-11.7,6.8-30.8,6.8-42.6,0-5.9-3.4-8.9-7.9-8.9-12.4l.1-2.4c0,4.5,3,9,8.9,12.4,11.8,6.8,30.9,6.8,42.6,0,5.9-3.4,8.8-7.9,8.8-12.3Z"/>
    </clipPath>
    <clipPath id="clippath-13">
      <path class="cls-40" d="m98.8,113.12c0,7,0-4.6-.1,2.4,0,4.4-2.9,8.9-8.8,12.3-11.7,6.8-30.8,6.8-42.6,0-5.9-3.4-8.9-7.9-8.9-12.4l.1-2.4c0,4.5,3,9,8.9,12.4,11.8,6.8,30.9,6.8,42.6,0,5.9-3.5,8.8-7.9,8.8-12.3Z"/>
    </clipPath>
    <clipPath id="clippath-14">
      <path class="cls-40" d="m98.8,111.72c0,7,0-4.6-.1,2.4,0,4.4-2.9,8.9-8.8,12.3-11.7,6.8-30.8,6.8-42.6,0-5.9-3.4-8.9-7.9-8.9-12.4l.1-2.4c0,4.5,3,9,8.9,12.4,11.8,6.8,30.9,6.8,42.6,0,5.9-3.4,8.8-7.8,8.8-12.3Z"/>
    </clipPath>
    <clipPath id="clippath-15">
      <path class="cls-40" d="m98.8,110.42c0,7,0-4.6-.1,2.4,0,4.4-2.9,8.9-8.8,12.3-11.7,6.8-30.8,6.8-42.6,0-5.9-3.4-8.9-7.9-8.9-12.4l.1-2.4c0,4.5,3,9,8.9,12.4,11.8,6.8,30.9,6.8,42.6,0,5.9-3.4,8.8-7.9,8.8-12.3Z"/>
    </clipPath>
    <clipPath id="clippath-16">
      <path class="cls-40" d="m98.8,109.12c0,7,0-4.6-.1,2.4,0,4.4-2.9,8.9-8.8,12.3-11.7,6.8-30.8,6.8-42.6,0-5.9-3.4-8.9-7.9-8.9-12.4l.1-2.4c0,4.5,3,9,8.9,12.4,11.8,6.8,30.9,6.8,42.6,0,5.9-3.5,8.8-7.9,8.8-12.3Z"/>
    </clipPath>
    <clipPath id="clippath-17">
      <path class="cls-40" d="m98.8,107.72c0,7,0-4.6-.1,2.4,0,4.4-2.9,8.9-8.8,12.3-11.7,6.8-30.8,6.8-42.6,0-5.9-3.4-8.9-7.9-8.9-12.4l.1-2.4c0,4.5,3,9,8.9,12.4,11.8,6.8,30.9,6.8,42.6,0,5.9-3.4,8.8-7.8,8.8-12.3Z"/>
    </clipPath>
    <clipPath id="clippath-18">
      <path class="cls-40" d="m97,94.22v2c0,.5-.3,1-1,1.4-1.3.8-3.5.8-4.8,0-.7-.4-1-.9-1-1.4v-2c0,.5.3,1,1,1.4,1.3.8,3.5.8,4.8,0,.6-.4,1-.9,1-1.4Z"/>
    </clipPath>
    <clipPath id="clippath-19">
      <path class="cls-40" d="m48.1,102.22v2c0,.5-.3,1-1,1.4-1.3.8-3.5.8-4.8,0-.7-.4-1-.9-1-1.4v-2c0,.5.3,1,1,1.4,1.3.8,3.5.8,4.8,0,.6-.4,1-.9,1-1.4Z"/>
    </clipPath>
    <clipPath id="clippath-20">
      <path class="cls-40" d="m77,85.42v2c0,.5-.3,1-1,1.4-1.3.8-3.5.8-4.8,0-.7-.4-1-.9-1-1.4v-2c0,.5.3,1,1,1.4,1.3.8,3.5.8,4.8,0,.6-.4,1-.9,1-1.4Z"/>
    </clipPath>
    <clipPath id="clippath-21">
      <path class="cls-40" d="m90.9,96.82c0,4.7,0-1.4,0,3.4,0,3-2,6-5.9,8.3-8,4.6-20.9,4.6-28.9,0-4-2.3-6-5.4-6-8.4v-3.4c0,3.1,2,6.1,6,8.4,8,4.6,21,4.6,28.9,0,3.9-2.3,5.9-5.3,5.9-8.3Z"/>
    </clipPath>
    <clipPath id="clippath-22">
      <path class="cls-40" d="m70.6,113.32v2c0,.5-.3,1-1,1.4-1.3.8-3.5.8-4.8,0-.7-.4-1-.9-1-1.4v-2c0,.5.3,1,1,1.4,1.3.8,3.5.8,4.8,0,.7-.4,1-.9,1-1.4Z"/>
    </clipPath>
    <clipPath id="clippath-23">
      <path class="cls-40" d="m89.7,98.92c-3.9,2.3-7.8,4.5-11.7,6.8,1.6-.9,2.8-2.4,2.8-4.2l11.7-6.8c0,1.8-1.2,3.3-2.8,4.2Z"/>
    </clipPath>
    <clipPath id="clippath-24">
      <path class="cls-40" d="m73.9,40.62c-5.5,3.2-10.9,6.3-16.4,9.5,1.7-1,2.6-3,2.6-5.7l16.4-9.5c0,2.7-1,4.8-2.6,5.7Z"/>
    </clipPath>
    <clipPath id="clippath-25">
      <path class="cls-40" d="m105.1,30.82l-15.6,7.9c-.2.1-.3.2-.5.2,16.9-8.5,16.1-8.1,16.1-8.1Z"/>
    </clipPath>
    <clipPath id="clippath-26">
      <path class="cls-40" d="m105.1,30.82c-5.2,2.6-10.4,5.3-15.6,7.9,2.8-1.4,3.8-5.8,2.2-11.1-1.7-5.6-5.7-10.3-9.6-11.5l15.6-7.9c3.9,1.2,7.9,5.9,9.6,11.5,1.6,5.3.6,9.7-2.2,11.1Z"/>
    </clipPath>
    <clipPath id="clippath-27">
      <path class="cls-40" d="m87.7,11.32l15.5,12.5c-.8-.6-2.1-.5-3.8.5-3,1.8-6,5.7-6.6,8.7-.3,1.4,0,2.3.6,2.8l-15.5-12.5c-.6-.5-.8-1.5-.6-2.8.6-3.1,3.6-7,6.6-8.7,1.7-1,3-1.1,3.8-.5Z"/>
    </clipPath>
  </defs>
  <g id="Layer_1-2" data-name="Layer 1">
    <g>
      <g>
        <path class="cls-8" d="m105.6,130.92l-25.8,15c-12.2,7.1-32.2,7.1-44.5,0l-25.9-15C3.2,127.32.1,122.62.1,117.92c0,11-.1-2-.1,9,0,4.7,3.1,9.4,9.3,13l25.9,15c12.3,7.1,32.2,7.1,44.5,0l25.8-15c6.1-3.5,9.1-8.2,9.1-12.8,0-11,.1,2,.1-9,0,4.6-3,9.2-9.1,12.8Z"/>
        <path class="cls-59" d="m105.4,105.12c12.3,7.1,12.4,18.7.1,25.8l-25.8,15c-12.2,7.1-32.2,7.1-44.5,0l-25.9-15c-12.3-7.1-12.4-18.7-.1-25.8l25.8-15c12.2-7.1,32.2-7.1,44.5,0l25.9,15Z"/>
      </g>
      <g>
        <g>
          <polygon class="cls-55" points="129.3 26.82 125.1 32.22 125.7 26.12 129.8 20.72 129.3 26.82"/>
          <path class="cls-18" d="m158.4,47.72c-.2.1-.5.2-.8.2-1.4,0-3-.9-3.8-2.2l-2.8-4.7c-.6-1-1.3-1.9-2.1-2.9l-3.9-4.4c-.8-.9-1.8-1.6-2.9-2l-12.9-4.8-4.2,5.4,12.9,4.8c1.1.4,2.1,1.1,2.9,2l3.9,4.4c.8.9,1.5,1.9,2.1,2.9l2.8,4.7c.8,1.3,2.4,2.3,3.8,2.2.3,0,.6-.1.8-.2s.4-.2.5-.4c1.4-1.8,2.8-3.6,4.2-5.4-.1.1-.3.3-.5.4Z"/>
          <path class="cls-55" d="m129.8,20.72l13.9,5.2c2.2.8,4.2,2.2,5.7,4l3.8,4.4c1.6,1.8,2.8,3.8,3.6,5.8l2.2,5.4c.4,1,.1,1.9-.7,2.2-.2.1-.5.2-.8.2-1.4,0-3-.9-3.8-2.2l-2.8-4.7c-.6-1-1.3-1.9-2.1-2.9l-3.9-4.4c-.8-.9-1.8-1.6-2.9-2l-12.9-4.8.7-6.2Z"/>
        </g>
        <g>
          <polygon class="cls-18" points="66 36.82 68.4 35.42 82.8 77.12 80.4 78.52 66 36.82"/>
          <polygon class="cls-33" points="57.5 36.82 59.9 35.42 68.4 35.42 66 36.82 57.5 36.82"/>
          <polygon class="cls-30" points="66 36.82 80.4 78.52 71.9 78.52 57.5 36.82 66 36.82"/>
          <g>
            <polygon class="cls-33" points="58.3 36.82 72.7 78.52 71.8 78.52 57.4 36.82 58.3 36.82"/>
            <polygon class="cls-33" points="60.9 36.82 75.3 78.52 74.4 78.52 60 36.82 60.9 36.82"/>
            <polygon class="cls-33" points="63.4 36.82 77.8 78.52 76.9 78.52 62.5 36.82 63.4 36.82"/>
          </g>
          <polygon class="cls-33" points="66 36.82 80.4 78.52 79.5 78.52 65.1 36.82 66 36.82"/>
        </g>
        <g class="cls-14">
          <g class="cls-38">
            <g class="cls-14">
              <path class="cls-18" d="m60.6,76.32l-.1,23.5c-.9.5-1.4,1.2-1.4,1.9l.1-23.5c0-.7.5-1.4,1.4-1.9h0Z"/>
            </g>
          </g>
        </g>
        <g class="cls-14">
          <g class="cls-26">
            <g class="cls-14">
              <path class="cls-18" d="m68.6,78.22l-.1,23.5c0,.7-.5,1.4-1.4,1.9l.1-23.5c1-.5,1.4-1.2,1.4-1.9h0Z"/>
            </g>
          </g>
        </g>
        <g class="cls-14">
          <g class="cls-11">
            <g class="cls-14">
              <path class="cls-18" d="m67.3,80.12l-.1,23.5c-1.8,1.1-4.8,1.1-6.7,0-.9-.5-1.4-1.2-1.4-1.9l.1-23.5c0,.7.5,1.4,1.4,1.9,1.9,1.1,4.8,1.1,6.7,0h0Z"/>
            </g>
          </g>
        </g>
        <g>
          <path class="cls-36" d="m63.9,80.52c-1.2,0-2.3-.3-3.1-.7s-1.2-1-1.2-1.6.4-1.1,1.2-1.6,1.9-.7,3.1-.7,2.3.3,3.1.7,1.2,1,1.2,1.6-.4,1.1-1.2,1.6c-.8.4-1.9.7-3.1.7Z"/>
          <path class="cls-7" d="m63.9,76.32c1.1,0,2.2.2,2.9.7.6.4,1,.8,1,1.2s-.3.8-.9,1.2c-.7.4-1.8.7-2.9.7s-2.2-.2-2.9-.7c-.6-.4-1-.8-1-1.2s.3-.8.9-1.2c.8-.4,1.8-.7,2.9-.7h0Zm0-.8c-1.2,0-2.4.3-3.3.8-1.8,1.1-1.8,2.8,0,3.9.9.5,2.1.8,3.3.8s2.4-.3,3.3-.8c1.8-1.1,1.8-2.8,0-3.9-.9-.6-2.1-.8-3.3-.8h0Z"/>
        </g>
        <polygon class="cls-50" points="81.3 88.22 81.2 111.72 71.6 106.22 71.7 82.72 81.3 88.22"/>
        <g class="cls-14">
          <g class="cls-42">
            <g class="cls-14">
              <path class="cls-18" d="m85,93.42l-.1,23.5c0-1.9-1.2-3.7-3.7-5.2l.1-23.5c2.4,1.4,3.7,3.3,3.7,5.2h0Z"/>
            </g>
          </g>
        </g>
        <g class="cls-14">
          <g class="cls-27">
            <g class="cls-14">
              <path class="cls-18" d="m35.5,97.52l-.1,23.5c0-.7-.5-1.4-1.4-1.9-1.8-1.1-4.8-1.1-6.7,0l.1-23.5c1.8-1.1,4.8-1.1,6.7,0,.9.5,1.4,1.2,1.4,1.9h0Z"/>
            </g>
          </g>
        </g>
        <path class="cls-18" d="m17.3,89.72c-2.5-1.4-3.7-3.3-3.7-5.2,0,7.8,0,15.7-.1,23.5,0,1.9,1.2,3.7,3.7,5.2l10.1,5.8.1-23.5-10.1-5.8Z"/>
        <g class="cls-14">
          <g class="cls-52">
            <g class="cls-14">
              <path class="cls-18" d="m35.5,97.52l-.1,23.5c0-.7-.5-1.4-1.4-1.9-1.8-1.1-4.8-1.1-6.7,0l.1-23.5c1.8-1.1,4.8-1.1,6.7,0,.9.5,1.4,1.2,1.4,1.9h0Z"/>
            </g>
          </g>
        </g>
        <g class="cls-14">
          <g class="cls-19">
            <g class="cls-14">
              <path class="cls-18" d="m85,93.42l-.1,23.5c0,1.8-1.2,3.7-3.6,5.1l.1-23.5c2.3-1.5,3.6-3.3,3.6-5.1h0Z"/>
            </g>
          </g>
        </g>
        <g class="cls-14">
          <g class="cls-22">
            <g class="cls-14">
              <path class="cls-18" d="m35.5,97.52l-.1,23.5c0,.7-.5,1.4-1.4,1.9l.1-23.5c.9-.6,1.4-1.2,1.4-1.9h0Z"/>
            </g>
          </g>
        </g>
        <g class="cls-14">
          <g class="cls-46">
            <g class="cls-14">
              <path class="cls-39" d="m34.1,99.42l-.1,23.5c-1.8,1.1-4.8,1.1-6.7,0-.9-.5-1.4-1.2-1.4-1.9l.2-23.6c0,.7.5,1.4,1.4,1.9,1.8,1.1,4.8,1.1,6.6.1h0Z"/>
            </g>
          </g>
        </g>
        <g>
          <path class="cls-36" d="m30.8,99.82c-1.2,0-2.3-.3-3.1-.7s-1.2-1-1.2-1.6.4-1.1,1.2-1.6,1.9-.7,3.1-.7,2.3.3,3.1.7,1.2,1,1.2,1.6-.4,1.1-1.2,1.6c-.8.4-1.9.7-3.1.7Z"/>
          <path class="cls-7" d="m30.8,95.62h0c1.1,0,2.2.2,2.9.7.6.4,1,.8,1,1.2s-.3.8-.9,1.2c-.7.4-1.8.7-2.9.7s-2.2-.2-2.9-.7c-.6-.4-1-.8-1-1.2s.3-.8.9-1.2c.7-.5,1.8-.7,2.9-.7h0Zm0-.9c-1.2,0-2.4.3-3.3.8-1.8,1.1-1.8,2.8,0,3.9.9.5,2.1.8,3.3.8s2.4-.3,3.3-.8c1.8-1.1,1.8-2.8,0-3.9-.9-.5-2.1-.8-3.3-.8h0Z"/>
        </g>
        <polygon class="cls-18" points="38.6 101.92 38.5 125.52 34.1 122.92 34.1 99.42 38.6 101.92"/>
        <polygon class="cls-45" points="81.3 98.42 81.3 122.02 65.7 131.02 65.8 107.52 81.3 98.42"/>
        <g class="cls-14">
          <g class="cls-37">
            <g class="cls-14">
              <path class="cls-18" d="m65.8,107.52l-.1,23.5c-4.9,2.8-12.8,2.8-17.7,0l.1-23.5c4.9,2.8,12.8,2.8,17.7,0h0Z"/>
            </g>
          </g>
        </g>
        <path class="cls-7" d="m90,87.72c-5.1-3-11.6-4.6-18.2-5l-4.4-2.6c-1.8,1.1-4.8,1.1-6.7,0-1.8-1.1-1.9-2.8,0-3.9l-10.1-5.8c-4.9-2.8-12.8-2.8-17.7,0l-15.5,9c-4.9,2.8-5,7.6-.1,10.4l10.1,5.8c1.8-1.1,4.8-1.1,6.7,0,1.8,1.1,1.9,2.7,0,3.8l4.4,2.6c.7,3.9,3.6,7.6,8.8,10.6,11.9,6.8,31.2,6.7,43-.1,11.6-6.8,11.5-17.9-.3-24.8Z"/>
        <g class="cls-14">
          <g class="cls-54">
            <g class="cls-14">
              <path class="cls-18" d="m98.9,100.22l-.1,23.5c0,4.5-2.9,8.9-8.8,12.3-11.8,6.8-30.9,6.8-42.8,0-5.1-3-8-6.7-8.8-10.6l.1-23.5c.7,3.9,3.6,7.6,8.8,10.6,11.9,6.8,31,6.8,42.8,0,5.8-3.4,8.8-7.9,8.8-12.3h0Z"/>
            </g>
          </g>
        </g>
        <g>
          <g class="cls-14">
            <path id="SVGID" class="cls-60" d="m98.8,115.72c0,7,0-4.6-.1,2.4,0,4.4-2.9,8.9-8.8,12.3-11.7,6.8-30.8,6.8-42.6,0-5.9-3.4-8.9-7.9-8.9-12.4l.1-2.4c0,4.5,3,9,8.9,12.4,11.8,6.8,30.9,6.8,42.6,0,5.9-3.4,8.8-7.8,8.8-12.3Z"/>
            <g class="cls-5">
              <path class="cls-47" d="m98.8,115.72l-.1,2.4c0,4.4-2.9,8.9-8.8,12.3-11.7,6.8-30.8,6.8-42.6,0-5.9-3.4-8.9-7.9-8.9-12.4l.1-2.4c0,4.5,3,9,8.9,12.4,11.8,6.8,30.9,6.8,42.6,0,5.9-3.4,8.8-7.8,8.8-12.3h0Z"/>
            </g>
          </g>
          <g class="cls-14">
            <path id="SVGID-2" data-name="SVGID" class="cls-60" d="m98.8,114.42c0,7,0-4.6-.1,2.4,0,4.4-2.9,8.9-8.8,12.3-11.7,6.8-30.8,6.8-42.6,0-5.9-3.4-8.9-7.9-8.9-12.4l.1-2.4c0,4.5,3,9,8.9,12.4,11.8,6.8,30.9,6.8,42.6,0,5.9-3.4,8.8-7.9,8.8-12.3Z"/>
            <g class="cls-32">
              <path class="cls-9" d="m98.8,114.42l-.1,2.4c0,4.4-2.9,8.9-8.8,12.3-11.7,6.8-30.8,6.8-42.6,0-5.9-3.4-8.9-7.9-8.9-12.4l.1-2.4c0,4.5,3,9,8.9,12.4,11.8,6.8,30.9,6.8,42.6,0,5.9-3.4,8.8-7.9,8.8-12.3h0Z"/>
            </g>
          </g>
          <g class="cls-14">
            <path id="SVGID-3" data-name="SVGID" class="cls-60" d="m98.8,113.12c0,7,0-4.6-.1,2.4,0,4.4-2.9,8.9-8.8,12.3-11.7,6.8-30.8,6.8-42.6,0-5.9-3.4-8.9-7.9-8.9-12.4l.1-2.4c0,4.5,3,9,8.9,12.4,11.8,6.8,30.9,6.8,42.6,0,5.9-3.5,8.8-7.9,8.8-12.3Z"/>
            <g class="cls-13">
              <path class="cls-47" d="m98.8,113.12l-.1,2.4c0,4.4-2.9,8.9-8.8,12.3-11.7,6.8-30.8,6.8-42.6,0-5.9-3.4-8.9-7.9-8.9-12.4l.1-2.4c0,4.5,3,9,8.9,12.4,11.8,6.8,30.9,6.8,42.6,0,5.9-3.5,8.8-7.9,8.8-12.3h0Z"/>
            </g>
          </g>
          <g class="cls-14">
            <path id="SVGID-4" data-name="SVGID" class="cls-60" d="m98.8,111.72c0,7,0-4.6-.1,2.4,0,4.4-2.9,8.9-8.8,12.3-11.7,6.8-30.8,6.8-42.6,0-5.9-3.4-8.9-7.9-8.9-12.4l.1-2.4c0,4.5,3,9,8.9,12.4,11.8,6.8,30.9,6.8,42.6,0,5.9-3.4,8.8-7.8,8.8-12.3Z"/>
            <g class="cls-49">
              <path class="cls-9" d="m98.8,111.72l-.1,2.4c0,4.4-2.9,8.9-8.8,12.3-11.7,6.8-30.8,6.8-42.6,0-5.9-3.4-8.9-7.9-8.9-12.4l.1-2.4c0,4.5,3,9,8.9,12.4,11.8,6.8,30.9,6.8,42.6,0,5.9-3.4,8.8-7.8,8.8-12.3h0Z"/>
            </g>
          </g>
          <g class="cls-14">
            <path id="SVGID-5" data-name="SVGID" class="cls-60" d="m98.8,110.42c0,7,0-4.6-.1,2.4,0,4.4-2.9,8.9-8.8,12.3-11.7,6.8-30.8,6.8-42.6,0-5.9-3.4-8.9-7.9-8.9-12.4l.1-2.4c0,4.5,3,9,8.9,12.4,11.8,6.8,30.9,6.8,42.6,0,5.9-3.4,8.8-7.9,8.8-12.3Z"/>
            <g class="cls-17">
              <path class="cls-47" d="m98.8,110.42l-.1,2.4c0,4.4-2.9,8.9-8.8,12.3-11.7,6.8-30.8,6.8-42.6,0-5.9-3.4-8.9-7.9-8.9-12.4l.1-2.4c0,4.5,3,9,8.9,12.4,11.8,6.8,30.9,6.8,42.6,0,5.9-3.4,8.8-7.9,8.8-12.3h0Z"/>
            </g>
          </g>
          <g class="cls-14">
            <path id="SVGID-6" data-name="SVGID" class="cls-60" d="m98.8,109.12c0,7,0-4.6-.1,2.4,0,4.4-2.9,8.9-8.8,12.3-11.7,6.8-30.8,6.8-42.6,0-5.9-3.4-8.9-7.9-8.9-12.4l.1-2.4c0,4.5,3,9,8.9,12.4,11.8,6.8,30.9,6.8,42.6,0,5.9-3.5,8.8-7.9,8.8-12.3Z"/>
            <g class="cls-6">
              <path class="cls-9" d="m98.8,109.12l-.1,2.4c0,4.4-2.9,8.9-8.8,12.3-11.7,6.8-30.8,6.8-42.6,0-5.9-3.4-8.9-7.9-8.9-12.4l.1-2.4c0,4.5,3,9,8.9,12.4,11.8,6.8,30.9,6.8,42.6,0,5.9-3.5,8.8-7.9,8.8-12.3h0Z"/>
            </g>
          </g>
          <g class="cls-14">
            <path id="SVGID-7" data-name="SVGID" class="cls-60" d="m98.8,107.72c0,7,0-4.6-.1,2.4,0,4.4-2.9,8.9-8.8,12.3-11.7,6.8-30.8,6.8-42.6,0-5.9-3.4-8.9-7.9-8.9-12.4l.1-2.4c0,4.5,3,9,8.9,12.4,11.8,6.8,30.9,6.8,42.6,0,5.9-3.4,8.8-7.8,8.8-12.3Z"/>
            <g class="cls-51">
              <path class="cls-47" d="m98.8,107.72l-.1,2.4c0,4.4-2.9,8.9-8.8,12.3-11.7,6.8-30.8,6.8-42.6,0-5.9-3.4-8.9-7.9-8.9-12.4l.1-2.4c0,4.5,3,9,8.9,12.4,11.8,6.8,30.9,6.8,42.6,0,5.9-3.4,8.8-7.8,8.8-12.3h0Z"/>
            </g>
          </g>
        </g>
        <g class="cls-14">
          <g class="cls-14">
            <g class="cls-48">
              <path class="cls-58" d="m97,94.22v2c0,.5-.3,1-1,1.4-1.3.8-3.5.8-4.8,0-.7-.4-1-.9-1-1.4v-2c0,.5.3,1,1,1.4,1.3.8,3.5.8,4.8,0,.6-.4,1-.9,1-1.4h0Z"/>
            </g>
          </g>
          <g>
            <path class="cls-43" d="m93.6,96.02c-.9,0-1.7-.2-2.3-.6-.6-.3-.9-.8-.9-1.3s.3-.9.9-1.3c.6-.4,1.5-.6,2.3-.6s1.7.2,2.3.6c.6.3.9.8.9,1.3s-.3.9-.9,1.3c-.6.4-1.5.6-2.3.6Z"/>
            <path class="cls-44" d="m93.5,92.52c.9,0,1.7.2,2.3.5s.9.7.9,1.2c0,.4-.3.8-.9,1.1-.6.3-1.4.5-2.3.5s-1.7-.2-2.3-.5-.9-.7-.9-1.2c0-.4.3-.8.9-1.2.7-.2,1.5-.4,2.3-.4h0Zm0-.3c-.9,0-1.8.2-2.4.6-1.3.8-1.3,2,0,2.8.7.4,1.5.6,2.4.6s1.8-.2,2.4-.6c1.3-.8,1.3-2,0-2.8-.6-.4-1.5-.6-2.4-.6h0Z"/>
          </g>
        </g>
        <g class="cls-14">
          <g class="cls-14">
            <g class="cls-41">
              <path class="cls-58" d="m48.1,102.22v2c0,.5-.3,1-1,1.4-1.3.8-3.5.8-4.8,0-.7-.4-1-.9-1-1.4v-2c0,.5.3,1,1,1.4,1.3.8,3.5.8,4.8,0,.6-.4,1-.9,1-1.4h0Z"/>
            </g>
          </g>
          <g>
            <path class="cls-43" d="m44.6,104.02c-.9,0-1.7-.2-2.3-.6-.6-.3-.9-.8-.9-1.3s.3-.9.9-1.3c.6-.4,1.5-.6,2.3-.6.9,0,1.7.2,2.4.6.6.3.9.8.9,1.3s-.3.9-.9,1.3c-.6.4-1.5.6-2.4.6Z"/>
            <path class="cls-44" d="m44.6,100.52c.9,0,1.7.2,2.3.5s.9.7.9,1.2c0,.4-.3.8-.9,1.2-.6.3-1.4.5-2.3.5s-1.7-.2-2.3-.5-.9-.7-.9-1.2c0-.4.3-.8.9-1.2.7-.3,1.5-.5,2.3-.5h0Zm0-.3c-.9,0-1.7.2-2.4.6-1.3.8-1.3,2,0,2.8.7.4,1.5.6,2.4.6s1.8-.2,2.4-.6c1.3-.8,1.3-2,0-2.8-.6-.4-1.5-.6-2.4-.6h0Z"/>
          </g>
        </g>
        <g class="cls-14">
          <g class="cls-14">
            <g class="cls-4">
              <path class="cls-58" d="m77,85.42v2c0,.5-.3,1-1,1.4-1.3.8-3.5.8-4.8,0-.7-.4-1-.9-1-1.4v-2c0,.5.3,1,1,1.4,1.3.8,3.5.8,4.8,0,.6-.4,1-.9,1-1.4h0Z"/>
            </g>
          </g>
          <g>
            <path class="cls-43" d="m73.6,87.22c-.9,0-1.7-.2-2.4-.6-.6-.3-.9-.8-.9-1.3s.3-.9.9-1.3c.6-.4,1.5-.6,2.3-.6.9,0,1.7.2,2.3.6.6.3.9.8.9,1.3s-.3.9-.9,1.3c-.5.4-1.4.6-2.2.6Z"/>
            <path class="cls-44" d="m73.5,83.72c.9,0,1.7.2,2.3.5s.9.7.9,1.2c0,.4-.3.8-.9,1.2-.6.3-1.4.5-2.3.5s-1.7-.2-2.3-.5-.9-.7-.9-1.2c0-.4.3-.8.9-1.2.7-.3,1.5-.5,2.3-.5h0Zm0-.3c-.9,0-1.8.2-2.4.6-1.3.8-1.3,2,0,2.8.7.4,1.5.6,2.4.6s1.7-.2,2.4-.6c1.3-.8,1.3-2,0-2.8-.6-.4-1.5-.6-2.4-.6h0Z"/>
          </g>
        </g>
        <g class="cls-14">
          <g class="cls-14">
            <g class="cls-23">
              <path class="cls-58" d="m90.9,96.82v3.4c0,3-2,6-5.9,8.3-8,4.6-20.9,4.6-28.9,0-4-2.3-6-5.4-6-8.4v-3.4c0,3.1,2,6.1,6,8.4,8,4.6,21,4.6,28.9,0,3.9-2.3,5.9-5.3,5.9-8.3h0Z"/>
            </g>
          </g>
          <path class="cls-18" d="m84.9,88.42c8,4.6,8.1,12.1.1,16.8-8,4.6-20.9,4.6-28.9,0s-8.1-12.1-.1-16.8c7.9-4.6,20.9-4.6,28.9,0Z"/>
        </g>
        <path class="cls-57" d="m52.8,84.82c-6.8-7.3-3.3-14.8-1.5-18.9.4-.9.8-1.7.9-2.2.4-1.6,3.9-3.7,6.8-5,6.7-3.1,16.1-5.2,22.5-2,4.6,2.3,9.1,2.7,13.4,1.1,9.6-3.6,14.9-16.1,14.9-16.3l.8.3c-.2.5-5.5,13-15.4,16.7-4.5,1.7-9.2,1.3-14-1.1-6.2-3.1-15.3-1-21.8,2-3.9,1.8-6.1,3.6-6.3,4.4-.2.6-.5,1.4-.9,2.3-1.9,4.1-5.1,11.1,1.3,17.9l-.7.8Z"/>
        <g class="cls-14">
          <g class="cls-14">
            <g class="cls-35">
              <path class="cls-58" d="m70.6,113.32v2c0,.5-.3,1-1,1.4-1.3.8-3.5.8-4.8,0-.7-.4-1-.9-1-1.4v-2c0,.5.3,1,1,1.4,1.3.8,3.5.8,4.8,0,.7-.4,1-.9,1-1.4h0Z"/>
            </g>
          </g>
          <g>
            <path class="cls-43" d="m67.2,115.12c-.9,0-1.7-.2-2.3-.6-.6-.3-.9-.8-.9-1.3s.3-.9.9-1.3c.6-.4,1.5-.6,2.3-.6s1.7.2,2.3.6c.6.3.9.8.9,1.3s-.3.9-.9,1.3c-.6.4-1.4.6-2.3.6Z"/>
            <path class="cls-44" d="m67.2,111.52c.9,0,1.7.2,2.3.5s.9.7.9,1.2c0,.4-.3.8-.9,1.1-.6.4-1.4.5-2.3.5s-1.7-.2-2.3-.5-.9-.7-.9-1.2c0-.4.3-.8.9-1.2.6-.2,1.4-.4,2.3-.4h0Zm0-.2c-.9,0-1.8.2-2.4.6-1.3.8-1.3,2,0,2.8.7.4,1.5.6,2.4.6s1.7-.2,2.4-.6c1.3-.8,1.3-2,0-2.8-.7-.4-1.5-.6-2.4-.6h0Z"/>
          </g>
        </g>
        <g>
          <g class="cls-14">
            <g class="cls-56">
              <g class="cls-14">
                <path class="cls-2" d="m80.8,101.52l11.7-6.8c0,1.8-1.2,3.3-2.8,4.2l-11.7,6.8c1.7-.9,2.8-2.4,2.8-4.2h0Z"/>
              </g>
            </g>
          </g>
          <path class="cls-47" d="m83,77.32l-13-6.7c-1.8-1-3.4-1.1-4.5-.4-3.9,2.3-7.8,4.5-11.7,6.8,1.2-.7,2.8-.6,4.5.4,13.9,7.2,13.2,6.7,14.4,7.9,3.4,3.3,7.4,10.7,8,14.5.1.7.1,1,.1,1.9l11.7-6.8v-.9c0-4.2-6-14.7-9.5-16.7Z"/>
          <path class="cls-9" d="m71.3,84.02c3.5,2,9.5,12.5,9.5,16.6v.9c0,4.1-6,6.6-9.5,4.5l-13-7.5c-3.5-2-6.4-7-6.4-11v-6.6c0-4.1,2.9-5.7,6.4-3.7l13,6.8Z"/>
        </g>
        <g>
          <g class="cls-14">
            <g class="cls-34">
              <path class="cls-2" d="m60.1,44.42l16.4-9.5c0,2.7-1,4.8-2.6,5.7l-16.4,9.5c1.7-.9,2.6-3,2.6-5.7h0Z"/>
            </g>
          </g>
          <path class="cls-47" d="m55.8,28.22l16.4-9.5c-2.2-4.9-6.6-9.2-10.6-9.7-11.8-1.3-11.1-1.2-11.7-1.2-.8,0-1.5.2-2.2.6l-16.4,9.5c.8-.5,1.8-.7,3-.6l10.9,1.2c4.4.6,8.7,5.5,10.6,9.7Z"/>
          <path class="cls-9" d="m55.8,28.22c1.4.1,2.8,1.8,3.3,3.5l2.8,9.7c.6,2-.3,3.4-1.8,2.9,0,4.1-2.1,6.7-5.6,6.3l-10.9-1.2c-1.1-.1-2.3-.5-3.4-1.2-3.5-2-6.9-6.4-8.3-11.2l-2.7-9.1c-1.9-6.4.4-11.1,5-10.6l10.9,1.2c4.4.5,8.6,5.2,10.7,9.7Z"/>
          <path class="cls-47" d="m78.3,32.02c-3.1-10.5-2.9-10-3.3-10.8-.6-1.1-1.7-2.4-2.9-2.5l-16.4,9.5c1.4.1,2.9,1.9,3.3,3.5l2.8,9.7c.4,1.4.1,2.5-.6,2.9,5.5-3.2,10.9-6.3,16.4-9.5.9-.4,1.1-1.5.7-2.8Z"/>
        </g>
        <path class="cls-16" d="m53,87.62c-4.9-2-7.5-4-7.9-6.3-.5-3,2.6-5.7,6-8.6,2.5-2.2,5.2-4.5,5.9-6.7,2.6-8.3,9.1-14.2,17.5-15.7,5.2-.9,8.3.3,11.1,1.4,2.5,1,4.6,1.9,7.7.8,8.3-2.9,6-13.6,6-13.7l.8-.2c0,.1,2.6,11.5-6.5,14.7-3.4,1.2-5.8.2-8.3-.8-2.6-1.1-5.6-2.3-10.6-1.4-8.1,1.4-14.4,7.1-16.9,15.1-.8,2.5-3.5,4.9-6.1,7.1-3,2.6-6.1,5.3-5.7,7.8.3,2,2.8,3.8,7.4,5.7l-.4.8Z"/>
        <g>
          <polygon class="cls-3" points="89 38.92 104.6 31.02 106.3 36.52 90.7 44.42 89 38.92"/>
          <g class="cls-14">
            <g class="cls-15">
              <g class="cls-14">
                <path class="cls-7" d="m89,38.92c16.9-8.6,16.1-8.1,16.1-8.1l-15.6,7.9c-.1.1-.3.2-.5.2h0Z"/>
              </g>
            </g>
          </g>
          <polygon class="cls-3" points="80.4 10.72 96 2.82 97.7 8.22 82.1 16.22 80.4 10.72"/>
          <path class="cls-47" d="m78.3,2.62c-.3,0-.5,0-.7.1-5.2,2.6-10.4,5.3-15.6,7.9.2-.1.4-.2.7-.2l17.7.2,15.6-7.9-17.7-.1Z"/>
          <g class="cls-14">
            <g class="cls-20">
              <g class="cls-14">
                <path class="cls-21" d="m82.1,16.22l15.6-7.9c2.1.7,4.3,2.4,6.1,4.7l-15.6,7.9c-1.8-2.4-4-4.1-6.1-4.7h0Z"/>
                <path class="cls-28" d="m88.2,20.82l15.6-7.9c1.3,1.6,2.3,3.5,3.1,5.6l-15.6,7.9c-.8-2.1-1.9-4-3.1-5.6h0Z"/>
                <path class="cls-21" d="m91.3,26.42l15.6-7.9c.2.4.3.8.4,1.2,1.6,5.3.6,9.7-2.2,11.1l-15.6,7.9c2.8-1.4,3.8-5.8,2.2-11.1-.1-.4-.2-.8-.4-1.2h0Z"/>
              </g>
            </g>
          </g>
          <polygon class="cls-7" points="80.4 10.72 96 2.82 100.6 2.92 85 10.82 80.4 10.72"/>
          <path class="cls-1" d="m101.8,30.02l-3.5,10.5-7.6,3.8,4.6.1c.4,0,.7-.1,1.1-.2h0c5.2-2.6,10.4-5.3,15.6-7.9.6-.3,1-.8,1.2-1.5l4.2-12.6-15.6,7.8Z"/>
          <path class="cls-9" d="m80.4,10.72l1.7,5.4c3.9,1.2,7.9,5.9,9.6,11.5,1.7,5.6.5,10.2-2.7,11.3l1.7,5.5,4.6.1c1.1,0,1.9-.6,2.3-1.8l4.2-12.6c.2-.5.1-1.2-.1-1.9.2.7.3,1.4.1,1.9l-4.2,12.6c-.4,1.2-1.2,1.8-2.3,1.8l-26-.3c-1.1,0-2.3-.6-3.5-1.6l-2.8-2.5c-1.1-1-2.1-2.5-2.6-4.1l-1.1-3.6c-.5-1.6-.5-3.1,0-4.1l1.7-3.4c.3-.5.4-1.2.4-2l-.3-10.1c0-1.4.6-2.3,1.6-2.3l17.7.2Z"/>
          <path class="cls-18" d="m116.3,18.42l-12.3-13.6c-1.1-1.2-2.3-1.9-3.4-1.9l-15.6,7.9c1.1,0,2.3.7,3.4,1.9,13.4,14.9,12.9,14,13.3,15.4.2.7.3,1.4.1,1.9l15.6-7.9c.4-1.1-.2-2.7-1.1-3.7Z"/>
          <path class="cls-10" d="m85,10.82c1.1,0,2.3.7,3.4,1.9,13.4,14.9,12.9,14,13.3,15.4.2.7.3,1.4.1,1.9l-4.2,12.6c-.4,1.2-1.2,1.8-2.3,1.8l-4.6-.1-1.7-5.5c3.2-1.1,4.4-5.7,2.7-11.3-1.7-5.6-5.7-10.3-9.6-11.5l-1.7-5.4,4.6.2Z"/>
        </g>
        <g>
          <path class="cls-31" d="m103.5.32l-16,9.3c3-1.7,8,3.6,8,8.4,0,1.5-.5,2.5-1.4,3l16-9.3c.8-.5,1.4-1.5,1.4-3,.1-4.8-5-10.1-8-8.4Z"/>
          <path class="cls-43" d="m90.9,9.92c2.6,1.5,4.7,5.1,4.7,8.1s-2.1,4.2-4.7,2.7-4.7-5.1-4.7-8.1,2.1-4.2,4.7-2.7Z"/>
        </g>
        <g>
          <path class="cls-10" d="m131.1,33.72c-1.9,1.1-4.8,1.3-7.7,0l-19.9-9.2c-4.9-2.3-7.2-6.6-6-10-.8,2.4-1.7,4.9-2.5,7.3-1.2,3.4,1,7.8,6,10l19.9,9.2c2.9,1.3,5.7,1.1,7.7,0,1-.6,1.7-1.4,2.1-2.4.8-2.4,1.7-4.9,2.5-7.3-.4,1-1.1,1.8-2.1,2.4Z"/>
          <path class="cls-47" d="m100.3,11.12c-5.3,3.1-3.7,10.2,3.1,13.3l19.9,9.2c2.9,1.3,5.7,1.1,7.7,0,1.9-1.1,2.9-3.2,1.9-5.6l-6.8-16.6c-2.4-5.7-11.1-8.8-16.5-5.7l-9.3,5.4Z"/>
        </g>
        <g>
          <path class="cls-55" d="m114.4,29.52l6.8,3.2-.1,11c0,.9.4,1.9,1.1,2.9l3.5,4.6c.7.9,1.5,1.9,2.4,2.7l4.2,4c1.2,1.1,1.6,2.6.9,3.6-.1.2-.3.4-.6.5-.8.4-1.9.2-2.9-.5l-5.4-3.9c-2-1.4-3.7-3.2-5.2-5l-3.4-4.5c-1.4-1.8-2.1-3.9-2.1-5.7l.8-12.9Z"/>
          <path class="cls-18" d="m132.7,61.82c-.8.4-1.9.2-2.9-.5l-5.4-3.9c-2-1.4-3.7-3.2-5.2-5l-3.4-4.5c-1.4-1.8-2.1-3.9-2.1-5.7l.6-12.7-4.7,6.2-.1,11.8c0,1.8.7,3.9,2.1,5.7l3.4,4.5c1.4,1.9,3.2,3.6,5.2,5l5.4,3.9c1,.7,2.1.9,2.9.5.2-.1.4-.2.5-.4,1.4-1.8,2.8-3.6,4.1-5.4,0,.3-.2.4-.4.5Z"/>
        </g>
        <path d="m52.7,86.52c-6.5-2.2-9.9-4.6-10.4-7.6-.7-4.1,4.6-8.2,8.9-11.4,1.7-1.3,3.4-2.6,4.3-3.6.9-1,2-1.9,3.2-3,5.8-5,13.7-11.9,12.5-28.8-.6-8.5.7-13.9,3.8-16.2,2.6-1.9,5.6-.7,5.7-.7l-.3.8s-2.6-1.1-4.9.6c-2,1.4-4.1,5.2-3.4,15.4,1.3,17.3-7.2,24.6-12.8,29.5-1.2,1.1-2.3,2-3.2,2.9-1,1.1-2.7,2.4-4.4,3.7-4.1,3.1-9.2,7-8.6,10.6.4,2.6,3.7,4.9,9.8,6.9l-.2.9Z"/>
        <g>
          <path class="cls-25" d="m68.4,86.52c-2.9-4.6-7.3-7.1-10.1-5.4l-4.2,2.4c4.8-1.2,10.4,3.8,12.1,10,.8,3,.7,6.6-1.7,8l4.2-2.4c3.2-1.8,2.7-7.8-.3-12.6Z"/>
          <path class="cls-24" d="m59.3,84.12c4.1,2.3,7.4,8,7.3,12.7,0,4.7-3.3,6.6-7.4,4.2-4.1-2.4-7.4-8-7.3-12.7s3.4-6.6,7.4-4.2Z"/>
        </g>
        <g>
          <path class="cls-12" d="m61,90.92c-1.2-1.8-2.9-2.8-4.1-2.2l-1.7,1c1.9-.5,4.2,1.5,4.9,4,.3,1.2.3,2.6-.7,3.2l1.7-1c1.3-.7,1.1-3.1-.1-5Z"/>
          <path class="cls-53" d="m57.4,89.92c1.6.9,2.9,3.2,2.9,5.1s-1.3,2.6-3,1.7c-1.6-.9-3-3.2-2.9-5.1,0-1.9,1.3-2.6,3-1.7Z"/>
        </g>
        <g>
          <path class="cls-18" d="m62.3,85.02h0s.3-.7,1.2-1.1c.7-.3,1.2-.3,1.2-.3l-14.4-41.7-2.4,1.4,14.4,41.7Z"/>
          <polygon class="cls-33" points="41.9 43.42 42 43.42 44.5 43.42 44.5 43.42 45.3 43.42 47 43.42 47 43.32 47.9 43.42 47.9 43.42 50.3 42.02 41.8 42.02 39.4 43.42 41.9 43.42"/>
          <path class="cls-30" d="m45.3,43.42h0l13.8,39.8c.5.2,1,.4,1.5.7.2.1.4.2.6.4l-14.2-40.9h-1.7Z"/>
          <path class="cls-30" d="m54.1,83.52c.5-.3,1-.4,1.5-.5l-13.7-39.6h-2.5.8l13.9,40.1Z"/>
          <path class="cls-30" d="m42,43.42h.8l13.6,39.5c.5-.1,1.1-.1,1.7,0l-13.6-39.5h-2.5Z"/>
          <path class="cls-33" d="m53.5,84.02l-14-40.6h-.1l14.1,40.6c-.1,0,0,0,0,0Z"/>
          <path class="cls-33" d="m54.1,83.52l-13.9-40.1h-.8l14,40.6c.3-.2.5-.3.7-.5Z"/>
          <path class="cls-33" d="m42,43.42h0l13.6,39.7h.3c.2-.1.4-.1.6-.2l-13.7-39.5h-.8Z"/>
          <path class="cls-33" d="m45.3,43.42h-.8l13.6,39.5c.3.1.6.1,1,.2l-13.8-39.7h0Z"/>
          <polygon class="cls-33" points="62.3 85.02 62.3 85.02 47.9 43.42 47.9 43.42 62.3 85.02"/>
          <polygon class="cls-33" points="47.9 43.42 47.9 43.42 47 43.32 47 43.42 47.9 43.42"/>
          <path class="cls-33" d="m47.9,43.42h-.9l14.1,40.8c.4.3.8.5,1.1.9h0l-14.3-41.7Z"/>
        </g>
        <g>
          <path class="cls-25" d="m50,31.72c-2.9-4.6-7.3-7.1-10.1-5.4l-4.2,2.4c4.8-1.2,10.4,3.8,12.1,10,.8,3,.7,6.6-1.7,8l4.2-2.4c3.1-1.9,2.7-7.9-.3-12.6Z"/>
          <path class="cls-24" d="m40.9,29.22c4.1,2.4,7.4,8,7.3,12.7,0,4.7-3.3,6.6-7.4,4.2-4.1-2.4-7.4-8-7.3-12.7,0-4.7,3.4-6.6,7.4-4.2Z"/>
        </g>
        <g>
          <path class="cls-12" d="m42.6,35.82c-1.2-1.8-2.9-2.8-4.1-2.2l-1.7,1c1.9-.5,4.2,1.5,4.9,4,.3,1.2.3,2.6-.7,3.2l1.7-1c1.3-.7,1.1-3-.1-5Z"/>
          <path class="cls-53" d="m39,34.82c1.6.9,3,3.2,2.9,5.1,0,1.9-1.3,2.6-3,1.7-1.6-.9-3-3.2-2.9-5.1,0-1.8,1.3-2.6,3-1.7Z"/>
        </g>
        <g class="cls-14">
          <g class="cls-14">
            <g class="cls-29">
              <path class="cls-31" d="m87.7,11.32l15.5,12.5c-.8-.6-2.1-.5-3.8.5-3,1.8-6,5.7-6.6,8.7-.3,1.4,0,2.3.6,2.8l-15.5-12.5c-.6-.5-.8-1.5-.6-2.8.6-3.1,3.6-7,6.6-8.7,1.7-1,3-1.1,3.8-.5h0Z"/>
            </g>
          </g>
          <path class="cls-43" d="m103.7,26.72c-.6,3.1-3.6,7-6.6,8.7-3,1.8-5,.7-4.3-2.4.6-3.1,3.6-7,6.6-8.7,3-1.8,5-.7,4.3,2.4Z"/>
        </g>
        <g>
          <path class="cls-43" d="m79.8,21.32h0c-.3-.1-.5-.3-.4-.5s1.3-5.6,6.7-7.6c.2-.1.5,0,.5.2.1.2,0,.5-.2.5-4.9,1.9-6.1,7-6.1,7-.1.3-.3.4-.5.4Z"/>
          <path class="cls-43" d="m81.8,22.92s-.1,0,0,0c-.3-.1-.5-.3-.4-.5s1.3-5.6,6.7-7.6c.2-.1.5,0,.5.2.1.2,0,.5-.2.5-4.9,1.9-6.1,7-6.1,7-.1.3-.3.4-.5.4Z"/>
          <path class="cls-43" d="m83.8,24.52s-.1,0,0,0c-.3-.1-.5-.3-.4-.5s1.3-5.6,6.7-7.6c.2-.1.5,0,.5.2.1.2,0,.5-.2.5-4.9,1.9-6.1,7-6.1,7-.1.3-.3.4-.5.4Z"/>
          <path class="cls-43" d="m85.8,26.12q-.1,0,0,0c-.3-.1-.5-.3-.4-.5s1.3-5.6,6.7-7.6c.2-.1.5,0,.5.2.1.2,0,.5-.2.5-4.9,1.9-6.1,7-6.1,7-.2.3-.3.4-.5.4Z"/>
          <path class="cls-43" d="m87.8,27.72q-.1,0,0,0c-.3-.1-.5-.3-.4-.5s1.3-5.6,6.7-7.6c.2-.1.5,0,.5.2s0,.5-.2.5c-4.9,1.9-6.1,7-6.1,7-.2.3-.3.4-.5.4Z"/>
          <path class="cls-43" d="m89.7,29.32h0c-.3-.1-.5-.3-.4-.5s1.3-5.6,6.7-7.6c.2-.1.5,0,.5.2.1.2,0,.5-.2.5-4.9,1.9-6.1,7-6.1,7-.1.3-.3.4-.5.4Z"/>
        </g>
      </g>
    </g>
  </g>
</svg>