<?xml version="1.0" encoding="UTF-8"?>
<svg id="Layer_2" data-name="Layer 2" xmlns="http://www.w3.org/2000/svg" viewBox="0 0 159.9 188.3">
  <defs>
    <style>
      .cls-1 {
        fill: #acaeb0;
      }

      .cls-2 {
        fill: #6b6c6d;
      }

      .cls-3 {
        fill: #c5c5c5;
      }

      .cls-4 {
        fill: #858788;
      }

      .cls-5 {
        fill: #3f3f3f;
      }

      .cls-6 {
        fill: #222;
      }

      .cls-7 {
        isolation: isolate;
      }

      .cls-8 {
        fill: #75787a;
      }

      .cls-9 {
        fill: #303030;
      }

      .cls-10 {
        fill: #949697;
      }

      .cls-11 {
        fill: #9a9c9d;
      }

      .cls-12 {
        fill: #8e8e8e;
      }

      .cls-13 {
        fill: #f33;
      }

      .cls-14 {
        fill: #b1b1b1;
      }

      .cls-15 {
        fill: #979b9e;
      }

      .cls-16 {
        fill: #ff5a5a;
      }

      .cls-17 {
        fill: #dd2c2c;
      }

      .cls-18 {
        fill: #5b5b5b;
      }

      .cls-19 {
        fill: #1e1e1e;
      }

      .cls-20 {
        fill: #5c5d5e;
      }
    </style>
  </defs>
  <g id="Layer_1-2" data-name="Layer 1">
    <g>
      <g>
        <g class="cls-7">
          <polygon class="cls-11" points="111.1 101.9 111.1 106.3 140.8 123.6 140.8 119.2 111.1 101.9"/>
          <polygon class="cls-2" points="140.8 119.2 140.8 123.6 159.9 112.6 159.9 108.2 140.8 119.2"/>
          <polygon class="cls-1" points="111.1 101.9 140.8 119.2 159.9 108.2 130.2 90.9 111.1 101.9"/>
        </g>
        <g>
          <g>
            <path class="cls-12" d="m133.3,88.5c-.2-.3-.5-.6-.7-1v-.1c-.4-1-.1-73.4.1-73.9.1-.3.2-.6.4-.7h0l-7.6,4.4c-.3.2-.5.5-.5,1.1-.3,104.7-.4,72.7,0,73.6.4,1,1.7,2.2,2.5,1.7,2.5-1.5,5-2.9,7.6-4.4-.5.4-1.3-.1-1.8-.7Z"/>
            <path class="cls-12" d="m141.2,91.4c0-69.9.1-73,.8-73.4-2.5,1.5-5,2.9-7.6,4.4-.3.2-.5.5-.5,1.1-.3,104.3-.6,72.8.3,74.2.5.8,1.5,1.5,2.2,1.1,2.5-1.5,5-2.9,7.6-4.4-1,.6-2.8-1.4-2.8-3Z"/>
            <path class="cls-14" d="m120.9,7.4l20.6,11.9-.3,94.2-20.6-11.9.3-94.2Zm16.1,90.3l.3-72.4c0-1-.7-2.3-1.6-2.8-.9-.5-1.7-.1-1.7.9l-.3,72.4c0,1,.7,2.3,1.6,2.8.9.6,1.7.1,1.7-.9h0Zm-8.9-5.1l.3-72.4c0-1-.7-2.3-1.6-2.8-.9-.5-1.6-.1-1.7.9l-.3,72.4c0,1,.7,2.3,1.6,2.8.9.5,1.7.1,1.7-.9h0Z"/>
            <polygon class="cls-12" points="141.5 19.3 149 14.9 148.7 109.1 141.1 113.5 141.5 19.3"/>
          </g>
          <polygon class="cls-3" points="120.9 7.4 128.5 3 149 14.9 141.5 19.3 120.9 7.4"/>
        </g>
      </g>
      <g>
        <g>
          <path class="cls-5" d="m59.2,59.7l-7.7-5.2c-1-.7-1.8-.8-2.4-.4-.3.2-.7.4-1,.6.6-.3,1.4-.2,2.4.4l7.7,5.2c2.3,1.6,3.4,4.4,2.6,6.8-.1.2-.1.3-.2.5l-5.3,15.8c-.1.1-.2.2-.4.3l1-.6c.1-.1.3-.2.4-.3l5.3-15.8c1.1-2.4.2-5.5-2.4-7.3Z"/>
          <path class="cls-19" d="m58.2,60.3c2.5,1.7,3.6,4.8,2.4,7.4l-5.3,15.8c-.7.8-1.9.6-3-.1-1.1-.7-2.2-2.1-2.7-3.7l-2.4-21c-.6-3.2.7-5.2,3.3-3.5l7.7,5.1Z"/>
        </g>
        <path class="cls-16" d="m76.8,94.2c-25.2-22.5-23.5-21-24.1-21.4-.9-.5-1.8-.6-2.4-.2-3.1,1.8-6.3,3.7-9.4,5.5,1-.6,2.2,0,3.1.7l23.5,20.9c3,3.1,2.9,4.9,2.6,6.6-.1.7-.5,1.2-.9,1.5,3.1-1.8,6.3-3.6,9.4-5.5.5-.3.8-.8.9-1.5.2-2.2-.1-3.9-2.7-6.6Z"/>
        <path class="cls-13" d="m43.2,78.3c.2.1.4.3.7.5l23.5,20.9c2.3,2.3,3,4.3,2.7,6.2l-.1.5c-.3,1.7-1.8,2.1-3.4,1.2-.2-.1-.4-.3-.7-.5l-24.1-17.5c-1.8-1.5-3-4.3-2.7-6.2l.8-3.8c.3-1.8,1.7-2.3,3.3-1.3Z"/>
        <g>
          <path class="cls-5" d="m50.2,64.2l-7.7-5.2c-1-.7-1.8-.8-2.4-.4-.3.2-.7.4-1,.6.6-.3,1.4-.2,2.4.4l7.7,5.2c2.3,1.6,3.4,4.4,2.6,6.8-.1.2-.1.3-.2.5l-5.3,15.8c-.1.1-.2.2-.4.3l1-.6c.1-.1.3-.2.4-.3l5.3-15.8c1.1-2.4.2-5.6-2.4-7.3Z"/>
          <path class="cls-19" d="m49.2,64.7c2.5,1.7,3.6,4.8,2.4,7.4l-5.3,15.8c-.7.8-1.9.6-3-.1s-2.2-2.1-2.7-3.7l-2.4-21c-.6-3.2.7-5.2,3.3-3.5l7.7,5.1Z"/>
        </g>
        <g>
          <path class="cls-17" d="m77,99.5c-.6-.3-1.4-.3-2.3.2-1.7,1-3.2,3.5-3.2,5.5,0,1,.4,1.7.9,2,.6.4,3.7,2.2,4.4,2.6-.6-.3-.9-1-.9-2,0-2,1.4-4.5,3.2-5.5.9-.5,1.7-.6,2.3-.2-.6-.3-3.8-2.2-4.4-2.6Z"/>
          <path class="cls-8" d="m79.1,102.3c1.7-1,3.2-.2,3.2,1.8s-1.4,4.5-3.2,5.5-3.2.2-3.2-1.8c.1-2,1.5-4.4,3.2-5.5Z"/>
        </g>
        <g>
          <g>
            <polygon class="cls-18" points="88.8 110.3 87 112.6 87.3 110 89 107.7 88.8 110.3"/>
            <path class="cls-9" d="m101.2,119.2c-.1,0-.2.1-.3.1-.6,0-1.3-.4-1.6-.9l-1.2-2c-.2-.4-.5-.8-.9-1.2l-1.6-1.9c-.3-.4-.8-.7-1.2-.8l-5.5-2-1.8,2.3,5.5,2c.5.2.9.5,1.2.8l1.6,1.9c.3.4.6.8.9,1.2l1.2,2c.3.6,1,1,1.6.9.1,0,.2,0,.3-.1.1,0,.2-.1.2-.2.6-.8,1.2-1.5,1.8-2.3-.1.1-.2.1-.2.2Z"/>
            <path class="cls-18" d="m89,107.7l5.9,2.2c.9.3,1.8.9,2.4,1.7l1.6,1.8c.7.8,1.2,1.6,1.5,2.5l.9,2.3c.2.4,0,.8-.3.9-.1,0-.2.1-.3.1-.6,0-1.3-.4-1.6-.9l-1.2-2c-.2-.4-.5-.8-.9-1.2l-1.6-1.9c-.3-.4-.8-.7-1.2-.8l-5.5-2,.3-2.7Z"/>
          </g>
          <g>
            <path class="cls-6" d="m89.6,113.2c-.8.5-2,.5-3.2,0l-8.5-3.9c-2.1-1-3-2.8-2.5-4.3-.4,1-.7,2.1-1.1,3.1-.5,1.4.4,3.3,2.5,4.3l8.5,3.9c1.2.6,2.4.5,3.2,0,.4-.2.7-.6.9-1,.4-1,.7-2.1,1.1-3.1-.2.4-.5.8-.9,1Z"/>
            <path class="cls-16" d="m76.5,103.7c-2.3,1.3-1.5,4.3,1.3,5.7l8.5,3.9c1.2.6,2.4.5,3.2,0s1.2-1.3.8-2.4l-2.9-7.1c-1-2.4-4.7-3.7-7-2.4l-3.9,2.3Z"/>
          </g>
          <g>
            <path class="cls-18" d="m82.5,111.4l2.9,1.4v4.7c0,.4.2.8.5,1.2l1.5,2c.3.4.6.8,1,1.1l1.8,1.7c.5.5.7,1.1.4,1.5-.1.1-.1.2-.2.2-.3.2-.8.1-1.2-.2l-2.3-1.7c-.8-.6-1.6-1.3-2.2-2.1l-1.4-1.9c-.6-.8-.9-1.6-.9-2.4l.1-5.5Z"/>
            <path class="cls-9" d="m90.3,125.2c-.3.2-.8.1-1.2-.2l-2.3-1.7c-.8-.6-1.6-1.3-2.2-2.1l-1.4-1.9c-.6-.8-.9-1.6-.9-2.4l.3-5.4-2,2.6v5c0,.8.3,1.6.9,2.4l1.4,1.9c.6.8,1.3,1.5,2.2,2.1l2.3,1.7c.4.3.9.4,1.2.2.1,0,.2-.1.2-.2.6-.8,1.2-1.5,1.8-2.3q-.2.2-.3.3Z"/>
          </g>
        </g>
        <g>
          <path class="cls-15" d="m42.9,82.1c.3-.2.8-.2,1.3.1,1,.6,1.8,2,1.8,3.2,0,.6-.2,1-.5,1.2-.4.2-.7.4-1.1.6.3-.2.5-.6.5-1.2,0-1.2-.8-2.6-1.8-3.2-.5-.3-1-.3-1.3-.1.4-.2.7-.4,1.1-.6Z"/>
          <path class="cls-8" d="m43.1,82.9c-1-.6-1.8-.1-1.8,1,0,1.2.8,2.6,1.8,3.2,1,.6,1.8.1,1.8-1,.1-1.2-.8-2.6-1.8-3.2Z"/>
        </g>
      </g>
      <g>
        <g class="cls-7">
          <polygon class="cls-11" points="0 166.7 0 171.1 29.7 188.3 29.7 183.9 0 166.7"/>
          <polygon class="cls-2" points="29.7 183.9 29.7 188.3 48.8 177.3 48.8 172.9 29.7 183.9"/>
          <polygon class="cls-1" points="0 166.7 29.7 183.9 48.8 172.9 19.1 155.7 0 166.7"/>
        </g>
        <g>
          <g>
            <path class="cls-12" d="m22.2,153.3c-.2-.3-.5-.6-.7-1v-.1c-.4-1-.1-73.4.1-73.9.1-.3.2-.6.4-.7h0l-7.6,4.4c-.3.2-.5.5-.5,1.1-.3,104.7-.4,72.7,0,73.6.4,1,1.7,2.2,2.5,1.7,2.5-1.5,5-2.9,7.6-4.4-.5.3-1.3-.2-1.8-.7Z"/>
            <path class="cls-12" d="m30.1,156.1c0-69.9.1-73,.8-73.4-2.5,1.5-5,2.9-7.6,4.4-.3.2-.5.5-.5,1.1-.3,104.2-.6,72.8.4,74.2.5.8,1.5,1.5,2.2,1.1,2.5-1.5,5-2.9,7.6-4.4-1.1.6-2.9-1.3-2.9-3Z"/>
            <path class="cls-14" d="m9.8,72.2l20.6,11.9-.3,94.2-20.7-11.9.4-94.2Zm16.1,90.2l.3-72.4c0-1-.7-2.3-1.6-2.8s-1.7-.1-1.7.9l-.3,72.4c0,1,.7,2.3,1.6,2.8.9.6,1.7.2,1.7-.9h0Zm-8.9-5.1l.3-72.4c0-1-.7-2.3-1.6-2.8s-1.7-.1-1.7.9l-.3,72.4c0,1,.7,2.3,1.6,2.8.9.6,1.7.1,1.7-.9h0Z"/>
            <polygon class="cls-12" points="30.3 84 37.9 79.6 37.6 173.9 30 178.3 30.3 84"/>
          </g>
          <polygon class="cls-3" points="9.8 72.2 17.3 67.8 37.9 79.6 30.3 84 9.8 72.2"/>
        </g>
      </g>
      <g>
        <g>
          <path class="cls-5" d="m106.2,32.3l-7.7-5.2c-1-.7-1.8-.8-2.4-.4-.3.2-.7.4-1,.6.6-.3,1.4-.2,2.4.4l7.7,5.2c2.3,1.6,3.4,4.4,2.6,6.8-.1.2-.1.3-.2.5l-5.3,15.8c-.1.1-.2.2-.4.3l1-.6c.1-.1.3-.2.4-.3l5.3-15.8c1.1-2.3.2-5.5-2.4-7.3Z"/>
          <path class="cls-19" d="m105.2,32.9c2.5,1.7,3.6,4.8,2.4,7.4l-5.3,15.8c-.7.8-1.9.6-3-.1-1.1-.7-2.2-2.1-2.7-3.7l-2.4-21c-.6-3.2.7-5.2,3.3-3.5l7.7,5.1Z"/>
        </g>
        <path class="cls-16" d="m123.7,66.8c-25.2-22.5-23.5-21-24.1-21.4-.9-.5-1.8-.6-2.4-.2-3.1,1.8-6.3,3.6-9.4,5.5,1-.6,2.2,0,3.1.7l23.5,20.9c3,3.1,2.9,4.9,2.6,6.6-.1.7-.5,1.2-.9,1.5,3.1-1.8,6.3-3.6,9.4-5.5.5-.3.8-.8.9-1.5.3-2.1,0-3.9-2.7-6.6Z"/>
        <path class="cls-13" d="m90.2,50.9c.2.1.4.3.7.5l23.5,20.9c2.3,2.3,3,4.3,2.7,6.2l-.1.5c-.3,1.7-1.8,2.1-3.4,1.2-.2-.1-.4-.3-.7-.5l-24.1-17.5c-1.8-1.5-3-4.3-2.7-6.2l.8-3.8c.3-1.8,1.7-2.2,3.3-1.3Z"/>
        <g>
          <path class="cls-5" d="m97.1,36.8l-7.7-5.2c-1-.7-1.8-.8-2.4-.4-.3.2-.7.4-1,.6.6-.3,1.4-.2,2.4.4l7.7,5.2c2.3,1.6,3.4,4.4,2.6,6.8-.1.2-.1.3-.2.5l-5.3,15.8c-.1.1-.2.2-.4.3l1-.6c.1-.1.3-.2.4-.3l5.3-15.8c1.2-2.4.2-5.6-2.4-7.3Z"/>
          <path class="cls-19" d="m96.1,37.4c2.5,1.7,3.6,4.8,2.4,7.4l-5.3,15.8c-.7.8-1.9.6-3-.1-1.1-.7-2.2-2.1-2.7-3.7l-2.4-21c-.6-3.2.7-5.2,3.3-3.5l7.7,5.1Z"/>
        </g>
        <g>
          <path class="cls-17" d="m124,72.2c-.6-.3-1.4-.3-2.3.2-1.7,1-3.2,3.5-3.2,5.5,0,1,.4,1.7.9,2,.6.4,3.7,2.2,4.4,2.6-.6-.3-.9-1-.9-2,0-2,1.4-4.5,3.2-5.5.9-.5,1.7-.6,2.3-.2-.7-.4-3.8-2.3-4.4-2.6Z"/>
          <path class="cls-8" d="m126.1,75c1.7-1,3.2-.2,3.2,1.8s-1.4,4.5-3.2,5.5c-1.7,1-3.2.2-3.2-1.8.1-2.1,1.5-4.5,3.2-5.5Z"/>
        </g>
        <g>
          <g>
            <polygon class="cls-18" points="135.8 82.9 134 85.2 134.2 82.6 136 80.3 135.8 82.9"/>
            <path class="cls-9" d="m148.1,91.8c-.1,0-.2.1-.3.1-.6,0-1.3-.4-1.6-.9l-1.2-2c-.2-.4-.5-.8-.9-1.2l-1.6-1.9c-.3-.4-.8-.7-1.2-.8l-5.5-2-1.8,2.3,5.5,2c.5.2.9.5,1.2.8l1.6,1.9c.3.4.6.8.9,1.2l1.2,2c.3.6,1,1,1.6.9.1,0,.2,0,.3-.1.1,0,.2-.1.2-.2.6-.8,1.2-1.5,1.8-2.3,0,.1-.1.2-.2.2Z"/>
            <path class="cls-18" d="m136,80.3l5.9,2.2c.9.3,1.8.9,2.4,1.7l1.6,1.8c.7.8,1.2,1.6,1.5,2.5l.9,2.3c.2.4,0,.8-.3.9-.1,0-.2.1-.3.1-.6,0-1.3-.4-1.6-.9l-1.2-2c-.2-.4-.5-.8-.9-1.2l-1.6-1.9c-.3-.4-.8-.7-1.2-.8l-5.5-2,.3-2.7Z"/>
          </g>
          <g>
            <path class="cls-6" d="m136.5,85.8c-.8.5-2,.5-3.2,0l-8.5-3.9c-2.1-1-3-2.8-2.5-4.3-.4,1-.7,2.1-1.1,3.1-.5,1.4.4,3.3,2.5,4.3l8.5,3.9c1.2.6,2.4.5,3.2,0,.4-.2.7-.6.9-1,.4-1,.7-2.1,1.1-3.1-.1.5-.4.8-.9,1Z"/>
            <path class="cls-16" d="m123.5,76.3c-2.3,1.3-1.6,4.3,1.3,5.7l8.5,3.9c1.2.6,2.4.5,3.2,0s1.2-1.3.8-2.4l-2.9-7.1c-1-2.4-4.7-3.7-7-2.4l-3.9,2.3Z"/>
          </g>
          <g>
            <path class="cls-18" d="m129.5,84.1l2.9,1.4v4.7c0,.4.2.8.5,1.2l1.5,2c.3.4.6.8,1,1.1l1.8,1.7c.5.5.7,1.1.4,1.5-.1.1-.1.2-.2.2-.3.2-.8.1-1.2-.2l-2.3-1.7c-.8-.6-1.6-1.3-2.2-2.1l-1.4-1.9c-.6-.8-.9-1.6-.9-2.4l.1-5.5Z"/>
            <path class="cls-9" d="m137.2,97.8c-.3.2-.8.1-1.2-.2l-2.3-1.7c-.8-.6-1.6-1.3-2.2-2.1l-1.4-1.9c-.6-.8-.9-1.6-.9-2.4l.3-5.4-2,2.6v5c0,.8.3,1.6.9,2.4l1.4,1.9c.6.8,1.3,1.5,2.2,2.1l2.3,1.7c.4.3.9.4,1.2.2.1,0,.2-.1.2-.2.6-.8,1.2-1.5,1.8-2.3-.1.2-.2.3-.3.3Z"/>
          </g>
        </g>
        <g>
          <path class="cls-15" d="m89.9,54.7c.3-.2.8-.2,1.3.1,1,.6,1.8,2,1.8,3.2,0,.6-.2,1-.5,1.2-.4.2-.7.4-1.1.6.3-.2.5-.6.5-1.2,0-1.2-.8-2.6-1.8-3.2-.5-.3-1-.3-1.3-.1.4-.1.7-.4,1.1-.6Z"/>
          <path class="cls-8" d="m90.1,55.5c-1-.6-1.8-.1-1.8,1,0,1.2.8,2.6,1.8,3.2,1,.6,1.8.1,1.8-1,0-1.2-.8-2.6-1.8-3.2Z"/>
        </g>
      </g>
      <g class="cls-7">
        <polygon class="cls-20" points="27.2 82.3 25.3 81.2 25.3 76.2 27.2 77.3 27.2 82.3"/>
        <polygon class="cls-10" points="27.2 77.3 25.3 76.2 144.6 7.3 146.5 8.4 27.2 77.3"/>
        <polygon class="cls-4" points="146.5 8.4 146.5 13.4 27.2 82.3 27.2 77.3 146.5 8.4"/>
      </g>
      <g class="cls-7">
        <polygon class="cls-20" points="14.4 75 12.5 73.9 12.4 68.9 14.3 70 14.4 75"/>
        <polygon class="cls-10" points="14.3 70 12.4 68.9 131.7 0 133.6 1.1 14.3 70"/>
        <polygon class="cls-4" points="133.6 1.1 133.6 6.2 14.4 75 14.3 70 133.6 1.1"/>
      </g>
      <g class="cls-7">
        <polygon class="cls-12" points="63.4 50.2 63.3 56.8 48 65.8 48 59.1 63.4 50.2"/>
        <polygon class="cls-14" points="48 59.1 48 65.8 32.5 56.8 32.5 50.2 48 59.1"/>
        <polygon class="cls-3" points="63.4 50.2 48 59.1 32.5 50.2 47.9 41.2 63.4 50.2"/>
      </g>
      <g class="cls-7">
        <polygon class="cls-12" points="110.9 22.8 110.9 29.5 95.5 38.4 95.5 31.7 110.9 22.8"/>
        <polygon class="cls-14" points="95.5 31.7 95.5 38.4 80 29.5 80 22.8 95.5 31.7"/>
        <polygon class="cls-3" points="110.9 22.8 95.5 31.7 80 22.8 95.4 13.9 110.9 22.8"/>
      </g>
    </g>
  </g>
</svg>