<?xml version="1.0" encoding="UTF-8"?>
<svg id="Layer_2" data-name="Layer 2" xmlns="http://www.w3.org/2000/svg" viewBox="0 0 265.4 160.3">
  <defs>
    <style>
      .cls-1 {
        fill: #767675;
      }

      .cls-2 {
        fill: #3f3f3f;
      }

      .cls-3 {
        fill: #b70000;
      }

      .cls-4 {
        fill: #82817e;
      }

      .cls-5 {
        fill: #b2b2b2;
      }

      .cls-6 {
        fill: #bababa;
      }

      .cls-7 {
        isolation: isolate;
      }

      .cls-8 {
        fill: #757573;
      }

      .cls-9 {
        fill: #b5b8bd;
      }

      .cls-10 {
        fill: #444;
      }

      .cls-11 {
        fill: #828282;
      }

      .cls-12 {
        fill: #494949;
      }

      .cls-13 {
        fill: #d62121;
      }

      .cls-14 {
        fill: #373737;
      }

      .cls-15 {
        fill: #2d2d2d;
      }

      .cls-16 {
        fill: #ccc;
      }

      .cls-17 {
        fill: #ff5a5a;
      }

      .cls-18 {
        fill: #f73c3c;
      }

      .cls-19 {
        fill: #6a6a69;
      }

      .cls-20 {
        fill: #595959;
      }

      .cls-21 {
        fill: #5b5b5a;
      }

      .cls-22 {
        fill: #666665;
      }
    </style>
  </defs>
  <g id="Layer_1-2" data-name="Layer 1">
    <g>
      <g class="cls-7">
        <polygon class="cls-3" points="260.3 67.3 257.6 65.7 257.8 109.6 260.5 111.1 260.3 67.3"/>
        <polygon class="cls-1" points="264 65.2 261.3 63.6 257.6 65.7 260.3 67.3 264 65.2"/>
        <polygon class="cls-13" points="260.3 67.3 260.5 111.1 264.2 109 264 65.2 260.3 67.3"/>
      </g>
      <g class="cls-7">
        <polygon class="cls-3" points="227.9 86.5 225.2 85 225.3 128.8 228 130.4 227.9 86.5"/>
        <polygon class="cls-1" points="231.5 84.4 228.8 82.8 225.2 85 227.9 86.5 231.5 84.4"/>
        <polygon class="cls-13" points="227.9 86.5 228 130.4 231.7 128.3 231.5 84.4 227.9 86.5"/>
      </g>
      <g class="cls-7">
        <polygon class="cls-19" points="172.1 71.6 172.1 73.9 212.2 97 212.2 94.7 172.1 71.6"/>
        <polygon class="cls-13" points="212.2 94.7 212.2 97 265.4 66.3 265.4 64 212.2 94.7"/>
        <polygon class="cls-18" points="172.1 71.6 212.2 94.7 265.4 64 225.3 40.9 172.1 71.6"/>
      </g>
      <path class="cls-15" d="m183.1,83.5c4.7-11,10.6-17.2,17.7-18.4,11.6-2,22.8,9.9,22.9,10l2.7-2.5c-.5-.6-12.6-13.5-26.2-11.2-8.4,1.5-15.3,8.4-20.5,20.6l3.4,1.5Z"/>
      <g>
        <path class="cls-6" d="m52.1,4.3c.3-.2.5-.3.8-.5-2,1.2-3.2,3.6-3.2,7.1,0,7,4.9,15.6,11,19.1l146.2,84.4c3.1,1.8,5.9,1.9,7.9.8l-.8.5c-.9.5-1.9.8-3,.7-1,0-2-.2-3.1-.7-.6-.2-1.1-.5-1.7-.8L60,30.5c-6.1-3.5-11.1-12.1-11-19.1-.1-3.5,1.2-5.9,3.1-7.1Z"/>
        <path class="cls-17" d="m50.8,1.1c.1-.1.3-.2.4-.2,2.5-1.4,5.9-1.2,9.7.9l146.2,84.4c7.5,4.3,13.6,14.8,13.5,23.4,0,4.3-1.5,7.3-4,8.7-.3.2-.5.3-.8.5.2-.1.3-.2.4-.3,2.2-1.5,3.5-4.4,3.5-8.4,0-8.6-6-19.1-13.5-23.4L60,2.3c-3.6-2.1-7-2.4-9.4-1.1-.1,0-.2.1-.2.1.1-.1.3-.2.4-.2Z"/>
        <path class="cls-18" d="m206.3,86.7c7.5,4.3,13.6,14.8,13.5,23.4,0,8.6-6.1,12.1-13.6,7.8L59.9,33.4c-7.5-4.3-13.6-14.8-13.5-23.4,0-8.6,6.1-12.1,13.6-7.8l146.3,84.5ZM60,30.6l146.2,84.4c6.1,3.5,11.1.7,11.1-6.3s-4.9-15.6-11-19.1L60.1,5.2c-6.1-3.5-11.1-.7-11.1,6.3-.1,7,4.8,15.5,11,19.1h0Z"/>
      </g>
      <g>
        <path class="cls-8" d="m13.3,29.6c13-7.5,25.9-15.1,38.9-22.6-2,1.2-3.2,3.6-3.2,7.1,0,7,4.9,15.5,11,19.1l145.7,84.1c3.1,1.8,5.9,1.9,7.9.8-13,7.5-25.9,15.1-38.9,22.6-2,1.2-4.8,1-7.9-.8L21.1,55.8c-6.1-3.5-11-12.1-11-19.1,0-3.5,1.2-6,3.2-7.1Z"/>
        <path class="cls-14" d="m50.4,4c2.5-1.4,5.9-1.2,9.6.9l145.7,84.1c7.5,4.3,13.5,14.8,13.5,23.4,0,4-1.3,6.9-3.5,8.4-.1.1-.3.2-.4.3-13,7.5-25.9,15.1-38.9,22.6,2.4-1.4,3.9-4.4,4-8.7,0-8.6-6-19.1-13.5-23.4L21.2,27.5c-3.8-2.2-7.2-2.4-9.6-.9,12.9-7.6,25.9-15.1,38.8-22.6Z"/>
        <path class="cls-8" d="m166.9,111.6c7.5,4.3,13.5,14.8,13.5,23.4s-6.1,12-13.6,7.7L21.1,58.6c-7.5-4.3-13.5-14.8-13.5-23.4s6.1-12,13.6-7.7l145.7,84.1ZM21.1,55.7l145.7,84.1c6.1,3.5,11.1.7,11.1-6.3s-4.9-15.5-11-19.1L21.2,30.3c-6.1-3.5-11.1-.7-11.1,6.3s4.9,15.6,11,19.1h0Z"/>
      </g>
      <g>
        <g>
          <path class="cls-10" d="m152.1,104.2h0c-.5-1.5-2-2.6-2.8-2.1-.1.1-5.3,3.2-5.4,3.2.7-.4,1.9.3,2.6,1.6.5.9.7,2.3-.1,2.7.1-.1,5.3-3.2,5.4-3.2.6-.3.6-1.2.3-2.2Z"/>
          <path class="cls-9" d="m145.2,105.4c1,.6,1.8,1.9,1.8,3.1,0,1.1-.8,1.6-1.8,1s-1.8-1.9-1.8-3.1c0-1.1.8-1.5,1.8-1Z"/>
        </g>
        <g>
          <g>
            <path class="cls-13" d="m149.9,106.6h0c-1.5-4.1-5.4-7.2-7.7-5.8-.4.2-1.8,1-2.1,1.2,2-1.2,5.2.9,7,4.3,1.3,2.5,1.9,6.2-.2,7.5.4-.2,1.8-1,2.1-1.2,1.6-1,1.8-3.5.9-6Z"/>
            <path class="cls-3" d="m143.5,102.3c2.7,1.5,4.8,5.3,4.8,8.3s-2.2,4.3-4.8,2.8c-2.7-1.5-4.8-5.3-4.8-8.3s2.1-4.3,4.8-2.8Z"/>
          </g>
          <g>
            <path class="cls-11" d="m144.9,107.8h0c-.5-1.3-1.7-2.3-2.5-1.9-.1.1-.6.3-.7.4.6-.4,1.7.3,2.3,1.4.4.8.6,2-.1,2.4.1-.1.6-.3.7-.4.5-.2.6-1.1.3-1.9Z"/>
            <path class="cls-20" d="m142.8,106.5c.9.5,1.5,1.7,1.5,2.7s-.7,1.4-1.6.9c-.9-.5-1.5-1.7-1.5-2.7.1-1,.8-1.4,1.6-.9Z"/>
          </g>
        </g>
      </g>
      <g>
        <g>
          <path class="cls-10" d="m124.5,88.2h0c-.5-1.5-2-2.6-2.8-2.1-.1.1-5.3,3.2-5.4,3.2.7-.4,1.9.3,2.6,1.6.5.9.7,2.3-.1,2.7.1-.1,5.3-3.2,5.4-3.2.5-.4.6-1.3.3-2.2Z"/>
          <path class="cls-9" d="m117.5,89.4c1,.6,1.8,1.9,1.8,3.1,0,1.1-.8,1.6-1.8,1s-1.8-1.9-1.8-3.1c0-1.1.8-1.6,1.8-1Z"/>
        </g>
        <g>
          <g>
            <path class="cls-13" d="m122.3,90.5h0c-1.5-4.1-5.4-7.2-7.7-5.8-.4.2-1.8,1-2.1,1.2,2-1.2,5.2.9,7,4.3,1.3,2.5,1.9,6.3-.2,7.5.4-.2,1.8-1,2.1-1.2,1.6-1,1.8-3.5.9-6Z"/>
            <path class="cls-3" d="m115.9,86.2c2.7,1.5,4.8,5.3,4.8,8.3s-2.2,4.3-4.8,2.8c-2.7-1.5-4.8-5.3-4.8-8.3-.1-3.1,2.1-4.3,4.8-2.8Z"/>
          </g>
          <g>
            <path class="cls-11" d="m117.2,91.8h0c-.5-1.3-1.7-2.3-2.5-1.9-.1.1-.6.3-.7.4.6-.4,1.7.3,2.3,1.4.4.8.6,2-.1,2.4.1-.1.6-.3.7-.4.5-.3.6-1.1.3-1.9Z"/>
            <path class="cls-20" d="m115.2,90.4c.9.5,1.5,1.7,1.5,2.7s-.7,1.4-1.6.9c-.9-.5-1.5-1.7-1.5-2.7s.7-1.4,1.6-.9Z"/>
          </g>
        </g>
      </g>
      <g>
        <g>
          <path class="cls-10" d="m96.8,72.3h0c-.5-1.5-2-2.6-2.8-2.1-.1.1-5.3,3.2-5.4,3.2.7-.4,1.9.3,2.6,1.6.5.9.7,2.3-.1,2.7.1-.1,5.3-3.2,5.4-3.2.6-.4.7-1.3.3-2.2Z"/>
          <path class="cls-9" d="m89.9,73.5c1,.6,1.8,1.9,1.8,3.1,0,1.1-.8,1.6-1.8,1s-1.8-1.9-1.8-3.1c0-1.1.8-1.6,1.8-1Z"/>
        </g>
        <g>
          <g>
            <path class="cls-13" d="m94.6,74.6h0c-1.5-4.1-5.4-7.2-7.7-5.8-.3.2-1.8,1-2.1,1.2,2-1.2,5.2.9,7,4.3,1.3,2.5,1.9,6.2-.2,7.5.4-.2,1.8-1,2.1-1.2,1.6-1,1.8-3.5.9-6Z"/>
            <path class="cls-3" d="m88.2,70.3c2.7,1.5,4.8,5.3,4.8,8.3s-2.2,4.3-4.8,2.8c-2.7-1.5-4.8-5.3-4.8-8.3s2.1-4.3,4.8-2.8Z"/>
          </g>
          <g>
            <path class="cls-11" d="m89.6,75.9h0c-.5-1.3-1.7-2.3-2.5-1.9-.1.1-.6.3-.7.4.6-.4,1.7.3,2.3,1.4.4.8.6,2-.1,2.4.1-.1.6-.3.7-.4.5-.3.6-1.1.3-1.9Z"/>
            <path class="cls-20" d="m87.5,74.5c.9.5,1.5,1.7,1.5,2.7s-.7,1.4-1.6.9c-.9-.5-1.5-1.7-1.5-2.7.1-1,.8-1.4,1.6-.9Z"/>
          </g>
        </g>
      </g>
      <g>
        <g>
          <path class="cls-10" d="m69.2,56.4h0c-.5-1.5-2-2.6-2.8-2.1-.1.1-5.3,3.2-5.4,3.2.7-.4,1.9.3,2.6,1.6.5.9.7,2.3-.1,2.7.1-.1,5.3-3.2,5.4-3.2.5-.4.6-1.3.3-2.2Z"/>
          <path class="cls-9" d="m62.2,57.6c1,.6,1.8,1.9,1.8,3.1,0,1.1-.8,1.6-1.8,1s-1.8-1.9-1.8-3.1c0-1.1.8-1.6,1.8-1Z"/>
        </g>
        <g>
          <g>
            <path class="cls-13" d="m67,58.7h0c-1.5-4.1-5.4-7.2-7.7-5.8-.4.2-1.8,1-2.1,1.2,2-1.2,5.2.9,7,4.3,1.3,2.5,1.9,6.2-.2,7.5.4-.2,1.8-1,2.1-1.2,1.6-.9,1.8-3.4.9-6Z"/>
            <path class="cls-3" d="m60.6,54.5c2.7,1.5,4.8,5.3,4.8,8.3s-2.2,4.3-4.8,2.8c-2.7-1.5-4.8-5.3-4.8-8.3-.1-3.1,2.1-4.4,4.8-2.8Z"/>
          </g>
          <g>
            <path class="cls-11" d="m61.9,60h0c-.5-1.3-1.7-2.3-2.5-1.9-.1.1-.6.3-.7.4.6-.4,1.7.3,2.3,1.4.4.8.6,2-.1,2.4.1-.1.6-.3.7-.4.5-.3.6-1.1.3-1.9Z"/>
            <path class="cls-20" d="m59.9,58.6c.9.5,1.5,1.7,1.5,2.7s-.7,1.4-1.6.9c-.9-.5-1.5-1.7-1.5-2.7s.7-1.4,1.6-.9Z"/>
          </g>
        </g>
      </g>
      <g>
        <g>
          <path class="cls-10" d="m41.5,40.3h0c-.5-1.5-2-2.6-2.8-2.1-.1.1-5.3,3.2-5.4,3.2.7-.4,1.9.3,2.6,1.6.5.9.7,2.3-.1,2.7.1-.1,5.3-3.2,5.4-3.2.6-.3.7-1.2.3-2.2Z"/>
          <path class="cls-9" d="m34.6,41.5c1,.6,1.8,1.9,1.8,3.1,0,1.1-.8,1.6-1.8,1s-1.8-1.9-1.8-3.1c0-1.1.8-1.5,1.8-1Z"/>
        </g>
        <g>
          <g>
            <path class="cls-13" d="m39.3,42.7h0c-1.5-4.1-5.4-7.2-7.7-5.8-.4.2-1.8,1-2.1,1.2,2-1.2,5.2.9,7,4.3,1.3,2.5,1.9,6.2-.2,7.5.4-.2,1.8-1,2.1-1.2,1.6-1,1.8-3.5.9-6Z"/>
            <path class="cls-3" d="m32.9,38.4c2.7,1.5,4.8,5.3,4.8,8.3s-2.2,4.3-4.8,2.8c-2.7-1.5-4.8-5.3-4.8-8.3s2.1-4.3,4.8-2.8Z"/>
          </g>
          <g>
            <path class="cls-11" d="m34.3,43.9h0c-.5-1.3-1.7-2.3-2.5-1.9-.1.1-.6.3-.7.4.6-.4,1.7.3,2.3,1.4.4.8.6,2-.1,2.4.1-.1.6-.3.7-.4.5-.3.6-1.1.3-1.9Z"/>
            <path class="cls-20" d="m32.2,42.6c.9.5,1.5,1.7,1.5,2.7s-.7,1.4-1.6.9c-.9-.5-1.5-1.7-1.5-2.7.1-1,.8-1.4,1.6-.9Z"/>
          </g>
        </g>
      </g>
      <g>
        <path class="cls-17" d="m12.6,29.3c.3-.2.5-.3.8-.5-2,1.2-3.2,3.6-3.2,7.1,0,7,4.9,15.6,11,19.1l146.2,84.4c3.1,1.8,5.9,1.9,7.9.8l-.8.5c-.9.5-1.9.8-3,.7-1,0-2-.2-3.1-.7-.6-.2-1.1-.5-1.7-.8L20.5,55.5c-6.1-3.5-11.1-12.1-11-19.1-.1-3.5,1.1-5.9,3.1-7.1Z"/>
        <path class="cls-17" d="m11.2,26c.1-.1.3-.2.4-.2,2.5-1.4,5.9-1.2,9.7.9l146.2,84.4c7.5,4.3,13.6,14.8,13.5,23.4,0,4.3-1.5,7.3-4,8.7-.3.2-.5.3-.8.5.2-.1.3-.2.4-.3,2.2-1.5,3.5-4.4,3.5-8.4,0-8.6-6-19.1-13.5-23.4L20.4,27.2c-3.7-2.1-7-2.4-9.4-1.1-.1,0-.2.1-.2.1.2,0,.3-.1.4-.2Z"/>
        <path class="cls-18" d="m166.7,111.7c7.5,4.3,13.6,14.8,13.5,23.4,0,8.6-6.1,12.1-13.6,7.8L20.4,58.5c-7.5-4.3-13.6-14.8-13.5-23.4,0-8.6,6.1-12.1,13.6-7.8l146.2,84.4ZM20.4,55.6l146.2,84.4c6.1,3.5,11.1.7,11.1-6.3s-4.9-15.6-11-19.1L20.5,30.2c-6.1-3.5-11.1-.7-11.1,6.3-.1,7,4.9,15.5,11,19.1h0Z"/>
      </g>
      <g class="cls-7">
        <polygon class="cls-5" points="134.2 116.4 131.5 114.8 131.7 158.7 134.4 160.3 134.2 116.4"/>
        <polygon class="cls-1" points="137.9 114.3 135.2 112.7 131.5 114.8 134.2 116.4 137.9 114.3"/>
        <polygon class="cls-4" points="134.2 116.4 134.4 160.3 138 158.1 137.9 114.3 134.2 116.4"/>
      </g>
      <g class="cls-7">
        <polygon class="cls-5" points="92.3 92.3 89.6 90.7 89.8 134.5 92.5 136.1 92.3 92.3"/>
        <polygon class="cls-1" points="96 90.2 93.3 88.6 89.6 90.7 92.3 92.3 96 90.2"/>
        <polygon class="cls-4" points="92.3 92.3 92.5 136.1 96.2 134 96 90.2 92.3 92.3"/>
      </g>
      <g class="cls-7">
        <polygon class="cls-5" points="50.4 68.1 47.7 66.6 47.9 110.4 50.6 112 50.4 68.1"/>
        <polygon class="cls-1" points="54.1 66 51.4 64.5 47.7 66.6 50.4 68.1 54.1 66"/>
        <polygon class="cls-4" points="50.4 68.1 50.6 112 54.3 109.9 54.1 66 50.4 68.1"/>
      </g>
      <g class="cls-7">
        <polygon class="cls-5" points="8.5 44 5.8 42.4 6 86.3 8.7 87.8 8.5 44"/>
        <polygon class="cls-1" points="12.2 41.9 9.5 40.3 5.8 42.4 8.5 44 12.2 41.9"/>
        <polygon class="cls-4" points="8.5 44 8.7 87.8 12.4 85.7 12.2 41.9 8.5 44"/>
      </g>
      <g class="cls-7">
        <polygon class="cls-12" points="175.1 140.2 179.2 137.8 179.2 132.6 175.1 135 175.1 140.2"/>
        <polygon class="cls-16" points="175.1 135 179.2 132.6 4.1 31.6 0 34 175.1 135"/>
        <polygon class="cls-5" points="0 34 0 39.1 175.1 140.2 175.1 135 0 34"/>
      </g>
      <g class="cls-7">
        <polygon class="cls-21" points="216.6 55.3 204.4 48.2 204.5 77.1 216.6 84.2 216.6 55.3"/>
        <polygon class="cls-22" points="237.1 43.4 225 36.3 204.4 48.2 216.6 55.3 237.1 43.4"/>
        <polygon class="cls-2" points="216.6 55.3 216.6 84.2 237.2 72.3 237.1 43.4 216.6 55.3"/>
      </g>
    </g>
  </g>
</svg>