<?xml version="1.0" encoding="UTF-8"?>
<svg id="Layer_2" data-name="Layer 2" xmlns="http://www.w3.org/2000/svg" xmlns:xlink="http://www.w3.org/1999/xlink" viewBox="0 0 99.52 192.08">
  <defs>
    <style>
      .cls-1 {
        fill: #2e3133;
      }

      .cls-2 {
        opacity: .13;
      }

      .cls-3 {
        clip-path: url(#clippath-20);
      }

      .cls-4 {
        clip-path: url(#clippath-11);
      }

      .cls-5 {
        clip-path: url(#clippath-16);
      }

      .cls-6 {
        fill: #3d3d3d;
      }

      .cls-7 {
        fill: #d1d1d1;
      }

      .cls-8 {
        fill: #101011;
      }

      .cls-9 {
        fill: #bfbfbf;
      }

      .cls-10 {
        fill: #636668;
      }

      .cls-11 {
        fill: #585959;
      }

      .cls-12 {
        clip-path: url(#clippath-2);
      }

      .cls-13 {
        clip-path: url(#clippath-13);
      }

      .cls-14 {
        isolation: isolate;
      }

      .cls-15 {
        fill: #83888c;
      }

      .cls-16 {
        clip-path: url(#clippath-15);
      }

      .cls-17 {
        clip-path: url(#clippath-6);
      }

      .cls-18 {
        fill: #9a9da0;
      }

      .cls-19 {
        fill: #ef2626;
      }

      .cls-20 {
        fill: #ffc5c5;
      }

      .cls-21 {
        fill: #ffbe32;
      }

      .cls-22 {
        clip-path: url(#clippath-7);
      }

      .cls-23 {
        clip-path: url(#clippath-21);
      }

      .cls-24 {
        fill: #ff5039;
      }

      .cls-25 {
        fill: #333;
      }

      .cls-26 {
        fill: #ff867d;
      }

      .cls-27 {
        clip-path: url(#clippath-1);
      }

      .cls-28 {
        clip-path: url(#clippath-4);
      }

      .cls-29 {
        fill: #243844;
      }

      .cls-30 {
        fill: #b5b8bd;
      }

      .cls-31 {
        fill: #d31111;
      }

      .cls-32 {
        fill: #a7abaf;
      }

      .cls-33 {
        clip-path: url(#clippath-12);
      }

      .cls-34 {
        fill: #ef4748;
      }

      .cls-35 {
        fill: #8e8e8e;
      }

      .cls-36 {
        fill: #f33;
      }

      .cls-37 {
        fill: #797b7d;
      }

      .cls-38 {
        fill: #4a4d4f;
      }

      .cls-39 {
        fill: #eaeaea;
      }

      .cls-40 {
        fill: #ff4343;
      }

      .cls-41 {
        fill: #848689;
      }

      .cls-42 {
        clip-path: url(#clippath-22);
      }

      .cls-43 {
        fill: #dfff73;
      }

      .cls-44 {
        fill: #6c6d6d;
      }

      .cls-45 {
        clip-path: url(#clippath-9);
      }

      .cls-46 {
        fill: #8d8f91;
      }

      .cls-47 {
        clip-path: url(#clippath);
      }

      .cls-48 {
        fill: none;
      }

      .cls-49 {
        fill: #2377c2;
      }

      .cls-50 {
        clip-path: url(#clippath-19);
      }

      .cls-51 {
        fill: #bcbcbc;
      }

      .cls-52 {
        clip-path: url(#clippath-3);
      }

      .cls-53 {
        fill: #af0505;
      }

      .cls-54 {
        fill: #2d2d2d;
      }

      .cls-55 {
        fill: #979b9e;
      }

      .cls-56 {
        fill: #727376;
      }

      .cls-57 {
        clip-path: url(#clippath-8);
      }

      .cls-58 {
        fill: #c4c5c6;
      }

      .cls-59 {
        fill: #ff5a5a;
      }

      .cls-60 {
        fill: #55a6ff;
      }

      .cls-61 {
        clip-path: url(#clippath-18);
      }

      .cls-62 {
        clip-path: url(#clippath-14);
      }

      .cls-63 {
        fill: #f73c3c;
      }

      .cls-64 {
        fill: #aaaeb2;
      }

      .cls-65 {
        clip-path: url(#clippath-17);
      }

      .cls-66 {
        fill: #454648;
      }

      .cls-67 {
        clip-path: url(#clippath-5);
      }

      .cls-68 {
        fill: #cecece;
      }

      .cls-69 {
        fill: #dd2c2c;
      }

      .cls-70 {
        fill: #d2d6db;
      }

      .cls-71 {
        clip-path: url(#clippath-10);
      }

      .cls-72 {
        fill: #5b5b5b;
      }

      .cls-73 {
        clip-path: url(#clippath-23);
      }

      .cls-74 {
        fill: #a3d725;
      }

      .cls-75 {
        fill: #4d4f50;
      }
    </style>
    <clipPath id="clippath">
      <path class="cls-48" d="m83.22,149.1v4.9c0,2.1-1.4,4.2-4.1,5.7-5.5,3.2-14.4,3.2-20,0-2.8-1.6-4.2-3.7-4.2-5.8v-4.9c0,2.1,1.4,4.2,4.2,5.8,5.5,3.2,14.5,3.2,20,0,2.7-1.5,4.1-3.6,4.1-5.7Z"/>
    </clipPath>
    <clipPath id="clippath-1">
      <path class="cls-48" d="m71.32,154.4v.8c0,.3-.2.7-.7.9-.9.5-2.3.5-3.2,0-.5-.3-.7-.6-.7-.9v-.8c0,.3.2.7.7.9.9.5,2.3.5,3.2,0,.5-.3.7-.6.7-.9Z"/>
    </clipPath>
    <clipPath id="clippath-2">
      <path class="cls-48" d="m79.92,152.2v.8c0,.3-.2.7-.7.9-.9.5-2.3.5-3.2,0-.5-.3-.7-.6-.7-.9v-.8c0,.3.2.7.7.9.9.5,2.3.5,3.2,0,.5-.2.7-.5.7-.9Z"/>
    </clipPath>
    <clipPath id="clippath-3">
      <path class="cls-48" d="m81.52,146.2v.8c0,.3-.2.7-.7.9-.9.5-2.3.5-3.2,0-.5-.3-.7-.6-.7-.9v-.8c0,.3.2.7.7.9.9.5,2.4.5,3.2,0,.5-.2.7-.5.7-.9Z"/>
    </clipPath>
    <clipPath id="clippath-4">
      <path class="cls-48" d="m63.32,151.8v.8c0,.3-.2.7-.7.9-.9.5-2.3.5-3.2,0-.5-.3-.7-.6-.7-.9v-.8c0,.3.2.7.7.9.9.5,2.3.5,3.2,0,.4-.2.7-.5.7-.9Z"/>
    </clipPath>
    <clipPath id="clippath-5">
      <path class="cls-48" d="m61.82,145.8v.8c0,.3-.2.7-.7.9-.9.5-2.3.5-3.2,0-.5-.3-.7-.6-.7-.9v-.8c0,.3.2.7.7.9.9.5,2.3.5,3.2,0,.5-.2.7-.5.7-.9Z"/>
    </clipPath>
    <clipPath id="clippath-6">
      <path class="cls-48" d="m76.62,123.9c0,12.5-.1,10.8-.1,23.3,0,1-.7,2.1-2.1,2.9-2.8,1.6-7.3,1.6-10.1,0-1.4-.8-2.1-1.9-2.1-2.9h0c0-12.5.1-10.8.1-23.3,0,1.1.7,2.1,2.1,2.9,2.8,1.6,7.3,1.6,10.1,0,1.4-.8,2.1-1.9,2.1-2.9Z"/>
    </clipPath>
    <clipPath id="clippath-7">
      <path class="cls-48" d="m79.22,116.7v8.8c0,.3-.1.7-.2,1v-8.8c.1-.3.2-.7.2-1Z"/>
    </clipPath>
    <clipPath id="clippath-8">
      <path class="cls-31" d="m59.12,125.4v-8.8c0,1.6,1.1,3.1,3.2,4.3,2.6,1.4,6.2,1.8,9.3,1.4v8.8c-3.2.5-6.7,0-9.3-1.3-2.1-1.3-3.2-2.8-3.2-4.4Z"/>
    </clipPath>
    <clipPath id="clippath-9">
      <path class="cls-48" d="m76.62,89c0,12.5-.1,14.1-.1,26.6,0,1-.7,2.1-2.1,2.9-2.8,1.6-7.3,1.6-10.1,0-1.4-.8-2.1-1.9-2.1-2.9h0c0-12.5.1-14.1.1-26.6,0,1.1.7,2.1,2.1,2.9,2.8,1.6,7.3,1.6,10.1,0,1.4-.8,2.1-1.8,2.1-2.9Z"/>
    </clipPath>
    <clipPath id="clippath-10">
      <path class="cls-31" d="m58.82,87.7v-4.9c0,.7.2,1.3.6,2,1.9,3,7.6,4.6,12.8,3.5,3.3-.7,5.6-2.3,6.3-4.2v4.9c-.7,1.9-3,3.5-6.3,4.2-5.2,1.1-10.9-.5-12.8-3.5-.4-.6-.6-1.3-.6-2Z"/>
    </clipPath>
    <clipPath id="clippath-11">
      <path class="cls-48" d="m76.62,55.1c0,12.5-.1,14.1-.1,26.6,0,1-.7,2.1-2.1,2.9-2.8,1.6-7.3,1.6-10.1,0-1.4-.8-2.1-1.9-2.1-2.9h0c0-12.5.1-14.1.1-26.6,0,1.1.7,2.1,2.1,2.9,2.8,1.6,7.3,1.6,10.1,0,1.4-.9,2.1-1.9,2.1-2.9Z"/>
    </clipPath>
    <clipPath id="clippath-12">
      <path class="cls-31" d="m48.52,133.9v1.8c0-.5-.3-1-.8-1.4-.1-.1-.3-.2-.4-.3-1.4-.8-3.6-.9-5.3-.2-1.1.5-1.7,1.2-1.7,1.9v-1.8c0-.7.6-1.4,1.7-1.9,1.6-.7,3.9-.6,5.3.2.1.1.3.2.4.3.6.4.8.9.8,1.4Z"/>
    </clipPath>
    <clipPath id="clippath-13">
      <path class="cls-31" d="m79.02,54.4v3.3c0,1.4-.9,2.8-2.8,3.9-3.7,2.1-9.7,2.1-13.4,0-1.9-1.1-2.8-2.5-2.8-3.9v-3.3c0,1.4.9,2.8,2.8,3.9,3.7,2.1,9.7,2.1,13.4,0,1.9-1.1,2.8-2.5,2.8-3.9Z"/>
    </clipPath>
    <clipPath id="clippath-14">
      <path class="cls-48" d="m22.32,111.8c0,.3.2.5.5.8.7.4,1.9.5,2.7,0,.4-.2.6-.5.6-.8,0,.2,0,.4-.1.4-.5,1.8-3.7,1.6-3.7-.4Z"/>
    </clipPath>
    <clipPath id="clippath-15">
      <path class="cls-48" d="m22.32,111.8v-3.4c0,.3.2.5.5.8.7.4,1.9.5,2.7,0,.4-.2.6-.5.6-.8v3.4c0,.3-.2.6-.6.8-.8.4-2,.4-2.7,0-.3-.2-.5-.5-.5-.8Z"/>
    </clipPath>
    <clipPath id="clippath-16">
      <path class="cls-48" d="m19.82,106.3c0,.6.4,1.3,1.2,1.8,1.7,1,4.5,1,6.2.1.9-.5,1.4-1.2,1.4-1.8,0,.5-.1.8-.1,1-1.3,3.9-8.6,3.3-8.7-1.1Z"/>
    </clipPath>
    <clipPath id="clippath-17">
      <path class="cls-48" d="m19.82,106.3v-5.3c0,.6.4,1.3,1.2,1.8,1.7,1,4.5,1,6.2.1.9-.5,1.4-1.2,1.4-1.8v5.3c0,.7-.5,1.3-1.4,1.8-1.8,1-4.5,1-6.2-.1-.8-.6-1.2-1.2-1.2-1.8Z"/>
    </clipPath>
    <clipPath id="clippath-18">
      <path class="cls-48" d="m26.62,82.7v7.1c0,.4-.2.7-.7,1-.9.5-2.5.5-3.4,0-.5-.3-.7-.6-.7-1h0v-7.1c0,.4.2.7.7,1,.9.5,2.5.5,3.4,0,.5-.3.7-.6.7-1Z"/>
    </clipPath>
    <clipPath id="clippath-19">
      <path class="cls-48" d="m31.52,77.9v2.5c0,1.1-.7,2.2-2.1,3-2.9,1.7-7.5,1.7-10.4,0-1.4-.8-2.2-1.9-2.2-3v-2.5c0,1.1.7,2.2,2.2,3,2.9,1.7,7.5,1.7,10.4,0,1.4-.8,2.1-1.9,2.1-3Z"/>
    </clipPath>
    <clipPath id="clippath-20">
      <path class="cls-48" d="m24.82,85.9c-4-3.2-8-6.4-12-9.6-.1-.1-.2-.3-.2-.6l12,9.6c0,.3.1.5.2.6Z"/>
    </clipPath>
    <clipPath id="clippath-21">
      <path class="cls-48" d="m69.02,16.8l12,9.6c-.2-.2-.5-.2-.8,0l-12-9.6c.4-.2.6-.2.8,0Z"/>
    </clipPath>
    <clipPath id="clippath-22">
      <path class="cls-48" d="m44.22,79.1c-1-.6-.4-.2-1.4-.8-.6-.4-1.1-1-1.3-2l1.4.8c.2,1,.7,1.7,1.3,2Z"/>
    </clipPath>
    <clipPath id="clippath-23">
      <path class="cls-48" d="m55.92,42c.2-1.1-2.8-2.1-4.5-1.5-.5.2-.7.4-.8.7.4-2.4,3.5-2.8,4.8-1.1.2.2.2.4.2.4.3.6.3.9.3,1.5Z"/>
    </clipPath>
  </defs>
  <g id="Layer_1-2" data-name="Layer 1">
    <g>
      <g>
        <g>
          <g>
            <path class="cls-51" d="m95.82,28c-4.9,2.9-13,2.9-17.9,0l-13.4-7.7c-2.5-1.4-3.8-3.3-3.7-5.2v28.6c0,1.9,1.2,3.8,3.7,5.2l13.4,7.7c5,2.9,13,2.9,17.9,0,2.5-1.4,3.7-3.3,3.7-5.2v-28.6c0,1.9-1.3,3.8-3.7,5.2Z"/>
            <path class="cls-68" d="m95.72,17.6c5,2.9,5,7.5.1,10.4s-13,2.9-17.9,0l-13.4-7.7c-5-2.9-5-7.5-.1-10.4s13-2.9,17.9,0l13.4,7.7Z"/>
          </g>
          <path class="cls-54" d="m99.52,44c0,1.9-1.2,3.7-3.7,5.2-4.9,2.9-13,2.9-17.9,0l-13.4-7.7c-2.4-1.4-3.6-3.1-3.7-4.9v7.2c0,1.9,1.2,3.8,3.7,5.2l13.4,7.7c5,2.9,13,2.9,17.9,0,2.5-1.4,3.7-3.3,3.7-5.2,0-2.8,0-7.7,0-7.5Z"/>
        </g>
        <path class="cls-29" d="m86.42,48.4c0,.2-.2.4-.4.4h0c-.2,0-.4-.2-.4-.4v-16c0-.2.2-.4.4-.4h0c.2,0,.4.2.4.4v16Z"/>
        <path class="cls-29" d="m89.52,48.4c0,.2-.2.4-.4.4h0c-.2,0-.4-.2-.4-.4v-16c0-.2.2-.4.4-.4h0c.2,0,.4.2.4.4v16Z"/>
        <path class="cls-29" d="m92.52,48c0,.2-.2.4-.4.4h0c-.2,0-.4-.2-.4-.4v-15.9c0-.2.2-.4.4-.4h0c.2,0,.4.2.4.4v15.9Z"/>
        <path class="cls-29" d="m95.52,47.3c0,.2-.2.4-.4.4h0c-.2,0-.4-.2-.4-.4v-15.9c0-.2.2-.4.4-.4h0c.2,0,.4.2.4.4v15.9Z"/>
        <path class="cls-29" d="m98.02,45.6c0,.2-.2.4-.4.4h0c-.2,0-.4-.2-.4-.4v-15.9c0-.2.2-.4.4-.4h0c.2,0,.4.2.4.4v15.9Z"/>
      </g>
      <g>
        <path class="cls-53" d="m49.32,134.8c0,2.8-2.3,5.1-5.1,5.1s-5.1-2.3-5.1-5.1,2.3-5.1,5.1-5.1c2.9.1,5.1,2.3,5.1,5.1Z"/>
        <g>
          <path class="cls-36" d="m13.72,161c-.4-.3-.6-.7-.6-1v9.2c0,.3.2.7.6,1l27,21.2v-9.2l-27-21.2Z"/>
          <path class="cls-31" d="m89.52,154.3l-8.7,11.9c-.7,1-1.9,1.9-3.5,2.5l-32.7,13.9c-1.3.5-3.1.4-4.1-.4v9.2c1,.7,2.8.9,4.1.4l32.7-13.9c1.5-.6,2.7-1.5,3.5-2.5l8.7-11.9c.3-.4.4-.8.4-1.1v-9.2c0,.4-.1.7-.4,1.1Z"/>
          <path class="cls-59" d="m13.72,161c-1-.8-.7-1.8.6-2.4l32.7-13.9c1.5-.6,3.3-1.1,5.2-1.2l22.2-1.2c1.8-.1,3.6.4,4.6,1.2l9.9,7.8c1.1.8,1.3,1.9.6,2.9l-8.7,11.9c-.7,1-1.9,1.9-3.5,2.5l-32.7,13.9c-1.3.5-3.1.4-4.1-.4l-26.8-21.1Z"/>
        </g>
        <g>
          <g class="cls-14">
            <g class="cls-14">
              <g class="cls-47">
                <path class="cls-15" d="m83.22,149.1v4.9c0,2.1-1.4,4.2-4.1,5.7-5.5,3.2-14.4,3.2-20,0-2.8-1.6-4.2-3.7-4.2-5.8v-4.9c0,2.1,1.4,4.2,4.2,5.8,5.5,3.2,14.5,3.2,20,0,2.7-1.5,4.1-3.6,4.1-5.7h0Z"/>
              </g>
            </g>
            <path class="cls-32" d="m79.02,143.3c5.5,3.2,5.6,8.4.1,11.6-5.5,3.2-14.4,3.2-20,0-5.5-3.2-5.6-8.4-.1-11.6,5.5-3.2,14.5-3.2,20,0Z"/>
          </g>
          <g class="cls-14">
            <g class="cls-14">
              <g class="cls-27">
                <path class="cls-11" d="m71.32,154.4v.8c0,.3-.2.7-.7.9-.9.5-2.3.5-3.2,0-.5-.3-.7-.6-.7-.9v-.8c0,.3.2.7.7.9.9.5,2.3.5,3.2,0,.5-.3.7-.6.7-.9h0Z"/>
              </g>
            </g>
            <path class="cls-35" d="m70.72,153.4c.9.5.9,1.4,0,1.9s-2.3.5-3.2,0c-.9-.5-.9-1.4,0-1.9.8-.5,2.3-.5,3.2,0Z"/>
          </g>
          <g class="cls-14">
            <g class="cls-14">
              <g class="cls-12">
                <path class="cls-11" d="m79.92,152.2v.8c0,.3-.2.7-.7.9-.9.5-2.3.5-3.2,0-.5-.3-.7-.6-.7-.9v-.8c0,.3.2.7.7.9.9.5,2.3.5,3.2,0,.5-.2.7-.5.7-.9h0Z"/>
              </g>
            </g>
            <path class="cls-35" d="m79.22,151.3c.9.5.9,1.4,0,1.9s-2.3.5-3.2,0-.9-1.4,0-1.9c.9-.5,2.3-.5,3.2,0Z"/>
          </g>
          <g class="cls-14">
            <g class="cls-14">
              <g class="cls-52">
                <g class="cls-14">
                  <path class="cls-11" d="m81.52,146.2v.8c0,.3-.2.7-.7.9-.9.5-2.3.5-3.2,0-.5-.3-.7-.6-.7-.9v-.8c0,.3.2.7.7.9.9.5,2.4.5,3.2,0,.5-.2.7-.5.7-.9h0Z"/>
                </g>
              </g>
            </g>
            <path class="cls-35" d="m80.92,145.3c.9.5.9,1.4,0,1.9s-2.3.5-3.2,0c-.9-.5-.9-1.4,0-1.9.8-.5,2.3-.5,3.2,0Z"/>
          </g>
          <g class="cls-14">
            <g class="cls-14">
              <g class="cls-28">
                <path class="cls-11" d="m63.32,151.8v.8c0,.3-.2.7-.7.9-.9.5-2.3.5-3.2,0-.5-.3-.7-.6-.7-.9v-.8c0,.3.2.7.7.9.9.5,2.3.5,3.2,0,.4-.2.7-.5.7-.9h0Z"/>
              </g>
            </g>
            <path class="cls-35" d="m62.62,150.9c.9.5.9,1.4,0,1.9s-2.3.5-3.2,0c-.9-.5-.9-1.4,0-1.9.8-.5,2.3-.5,3.2,0Z"/>
          </g>
          <g class="cls-14">
            <g class="cls-14">
              <g class="cls-67">
                <path class="cls-11" d="m61.82,145.8v.8c0,.3-.2.7-.7.9-.9.5-2.3.5-3.2,0-.5-.3-.7-.6-.7-.9v-.8c0,.3.2.7.7.9.9.5,2.3.5,3.2,0,.5-.2.7-.5.7-.9h0Z"/>
              </g>
            </g>
            <path class="cls-35" d="m61.12,144.9c.9.5.9,1.4,0,1.9s-2.3.5-3.2,0c-.9-.5-.9-1.4,0-1.9s2.4-.5,3.2,0Z"/>
          </g>
        </g>
        <g class="cls-14">
          <g class="cls-14">
            <g class="cls-17">
              <g class="cls-14">
                <path class="cls-70" d="m76.62,123.9l-.1,23.3c0,1-.7,2.1-2.1,2.9-2.8,1.6-7.3,1.6-10.1,0-1.4-.8-2.1-1.9-2.1-2.9l.1-23.3c0,1.1.7,2.1,2.1,2.9,2.8,1.6,7.3,1.6,10.1,0,1.4-.8,2.1-1.9,2.1-2.9h0Z"/>
              </g>
            </g>
          </g>
          <path class="cls-30" d="m74.52,120.9c2.8,1.6,2.8,4.2,0,5.8s-7.3,1.6-10.1,0-2.8-4.2,0-5.8c2.8-1.6,7.3-1.6,10.1,0Z"/>
        </g>
        <g>
          <g class="cls-14">
            <g class="cls-22">
              <g class="cls-14">
                <path class="cls-70" d="m79.22,116.7v8.8c0,.3-.1.7-.2,1v-8.8c.1-.3.2-.7.2-1h0Z"/>
              </g>
            </g>
          </g>
          <g class="cls-14">
            <g>
              <path class="cls-31" d="m59.12,125.4v-8.8c0,1.6,1.1,3.1,3.2,4.3,2.6,1.4,6.2,1.8,9.3,1.4v8.8c-3.2.5-6.7,0-9.3-1.3-2.1-1.3-3.2-2.8-3.2-4.4Z"/>
              <g class="cls-57">
                <path class="cls-31" d="m71.72,122.3v8.8c-3.2.5-6.7,0-9.3-1.3-2.2-1.1-3.2-2.7-3.2-4.3v-8.8c0,1.6,1.1,3.1,3.2,4.3,2.6,1.3,6.1,1.7,9.3,1.3h0Z"/>
              </g>
            </g>
          </g>
          <path class="cls-31" d="m80.82,120.3l-4.4,2.7c-.2.2-.5.3-.8.3-.7.2-1.6.1-2.2-.3l-1.6-.9v8.8l1.6.9c.6.3,1.5.4,2.2.3.3-.1.6-.2.8-.3l4.4-2.7c.4-.2.6-.5.6-.8v-8.8c-.1.3-.2.6-.6.8Z"/>
          <path class="cls-59" d="m65.72,111.2c3.4-.7,7.4-.3,10.2,1.2,2.6,1.4,3.7,3.4,3.1,5.3l1.6.9c.9.5.9,1.3.1,1.8l-4.4,2.7c-.2.2-.5.3-.8.3-.7.2-1.6.1-2.2-.3l-1.6-.9c-3.2.5-6.7,0-9.3-1.4-4.1-2.2-4.3-5.8-.6-8.2,1.1-.6,2.5-1.1,3.9-1.4Z"/>
        </g>
        <g class="cls-14">
          <g class="cls-14">
            <g class="cls-45">
              <g class="cls-14">
                <path class="cls-70" d="m76.62,89l-.1,26.6c0,1-.7,2.1-2.1,2.9-2.8,1.6-7.3,1.6-10.1,0-1.4-.8-2.1-1.9-2.1-2.9l.1-26.6c0,1.1.7,2.1,2.1,2.9,2.8,1.6,7.3,1.6,10.1,0,1.4-.8,2.1-1.8,2.1-2.9h0Z"/>
              </g>
            </g>
          </g>
          <path class="cls-30" d="m74.52,86.1c2.8,1.6,2.8,4.2,0,5.8-2.8,1.6-7.3,1.6-10.1,0-2.8-1.6-2.8-4.2,0-5.8,2.8-1.6,7.3-1.6,10.1,0Z"/>
        </g>
        <g>
          <path class="cls-31" d="m80.72,83.7l-2.1.4v4.9l2.1-.4c.9-.2,1.4-.7,1.4-1.2v-4.9c0,.5-.5,1-1.4,1.2Z"/>
          <g class="cls-14">
            <g>
              <path class="cls-31" d="m58.82,87.7v-4.9c0,.7.2,1.3.6,2,1.9,3,7.6,4.6,12.8,3.5,3.3-.7,5.6-2.3,6.3-4.2v4.9c-.7,1.9-3,3.5-6.3,4.2-5.2,1.1-10.9-.5-12.8-3.5-.4-.6-.6-1.3-.6-2Z"/>
              <g class="cls-71">
                <path class="cls-31" d="m78.62,84.1v4.9c-.7,1.9-3,3.5-6.3,4.2-5.2,1.1-10.9-.5-12.8-3.5-.4-.7-.6-1.3-.6-2v-4.9c0,.7.2,1.3.6,2,1.9,3,7.6,4.6,12.8,3.5,3.3-.7,5.6-2.3,6.3-4.2h0Z"/>
              </g>
            </g>
          </g>
          <path class="cls-59" d="m65.42,77.4c3.3-.7,6.9-.3,9.5.9l2.1-.4c1.1-.2,2.4.1,2.8.7l2.2,3.5c.4.6-.2,1.4-1.3,1.6l-2.1.4c-.7,1.9-3,3.5-6.3,4.2-5.2,1.1-10.9-.5-12.8-3.5-1.9-3,.7-6.3,5.9-7.4Z"/>
        </g>
        <g class="cls-14">
          <g class="cls-14">
            <g class="cls-4">
              <g class="cls-14">
                <path class="cls-70" d="m76.62,55.1l-.1,26.6c0,1-.7,2.1-2.1,2.9-2.8,1.6-7.3,1.6-10.1,0-1.4-.8-2.1-1.9-2.1-2.9l.1-26.6c0,1.1.7,2.1,2.1,2.9,2.8,1.6,7.3,1.6,10.1,0,1.4-.9,2.1-1.9,2.1-2.9h0Z"/>
              </g>
            </g>
          </g>
          <path class="cls-30" d="m74.52,52.1c2.8,1.6,2.8,4.2,0,5.8-2.8,1.6-7.3,1.6-10.1,0-2.8-1.6-2.8-4.2,0-5.8,2.8-1.6,7.3-1.6,10.1,0Z"/>
        </g>
        <g>
          <g>
            <path class="cls-31" d="m48.52,133.9v1.8c0-.5-.3-1-.8-1.4-.1-.1-.3-.2-.4-.3-1.4-.8-3.6-.9-5.3-.2-1.1.5-1.7,1.2-1.7,1.9v-1.8c0-.7.6-1.4,1.7-1.9,1.6-.7,3.9-.6,5.3.2.1.1.3.2.4.3.6.4.8.9.8,1.4Z"/>
            <g class="cls-33">
              <path class="cls-31" d="m48.52,133.9v1.8c0-.5-.3-1-.8-1.4-.1-.1-.3-.2-.4-.3-1.4-.8-3.6-.9-5.3-.2-1.1.5-1.7,1.2-1.7,1.9v-1.8c0-.7.6-1.4,1.7-1.9,1.6-.7,3.9-.6,5.3.2.1.1.3.2.4.3.6.4.8.9.8,1.4h0Z"/>
            </g>
          </g>
          <path class="cls-31" d="m52.42,121.5l-.1-.1c-.5-.3-1.2-.3-1.7-.1l-29.6,12.5c-.4.1-.5.4-.5.6v1.8c0-.2.2-.5.5-.6l29.6-12.5c.5-.2,1.3-.2,1.7.1l.1.1c.2.1.3.3.3.5v-1.8c0-.2-.1-.3-.3-.5Z"/>
          <path class="cls-31" d="m67.32,133.3l-.1-.1c-.5-.3-1.2-.3-1.7-.1l-29.6,12.5c-.4.1-.5.4-.5.6v1.8c0-.2.2-.5.5-.6l29.6-12.5c.5-.2,1.3-.2,1.7.1l.1.1c.2.1.3.3.3.5v-1.8c-.1-.2-.1-.4-.3-.5Z"/>
          <path class="cls-36" d="m11.82,131.9c-.3-.2-.5-.5-.5-.8v1.8c0,.3.1.6.5.8l26,20.6v-1.8l-26-20.6Z"/>
          <path class="cls-9" d="m77.22,135.9c.8.6.6,1.5-.5,1.9l-35.5,15c-1,.4-2.3.3-3.1-.1-.1-.1-.2-.1-.2-.2l-26-20.6c-.8-.6-.6-1.5.5-1.9l35.5-15c1-.4,2.3-.3,3.1.1.1.1.2.1.2.2l26,20.6Zm-10.2-1.5c.6-.2.7-.7.3-1.1l-.1-.1c-.5-.3-1.2-.3-1.7-.1l-29.6,12.5c-.6.2-.7.7-.3,1.1l.1.1c.5.3,1.2.3,1.7.1l29.6-12.5h0Zm-14.8-11.8c.6-.2.7-.7.3-1.1l-.1-.1c-.5-.3-1.2-.3-1.7-.1l-29.6,12.5c-.6.2-.7.7-.3,1.1l.1.1c.5.3,1.2.3,1.7.1l29.6-12.5h0Zm-5.3,13.2c1.8-.8,2.2-2.2.9-3.3-.1-.1-.3-.2-.4-.3-1.4-.8-3.6-.9-5.3-.2-1.8.8-2.2,2.2-.9,3.3.1.1.3.2.4.3,1.4.8,3.6.9,5.3.2h0Z"/>
          <path class="cls-31" d="m76.62,137.8l-35.5,15c-1,.4-2.3.3-3.1-.1-.1-.1-.2-.1-.2-.2v1.8c.1.1.2.1.2.2.8.5,2.1.5,3.1.1l35.5-15c.6-.3,1-.7,1-1.1v-1.8c0,.5-.3.9-1,1.1Z"/>
        </g>
        <g class="cls-14">
          <g class="cls-14">
            <g>
              <path class="cls-31" d="m79.02,54.4v3.3c0,1.4-.9,2.8-2.8,3.9-3.7,2.1-9.7,2.1-13.4,0-1.9-1.1-2.8-2.5-2.8-3.9v-3.3c0,1.4.9,2.8,2.8,3.9,3.7,2.1,9.7,2.1,13.4,0,1.9-1.1,2.8-2.5,2.8-3.9Z"/>
              <g class="cls-13">
                <path class="cls-31" d="m79.02,54.4v3.3c0,1.4-.9,2.8-2.8,3.9-3.7,2.1-9.7,2.1-13.4,0-1.9-1.1-2.8-2.5-2.8-3.9v-3.3c0,1.4.9,2.8,2.8,3.9,3.7,2.1,9.7,2.1,13.4,0,1.9-1.1,2.8-2.5,2.8-3.9h0Z"/>
              </g>
            </g>
          </g>
          <path class="cls-31" d="m76.22,50.5c3.7,2.1,3.7,5.6,0,7.8-3.7,2.1-9.7,2.1-13.4,0-3.7-2.1-3.7-5.6,0-7.8,3.7-2.1,9.7-2.1,13.4,0Z"/>
        </g>
        <g>
          <g>
            <g class="cls-14">
              <g class="cls-62">
                <path class="cls-55" d="m23.12,113.2c-.7-.4-.8-1-.8-1.3,0,.3.2.5.5.8.7.4,1.9.5,2.7,0,.4-.2.6-.5.6-.8,0,.1,0,.5-.3.8-.6.9-1.9.9-2.7.5h0Z"/>
              </g>
            </g>
            <g class="cls-14">
              <g class="cls-16">
                <path class="cls-64" d="m22.32,111.8v-3.4c0,.3.2.5.5.8.7.4,1.9.5,2.7,0,.4-.2.6-.5.6-.8v3.4c0,.3-.2.6-.6.8-.8.4-2,.4-2.7,0-.3-.2-.5-.5-.5-.8h0Z"/>
              </g>
            </g>
            <path class="cls-70" d="m25.62,107.7c.7.4.7,1.1-.1,1.6-.8.4-2,.4-2.7,0s-.7-1.1.1-1.6c.7-.5,1.9-.5,2.7,0Z"/>
          </g>
          <g>
            <g class="cls-14">
              <g class="cls-5">
                <path class="cls-46" d="m21.62,109.3c-1.5-1-1.8-2.3-1.8-3,0,.6.4,1.3,1.2,1.8,1.7,1,4.5,1,6.2.1.9-.5,1.4-1.2,1.4-1.8,0,.3,0,1.2-.6,2-1.5,1.9-4.6,2-6.4.9h0Z"/>
              </g>
            </g>
            <g class="cls-14">
              <g class="cls-65">
                <path class="cls-64" d="m19.82,106.3v-5.3c0,.6.4,1.3,1.2,1.8,1.7,1,4.5,1,6.2.1.9-.5,1.4-1.2,1.4-1.8v5.3c0,.7-.5,1.3-1.4,1.8-1.8,1-4.5,1-6.2-.1-.8-.6-1.2-1.2-1.2-1.8h0Z"/>
              </g>
            </g>
            <path class="cls-70" d="m27.42,99.2c1.7,1,1.6,2.6-.1,3.6-1.8,1-4.5,1-6.2-.1s-1.6-2.6.1-3.6c1.7-.9,4.5-.9,6.2.1Z"/>
          </g>
          <g>
            <g>
              <path class="cls-70" d="m29.22,92.8c-2.7,1.6-7.1,1.6-9.9,0-1.4-.8-2.1-1.8-2.1-2.9v7c0,.4,0-2.3-.1,3.9,0,1,.7,2.1,2.1,2.9,2.7,1.6,7.2,1.6,9.9,0,1.4-.8,2-1.8,2-2.8l.1-3.9c0-.4,0-.9.1-7-.1,1-.8,2-2.1,2.8Z"/>
              <path class="cls-30" d="m29.22,87.1c2.7,1.6,2.7,4.1,0,5.7s-7.1,1.6-9.9,0c-2.7-1.6-2.7-4.1,0-5.7s7.1-1.6,9.9,0Z"/>
            </g>
            <g>
              <path class="cls-30" d="m26.02,104c.9-.1,1.7-.4,2.4-.7v-9.7c-.7.3-1.6.6-2.4.7v9.7Z"/>
              <path class="cls-30" d="m23.12,94.4v9.8c.8.1,1.6.1,2.4,0v-9.8h-2.4Z"/>
              <path class="cls-30" d="m17.32,91.2l-.1,9.7c.3.7,1,1.6,2,2.2.2.1.4.2.5.3v-9.9c-.2-.1-.3-.2-.5-.3-1-.6-1.7-1.3-1.9-2Z"/>
              <path class="cls-30" d="m20.22,103.5c.8.3,1.6.5,2.4.6v-9.8c-.9-.1-1.7-.3-2.4-.6v9.8Z"/>
              <path class="cls-30" d="m29.22,93.2c-.1,0-.2.1-.3.1v9.7h.1c1.4-.8,2.1-2,2.1-3v-3.8c0-.4,0-.9.1-5.3-.2.7-.9,1.7-2,2.3Z"/>
            </g>
            <g class="cls-2">
              <path class="cls-8" d="m28.22,93.7v9.3c-.7.3-1.4.5-2.2.7v.4c.9-.1,1.7-.4,2.4-.7v-9.7c0-.1-.1,0-.2,0Z"/>
              <path class="cls-8" d="m23.12,103.8v.4c.8.1,1.6.1,2.4,0v-.4h-2.4Z"/>
              <path class="cls-8" d="m17.52,100.9v-9.3c-.1-.2-.2-.3-.2-.5l-.1,9.7c.3.7,1,1.6,2,2.2.2.1.4.2.5.3v-.2c-.1-.1-.2-.1-.3-.2-1-.6-1.6-1.3-1.9-2Z"/>
              <path class="cls-8" d="m20.42,93.8c-.1,0-.2-.1-.2-.1v9.8c.8.3,1.6.5,2.4.6v-.2c-.8-.1-1.5-.3-2.2-.6v-9.5h0Z"/>
              <path class="cls-8" d="m30.92,91.5v8.5c0,1-.7,2-1.9,2.8v.2h.1c1.4-.8,2.1-2,2.1-3v-3.8c0-.4,0-.9.1-5.3-.1.1-.3.5-.4.6Z"/>
            </g>
          </g>
          <g class="cls-14">
            <g class="cls-14">
              <g class="cls-61">
                <g class="cls-14">
                  <path class="cls-70" d="m26.62,82.7v7.1c0,.4-.2.7-.7,1-.9.5-2.5.5-3.4,0-.5-.3-.7-.6-.7-1v-7.1c0,.4.2.7.7,1,.9.5,2.5.5,3.4,0,.5-.3.7-.6.7-1h0Z"/>
                </g>
              </g>
            </g>
            <path class="cls-30" d="m25.92,81.7c.9.5,1,1.4,0,2-.9.5-2.5.5-3.4,0s-1-1.4,0-2c.9-.5,2.5-.5,3.4,0Z"/>
          </g>
          <g class="cls-14">
            <g class="cls-14">
              <g class="cls-50">
                <path class="cls-64" d="m31.52,77.9v2.5c0,1.1-.7,2.2-2.1,3-2.9,1.7-7.5,1.7-10.4,0-1.4-.8-2.2-1.9-2.2-3v-2.5c0,1.1.7,2.2,2.2,3,2.9,1.7,7.5,1.7,10.4,0,1.4-.8,2.1-1.9,2.1-3h0Z"/>
              </g>
            </g>
            <path class="cls-70" d="m29.42,74.9c2.9,1.7,2.9,4.4,0,6-2.9,1.7-7.5,1.7-10.4,0s-2.9-4.4,0-6c2.8-1.6,7.5-1.6,10.4,0Z"/>
          </g>
        </g>
        <g>
          <g class="cls-14">
            <g class="cls-3">
              <path class="cls-21" d="m24.82,85.9l-12-9.6c-.1-.1-.2-.3-.2-.6l12,9.6c0,.3.1.5.2.6h0Z"/>
            </g>
          </g>
          <g>
            <g class="cls-14">
              <path id="SVGID" class="cls-60" d="m69.02,16.8l12,9.6c-.2-.2-.5-.2-.8,0l-12-9.6c.4-.2.6-.2.8,0Z"/>
              <g class="cls-23">
                <g class="cls-14">
                  <path class="cls-60" d="m80.22,26.3l-12-9.6c.3-.1.6-.1.8,0l12,9.6c-.2-.1-.5-.1-.8,0h0Z"/>
                </g>
              </g>
            </g>
            <polygon class="cls-36" points="24.62 85.3 12.62 75.8 12.52 41.2 24.52 50.8 24.62 85.3"/>
            <path class="cls-60" d="m68.22,16.7L13.52,39.7c-.6.2-1,.9-1,1.5l12,9.6c0-.6.5-1.2,1-1.5l54.7-23-12-9.6Z"/>
            <path class="cls-69" d="m80.22,26.3c.6-.2,1,0,1,.6l.1,28.4c0,.6-.5,1.2-1,1.5l-35.5,14.9c-.3.1-.5.5-.5.7v4.6c0,.6-.5,1.2-1,1.5l-17.6,7.4c-.6.2-1,0-1-.6l-.1-34.6c0-.6.5-1.2,1-1.5l54.6-22.9Z"/>
          </g>
        </g>
        <g>
          <path class="cls-40" d="m16.72,54.7v-1.2L1.62,42.3v1.2c0,1.2.4,2.1,1.1,2.6,5,3.7,10.1,7.5,15.1,11.2-.7-.5-1.1-1.4-1.1-2.6Z"/>
          <polygon class="cls-49" points="16.72 53.5 1.62 42.3 81.32 6.2 96.32 17.4 16.72 53.5"/>
          <path class="cls-19" d="m96.32,17.4v1.2c0,2.7-2.1,5.7-4.6,6.9L21.42,57.4c-2.6,1.2-4.7,0-4.7-2.7v-1.2L96.32,17.4Z"/>
        </g>
        <g>
          <path class="cls-34" d="m96.32,18.4L20.52,53c-2,.9-5.1.6-7-.7L1.32,43.6c-.9-.6-1.3-1.4-1.2-2.1,0,.3-.1.6-.1.8-.1.7.3,1.5,1.2,2.1l12.2,8.7c1.8,1.3,4.9,1.6,7,.7L96.22,19.2c1-.5,1.6-1.2,1.6-1.9,0-.3.1-.6.1-.8,0,.8-.6,1.5-1.6,1.9Z"/>
          <path class="cls-34" d="m1.72,39.6c-2,.9-2.2,2.7-.4,4l12.2,8.7c1.8,1.3,4.9,1.6,7,.7L96.32,18.4c2-.9,2.2-2.7.4-4l-12.2-8.7c-1.8-1.3-4.9-1.6-7-.7L1.72,39.6Z"/>
        </g>
        <g>
          <path class="cls-20" d="m80.12.5c-.9-.6-2.1-.7-3.5-.1L6.22,27.5l15.1,11.2L91.72,11.6c1.4-.6,2.7-.6,3.5.1-5-3.7-10.1-7.5-15.1-11.2Z"/>
          <path class="cls-63" d="m21.32,38.7l-15.1-11.2c-2.6,1.2-4.6,4.3-4.6,6.9v6.9l15.1,11.2v-6.9c0-2.7,2.1-5.7,4.6-6.9Z"/>
          <path class="cls-19" d="m21.32,38.7L91.72,11.6c2.6-1.2,4.7,0,4.7,2.7v2.1L16.72,52.5v-6.9c0-2.7,2.1-5.7,4.6-6.9Z"/>
        </g>
        <g>
          <path class="cls-59" d="m76.92,12.7l-59.1,19.5,1.8,1.4,60.5-20.5c1.5.2,3-.5,4-.3-2.2-.6-5.6-.6-7.2-.1Z"/>
          <path class="cls-59" d="m19.62,33.6l-1.8-1.4c-2.2,1-4,3.7-4,5.9v.5l1.8,1.4v-.5c0-2.3,1.8-4.9,4-5.9Z"/>
          <path class="cls-19" d="m19.62,33.6l60.5-20.5c2.5-.7,4-.3,4-.3,0,0-49.4,17.6-65.1,23.9-3.3,1.3-3.4,3.3-3.4,3.3v-.5c0-2.3,1.8-4.9,4-5.9Z"/>
        </g>
        <g>
          <path class="cls-59" d="m66.52,4.9L7.42,24.4l1.8,1.4L69.72,5.3c1.5.2,2.9-.5,4-.3-2.2-.6-5.7-.6-7.2-.1Z"/>
          <path class="cls-59" d="m9.22,25.8l-1.8-1.4c-2.2,1-4,3.7-4,5.9v.5l1.8,1.4v-.5c0-2.3,1.8-4.9,4-5.9Z"/>
          <path class="cls-19" d="m9.22,25.8L69.72,5.3c2.5-.7,4-.3,4-.3,0,0-49.4,17.6-65.1,23.9-3.3,1.3-3.4,3.3-3.4,3.3v-.5c0-2.3,1.8-4.9,4-5.9Z"/>
        </g>
        <g>
          <g>
            <g>
              <g>
                <path class="cls-25" d="m84.12,72.1h-.3c.3,0,.4.8.4,1.1.2,1.8-.2,4.3-.8,4.3,3.3,0,3.6-5,.7-5.4Z"/>
                <path class="cls-6" d="m84.22,72.8c0-.2-.2-.8-.4-.7-1.6.2-3.1.5-4.7.7.3-.1.3,1.2.3,1.6,0,.9-.3,1.9-.5,1.8,1.5.4,3,.9,4.6,1.3.5.1,1-3.1.7-4.7Z"/>
              </g>
              <path class="cls-44" d="m78.62,75.8c-.1-.6-.1-1.6.1-2.4.2-.7.4-.9.6-.3.1.6.1,1.6-.1,2.4-.1.7-.4.8-.6.3Z"/>
            </g>
            <path class="cls-37" d="m79.02,75c.3-.3.2-1.4,0-1.5,0,0-28.6-1.1-28.7-1-.3.3-.3,1.6,0,1.6,2.1,0,28.6,1.1,28.7.9Z"/>
          </g>
          <g>
            <g>
              <g>
                <g class="cls-14">
                  <g class="cls-42">
                    <g class="cls-14">
                      <path class="cls-39" d="m44.22,79.1l-1.4-.8c-.6-.4-1.1-1-1.3-2l1.4.8c.2,1,.7,1.7,1.3,2h0Z"/>
                    </g>
                  </g>
                </g>
                <path class="cls-39" d="m52.52,67.1c-.2-.1-.5-.1-.8,0-.6-.3-1.1-.7-1.7-1-.9-.5-2.2-.5-3.6.3-2.1,1.2-4,3.8-4.7,6.4-.1,0-.2.1-.3.1-.8.5-1.5,1.6-1.5,2.6,0,.5.2.8.4,1l1.4.8c-.3-.2-.4-.5-.4-1,0-.9.7-2.1,1.5-2.6.1-.1.2-.1.3-.1.7-2.6,2.5-5.2,4.7-6.4.6-.4,1.3-.6,1.8-.7l2.9,1.7c.1-.1.2-.2.3-.2.4-.2.8-.3,1.1-.1l-1.4-.8Z"/>
                <path class="cls-58" d="m47.82,67.3c2.1-1.2,4-.7,4.7,1,.1-.1.2-.2.3-.2.8-.5,1.5-.1,1.5.9,0,.9-.7,2.1-1.5,2.6,0,0-.1,0-.1.1-.5,2.8-2.5,5.9-4.9,7.3s-4.4.6-4.9-1.6l-.1.1c-.8.5-1.5.1-1.5-.9,0-.9.7-2.1,1.5-2.6.1-.1.2-.1.3-.1.7-2.8,2.5-5.4,4.7-6.6Z"/>
              </g>
              <g>
                <path class="cls-18" d="m42.72,75.2h-.3c-.2.1-.4.5-.4.8,0,.1.1.2.1.3l.1.1c-.1,0-.1-.1-.1-.3,0-.3.2-.6.4-.8.1-.1.2-.1.2-.1,0,0,.1,0,0,0Z"/>
                <path class="cls-10" d="m42.52,75.3c.2-.1.4,0,.4.3s-.2.6-.4.8c-.2.1-.4,0-.4-.3,0-.4.2-.7.4-.8Z"/>
              </g>
              <g>
                <path class="cls-18" d="m53.62,68.8h-.3c-.2.1-.4.5-.4.8,0,.1.1.2.1.3.1,0,0,0,.1.1-.1,0-.1-.1-.1-.3,0-.3.2-.6.4-.8.1-.1.2-.1.2-.1,0,0,.1,0,0,0Z"/>
                <path class="cls-10" d="m53.42,68.8c.2-.1.4,0,.4.3s-.2.6-.4.8c-.2.1-.4,0-.4-.3-.1-.3.1-.6.4-.8Z"/>
              </g>
            </g>
            <g>
              <path class="cls-38" d="m50.82,67.8c-.8-.4-1.8-.4-3,.3-2.3,1.3-4.2,4.6-4.2,7.3,0,1.3.5,2.3,1.2,2.7.8.5,0,0,.9.5-.8-.4-1.2-1.4-1.2-2.7,0-2.7,1.9-5.9,4.2-7.3,1.2-.7,2.2-.7,3-.3-.9-.5-.1,0-.9-.5Z"/>
              <path class="cls-1" d="m48.72,68.6c2.3-1.3,4.2-.3,4.2,2.4s-1.9,5.9-4.2,7.3c-2.3,1.3-4.2.3-4.2-2.4,0-2.7,1.8-6,4.2-7.3Z"/>
            </g>
            <g>
              <path class="cls-39" d="m51.52,68.8c-.7-.4-1.7-.3-2.7.3-2.1,1.2-3.8,4.2-3.8,6.7,0,1.2.4,2.1,1.1,2.5.8.4,1.5.9,2.3,1.3-.7-.4-1.1-1.3-1.1-2.5,0-2.4,1.7-5.4,3.8-6.7,1.1-.6,2-.7,2.7-.3-.8-.5-1.5-.9-2.3-1.3Z"/>
              <path class="cls-58" d="m51.12,70.3c2.1-1.2,3.9-.2,3.9,2.2s-1.7,5.4-3.8,6.7c-2.1,1.2-3.9.2-3.9-2.2-.1-2.5,1.6-5.4,3.8-6.7Z"/>
            </g>
          </g>
          <g>
            <path class="cls-41" d="m47.12,78.1c-.1-.6-1.5-1.2-1.8-.7-.8,2.1-12.4,23.1-12.2,23.4.3.6,1.5,1,1.7.5,4.2-7.8,12.3-23,12.3-23.2Z"/>
            <g>
              <path class="cls-7" d="m31.92,105.2c.4.1.5.4.2.2-.4-.1-.6-.4-.2-.2Z"/>
              <path class="cls-6" d="m35.52,104.1c-.9-1-4.6-2.8-4.9-2.3h0c-.7,1.4-.1,2.8,1.3,3.6h.1c.3.1.5.2.5.2.2.1.4.1.6.1h.1c.8.1,1.6-.2,2.1-.7.3-.3.4-.5.5-.7-.2,0-.2-.1-.3-.2Zm-3.8,1.1c-.1-.1,0-.1.2,0,.1.1.3.2.4.2,0,.1-.5-.1-.6-.2Z"/>
              <path class="cls-25" d="m33.72,97.9c-1.1,1.3-2.1,2.6-3.2,3.9.4-.5,5.2,2,5,2.6.4-1.6.9-3.2,1.3-4.9.2-.4-2.8-1.9-3.1-1.6Z"/>
            </g>
          </g>
          <g>
            <path class="cls-41" d="m53.72,42.4c-.3-.4-1.5-.4-1.6,0h0c-1,10.1-2.7,27.1-2.7,27.3.3.5,1.5.5,1.6,0,3.7-36.9,2.8-27.1,2.7-27.3Z"/>
            <g>
              <path class="cls-25" d="m51.42,40.5c-.4.1-.8.4-.8.8.1,1.4.2,2.8.4,4.3,0,.2.2.4.5.6.6.4,1.7.5,2.4.3.3-.1.4-.2.5-.4.5-1.3,1.1-2.6,1.6-4,.3-1.1-2.8-2.3-4.6-1.6Z"/>
              <g class="cls-14">
                <g class="cls-73">
                  <g class="cls-14">
                    <path class="cls-75" d="m55.92,42c.2-1.6-.9-2.3-1.4-2.6-1.6-.8-3.6-.1-3.9,1.8,0-.3.3-.5.8-.7,1.7-.6,4.7.3,4.5,1.5h0Z"/>
                  </g>
                </g>
              </g>
              <path class="cls-7" d="m53.82,39.6c-.3.1-.7-.1-.4-.2h.4c.1.1.1.2,0,.2Z"/>
              <path class="cls-6" d="m55.52,40.2c-1.3-1.8-4.4-1.5-4.9,1,0,.3.2.7.8,1,1,.6,2.7.8,3.7.4.5-.2.7-.4.8-.7.1-.6-.1-1.2-.4-1.7Zm-1.7-.6c-.3.1-.7-.1-.4-.2h.4c.1.1.1.2,0,.2Z"/>
            </g>
          </g>
        </g>
        <g>
          <g class="cls-14">
            <polygon class="cls-66" points="20.62 64.8 21.42 64.4 21.42 75.5 20.62 75.9 20.62 64.8"/>
            <polygon class="cls-56" points="14.92 60.9 15.72 60.5 21.42 64.4 20.62 64.8 14.92 60.9"/>
            <polygon class="cls-72" points="20.62 64.8 20.62 75.9 14.92 72 14.92 60.9 20.62 64.8"/>
          </g>
          <g>
            <g>
              <path class="cls-43" d="m16.82,64.4c.2-.1.5-.1.9.1.7.4,1.3,1.4,1.2,2.2,0,.4-.1.7-.4.8-.2.1-.5.3-.7.4.2-.1.4-.4.4-.8,0-.8-.6-1.8-1.2-2.2-.3-.2-.7-.2-.9-.1.3-.1.5-.2.7-.4Z"/>
              <path class="cls-74" d="m17.02,65c-.7-.4-1.3-.1-1.3.7s.6,1.8,1.2,2.2c.7.4,1.3.1,1.3-.7.1-.9-.5-1.8-1.2-2.2Z"/>
            </g>
            <g>
              <path class="cls-26" d="m16.82,68.4c.2-.1.5-.1.9.1.7.4,1.3,1.4,1.2,2.2,0,.4-.1.7-.4.8-.2.1-.5.3-.7.4.2-.1.4-.4.4-.8,0-.8-.6-1.8-1.2-2.2-.3-.2-.7-.2-.9-.1.3-.1.5-.3.7-.4Z"/>
              <path class="cls-24" d="m17.02,68.9c-.7-.4-1.3-.1-1.3.7s.6,1.8,1.2,2.2c.7.4,1.3.1,1.3-.7.1-.8-.5-1.8-1.2-2.2Z"/>
            </g>
          </g>
        </g>
      </g>
    </g>
  </g>
</svg>