<?xml version="1.0" encoding="UTF-8"?>
<svg id="Layer_2" data-name="Layer 2" xmlns="http://www.w3.org/2000/svg" xmlns:xlink="http://www.w3.org/1999/xlink" viewBox="0 0 188.2 113.75">
  <defs>
    <style>
      .cls-1 {
        fill: #767675;
      }

      .cls-2 {
        fill: #898988;
      }

      .cls-3 {
        fill: #727272;
      }

      .cls-4 {
        fill: #a5a5a5;
      }

      .cls-5 {
        fill: #b70000;
      }

      .cls-6 {
        clip-path: url(#clippath-2);
      }

      .cls-7 {
        fill: #bababa;
      }

      .cls-8 {
        isolation: isolate;
      }

      .cls-9 {
        fill: #4d4d4d;
      }

      .cls-10 {
        fill: #d6d6d6;
      }

      .cls-11 {
        fill: #909090;
      }

      .cls-12 {
        fill: #6b6b6b;
      }

      .cls-13 {
        fill: #707070;
      }

      .cls-14 {
        clip-path: url(#clippath-1);
      }

      .cls-15 {
        fill: #b5b8bd;
      }

      .cls-16 {
        fill: #282828;
      }

      .cls-17 {
        fill: #444;
      }

      .cls-18 {
        fill: #828282;
      }

      .cls-19 {
        fill: #eaeaea;
      }

      .cls-20 {
        clip-path: url(#clippath);
      }

      .cls-21 {
        fill: #494949;
      }

      .cls-22 {
        fill: #d62121;
      }

      .cls-23 {
        fill: none;
      }

      .cls-24 {
        fill: #999;
      }

      .cls-25 {
        fill: #bcbcbc;
      }

      .cls-26 {
        clip-path: url(#clippath-3);
      }

      .cls-27 {
        fill: #2d2d2d;
      }

      .cls-28 {
        fill: #ff5a5a;
      }

      .cls-29 {
        fill: #f73c3c;
      }

      .cls-30 {
        fill: #6a6a69;
      }

      .cls-31 {
        fill: #cecece;
      }

      .cls-32 {
        fill: #595959;
      }

      .cls-33 {
        fill: #c6c6c6;
      }

      .cls-34 {
        fill: #ededed;
      }
    </style>
    <clipPath id="clippath">
      <path class="cls-23" d="m70.4,82.35l4.3,2.5c-.4-.2-.8-.3-1.3-.4l-4.3-2.5c.5.1,1,.2,1.3.4Z"/>
    </clipPath>
    <clipPath id="clippath-1">
      <path class="cls-23" d="m67,97.85l-4.3-2.5c-.4-.3-.8-.7-1-1.3l4.3,2.5c.2.6.5,1,1,1.3Z"/>
    </clipPath>
    <clipPath id="clippath-2">
      <path class="cls-23" d="m69.8,86.05l-4.3-2.5c.3-.3.6-.5,1-.7.1,0,.1-.1.2-.1.3-.2.5-.3.8-.4l4.3,2.5c-.3.1-.5.2-.8.4-.1,0-.1.1-.2.1-.4.2-.7.4-1,.7Z"/>
    </clipPath>
    <clipPath id="clippath-3">
      <path class="cls-23" d="m66.7,90.15l-4.3-2.5c.1-.2.2-.4.3-.7.3-.6.7-1.1,1.1-1.7l4.3,2.5c-.4.5-.8,1.1-1.1,1.7-.1.2-.2.5-.3.7Z"/>
    </clipPath>
  </defs>
  <g id="Layer_1-2" data-name="Layer 1">
    <g>
      <g class="cls-8">
        <polygon class="cls-30" points="3.5 47.85 5.4 46.75 5.3 77.85 3.4 78.95 3.5 47.85"/>
        <polygon class="cls-1" points=".9 46.35 2.8 45.25 5.4 46.75 3.5 47.85 .9 46.35"/>
        <polygon class="cls-21" points="3.5 47.85 3.4 78.95 .8 77.45 .9 46.35 3.5 47.85"/>
      </g>
      <g class="cls-8">
        <polygon class="cls-30" points="26.6 61.45 28.5 60.35 28.3 91.45 26.4 92.55 26.6 61.45"/>
        <polygon class="cls-1" points="24 59.95 25.9 58.85 28.5 60.35 26.6 61.45 24 59.95"/>
        <polygon class="cls-21" points="26.6 61.45 26.4 92.55 23.8 91.05 24 59.95 26.6 61.45"/>
      </g>
      <g class="cls-8">
        <polygon class="cls-30" points="66.1 50.85 66.1 52.55 37.7 68.95 37.7 67.25 66.1 50.85"/>
        <polygon class="cls-12" points="37.7 67.25 37.7 68.95 0 47.15 0 45.45 37.7 67.25"/>
        <polygon class="cls-33" points="66.1 50.85 37.7 67.25 0 45.45 28.4 29.15 66.1 50.85"/>
      </g>
      <path class="cls-27" d="m58.3,59.35c-3.3-7.8-7.6-12.2-12.6-13.1-8.3-1.4-16.2,7-16.3,7.1l-1.9-1.7c.4-.4,9-9.6,18.6-7.9,5.9,1,10.8,5.9,14.5,14.6l-2.3,1Z"/>
      <g>
        <path class="cls-7" d="m151.2,3.15c-.2-.1-.4-.2-.6-.3,1.4.8,2.3,2.6,2.3,5,0,5-3.5,11.1-7.8,13.6l-103.8,59.9c-2.2,1.3-4.2,1.4-5.6.5l.6.3c.6.4,1.4.5,2.2.5.7,0,1.4-.2,2.2-.5l1.2-.6,103.7-59.9c4.3-2.5,7.8-8.6,7.8-13.6.1-2.3-.8-4.1-2.2-4.9Z"/>
        <path class="cls-19" d="m152.1.85c-.1-.1-.2-.1-.3-.2-1.8-1-4.2-.9-6.8.7L41.3,61.25c-5.3,3.1-9.6,10.5-9.6,16.6,0,3,1.1,5.2,2.8,6.2l.6.3c-.1-.1-.2-.1-.3-.2-1.5-1.1-2.5-3.1-2.5-6,0-6.1,4.3-13.6,9.6-16.6L145.6,1.65c2.6-1.5,4.9-1.7,6.7-.8.1,0,.1.1.2.1-.2,0-.3,0-.4-.1Z"/>
        <path class="cls-31" d="m145.6,1.65c5.3-3.1,9.6-.6,9.7,5.5,0,6.1-4.3,13.6-9.6,16.6l-103.7,59.9c-5.3,3.1-9.6.6-9.7-5.5s4.3-13.6,9.6-16.6L145.6,1.65Zm0,20.1c4.3-2.5,7.8-8.6,7.8-13.6s-3.5-7-7.9-4.5L41.8,63.55c-4.3,2.5-7.8,8.6-7.8,13.6s3.5,7,7.9,4.5l103.7-59.9h0Z"/>
      </g>
      <g>
        <path class="cls-4" d="m178.7,21.05c-9.2-5.3-18.4-10.7-27.6-16,1.4.8,2.3,2.6,2.3,5,0,5-3.5,11-7.8,13.5l-103.4,59.7c-2.2,1.3-4.1,1.4-5.6.5,9.2,5.3,18.4,10.7,27.6,16,1.4.8,3.4.7,5.6-.5l103.4-59.7c4.3-2.5,7.8-8.6,7.8-13.5,0-2.4-.9-4.1-2.3-5Z"/>
        <path class="cls-16" d="m152.4,2.95c-1.7-1-4.2-.9-6.8.7L42.2,63.35c-5.3,3.1-9.6,10.5-9.6,16.6,0,2.8.9,4.9,2.5,5.9.1.1.2.1.3.2,9.2,5.3,18.4,10.7,27.6,16-1.7-1-2.8-3.1-2.8-6.1,0-6.1,4.3-13.5,9.6-16.6l103.4-59.7c2.7-1.5,5.1-1.7,6.8-.7-9.2-5.3-18.4-10.7-27.6-16Z"/>
        <path class="cls-11" d="m173.2,19.65c5.3-3.1,9.6-.6,9.6,5.5s-4.3,13.5-9.6,16.6l-103.4,59.6c-5.3,3.1-9.6.6-9.6-5.5s4.3-13.5,9.6-16.6l103.4-59.6Zm0,20c4.3-2.5,7.8-8.6,7.8-13.5s-3.5-7-7.9-4.5l-103.3,59.7c-4.3,2.5-7.8,8.6-7.8,13.5s3.5,7,7.9,4.5l103.3-59.7h0Z"/>
      </g>
      <g>
        <g>
          <path class="cls-17" d="m80.3,74.05h0c.4-1.1,1.4-1.9,2-1.5.1.1,3.7,2.2,3.8,2.3-.5-.3-1.4.2-1.8,1.1-.3.7-.5,1.6.1,1.9-.1-.1-3.7-2.2-3.8-2.3-.5-.2-.6-.9-.3-1.5Z"/>
          <path class="cls-15" d="m85.2,74.85c-.7.4-1.3,1.4-1.3,2.2s.6,1.1,1.3.7c.7-.4,1.3-1.4,1.3-2.2,0-.7-.6-1.1-1.3-.7Z"/>
        </g>
        <g>
          <g>
            <path class="cls-34" d="m81.8,75.65h0c1-2.9,3.8-5.1,5.5-4.1.3.1,1.3.7,1.5.9-1.4-.8-3.7.6-5,3-.9,1.8-1.4,4.4.1,5.3-.3-.1-1.3-.7-1.5-.9-1.1-.6-1.2-2.4-.6-4.2Z"/>
            <path class="cls-33" d="m86.4,72.65c-1.9,1.1-3.4,3.7-3.4,5.9s1.5,3.1,3.4,2,3.4-3.7,3.4-5.9-1.5-3.1-3.4-2Z"/>
          </g>
          <g>
            <path class="cls-18" d="m85.4,76.55h0c.3-.9,1.2-1.6,1.8-1.3.1,0,.4.2.5.3-.5-.3-1.2.2-1.6,1-.3.6-.4,1.4,0,1.7-.1,0-.4-.2-.5-.3-.3-.2-.4-.8-.2-1.4Z"/>
            <path class="cls-32" d="m86.9,75.65c-.6.4-1.1,1.2-1.1,1.9s.5,1,1.1.6,1.1-1.2,1.1-1.9-.5-1-1.1-.6Z"/>
          </g>
        </g>
      </g>
      <g>
        <g>
          <path class="cls-17" d="m99.9,62.65h0c.4-1.1,1.4-1.9,2-1.5.1.1,3.7,2.2,3.8,2.3-.5-.3-1.4.2-1.8,1.1-.3.7-.5,1.6.1,1.9-.1-.1-3.7-2.2-3.8-2.3-.5-.2-.6-.9-.3-1.5Z"/>
          <path class="cls-15" d="m104.8,63.45c-.7.4-1.3,1.4-1.3,2.2s.6,1.1,1.3.7c.7-.4,1.3-1.4,1.3-2.2,0-.7-.6-1.1-1.3-.7Z"/>
        </g>
        <g>
          <g>
            <path class="cls-34" d="m101.4,64.25h0c1-2.9,3.8-5.1,5.5-4.1.3.1,1.3.7,1.5.9-1.4-.8-3.7.6-5,3-.9,1.8-1.4,4.4.1,5.3-.2-.1-1.3-.7-1.5-.9-1-.6-1.2-2.4-.6-4.2Z"/>
            <path class="cls-33" d="m106,61.25c-1.9,1.1-3.4,3.7-3.4,5.9s1.5,3.1,3.4,2,3.4-3.7,3.4-5.9-1.5-3.1-3.4-2Z"/>
          </g>
          <g>
            <path class="cls-18" d="m105,65.15h0c.3-.9,1.2-1.6,1.8-1.3.1,0,.4.2.5.3-.5-.3-1.2.2-1.6,1-.3.6-.4,1.4,0,1.7-.1,0-.4-.2-.5-.3-.3-.2-.4-.8-.2-1.4Z"/>
            <path class="cls-32" d="m106.5,64.25c-.6.4-1.1,1.2-1.1,1.9s.5,1,1.1.6,1.1-1.2,1.1-1.9-.5-1-1.1-.6Z"/>
          </g>
        </g>
      </g>
      <g>
        <g>
          <path class="cls-17" d="m119.5,51.35h0c.4-1.1,1.4-1.9,2-1.5.1.1,3.7,2.2,3.8,2.3-.5-.3-1.4.2-1.8,1.1-.3.7-.5,1.6.1,1.9-.1-.1-3.7-2.2-3.8-2.3-.5-.2-.5-.8-.3-1.5Z"/>
          <path class="cls-15" d="m124.4,52.25c-.7.4-1.3,1.4-1.3,2.2s.6,1.1,1.3.7,1.3-1.4,1.3-2.2-.6-1.1-1.3-.7Z"/>
        </g>
        <g>
          <g>
            <path class="cls-34" d="m121.1,53.05h0c1-2.9,3.8-5.1,5.5-4.1.3.1,1.3.7,1.5.9-1.4-.8-3.7.6-5,3-.9,1.8-1.4,4.4.1,5.3-.2-.1-1.3-.7-1.5-.9-1.1-.7-1.3-2.4-.6-4.2Z"/>
            <path class="cls-33" d="m125.6,49.95c-1.9,1.1-3.4,3.7-3.4,5.9s1.5,3.1,3.4,2,3.4-3.7,3.4-5.9-1.5-3-3.4-2Z"/>
          </g>
          <g>
            <path class="cls-18" d="m124.6,53.95h0c.3-.9,1.2-1.6,1.8-1.3.1,0,.4.2.5.3-.5-.3-1.2.2-1.6,1-.3.6-.4,1.4,0,1.7-.1,0-.4-.2-.5-.3-.3-.3-.4-.8-.2-1.4Z"/>
            <path class="cls-32" d="m126.1,52.95c-.6.4-1.1,1.2-1.1,1.9s.5,1,1.1.6,1.1-1.2,1.1-1.9c0-.7-.5-.9-1.1-.6Z"/>
          </g>
        </g>
      </g>
      <g>
        <g>
          <path class="cls-17" d="m139.1,40.15h0c.4-1.1,1.4-1.9,2-1.5.1.1,3.7,2.2,3.8,2.3-.5-.3-1.4.2-1.8,1.1-.3.7-.5,1.6.1,1.9-.1-.1-3.7-2.2-3.8-2.3-.5-.2-.5-.9-.3-1.5Z"/>
          <path class="cls-15" d="m144,40.95c-.7.4-1.3,1.4-1.3,2.2s.6,1.1,1.3.7,1.3-1.4,1.3-2.2-.6-1.1-1.3-.7Z"/>
        </g>
        <g>
          <g>
            <path class="cls-34" d="m140.7,41.75h0c1-2.9,3.8-5.1,5.5-4.1.2.1,1.3.7,1.5.9-1.4-.8-3.7.6-5,3-.9,1.8-1.4,4.4.1,5.3-.3-.1-1.3-.7-1.5-.9-1.1-.6-1.3-2.4-.6-4.2Z"/>
            <path class="cls-33" d="m145.2,38.75c-1.9,1.1-3.4,3.7-3.4,5.9s1.5,3.1,3.4,2,3.4-3.7,3.4-5.9-1.5-3.1-3.4-2Z"/>
          </g>
          <g>
            <path class="cls-18" d="m144.2,42.65h0c.3-.9,1.2-1.6,1.8-1.3.1,0,.4.2.5.3-.5-.3-1.2.2-1.6,1-.3.6-.4,1.4,0,1.7-.1,0-.4-.2-.5-.3-.3-.2-.4-.8-.2-1.4Z"/>
            <path class="cls-32" d="m145.7,41.65c-.6.3-1.1,1.2-1.1,1.9s.5,1,1.1.6c.6-.3,1.1-1.2,1.1-1.9,0-.6-.5-.9-1.1-.6Z"/>
          </g>
        </g>
      </g>
      <g>
        <path class="cls-3" d="m73,85.35h-.2l-.8.3,4.3,2.5.8-.3h.2l-4.3-2.5Z"/>
        <path class="cls-3" d="m70.2,98.95v-1l-4.3-2.5v1c0,.1,0,.2.1.2,1.4.8,2.9,1.7,4.3,2.5,0,0-.1-.1-.1-.2Z"/>
        <path class="cls-3" d="m71.7,81.55c-.2-.1-.6.4-1,1l4.3,2.5c.5-.6.8-1.2,1.1-1-1.5-.9-3-1.7-4.4-2.5Z"/>
        <path class="cls-3" d="m66.4,98.95l.5-1.1-4.3-2.5-.5,1.1c-.1.2-.1.4,0,.4,1.4.8,2.9,1.7,4.3,2.5,0,0-.1-.2,0-.4Z"/>
        <g class="cls-8">
          <g class="cls-20">
            <g class="cls-8">
              <path class="cls-24" d="m73.4,84.55l-4.3-2.5c.5,0,.9.1,1.3.4l4.3,2.5c-.4-.3-.8-.4-1.3-.4h0Z"/>
            </g>
          </g>
        </g>
        <g class="cls-8">
          <g class="cls-14">
            <path class="cls-24" d="m67,97.85l-4.3-2.5c-.4-.3-.8-.7-1-1.3l4.3,2.5c.2.6.5,1,1,1.3h0Z"/>
          </g>
        </g>
        <path class="cls-25" d="m69.3,80.75h-.1l-1.2.2,4.3,2.5,1.2-.2h.1l-4.3-2.5Z"/>
        <path class="cls-3" d="m72.2,83.55q0-.1,0,0,.1-.1.2-.1l-4.3-2.5h-.1c-.3.2-.3.4-.5,1.4l4.3,2.5c.1-.9.1-1.1.4-1.3Z"/>
        <path class="cls-25" d="m64.8,97.25l-.3-1.2-4.3-2.5.3,1.2q0,.1.1.1c1.4.8,2.9,1.7,4.3,2.5-.1,0-.1-.1-.1-.1Z"/>
        <path class="cls-3" d="m65.6,94.75l-4.3-2.5c-.7.6-1,.7-1,1.1h0v.1l4.3,2.5v-.1h0c0-.3.2-.5,1-1.1Z"/>
        <g class="cls-8">
          <g class="cls-6">
            <path class="cls-24" d="m67.4,82.35c-.7.3-1.3.7-1.9,1.2l4.3,2.5c.6-.5,1.2-.9,1.9-1.2l-4.3-2.5Z"/>
          </g>
        </g>
        <path class="cls-24" d="m65.8,92.45l-4.3-2.5c-.2.8-.3,1.5-.3,2.3v.1l4.3,2.5v-.1c0-.7.1-1.5.3-2.3Z"/>
        <g class="cls-8">
          <g class="cls-26">
            <g>
              <path class="cls-24" d="m66.7,90.15l-4.3-2.5c.1-.2.2-.4.3-.7,0-.1.1-.1.1-.2l4.3,2.5c0,.1-.1.1-.1.2-.1.2-.2.5-.3.7h0Z"/>
              <path class="cls-24" d="m67.1,89.35l-4.3-2.5c.3-.5.6-1,1-1.5l4.3,2.5c-.4.4-.7.9-1,1.5h0Z"/>
            </g>
          </g>
        </g>
        <path class="cls-10" d="m65.1,82.85h-.2c-.1.1-1.2,1.2-1.2,1.3l4.3,2.5c1-1,1.2-1.4,1.5-1.3l-4.4-2.5Z"/>
        <path class="cls-2" d="m68,86.55l-4.3-2.5-.1.1h0c-.2.3,0,.5.2,1.1l4.3,2.5c-.3-.5-.5-.8-.1-1.2Z"/>
        <path class="cls-10" d="m65,92.05l.6-1.6-4.3-2.5-.6,1.6c-.1.2,0,.3.1.4l4.3,2.5c-.2-.1-.2-.2-.1-.4Z"/>
        <path class="cls-2" d="m62.4,87.65h-.7c-.2,0-.4.2-.4.4l4.3,2.5c.2-.5.5-.4,1.1-.4l-4.3-2.5Z"/>
        <path class="cls-9" d="m77.1,87.85c.2-.1.3,0,.3.2l-.2,1.5c0,.2-.2.4-.3.5h0l-.8.3c-.2.8-.5,1.6-.9,2.4l.6.4c.1.1.1.3,0,.5l-.9,1.5c-.1.1-.1.2-.2.2s-.2.1-.2,0l-.6-.4c-.5.7-1.1,1.3-1.8,1.8v1c0,.2-.1.4-.3.5l-1.2.7c-.2.1-.3,0-.3-.2v-1c-.6.3-1.3.4-1.8.4l-.5,1.1c-.1.1-.1.2-.2.3-.1,0-.1.1-.2,0l-1-.3c-.1,0-.2-.2-.1-.5l.5-1.1c-.4-.3-.8-.7-1-1.3l-.8.7h-.1c-.1.1-.3,0-.3-.1l-.3-1.2c0-.2.1-.4.2-.5l.8-.7v-.1c0-.7.1-1.5.3-2.3h-.7c-.1,0-.2-.2-.1-.4l.6-1.6c.1-.1.2-.3.3-.3h.8c.1-.2.2-.4.3-.7.3-.6.7-1.1,1.1-1.7l-.3-.7c-.1-.1,0-.4.2-.6l1.1-1.2.1-.1c.1-.1.2-.1.3.1l.3.7c.3-.3.6-.5,1-.7.1,0,.1-.1.2-.1.3-.2.5-.3.8-.4l.2-1c0-.2.2-.3.3-.4h.1l1.2-.2c.2,0,.2.1.2.3l-.2,1c.6,0,1.1.2,1.5.5l.7-.9q.1-.1.2-.1c.1-.1.2-.1.3,0l.6.8c.1.1,0,.4-.1.5l-.7.9c.2.5.4,1.1.4,1.9v.1h.6Z"/>
      </g>
      <g>
        <g>
          <path class="cls-17" d="m158.7,28.75h0c.4-1.1,1.4-1.9,2-1.5.1.1,3.7,2.2,3.8,2.3-.5-.3-1.4.2-1.8,1.1-.3.7-.5,1.6.1,1.9-.1-.1-3.7-2.2-3.8-2.3-.5-.2-.5-.9-.3-1.5Z"/>
          <path class="cls-15" d="m163.7,29.55c-.7.4-1.3,1.4-1.3,2.2s.6,1.1,1.3.7,1.3-1.4,1.3-2.2c-.1-.8-.6-1.1-1.3-.7Z"/>
        </g>
        <g>
          <g>
            <path class="cls-34" d="m160.3,30.35h0c1-2.9,3.8-5.1,5.5-4.1.2.1,1.3.7,1.5.9-1.4-.8-3.7.6-5,3-.9,1.8-1.4,4.4.1,5.3-.2-.1-1.3-.7-1.5-.9-1.1-.6-1.3-2.4-.6-4.2Z"/>
            <path class="cls-33" d="m164.8,27.35c-1.9,1.1-3.4,3.7-3.4,5.9s1.5,3.1,3.4,2,3.4-3.7,3.4-5.9c.1-2.2-1.5-3.1-3.4-2Z"/>
          </g>
          <g>
            <path class="cls-18" d="m163.9,31.25h0c.3-.9,1.2-1.6,1.8-1.3.1,0,.4.2.5.3-.5-.3-1.2.2-1.6,1-.3.6-.4,1.4,0,1.7-.1,0-.4-.2-.5-.3-.4-.2-.4-.8-.2-1.4Z"/>
            <path class="cls-32" d="m165.3,30.25c-.6.4-1.1,1.2-1.1,1.9s.5,1,1.1.6,1.1-1.2,1.1-1.9c0-.6-.5-.9-1.1-.6Z"/>
          </g>
        </g>
      </g>
      <g>
        <polygon class="cls-13" points="43 62.85 70.8 78.75 84.8 70.65 57 54.75 43 62.85"/>
        <polygon class="cls-13" points="57.5 54.45 85.3 70.35 99.3 62.25 71.5 46.35 57.5 54.45"/>
        <polygon class="cls-13" points="72 46.05 99.7 61.95 113.8 53.85 86 37.95 72 46.05"/>
        <path class="cls-13" d="m32.6,79.85c0,2.8.9,4.9,2.5,5.9.1.1.2.1.3.2,9.2,5.3,18.4,10.7,27.6,16-1.7-1-2.8-3.1-2.8-6.1,0-1.6.3-3.3.8-5l-27.6-15.8c-.5,1.6-.8,3.2-.8,4.8Z"/>
        <path class="cls-13" d="m42.2,63.25c-3.8,2.2-7.1,6.6-8.6,11.2l27.6,15.8c1.6-4.5,4.8-8.9,8.6-11l.5-.3-27.8-15.9-.3.2Z"/>
        <polygon class="cls-13" points="129.9 12.65 157.7 28.55 171.7 20.45 143.9 4.55 129.9 12.65"/>
        <path class="cls-13" d="m152.4,2.95c-1.7-1-4.2-.9-6.8.7l-1.2.7,27.8,15.9,1-.6c2.7-1.5,5.1-1.7,6.8-.7-9.2-5.3-18.4-10.7-27.6-16Z"/>
        <polygon class="cls-13" points="115.4 21.05 143.2 36.95 157.2 28.75 129.5 12.85 115.4 21.05"/>
        <polygon class="cls-13" points="86.4 37.75 114.2 53.65 128.3 45.55 100.5 29.65 86.4 37.75"/>
        <polygon class="cls-13" points="100.9 29.35 128.7 45.25 142.8 37.15 115 21.25 100.9 29.35"/>
      </g>
      <g>
        <path class="cls-7" d="m179.2,20.85c-.2-.1-.4-.2-.6-.3,1.4.8,2.3,2.6,2.3,5,0,5-3.5,11.1-7.8,13.6l-103.7,59.9c-2.2,1.3-4.2,1.4-5.6.5l.6.3c.6.4,1.4.5,2.2.5.7,0,1.4-.2,2.2-.5l1.2-.6,103.7-59.9c4.3-2.5,7.8-8.6,7.8-13.6,0-2.3-.9-4-2.3-4.9Z"/>
        <path class="cls-19" d="m180.2,18.55c-.1-.1-.2-.1-.3-.2-1.8-1-4.2-.9-6.8.7l-103.7,59.9c-5.3,3.1-9.6,10.5-9.6,16.6,0,3,1.1,5.2,2.8,6.2l.6.3c-.1-.1-.2-.1-.3-.2-1.5-1.1-2.5-3.1-2.5-6,0-6.1,4.3-13.6,9.6-16.6l103.7-59.9c2.6-1.5,4.9-1.7,6.7-.8.1,0,.1.1.2.1-.2,0-.3,0-.4-.1Z"/>
        <path class="cls-31" d="m173.6,19.45c5.3-3.1,9.6-.6,9.7,5.5,0,6.1-4.3,13.6-9.6,16.6l-103.7,59.9c-5.3,3.1-9.6.6-9.7-5.5,0-6.1,4.3-13.6,9.6-16.6l103.7-59.9Zm.1,20.1c4.3-2.5,7.8-8.6,7.8-13.6s-3.5-7-7.9-4.5l-103.7,59.9c-4.3,2.5-7.9,8.6-7.8,13.6,0,5,3.5,7,7.9,4.5l103.7-59.9h0Z"/>
      </g>
      <g class="cls-8">
        <polygon class="cls-22" points="93 82.65 94.9 81.55 94.8 112.65 92.9 113.75 93 82.65"/>
        <polygon class="cls-1" points="90.4 81.15 92.3 80.05 94.9 81.55 93 82.65 90.4 81.15"/>
        <polygon class="cls-5" points="93 82.65 92.9 113.75 90.3 112.25 90.4 81.15 93 82.65"/>
      </g>
      <g class="cls-8">
        <polygon class="cls-22" points="122.7 65.55 124.6 64.45 124.5 95.55 122.6 96.65 122.7 65.55"/>
        <polygon class="cls-1" points="120.1 64.05 122 62.95 124.6 64.45 122.7 65.55 120.1 64.05"/>
        <polygon class="cls-5" points="122.7 65.55 122.6 96.65 120 95.15 120.1 64.05 122.7 65.55"/>
      </g>
      <g class="cls-8">
        <polygon class="cls-22" points="152.4 48.45 154.3 47.35 154.2 78.45 152.3 79.55 152.4 48.45"/>
        <polygon class="cls-1" points="149.8 46.95 151.7 45.85 154.3 47.35 152.4 48.45 149.8 46.95"/>
        <polygon class="cls-5" points="152.4 48.45 152.3 79.55 149.7 78.05 149.8 46.95 152.4 48.45"/>
      </g>
      <g class="cls-8">
        <polygon class="cls-22" points="182.1 31.35 184 30.25 183.9 61.25 182 62.45 182.1 31.35"/>
        <polygon class="cls-1" points="179.5 29.85 181.4 28.75 184 30.25 182.1 31.35 179.5 29.85"/>
        <polygon class="cls-5" points="182.1 31.35 182 62.45 179.4 60.95 179.5 29.85 182.1 31.35"/>
      </g>
      <g class="cls-8">
        <polygon class="cls-22" points="79.7 90.45 76.8 88.75 76.8 85.15 79.7 86.75 79.7 90.45"/>
        <polygon class="cls-28" points="79.7 86.75 76.8 85.15 185.3 22.55 188.1 24.15 79.7 86.75"/>
        <polygon class="cls-22" points="188.1 24.15 188.2 27.85 79.7 90.45 79.7 86.75 188.1 24.15"/>
      </g>
      <g>
        <g>
          <path class="cls-17" d="m68.4,90.95h0c.8-2.3,3-4,4.2-3.2.2.1,7.9,4.7,8.1,4.8-1.1-.6-2.9.5-3.9,2.4-.7,1.4-1,3.4.1,4.1-.2-.1-7.9-4.7-8.1-4.8-.7-.5-.8-1.9-.4-3.3Z"/>
          <path class="cls-15" d="m78.9,92.85c-1.5.8-2.7,2.9-2.6,4.6,0,1.7,1.2,2.4,2.7,1.5,1.5-.8,2.6-2.9,2.6-4.6-.1-1.7-1.2-2.4-2.7-1.5Z"/>
        </g>
        <g>
          <g>
            <path class="cls-34" d="m71.7,94.55h0c2.2-6.2,8.1-10.8,11.6-8.7.5.3,2.7,1.5,3.2,1.8-3-1.8-7.9,1.4-10.5,6.4-2,3.8-2.9,9.4.3,11.2-.5-.3-2.7-1.5-3.2-1.8-2.4-1.4-2.7-5.2-1.4-8.9Z"/>
            <path class="cls-33" d="m81.4,88.05c-4,2.3-7.2,7.9-7.2,12.5s3.3,6.4,7.3,4.1c4-2.3,7.2-7.9,7.2-12.5-.1-4.5-3.3-6.4-7.3-4.1Z"/>
          </g>
          <g>
            <path class="cls-18" d="m79.3,96.35h0c.7-2,2.6-3.5,3.7-2.8.2.1.9.5,1,.6-1-.6-2.5.4-3.4,2.1-.6,1.2-.9,3,.1,3.6-.2-.1-.9-.5-1-.6-.7-.4-.8-1.6-.4-2.9Z"/>
            <path class="cls-32" d="m82.4,94.35c-1.3.7-2.3,2.5-2.3,4s1,2.1,2.3,1.3,2.3-2.5,2.3-4c0-1.4-1-2-2.3-1.3Z"/>
          </g>
        </g>
      </g>
      <g class="cls-8">
        <polygon class="cls-22" points="34.6 39.35 43.2 34.35 43.1 54.75 34.5 59.85 34.6 39.35"/>
        <polygon class="cls-28" points="20 30.85 28.6 25.85 43.2 34.35 34.6 39.35 20 30.85"/>
        <polygon class="cls-29" points="34.6 39.35 34.5 59.85 19.9 51.35 20 30.85 34.6 39.35"/>
      </g>
    </g>
  </g>
</svg>