<?xml version="1.0" encoding="UTF-8"?>
<svg id="Layer_2" data-name="Layer 2" xmlns="http://www.w3.org/2000/svg" xmlns:xlink="http://www.w3.org/1999/xlink" viewBox="0 0 185.14 170.26">
  <defs>
    <style>
      .cls-1 {
        fill: #b7b7b7;
      }

      .cls-2 {
        fill: #3d3e3f;
      }

      .cls-3 {
        fill: #4c4c4c;
      }

      .cls-4 {
        fill: #cb8306;
      }

      .cls-5 {
        fill: #d8d8d8;
      }

      .cls-6 {
        fill: #94979b;
      }

      .cls-7 {
        clip-path: url(#clippath-2);
      }

      .cls-8, .cls-9 {
        isolation: isolate;
      }

      .cls-10 {
        fill: #ef3f3f;
      }

      .cls-11 {
        fill: #75787a;
      }

      .cls-12 {
        clip-path: url(#clippath-1);
      }

      .cls-13 {
        clip-path: url(#clippath-4);
      }

      .cls-14 {
        fill: #414141;
      }

      .cls-15 {
        fill: #910505;
      }

      .cls-16 {
        fill: #7a7d7f;
      }

      .cls-17 {
        fill: #864f00;
      }

      .cls-18 {
        fill: #a00;
      }

      .cls-9 {
        fill: #0f0f0f;
        opacity: .13;
      }

      .cls-19 {
        clip-path: url(#clippath);
      }

      .cls-20 {
        fill: none;
      }

      .cls-21 {
        fill: #ce0909;
      }

      .cls-22 {
        clip-path: url(#clippath-3);
      }

      .cls-23 {
        fill: #e84646;
      }

      .cls-24 {
        fill: #979b9e;
      }

      .cls-25 {
        fill: #ff5a5a;
      }

      .cls-26 {
        fill: #f73c3c;
      }

      .cls-27 {
        fill: #c4c7cc;
      }

      .cls-28 {
        fill: #ea6565;
      }

      .cls-29 {
        fill: #262728;
      }
    </style>
    <clipPath id="clippath">
      <path class="cls-20" d="m48.5,91.64c0,17.5-.1-11.7-.1,5.8,0,1.5-1,2.9-2.9,4-3.9,2.2-10.1,2.2-14,0-2-1.1-2.9-2.6-2.9-4.1h0c0-17.5.1,11.7.1-5.8,0,1.5,1,3,2.9,4.1,3.9,2.2,10.2,2.2,14,0,1.9-1.1,2.9-2.5,2.9-4Z"/>
    </clipPath>
    <clipPath id="clippath-1">
      <path class="cls-20" d="m137.5,44.04l10.2-5.4-.1.1-10.2,5.4q0-.1.1-.1Z"/>
    </clipPath>
    <clipPath id="clippath-2">
      <path class="cls-20" d="m87,120.64c-2.2,1.1-4.4,2.3-6.7,3.4.7-.4,1.4-.8,2-1.3l6.7-3.4c-.6.5-1.3.9-2,1.3Z"/>
    </clipPath>
    <clipPath id="clippath-3">
      <path class="cls-20" d="m71.7,20.04c1-.6,2.1-1.2,3.1-1.8h0l-3.1,1.8h0Z"/>
    </clipPath>
    <clipPath id="clippath-4">
      <path class="cls-20" d="m84.6,27.24c-1,.6-2.1,1.2-3.1,1.8-.1.1-.2.1-.3.1l3.1-1.8c.1,0,.2,0,.3-.1Z"/>
    </clipPath>
  </defs>
  <g id="Layer_1-2" data-name="Layer 1">
    <g>
      <g>
        <path class="cls-3" d="m105.6,140.94l-25.8,15c-12.2,7.1-32.2,7.1-44.5,0l-25.9-15C3.2,137.34.1,132.64.1,127.94c0,11-.1-2-.1,9,0,4.7,3.1,9.4,9.3,13l25.9,15c12.3,7.1,32.2,7.1,44.5,0l25.8-15c6.1-3.5,9.1-8.2,9.1-12.8,0-11,.1,2,.1-9,0,4.6-3,9.3-9.1,12.8Z"/>
        <path class="cls-14" d="m105.5,115.14c12.3,7.1,12.4,18.7.1,25.8l-25.8,15c-12.2,7.1-32.2,7.1-44.5,0l-25.9-15c-12.3-7.1-12.4-18.7-.1-25.8l25.8-15c12.2-7.1,32.2-7.1,44.5,0l25.9,15Z"/>
      </g>
      <g>
        <g>
          <path class="cls-29" d="m60.1,91.64c0,1.7-1.1,3.3-3.3,4.6l-21.1,12.2c-4.3,2.5-11.4,2.5-15.7,0-2.1-1.2-3.2-2.9-3.2-4.5v11.9c0,1.6,1.1,3.3,3.2,4.5,4.3,2.5,11.3,2.5,15.7,0l21.1-12.2c2.2-1.3,3.3-2.9,3.3-4.6v-11.9Z"/>
          <path class="cls-2" d="m20.1,99.24c-4.3,2.5-4.4,6.6-.1,9.1,4.3,2.5,11.3,2.5,15.7,0l21.1-12.2c4.3-2.5,4.4-6.6.1-9.1-4.3-2.5-11.3-2.5-15.7,0l-21.1,12.2Z"/>
          <g class="cls-8">
            <g class="cls-8">
              <g class="cls-19">
                <path class="cls-29" d="m48.5,91.64l-.1,5.8c0,1.5-1,2.9-2.9,4-3.9,2.2-10.1,2.2-14,0-2-1.1-2.9-2.6-2.9-4.1l.1-5.8c0,1.5,1,3,2.9,4.1,3.9,2.2,10.2,2.2,14,0,1.9-1.1,2.9-2.5,2.9-4h0Z"/>
              </g>
            </g>
            <path class="cls-2" d="m45.5,87.54c3.9,2.2,3.9,5.9,0,8.1s-10.1,2.2-14,0-3.9-5.9,0-8.1,10.2-2.2,14,0Z"/>
          </g>
        </g>
        <g class="cls-8">
          <polygon class="cls-21" points="101.8 126.74 101.7 128.54 55.8 155.34 55.8 153.44 101.8 126.74"/>
          <polygon class="cls-26" points="55.8 153.44 55.8 155.34 9.5 128.54 9.5 126.74 55.8 153.44"/>
          <polygon class="cls-25" points="101.8 126.74 55.8 153.44 9.5 126.74 55.5 99.94 101.8 126.74"/>
        </g>
        <g>
          <g>
            <path class="cls-5" d="m58.9.24c-.7-.4-1.6-.3-2.6.3-2,1.2-3.6,3.9-3.6,6.2,0,1.1.4,1.9,1.1,2.3.7.4,13.7,8.2,14.4,8.6-.6-.4-1.1-1.2-1.1-2.3,0-2.3,1.6-5.1,3.6-6.2,1-.6,1.9-.6,2.6-.3-.7-.4-13.7-8.2-14.4-8.6Z"/>
            <path class="cls-11" d="m70.8,9.04c2-1.2,3.6-.2,3.6,2.1s-1.6,5.1-3.6,6.2c-2,1.2-3.6.2-3.6-2.1s1.6-5,3.6-6.2Z"/>
          </g>
          <path class="cls-9" d="m53.1,4.64c-.2.7-.4,1.4-.4,2.1,0,1.1.4,1.9,1.1,2.3.7.4,13.7,8.2,14.4,8.6-.6-.4-1.1-1.2-1.1-2.3,0-.6.1-1.2.3-1.8-2.9-1.7-13-7.8-13.7-8.1-.2-.3-.4-.5-.6-.8Z"/>
          <g class="cls-8">
            <polygon class="cls-26" points="63.8 21.84 63.4 21.54 63.4 8.64 63.8 8.94 63.8 21.84"/>
            <polygon class="cls-25" points="63.8 8.94 63.4 8.64 74.6 2.14 75 2.44 63.8 8.94"/>
            <polygon class="cls-21" points="75 2.44 75.1 15.34 63.8 21.84 63.8 8.94 75 2.44"/>
          </g>
          <g>
            <path class="cls-25" d="m73.4,5.94c-.9-.5-2.2-.5-3.6.4-2.8,1.6-5.1,5.6-5.1,8.8,0,1.6.6,2.7,1.5,3.3,1,.6,28.8,17,29.8,17.6-.9-.5-1.5-1.7-1.5-3.3,0-3.2,2.3-7.2,5.1-8.8,1.4-.8,2.7-.9,3.6-.4-1-.5-28.8-17-29.8-17.6Z"/>
            <path class="cls-11" d="m99.5,23.94c2.8-1.6,5.1-.3,5.1,2.9s-2.3,7.2-5.1,8.8c-2.8,1.6-5.1.3-5.1-2.9s2.3-7.2,5.1-8.8Z"/>
          </g>
          <path class="cls-9" d="m65.5,11.34c-.5,1.3-.9,2.6-.9,3.8,0,1.6.6,2.7,1.5,3.3,1,.6,28.8,17,29.8,17.6-.9-.5-1.5-1.7-1.5-3.3,0-1.2.3-2.4.8-3.7-4.4-2.6-28.2-16.7-29.1-17.2-.2-.1-.4-.3-.6-.5Z"/>
          <g class="cls-8">
            <polygon class="cls-26" points="93.9 39.54 93.5 39.24 93.4 26.34 93.9 26.64 93.9 39.54"/>
            <polygon class="cls-25" points="93.9 26.64 93.4 26.34 104.7 19.84 105.1 20.14 93.9 26.64"/>
            <polygon class="cls-21" points="105.1 20.14 105.1 33.04 93.9 39.54 93.9 26.64 105.1 20.14"/>
          </g>
          <g>
            <path class="cls-25" d="m103.6,24.04c-.9-.5-2.2-.5-3.6.4-2.8,1.6-5.1,5.6-5.1,8.8,0,1.6.6,2.7,1.5,3.3,1,.6,6,3.6,7,4.2-.9-.5-1.5-1.7-1.5-3.3,0-3.2,2.3-7.2,5.1-8.8,1.4-.8,2.7-.9,3.6-.4-1-.7-6-3.6-7-4.2Z"/>
            <path class="cls-11" d="m107,28.54c2.8-1.6,5.1-.3,5.1,2.9s-2.3,7.2-5.1,8.8c-2.8,1.6-5.1.3-5.1-2.9s2.3-7.2,5.1-8.8Z"/>
          </g>
          <path class="cls-9" d="m95.9,29.14c-.6,1.3-1,2.8-1,4.1,0,1.6.6,2.7,1.5,3.3,1,.6,6,3.6,7,4.2-.9-.5-1.5-1.7-1.5-3.3,0-1.3.4-2.7,1-4-1.6-.9-5.7-3.4-6.6-3.9-.2-.2-.3-.3-.4-.4Z"/>
          <g>
            <path class="cls-5" d="m110.8,26.04c-1.2-.7-2.7-.6-4.5.4-3.5,2-6.3,6.9-6.3,10.9,0,2,.7,3.4,1.8,4.1,1.2.7,2,1.2,3.3,1.9-1.1-.7-1.8-2.1-1.8-4.1,0-4,2.8-8.9,6.3-10.9,1.8-1,3.4-1.1,4.5-.4-1.3-.7-2.1-1.2-3.3-1.9Z"/>
            <path class="cls-11" d="m109.5,28.44c3.5-2,6.3-.4,6.4,3.6,0,4-2.8,8.9-6.3,10.9s-6.3.4-6.4-3.6c0-4,2.8-8.9,6.3-10.9Z"/>
          </g>
          <g>
            <path class="cls-25" d="m113.4,29.74c-.9-.5-2.2-.5-3.6.4-2.8,1.6-5.1,5.6-5.1,8.8,0,1.6.6,2.7,1.5,3.3,1,.6,6,3.6,7,4.2-.9-.5-1.5-1.7-1.5-3.3,0-3.2,2.3-7.2,5.1-8.8,1.4-.8,2.7-.9,3.6-.4-.9-.6-5.9-3.6-7-4.2Z"/>
            <path class="cls-11" d="m116.8,34.24c2.8-1.6,5.1-.3,5.1,2.9s-2.3,7.2-5.1,8.8-5.1.3-5.1-2.9c.1-3.2,2.3-7.1,5.1-8.8Z"/>
          </g>
          <path class="cls-9" d="m105.7,34.84c-.6,1.3-1,2.8-1,4.1,0,1.6.6,2.7,1.5,3.3,1,.6,6,3.6,7,4.2-.9-.5-1.5-1.7-1.5-3.3,0-1.3.4-2.7,1-4-1.6-.9-5.7-3.4-6.6-3.9-.1-.2-.3-.3-.4-.4Z"/>
          <path class="cls-9" d="m116.3,38.94c-.6,1.3-1,2.8-1,4.1,0,1.6.6,2.7,1.5,3.3,1,.6,6,3.6,7,4.2-.9-.5-1.5-1.7-1.5-3.3,0-1.3.4-2.7,1-4-1.6-.9-5.7-3.4-6.6-3.9-.1-.1-.3-.2-.4-.4Z"/>
          <g>
            <path class="cls-5" d="m120.6,31.84c-1.2-.7-2.8-.6-4.5.4-3.5,2-6.3,6.9-6.3,10.9,0,2,.7,3.4,1.8,4.1,1.2.7,2,1.2,3.3,1.9-1.1-.7-1.8-2.1-1.8-4.1,0-4,2.8-8.9,6.3-10.9,1.8-1,3.4-1.1,4.5-.4-1.2-.7-2-1.2-3.3-1.9Z"/>
            <path class="cls-11" d="m119.4,34.14c3.5-2,6.3-.4,6.4,3.6,0,4-2.8,8.9-6.3,10.9s-6.3.4-6.4-3.6c0-4,2.8-8.9,6.3-10.9Z"/>
          </g>
          <g>
            <path class="cls-25" d="m123.5,35.24c-.9-.5-2.2-.5-3.6.4-2.8,1.6-5.1,5.6-5.1,8.8,0,1.6.6,2.7,1.5,3.3,1,.6,6,3.6,7,4.2-.9-.5-1.5-1.7-1.5-3.3,0-3.2,2.3-7.2,5.1-8.8,1.4-.8,2.7-.9,3.6-.4-1-.6-6-3.6-7-4.2Z"/>
            <path class="cls-11" d="m126.9,39.74c2.8-1.6,5.1-.3,5.1,2.9s-2.3,7.2-5.1,8.8c-2.8,1.6-5.1.3-5.1-2.9,0-3.2,2.2-7.2,5.1-8.8Z"/>
          </g>
          <path class="cls-9" d="m115.8,40.34c-.6,1.3-1,2.8-1,4.1,0,1.6.6,2.7,1.5,3.3,1,.6,6,3.6,7,4.2-.9-.5-1.5-1.7-1.5-3.3,0-1.3.4-2.7,1-4-1.6-.9-5.7-3.4-6.6-3.9-.2-.2-.3-.3-.4-.4Z"/>
          <g>
            <path class="cls-5" d="m130.7,37.24c-1.2-.7-2.8-.6-4.5.4-3.5,2-6.3,6.9-6.3,10.9,0,2,.7,3.4,1.8,4.1,1.2.7,2,1.2,3.3,1.9-1.1-.7-1.8-2.1-1.8-4.1,0-4,2.8-8.9,6.3-10.9,1.8-1,3.4-1.1,4.5-.4-1.3-.7-2.1-1.2-3.3-1.9Z"/>
            <path class="cls-11" d="m129.4,39.64c3.5-2,6.4-.4,6.4,3.6s-2.8,8.9-6.3,10.9-6.3.4-6.4-3.6c0-4,2.8-8.9,6.3-10.9Z"/>
          </g>
          <g>
            <path class="cls-25" d="m133.5,40.24c-1-.6-2.4-.5-3.9.4-3.1,1.8-5.5,6-5.5,9.5,0,1.7.6,3,1.6,3.5,1.1.6,8.7,4.5,9.8,5.2-1-.6-.9-1.7-.9-3.4,0-3.5-.4-8.6,2.6-10.4,1.5-.9,1.2-1.4,2.2-.8-1.1-.5-4.8-3.3-5.9-4Z"/>
            <path class="cls-9" d="m124.6,47.14c-.4,1-.6,2.1-.5,3.1,0,1.7.6,3,1.6,3.5,1.1.6,8.7,4.5,9.8,5.2-1-.6-.9-1.7-.9-3.4v-2.7c-2.3-1.2-8-4.2-9-4.7-.4-.3-.7-.6-1-1Z"/>
            <path class="cls-21" d="m134.5,45.74c2-2.9,4.9-2.7,6.4.5s1.1,8.1-.9,11-4.9,2.7-6.4-.5c-1.5-3.1-1.1-8.1.9-11Z"/>
          </g>
          <g>
            <g>
              <g class="cls-8">
                <g class="cls-12">
                  <g class="cls-8">
                    <path class="cls-24" d="m147.5,38.74l-10.2,5.4.1-.1,10.2-5.4s-.1,0-.1.1h0Z"/>
                  </g>
                </g>
              </g>
              <path class="cls-25" d="m146.5,47.24c-1.8-3.3-1.4-7.1,1-8.5l-10.2,5.4c-2.4,1.4-4.4,5.6-3.4,9.2.8,3.1,3.1,5.1,5.1,4.6l15.1-7.1c-2.4,1.2-5.8-.4-7.6-3.6Z"/>
              <path class="cls-21" d="m147.5,38.74c2.4-1.4,5.8.2,7.6,3.5s1.4,7.1-1,8.5-5.8-.2-7.6-3.5c-1.8-3.3-1.4-7.1,1-8.5Z"/>
            </g>
            <path class="cls-9" d="m148,49.14l-13.2,6.2c1.1,1.8,2.7,2.8,4.2,2.4l15.1-7.1c-1.9,1.1-4.3.4-6.1-1.5Z"/>
          </g>
          <g>
            <path class="cls-16" d="m185.1,40.44c-.5-1.9-1.1-3.9-1.6-5.8.1.2,0,.5-.4.8-.7.7-2.3,1.2-3.5,1.2l-14-.9c-1.8-.1-3.8.1-5.7.7-1.6.5-2.9,1.2-3.7,1.9l-6.6,6.4c-.6.6-.8,1.1-.7,1.7.2.8.4,1.5.7,2.3.3,1.2.7,2.3,1,3.5-.1-.5.1-1.1.7-1.7l6.6-6.4c.8-.7,2.1-1.4,3.7-1.9,1.9-.6,3.9-.8,5.7-.7l14,.9c1.2.1,2.8-.4,3.5-1.2.3-.3.4-.5.3-.8Z"/>
            <path class="cls-16" d="m169.7,55.54c-.5-1.9-1.1-3.9-1.6-5.8.1.2,0,.5-.4.8-.7.7-2.3,1.2-3.5,1.2l-14-.9c-3.6-.2-5.8-1.4-6.2-2.9l1.6,5.8c.4,1.6,2.7,2.7,6.2,2.9l14,.9c1.2.1,2.8-.5,3.5-1.2.3-.3.5-.6.4-.8Z"/>
            <path class="cls-1" d="m151.9,38.14c3.2-3.1,10.5-5.3,16.4-5l14,.9c1.2.1,1.6.7.8,1.4-.7.7-2.3,1.2-3.5,1.2l-14-.9c-1.8-.1-3.8.1-5.7.7-1.6.5-2.9,1.2-3.7,1.9l-6.6,6.4c-.8.7-.9,1.5-.4,2.1.6.7,1.8,1.2,3.6,1.3l14,.9c1.2.1,1.6.7.8,1.4-.7.7-2.3,1.2-3.5,1.2l-14-.9c-5.9-.4-8-3.2-4.9-6.3l6.7-6.3Z"/>
          </g>
          <g>
            <path class="cls-2" d="m78.2,12.44c1.5-.9,3.7-.8,6,.6,4.7,2.7,8.5,9.3,8.5,14.6,0,2.7-1,4.6-2.5,5.4-1.7,1-3.3,1.9-5,2.9,1.5-.9,2.5-2.8,2.5-5.4,0-5.4-3.8-11.9-8.5-14.6-2.4-1.4-4.5-1.5-6-.6,1.7-1,3.4-1.9,5-2.9Z"/>
            <path class="cls-29" d="m79.3,15.94c-4.7-2.7-8.5-.5-8.5,4.9s3.8,11.9,8.5,14.6,8.5.5,8.5-4.9-3.8-11.9-8.5-14.6Z"/>
          </g>
        </g>
        <g>
          <path class="cls-26" d="m72.5,111.54h0c-3.4-9.6-12.5-16.7-18-13.6-.8.5-26.6,15.5-27.4,16,4.7-2.7,12.2,2.1,16.4,10,3.1,5.8,4.4,14.5-.5,17.4.8-.5,26.6-15.5,27.4-16,3.7-2.1,4.2-8,2.1-13.8Z"/>
          <path class="cls-21" d="m35.1,114.74c6.2,3.6,11.2,12.2,11.2,19.4s-5.1,10-11.3,6.4-11.2-12.2-11.2-19.4c.1-7.1,5.1-10,11.3-6.4Z"/>
        </g>
        <g>
          <path class="cls-18" d="m112.5,110.24c4.2-10.9-4.4-22.9-14.4-28.7-7.3-4.2-13.2-4.1-18.8-.9-2.5,1.4-4.9,2.9-7.4,4.3,14.7-8.6,33.9,9.2,34.3,23.1.1,3.1-.6,6.2-2.3,9.1l-9.7,14,7.4-4.3c10.4-15,10.1-14.3,10.9-16.6Z"/>
          <path class="cls-21" d="m91.3,85.84c11.4,6.6,19.2,20.1,12.6,31.3l-9.7,14-41.2-23.8,9.7-14c8.5-10.1,17.2-14.1,28.6-7.5Z"/>
        </g>
        <g class="cls-8">
          <polygon class="cls-28" points="11.7 110.74 13.1 109.94 34.1 112.64 32.7 113.44 11.7 110.74"/>
          <polygon class="cls-28" points="53.7 134.94 55.1 134.14 55 150.74 53.6 151.64 53.7 134.94"/>
          <polygon class="cls-28" points="32.7 113.44 34.1 112.64 55.1 134.14 53.7 134.94 32.7 113.44"/>
          <polygon class="cls-23" points="32.7 113.44 53.7 134.94 53.6 151.64 11.7 127.34 11.7 110.74 32.7 113.44"/>
        </g>
        <g>
          <path class="cls-2" d="m85.8,90.04c1.3-.8,3.2-.7,5.2.5,4,2.3,7.3,8,7.3,12.6,0,2.3-.8,3.9-2.1,4.7-1.4.8-2.3,1.4-3.8,2.2,1.3-.8,2.1-2.4,2.1-4.7,0-4.6-3.2-10.3-7.3-12.6-2-1.2-3.9-1.3-5.2-.5,1.4-.9,2.3-1.4,3.8-2.2Z"/>
          <path class="cls-29" d="m87.2,92.74c-4-2.3-7.3-.5-7.3,4.2s3.2,10.3,7.3,12.6c4,2.3,7.3.5,7.3-4.2s-3.3-10.3-7.3-12.6Z"/>
        </g>
        <g class="cls-8">
          <g class="cls-8">
            <g class="cls-7">
              <g class="cls-8">
                <path class="cls-17" d="m82.4,122.74l6.7-3.4c-.6.5-1.3.9-2,1.3l-6.7,3.4c.7-.4,1.3-.8,2-1.3h0Z"/>
              </g>
            </g>
          </g>
          <polygon class="cls-18" points="61 73.94 67.7 70.54 89.1 119.34 82.4 122.74 61 73.94"/>
          <path class="cls-21" d="m61,73.94l21.4,48.8c-5.5,4.2-13.5,3.6-21.5-.4-7.8-4-15.5-11.3-21-20.8l-.4-.8,21.5-26.8Z"/>
        </g>
        <g class="cls-8">
          <g>
            <polygon class="cls-10" points="58.7 49.34 70 42.74 80.6 51.04 69.4 57.54 58.7 49.34"/>
            <path class="cls-10" d="m69.9,43.14l10.1,7.9-10.6,6.2-10.1-7.9,10.6-6.2h0Zm.1-.7l-11.8,6.9,11.2,8.7,11.8-6.9-11.2-8.7h0Z"/>
          </g>
          <polygon class="cls-21" points="69.4 57.94 81.2 51.14 84.9 102.14 73.1 108.94 69.4 57.94"/>
          <path class="cls-26" d="m58.2,49.24l11.2,8.7,3.7,51-3.6-4.7c-5.4-7-11.6-12.6-17.9-16.3-2.4-1.4-4.9-2.5-7.3-3.3l-4.2-1.3,18.1-34.1Z"/>
        </g>
        <g>
          <path class="cls-15" d="m76.3,29.84l-.1-.1h0l-.1-.1h0l-.1-.1h0c0-.1-.1-.1-.1-.2-.1-.1-.1-.2-.2-.2v-.1c0-.1-.1-.1-.1-.2v-.1q0-.1-.1-.2v-.6h0v-.4h0l.1-.1.1-.1c-1,.6-2.1,1.2-3.1,1.8l-.1.1-.1.1h0v.3h0v.6q0,.1.1.2v.1h0s0,.1.1.1v.1c0,.1.1.2.2.2,0,.1.1.1.1.2h0l.1.1h0l.1.1h0l.1.1c.3.2.5.2.7.1,1-.6,2.1-1.2,3.1-1.8-.1.3-.4.2-.7.1Z"/>
          <path class="cls-15" d="m74.3,24.54s-.1,0-.1-.1c-.1,0-.1-.1-.2-.1h0c-.1,0-.1-.1-.2-.1h0l-.1-.1h0c0-.1-.1-.1-.1-.2h0c0-.1-.1-.1-.1-.2v-.1c-.1-.1-.1-.3-.1-.4h0v-.2c0-.4.1-.7.3-.8-1,.6-2.1,1.2-3.1,1.8-.2.1-.3.4-.3.8v.2h0q0,.1.1.2h0s0,.1.1.1v.2c0,.1.1.1.1.2h0c0,.1.1.1.1.2h0l.1.1.1.1h0s.1.1.2.1h0c.1,0,.1.1.2.1,0,0,.1,0,.1.1.2.1.4.1.6,0,1-.6,2.1-1.2,3.1-1.8-.3,0-.6,0-.8-.1Z"/>
          <polygon class="cls-15" points="78.5 36.44 81.6 34.64 80 51.04 76.9 52.84 78.5 36.44"/>
          <path class="cls-15" d="m80.7,33.14c-.1,0-.2-.1-.3-.1s-.1-.1-.1-.1h0l-.1-.1h0l-.1-.1h0l-.1-.1v-.1l-.1-.1h0c0-.1-.1-.1-.1-.2v-.2q0-.1-.1-.2c-.1-.5,0-.8.3-1-1,.6-2.1,1.2-3.1,1.8-.2.1-.4.5-.3,1,0,.1,0,.2.1.2v.1s0,.1.1.1h0c0,.1.1.1.1.2h0l.1.1v.1l.1.1v.1h0l.1.1h0l.1.1h0l.1.1c.1,0,.2.1.3.1.2.1.3,0,.5,0,1-.6,2.1-1.2,3.1-1.8-.2,0-.4,0-.6-.1Z"/>
          <path class="cls-15" d="m75.5,20.64c-.1,0-.1-.1-.2-.1h0c-.1,0-.1-.1-.2-.1h0l-.1-.1v-.1c0-.1-.1-.1-.1-.2-.1-.1-.1-.2-.1-.3s-.1-.2-.1-.2h0v-.9s0-.1.1-.1h0l.1-.1-3.1,1.8-.1.1h0s0,.1-.1.1v.8c0,.1,0,.2.1.2h0c0,.1.1.1.1.2h0c0,.1.1.2.1.2,0,.1.1.1.1.2v.1l.1.1.1.1h0s.1.1.2.1h0c.1,0,.1.1.2.1.3.2.5.2.7.1,1-.6,2.1-1.2,3.1-1.8-.4,0-.6-.1-.9-.2Z"/>
          <g class="cls-8">
            <g class="cls-22">
              <g class="cls-8">
                <path class="cls-4" d="m71.7,20.04l3.1-1.8h0l-3.1,1.8h0Z"/>
              </g>
            </g>
          </g>
          <path class="cls-15" d="m79.2,29.34c-.2-.1-.4-.3-.6-.4-.1-.1-.3-.2-.4-.3l-.1-.1c-.1-.1-.2-.2-.3-.3l-.1-.1c-.1-.1-.2-.2-.3-.3,0,0,0-.1-.1-.1-.1-.1-.2-.3-.3-.4,0,0,0-.1-.1-.1-.1-.1-.1-.2-.2-.4,0,0,0-.1-.1-.1-.1-.1-.1-.3-.2-.4v-.1c0-.1-.1-.2-.1-.2q0-.1-.1-.2c0-.1-.1-.2-.1-.2q0-.1-.1-.2c0-.1,0-.2-.1-.2v-2.1c.1-.7.5-1.2.9-1.4-1,.6-2.1,1.2-3.1,1.8-.4.3-.8.7-.9,1.4v2q0,.1.1.2t.1.2.1.2.1.2.1.2c0,.1.1.1.1.2h0v.1c.1.1.1.3.2.4l.1.1c.1.1.1.2.2.3,0,0,0,.1.1.1.1.2.2.3.3.4,0,0,0,.1.1.1.1.1.2.2.3.3v.1l.1.1c.1.1.2.2.3.3l.1.1c.1.1.2.2.4.3.2.2.4.3.6.4.9.5,1.7.6,2.3.2,1-.6,2.1-1.2,3.1-1.8-.6.3-1.5.2-2.4-.3Z"/>
          <path class="cls-15" d="m83.7,31.94s-.1,0-.1-.1h0l-.1-.1h-.1l-.1-.1-.1-.1-.1-.1q-.1-.1-.2-.2h0c0-.1-.1-.1-.1-.2h0c0-.1-.1-.1-.1-.2v-.1c0-.1-.1-.1-.1-.2h0v-.5h0v-.2h0q0-.1.1-.2c0-.1.1-.1.2-.2-.7.4-1.3.8-2,1.2-.4.2-.7.4-1.1.6-.1,0-.1.1-.2.2,0,0,0,.1-.1.2h0v.2h0v.5h0q0,.1.1.2h0v.1s0,.1.1.1h0c0,.1.1.1.1.2h0c0,.1.1.1.2.2h0s0,.1.1.1h.1l.1.1.1.1h0l.1.1c.3.2.5.2.7.1.2-.1.3-.2.5-.3.5-.3.9-.5,1.4-.8.4-.2.8-.5,1.2-.7,0,.3-.3.2-.6.1Z"/>
          <path class="cls-15" d="m80.1,21.44h0c-.1-.1-.2-.1-.2-.2h0q-.1-.1-.2-.2h0q-.1-.1-.1-.2h0c0-.1-.1-.1-.1-.2h0c0-.1-.1-.1-.1-.2v-.1q0-.1-.1-.2v-.6c0-.3.1-.5.3-.6-1,.6-2.1,1.2-3.1,1.8-.2.1-.3.3-.3.6v.6q0,.1.1.2v.1h0c0,.1.1.1.1.2h0c0,.1.1.1.1.2h0c0,.1.1.1.1.2h0q.1.1.2.2h0q.1.1.2.1h0c.3.2.5.2.7.1,1-.6,2.1-1.2,3.1-1.8-.2.1-.4.1-.7,0Z"/>
          <g class="cls-8">
            <g class="cls-13">
              <g class="cls-8">
                <path class="cls-4" d="m81.2,29.14l3.1-1.8c.1,0,.2,0,.3-.1l-3.1,1.8c-.1.1-.2.1-.3.1h0Z"/>
              </g>
            </g>
          </g>
          <path class="cls-15" d="m83.9,27.14l-.1-.1h0l-.1-.1h0l-.1-.1h0c-.1-.1-.2-.2-.2-.3h0s0-.1-.1-.1v-.2c0-.1-.1-.2-.1-.2-.2-.5-.1-1,.2-1.1-1,.6-2.1,1.2-3.1,1.8-.3.2-.4.6-.2,1.1,0,.1.1.2.1.2h0v.2s0,.1.1.1v.1c.1.1.1.2.2.3h0l.1.1h0l.1.1h0l.1.1c.1.1.3.1.4.1l3.1-1.8c-.1,0-.3-.1-.4-.2Z"/>
          <path class="cls-26" d="m86.3,30.64v-3.2c0-.1,0-.2-.1-.2v-.2c0-.1,0-.2-.1-.3q0-.1-.1-.2c0-.1,0-.2-.1-.3q0-.1-.1-.2c0-.1-.1-.2-.1-.3s0-.1-.1-.2c0-.1-.1-.2-.1-.3s0-.1-.1-.2c0-.1-.1-.2-.1-.3s-.1-.1-.1-.2-.1-.2-.1-.2h0v-.1c-.1-.1-.1-.3-.2-.4,0,0,0-.1-.1-.1-.1-.2-.2-.3-.2-.4v-.1c-.1-.2-.2-.3-.3-.5,0,0,0-.1-.1-.1-.1-.1-.2-.3-.2-.4l-.1-.1c-.1-.1-.2-.3-.3-.4v-.1c-.1-.2-.2-.3-.3-.5l-.1-.1c-.1-.1-.2-.2-.3-.4l-.1-.1c-.1-.1-.2-.2-.3-.4l-.1-.1h0c-.1-.1-.2-.3-.4-.4l-.1-.1c-.1-.1-.2-.2-.3-.3l-.1-.1c-.1-.1-.2-.2-.3-.3l-.1-.1c-.1-.1-.3-.2-.4-.3-.5-.4-.9-.7-1.4-1-1.9-1.1-3.7-1.2-5-.5-.5.3-1,.6-1.5.9-.5.3-1,.6-1.6.9,1.3-.8,3.1-.6,5,.5.5.3.9.6,1.4,1,.1.1.3.2.4.3l.1.1c.1.1.2.2.3.3l.1.1c.1.1.2.2.3.3l.1.1c.1.1.2.3.4.4l.1.1c.1.1.2.2.3.3l.1.1c.1.1.2.2.3.3l.1.1c.1.2.2.3.3.5,0,0,0,.1.1.1.1.1.2.3.3.4,0,.1.1.1.1.2.1.1.1.2.2.4l.1.1c.1.2.2.3.3.5v.1c.1.1.1.3.2.4,0,.1.1.1.1.2.1.1.1.2.2.4,0,.1.1.1.1.2s.1.1.1.2.1.2.1.2c0,.1.1.1.1.2s.1.2.1.2q0,.1.1.2c0,.1.1.2.1.2q0,.1.1.2c0,.1.1.2.1.2q0,.1.1.2c0,.1,0,.2.1.2q0,.1.1.2c0,.1,0,.2.1.2v.2c0,.1,0,.2.1.2v3.2c0,.1,0,.3-.1.4-.1.7-.4,1.3-.7,1.8,0,0,0,.1-.1.1h0c-.3.5-.7.9-1.2,1.2h0c1-.6,2.1-1.2,3.1-1.8.9-.6,1.6-1.6,1.9-3,0-.1,0-.3.1-.4q-.2.2-.2.1Z"/>
          <path class="cls-21" d="m77.6,20.24c3.8,3.1,6.3,8.8,5.5,12.8-.5,2.6-2.3,3.8-4.6,3.4l-1.5,16.4-7.5,4.4-3.6-2.8,1.2-9.5,4.8-13.5c-2.1-3-3.2-6.7-2.6-9.6.7-3.5,3.7-4.5,7-2.6.3.3.8.6,1.3,1Zm1.8,9.7c.4-1.8-.8-4.5-2.6-5.9-.2-.2-.4-.3-.6-.4-1.5-.9-2.9-.4-3.2,1.2-.4,1.8.8,4.5,2.6,5.9.2.2.4.3.6.4,1.5.9,2.9.5,3.2-1.2h0Zm2.1,3.7c.3-.4.1-1.2-.4-1.8-.1-.2-.3-.3-.5-.4-.4-.2-.7-.2-.9.1-.3.4-.1,1.2.4,1.8.1.2.3.3.5.4.4.2.8.2.9-.1h0Zm-7.4-2c.3-.3.2-1.1-.3-1.8-.2-.2-.4-.4-.6-.5-.3-.2-.6-.2-.8,0-.3.3-.2,1.1.3,1.8.2.2.4.4.6.5.3.2.6.2.8,0h0Zm7.1-2.5c.5.1.8-.5.6-1.2-.2-.5-.5-1-.9-1.3-.1-.1-.3-.1-.4-.1-.5-.1-.8.5-.6,1.2.2.5.5,1,.9,1.3.1,0,.3.1.4.1h0Zm-9.5-9.1c-.4.3-.4,1,.1,1.7.2.3.4.6.7.7.3.2.5.2.7.1.4-.3.4-1-.1-1.7-.2-.3-.4-.6-.7-.7-.3-.2-.5-.2-.7-.1h0Zm5.9,14.9c.5.2.9-.3.7-1-.1-.6-.5-1.2-1-1.4-.1,0-.2-.1-.3-.1-.5-.2-.9.3-.7,1,.1.6.5,1.2,1,1.4.1.1.2.1.3.1h0Zm-6.4-8.6c.6.2,1-.1.9-.8-.1-.6-.5-1.3-1-1.6,0,0-.1,0-.1-.1-.6-.2-1,.1-.9.8.1.6.5,1.3,1,1.6,0,0,.1.1.1.1h0Zm5.8-5.5c-.5-.3-1-.1-1,.5s.4,1.4,1,1.8h0c.5.3,1,.1,1-.5s-.4-1.4-1-1.8h0Z"/>
        </g>
        <g>
          <path class="cls-27" d="m14.8,114.34h0c-.4-1.1-1.4-1.9-2-1.5-.1.1-.5.3-.6.3.5-.3,1.4.2,1.9,1.1.4.7.5,1.7-.1,2,.1-.1.5-.3.6-.3.4-.3.4-1,.2-1.6Z"/>
          <path class="cls-6" d="m13.1,113.14c.7.4,1.3,1.4,1.3,2.2s-.6,1.1-1.3.7c-.7-.4-1.3-1.4-1.3-2.2s.6-1.1,1.3-.7Z"/>
        </g>
        <g>
          <path class="cls-27" d="m33,116.54h0c-.4-1.1-1.4-1.9-2-1.5-.1.1-.5.3-.6.3.5-.3,1.4.2,1.9,1.1.4.7.5,1.7-.1,2,.1-.1.5-.3.6-.3.3-.3.4-.9.2-1.6Z"/>
          <path class="cls-6" d="m31.3,115.44c.7.4,1.3,1.4,1.3,2.2s-.6,1.1-1.3.7c-.7-.4-1.3-1.4-1.3-2.2s.6-1.1,1.3-.7Z"/>
        </g>
        <g>
          <path class="cls-27" d="m52.7,136.14h0c-.4-1.1-1.4-1.9-2-1.5-.1.1-.5.3-.6.3.5-.3,1.4.2,1.9,1.1.4.7.5,1.7-.1,2,.1-.1.5-.3.6-.3.4-.3.4-1,.2-1.6Z"/>
          <path class="cls-6" d="m51,134.94c.7.4,1.3,1.4,1.3,2.2s-.6,1.1-1.3.7c-.7-.4-1.3-1.4-1.3-2.2,0-.7.6-1.1,1.3-.7Z"/>
        </g>
      </g>
    </g>
  </g>
</svg>