<?xml version="1.0" encoding="UTF-8"?>
<svg id="Layer_2" data-name="Layer 2" xmlns="http://www.w3.org/2000/svg" xmlns:xlink="http://www.w3.org/1999/xlink" viewBox="0 0 131.51 184.29">
  <defs>
    <style>
      .cls-1 {
        fill: #939393;
      }

      .cls-2 {
        fill: #ddd;
      }

      .cls-3 {
        fill: #343434;
      }

      .cls-4 {
        fill: #f93232;
      }

      .cls-5 {
        fill: #4c4c4c;
      }

      .cls-6 {
        fill: #d1d1d1;
      }

      .cls-7 {
        fill: #dea12a;
      }

      .cls-8 {
        fill: #a6e035;
      }

      .cls-9 {
        fill: #e2e2e2;
      }

      .cls-10 {
        isolation: isolate;
      }

      .cls-11 {
        fill: #75787a;
      }

      .cls-12 {
        fill: #c9c9c9;
      }

      .cls-13 {
        fill: #e0e0e0;
      }

      .cls-14 {
        fill: #ffc5c5;
      }

      .cls-15 {
        fill: #707070;
      }

      .cls-16 {
        fill: #333;
      }

      .cls-17 {
        clip-path: url(#clippath-1);
      }

      .cls-18 {
        fill: #b5b8bd;
      }

      .cls-19 {
        fill: #626262;
      }

      .cls-20 {
        fill: #d31111;
      }

      .cls-21 {
        fill: #f33;
      }

      .cls-22 {
        fill: #aaa;
      }

      .cls-23 {
        clip-path: url(#clippath);
      }

      .cls-24 {
        fill: #afafaf;
      }

      .cls-25 {
        fill: #494949;
      }

      .cls-26 {
        fill: #d3d3d3;
      }

      .cls-27 {
        fill: none;
      }

      .cls-28 {
        fill: #636363;
      }

      .cls-29 {
        fill: #ccc;
      }

      .cls-30 {
        fill: #ff8a8a;
      }

      .cls-31 {
        fill: #979b9e;
      }

      .cls-32 {
        fill: #828688;
      }

      .cls-33 {
        fill: #ff5a5a;
      }

      .cls-34 {
        fill: #c4c7cc;
      }

      .cls-35 {
        fill: #7f7f7f;
      }

      .cls-36 {
        fill: #dd2c2c;
      }

      .cls-37 {
        fill: #595959;
      }

      .cls-38 {
        fill: #ff5252;
      }

      .cls-39 {
        fill: #c6c6c6;
      }

      .cls-40 {
        fill: #878a8e;
      }

      .cls-41 {
        fill: #c5f557;
      }

      .cls-42 {
        fill: #5e5e5e;
      }
    </style>
    <clipPath id="clippath">
      <path class="cls-27" d="m102,160.69c-.4-.2-.8-.4-1.1-.7-.4-.2-.7-.6-1-1-.1-.2-.2-.3-.4-.4.4.2.8.4,1.1.7.2.1.3.2.4.4.3.4.6.7,1,1Z"/>
    </clipPath>
    <clipPath id="clippath-1">
      <path class="cls-27" d="m105.4,75.19c-1.1-.6-2.1-1.2-3.2-1.9-.3-.2-.5-.4-.7-.7l3.2,1.9c.2.3.4.5.7.7Z"/>
    </clipPath>
  </defs>
  <g id="Layer_1-2" data-name="Layer 1">
    <g>
      <g>
        <path class="cls-3" d="m123.8,159.69l-21.7,12.6c-10.3,6-27.1,6-37.4,0L7.9,140.19c-5.2-3-7.8-7-7.8-10.9,0,9.2-.1-1.7-.1,7.5,0,4,2.6,7.9,7.8,10.9l56.8,32.1c10.4,6,27.1,6,37.4,0l21.7-12.6c5.1-3,7.7-6.9,7.7-10.8,0-9.2.1,1.7.1-7.5,0,3.9-2.6,7.8-7.7,10.8Z"/>
        <path class="cls-25" d="m123.7,137.99c10.4,6,10.4,15.7.1,21.7l-21.7,12.6c-10.3,6-27.1,6-37.4,0L7.9,140.19c-10.4-6-10.4-15.7-.1-21.7l21.7-12.6c10.3-6,27.1-6,37.4,0l56.8,32.1Z"/>
      </g>
      <g>
        <g class="cls-10">
          <g class="cls-23">
            <g class="cls-10">
              <path class="cls-35" d="m102,160.69l-1.1-.7c-.4-.2-.7-.6-1-1-.1-.2-.2-.3-.4-.4l1.1.7c.2.1.3.2.4.4.3.4.6.7,1,1h0Z"/>
            </g>
          </g>
        </g>
        <path class="cls-35" d="m114.9,136.79c-.2-.1-.4-.2-.6-.3-.3-.2-.8-.2-1.3.1l-16.1,9.3c-1,.6-1.8,2-1.8,3.1v9.4c0,.6.2,1,.5,1.2.4.2.8.4,1.1.7-.3-.2-.5-.6-.5-1.2v-9.4c0-1.1.8-2.5,1.8-3.1l16.1-9.3c.5-.3,1-.3,1.3-.1-.1-.1-.3-.3-.5-.4Z"/>
        <path class="cls-19" d="m114.2,137.29c1-.6,1.8-.1,1.8,1v9.4c0,1.1-.8,2.5-1.8,3.1l-1.4.8c-.6.4-1.2,1.2-1.4,2-.9,2.6-2.9,5.2-5.2,6.5s-4.3,1-5.2-.5c-.3-.5-.8-.7-1.4-.3l-1.4.8c-1,.6-1.8.1-1.8-1v-9.4c0-1.1.8-2.5,1.8-3.1l16-9.3Z"/>
      </g>
      <g class="cls-10">
        <polygon class="cls-21" points="87.6 155.19 71.3 145.69 71.3 137.49 87.5 146.89 87.6 155.19"/>
        <polygon class="cls-33" points="87.5 146.89 71.3 137.49 103.7 118.69 120 128.19 87.5 146.89"/>
        <polygon class="cls-20" points="120 128.19 120 136.39 87.6 155.19 87.5 146.89 120 128.19"/>
      </g>
      <g>
        <g>
          <polygon class="cls-37" points="52.2 39.79 16.3 18.99 38.3 6.29 74.3 27.09 52.2 39.79"/>
          <path class="cls-20" d="m74.3,27.09l9.1,12.6c2.1,2.9,3.3,7.1,3.3,11.9l.2,75.2-46.7,26.9-.2-75.2c0-4.8,1.1-10.2,3.2-15.6l9-23,22.1-12.8Z"/>
          <path class="cls-21" d="m52.3,39.69L16.3,18.99l-9,23c-2.1,5.4-3.2,10.8-3.2,15.6l.2,75.2,36,20.8-.2-75.2c0-4.8,1.1-10.2,3.2-15.6l9-23.1Z"/>
        </g>
        <g>
          <path class="cls-33" d="m17.1,37.09c-.2-.1-.4-.1-.6.1-.1.1-.2.1-.3.2-1.5,1.5-2.8,3.4-3.6,5.4l-2.1,5.3c-2.2,5.5-3.3,11.1-3.3,16l.2,60.7c0,2.5.6,4.7,1.6,6.3l.1.1c8.6,5,17.2,10,25.7,14.9,0,0-.1,0-.1-.1-1.1-1.6-1.6-3.8-1.6-6.3l-.2-60.7c0-5,1.1-10.5,3.3-16l2.1-5.3c.8-2,2.1-4,3.6-5.4.1-.1.2-.2.3-.2.2-.1.5-.2.6-.1-8.6-4.9-17.1-9.9-25.7-14.9Z"/>
          <path class="cls-36" d="m42.2,52.09c.7-.4,1.2.2.8,1.1l-4.1,10.6c-1.8,4.5-2.7,9-2.7,13l.2,67.9c0,.5-.5,1.1-1,1.4-.3.2-.5.2-.6,0-1.1-1.6-1.6-3.8-1.6-6.3l-.2-60.7c0-5,1.1-10.5,3.3-16l2.1-5.3c.8-2,2.1-4,3.6-5.4,0-.2.1-.2.2-.3Z"/>
        </g>
      </g>
      <g>
        <path class="cls-35" d="m66.8,162.09l-.1-27-16.1-9.4.1,27c0,.9.3,1.5.8,1.8l16.1,9.4c-.5-.2-.8-.9-.8-1.8Z"/>
        <path class="cls-19" d="m58,119.19c-.5-.3-1.2-.3-2,.2l-2.6,1.5c-1.6.9-2.8,3.1-2.8,4.9l16.1,9.4c0-1.8,1.3-4,2.8-4.9l2.6-1.5c.8-.5,1.5-.5,2-.2-5.3-3.1-10.7-6.3-16.1-9.4Z"/>
        <path class="cls-37" d="m72.1,128.79c1.6-.9,2.8-.2,2.8,1.6l.1,27c0,1.8-1.3,4-2.8,4.9l-2.6,1.5c-1.6.9-2.8.2-2.8-1.6l-.1-27c0-1.8,1.3-4,2.8-4.9l2.6-1.5Z"/>
      </g>
      <g>
        <path class="cls-1" d="m96.4,105.69c-.8-.5-1.9-.4-3.2.3l-4.1,2.4,24.6,14.3,4.1-2.4c1.2-.7,2.4-.8,3.2-.3l-24.6-14.3Z"/>
        <path class="cls-1" d="m98.1,111.59c-1.6-.9-3.2-1.9-9.7-5.6-.5-.3-1.1-.2-1.8.2l-24.5,14.1c-1.4.8-2.5,2.7-2.5,4.3v.8l24.6,14.3v-.8c0-1.6,1.1-3.5,2.5-4.3l24.5-14.1c.7-.4,1.3-.4,1.8-.2l-14.9-8.7Z"/>
        <path class="cls-1" d="m59.7,125.39l-4.1,2.4c-2.5,1.4-4.5,4.9-4.5,7.7l24.6,14.3c0-2.8,2-6.3,4.5-7.7l4.1-2.4-24.6-14.3Z"/>
        <path class="cls-15" d="m111.2,120.39c1.4-.8,2.5-.2,2.5,1.4v.8l4.1-2.4c2.5-1.4,4.5-.3,4.5,2.6l-46.6,26.9c0-2.8,2-6.3,4.5-7.7l4.1-2.4v-.8c0-1.6,1.1-3.5,2.5-4.3l24.4-14.1Z"/>
      </g>
      <g class="cls-10">
        <polygon class="cls-4" points="47.1 141.49 25.6 128.99 25.6 121.29 47 133.79 47.1 141.49"/>
        <polygon class="cls-13" points="47 133.79 25.6 121.29 106.6 74.19 128.1 86.69 47 133.79"/>
        <polygon class="cls-22" points="128.1 86.69 128.2 94.39 47.1 141.49 47 133.79 128.1 86.69"/>
      </g>
      <g class="cls-10">
        <polygon class="cls-32" points="34.8 119.79 38.8 122.19 110.2 80.89 106.2 78.59 34.8 119.79"/>
        <polygon class="cls-32" points="39.5 122.59 43.6 124.99 115 83.69 111 81.39 39.5 122.59"/>
        <polygon class="cls-32" points="44.3 125.39 48.4 127.69 119.8 86.49 115.8 84.09 44.3 125.39"/>
      </g>
      <g class="cls-10">
        <polygon class="cls-4" points="82.6 134.89 76.1 130.39 76 118.39 82.5 128.69 82.6 134.89"/>
        <polygon class="cls-29" points="82.5 128.69 76 118.39 105.2 101.39 111.7 111.69 82.5 128.69"/>
        <polygon class="cls-40" points="111.7 111.69 111.8 117.89 82.6 134.89 82.5 128.69 111.7 111.69"/>
      </g>
      <g>
        <g>
          <path class="cls-29" d="m30.6,128.09c.8-.5,1.9-.4,3.1.3,2.4,1.4,4.3,4.7,4.3,7.5,0,1.4-.5,2.3-1.3,2.8s-1.4.9-2.3,1.4c.8-.5,1.3-1.4,1.3-2.8,0-2.7-1.9-6.1-4.3-7.5-1.2-.7-2.3-.8-3.1-.3.9-.5,1.5-.9,2.3-1.4Z"/>
          <path class="cls-11" d="m31.4,129.79c-2.4-1.4-4.3-.3-4.3,2.5s1.9,6.1,4.3,7.5,4.3.3,4.3-2.5c.1-2.8-1.9-6.1-4.3-7.5Z"/>
        </g>
        <g>
          <path class="cls-29" d="m28.2,130.29c.7-.4,1.7-.4,2.8.3,2.2,1.2,3.9,4.3,3.9,6.7,0,1.2-.4,2.1-1.1,2.5-.8.4-1.3.8-2,1.2.7-.4,1.1-1.3,1.1-2.5,0-2.5-1.7-5.5-3.9-6.7-1.1-.6-2.1-.7-2.8-.3.8-.5,1.3-.8,2-1.2Z"/>
          <path class="cls-11" d="m29,131.79c-2.2-1.2-3.9-.2-3.9,2.2s1.7,5.5,3.9,6.7,3.9.2,3.9-2.2-1.8-5.5-3.9-6.7Z"/>
        </g>
        <g>
          <path class="cls-29" d="m26.3,132.29c.6-.4,1.5-.3,2.4.2,1.9,1.1,3.4,3.7,3.4,5.9,0,1.1-.4,1.8-1,2.2-.7.4-1.1.7-1.8,1.1.6-.4,1-1.1,1-2.2,0-2.2-1.5-4.8-3.4-5.9-.9-.5-1.8-.6-2.4-.2.7-.4,1.1-.7,1.8-1.1Z"/>
          <path class="cls-11" d="m26.9,133.59c-1.9-1.1-3.4-.2-3.4,1.9s1.5,4.8,3.4,5.9,3.4.2,3.4-1.9c0-2.2-1.5-4.8-3.4-5.9Z"/>
        </g>
      </g>
      <g>
        <g>
          <path class="cls-2" d="m70.8,53.29c-1.2-.7-2.9-.6-4.8.5-3.7,2.1-6.7,7.4-6.7,11.6,0,2.1.8,3.6,2,4.3,1.3.8.3.2,1.6,1-1.2-.7-2-2.2-2-4.3,0-4.3,3-9.5,6.7-11.6,1.9-1.1,3.6-1.2,4.8-.5-1.3-.7-.3-.2-1.6-1Z"/>
          <path class="cls-39" d="m67.6,54.79c3.7-2.1,6.7-.4,6.8,3.9,0,4.3-3,9.5-6.7,11.6s-6.7.4-6.8-3.9c0-4.3,3-9.5,6.7-11.6Z"/>
        </g>
        <g>
          <path class="cls-2" d="m72.5,55.39c-1.1-.6-2.6-.5-4.2.4-3.3,1.9-5.9,6.4-5.9,10.2,0,1.9.7,3.2,1.7,3.8,1.2.7.2.2,1.4.9-1.1-.6-1.7-1.9-1.7-3.8,0-3.7,2.6-8.3,5.9-10.2,1.6-.9,3.1-1,4.2-.4-1.2-.6-.3-.2-1.4-.9Z"/>
          <path class="cls-39" d="m69.7,56.79c3.3-1.9,5.9-.4,5.9,3.4s-2.6,8.3-5.9,10.2c-3.3,1.9-5.9.4-5.9-3.4s2.6-8.4,5.9-10.2Z"/>
        </g>
        <g>
          <path class="cls-2" d="m73.7,57.29c-.9-.5-2.2-.5-3.6.3-2.8,1.6-5,5.5-5,8.6,0,1.6.6,2.7,1.5,3.2,1,.6.2.2,1.2.8-.9-.5-1.5-1.6-1.5-3.2,0-3.2,2.2-7,5-8.6,1.4-.8,2.6-.9,3.6-.4-1-.5-.2-.1-1.2-.7Z"/>
          <path class="cls-39" d="m71.4,58.39c2.8-1.6,5-.3,5,2.9s-2.2,7-5,8.6-5,.3-5-2.9,2.2-7,5-8.6Z"/>
        </g>
      </g>
      <g>
        <g class="cls-10">
          <g class="cls-17">
            <g class="cls-10">
              <path class="cls-7" d="m105.4,75.19l-3.2-1.9c-.3-.2-.5-.4-.7-.7l3.2,1.9c.2.3.4.5.7.7h0Z"/>
            </g>
          </g>
        </g>
        <path class="cls-36" d="m113.8,48.69c-.8-.5-1.9-.4-3.2.3l-10.5,6c-3.5,2-5.7,7.7-3.9,10.2l5.3,7.4,3.2,1.9-5.3-7.4c-1.8-2.5.4-8.1,3.9-10.2l10.5-6c1.3-.8,2.4-.8,3.2-.3-1-.7-2.1-1.3-3.2-1.9Z"/>
        <path class="cls-21" d="m113.8,50.89c3.5-2,5.7,1.1,4,5.6l-5.2,13.4c-.9,2.3-2.4,4-4,4.9-1.5.9-3.1.9-4-.3l-5.3-7.4c-1.8-2.5.4-8.1,3.9-10.2l10.6-6Z"/>
      </g>
      <g>
        <path class="cls-34" d="m67.6,155.99h0c1-2.8,3.7-4.9,5.3-4,.2.1,4.9,2.9,5.1,3-1.4-.8-3.6.6-4.8,2.9-.9,1.7-1.3,4.3.1,5.1-.2-.1-4.9-2.9-5.1-3-1-.6-1.2-2.3-.6-4Z"/>
        <path class="cls-18" d="m75.7,155.19c-1.8,1.1-3.3,3.6-3.3,5.7s1.5,2.9,3.3,1.9c1.8-1.1,3.3-3.6,3.3-5.7s-1.5-2.9-3.3-1.9Z"/>
      </g>
      <g>
        <path class="cls-5" d="m74.7,159.19h0c.4-1.2,1.5-2,2.2-1.7.1.1,4.7,2.8,4.8,2.8-.6-.3-1.5.3-2,1.2-.4.7-.5,1.8.1,2.1-.1-.1-4.7-2.8-4.8-2.8-.5-.2-.5-.9-.3-1.6Z"/>
        <path class="cls-3" d="m80.7,160.39c-.8.4-1.4,1.5-1.4,2.4s.6,1.2,1.4.8c.8-.4,1.4-1.5,1.4-2.4s-.6-1.2-1.4-.8Z"/>
      </g>
      <g>
        <path class="cls-14" d="m99.6,66.99l20.5-11.9c0-6.5-5.1-13.3-10-17.3-2.4-2-9.8-8-9.8-8-4-3.1-6.2-5-12.5-8.7-9.4-5.5-18.9-10.2-28.4-14.3l-12.6-5.4c-2.8-1.6-5.3-1.8-7.1-.7-9.6,5.6-10.8,6.2-20.5,11.9,1.8-1.1,4.4-.9,7.1.7l12.6,5.4c9.4,4,18.4,9.4,27.9,14.9,10,5.8,2.4,1.2,12.3,8.4l9.6,8.2c5.5,3.1,11,10.4,10.9,16.8Z"/>
        <path class="cls-33" d="m67.3,32.99c9.6,6,11.2,7.4,15.1,10.4,2.3,1.8,5,4.2,7.2,6.3,5.7,5.5,10,11,10,17.3L16.2,18.99c0-6.4,4.5-8.9,10.1-5.7l12.6,5.4c9.5,4.1,18.9,8.8,28.4,14.3Z"/>
      </g>
      <g>
        <g>
          <path class="cls-24" d="m17.1,136.79c-.9-3.1-1.1-7.4,1.7-9-.6.4-1.3.7-1.9,1.1-3.3,1.9-2.5,7.4-.9,10.9h0c1.2,2.7,3.1,5.3,5.4,7,2.9,2.1,5.2,2,6.6,1.2.3-.2.6-.4,1-.6,0,0,.1,0,.1-.1.5-.3.2-.1.9-.5-4,2.5-10.7-2.8-12.9-10Z"/>
          <path class="cls-12" d="m23.6,128.69c4.3,2.5,7.8,8.6,7.8,13.6s-3.5,7-7.9,4.5c-4.3-2.5-7.8-8.6-7.8-13.6s3.5-7,7.9-4.5Zm1.8,6.8l-3.1-6.2c-2.7-1-4.9.2-5.4,3.1l8.5,3.1h0Zm-3.1,9.1l3.2-6.2-8.6-3.1c.5,3.4,2.6,7.2,5.4,9.3h0Zm2.5,1.5c2.7,1,4.9-.2,5.4-3.1l-2.3-3.1-3.1,6.2h0Z"/>
          <path class="cls-24" d="m33.2,141.39c-.8-8.9-9.8-17.9-15.1-14.8l-1.9,1.1c5.4-3.1,14.7,6.3,15.2,15.3.1,2.4-.5,5.1-2.6,6.3.6-.4,1.3-.7,1.9-1.1,2.2-1.2,2.7-4.2,2.5-6.8Z"/>
          <path class="cls-42" d="m22.4,128.29c4.9,2.8,8.9,9.7,8.9,15.3s-4,7.9-8.9,5.1-8.9-9.7-8.9-15.3,4-7.9,8.9-5.1Zm0,19.3c4.3,2.5,7.9.5,7.9-4.5s-3.5-11.1-7.8-13.6-7.9-.5-7.9,4.5c-.1,5,3.4,11.1,7.8,13.6h0Z"/>
          <g>
            <path class="cls-31" d="m26,135.19c.3-.2.7-.1,1.1.1.8.5,1.5,1.7,1.5,2.6,0,.5-.2.8-.4,1-.3.2-.6.3-.9.5.3-.2.4-.5.4-1,0-1-.7-2.1-1.5-2.6-.4-.2-.8-.3-1.1-.1.3-.1.6-.3.9-.5Z"/>
            <path class="cls-11" d="m26.2,135.79c-.8-.5-1.5-.1-1.5.9s.7,2.1,1.5,2.6,1.5.1,1.5-.9c0-.9-.7-2.1-1.5-2.6Z"/>
          </g>
        </g>
        <g>
          <path class="cls-31" d="m21.2,146.69c.2-.1.4-.1.7.1.5.3,1,1,1,1.6,0,.3-.1.5-.3.6-.2.1-5.1,2.9-5.3,3,.2-.1.3-.3.3-.6,0-.6-.4-1.3-1-1.6-.3-.2-.5-.2-.7-.1.1-.1,5.1-2.9,5.3-3Z"/>
          <path class="cls-11" d="m16.5,149.79c-.5-.3-1-.1-1,.5s.4,1.3,1,1.6c.5.3,1,.1,1-.5s-.5-1.3-1-1.6Z"/>
        </g>
      </g>
      <polygon class="cls-26" points="105.8 68.79 108.1 64.69 111.3 63.89 112.8 65.39 111.4 70.59 108.8 72.19 106.3 71.39 105.8 68.79"/>
      <g>
        <g>
          <path class="cls-24" d="m121.6,133.89c.5-1.7.6-3.9-.9-4.8.3.2.7.4,1,.6,1.8,1,1.3,4,.5,5.9h0c-.6,1.4-1.7,2.8-2.9,3.8-1.6,1.1-2.8,1.1-3.5.6-.2-.1-.3-.2-.5-.3h-.1c-.3-.1-.1-.1-.5-.3,2.1,1.2,5.7-1.6,6.9-5.5Z"/>
          <path class="cls-12" d="m122.4,131.89c0,2.7-1.9,5.9-4.2,7.3-2.3,1.3-4.2.3-4.2-2.4s1.9-5.9,4.2-7.3c2.3-1.3,4.2-.2,4.2,2.4Zm-5.3,1.3l4.6-1.7c-.3-1.5-1.4-2.2-2.9-1.7l-1.7,3.4h0Zm1.7,4.9c1.5-1.2,2.6-3.2,2.9-5l-4.6,1.7,1.7,3.3h0Zm-1.3.8l-1.7-3.3-1.2,1.7c.3,1.5,1.4,2.1,2.9,1.6h0Z"/>
          <path class="cls-24" d="m113,136.39c.4-4.8,5.3-9.6,8.1-8l1,.6c-2.9-1.7-7.9,3.4-8.1,8.2-.1,1.3.3,2.7,1.4,3.4-.3-.2-.7-.4-1-.6-1.2-.7-1.5-2.2-1.4-3.6Z"/>
          <path class="cls-42" d="m123.5,132.09c0,3-2.1,6.7-4.8,8.2-2.6,1.5-4.8.3-4.8-2.7s2.1-6.7,4.8-8.2c2.7-1.6,4.8-.3,4.8,2.7Zm-4.7,7.6c2.3-1.3,4.2-4.6,4.2-7.3s-1.9-3.7-4.2-2.4c-2.3,1.3-4.2,4.6-4.2,7.3s1.9,3.7,4.2,2.4h0Z"/>
          <g>
            <path class="cls-31" d="m116.8,132.99c-.1-.1-.4-.1-.6.1-.5.3-.8.9-.8,1.4,0,.3.1.4.2.5.2.1.3.2.5.3-.1-.1-.2-.3-.2-.5,0-.5.4-1.1.8-1.4.2-.1.4-.1.6-.1-.1-.1-.3-.2-.5-.3Z"/>
            <path class="cls-11" d="m116.7,133.39c.5-.3.8-.1.8.5,0,.5-.4,1.1-.8,1.4-.5.3-.8.1-.8-.5,0-.5.4-1.2.8-1.4Z"/>
          </g>
        </g>
        <g>
          <path class="cls-9" d="m119.4,139.19c-.1-.1-.2,0-.4,0-.3.2-.5.6-.5.9,0,.2.1.3.1.3.1.1,2.8,1.6,2.9,1.6-.1-.1-.1-.2-.1-.3,0-.3.2-.7.5-.9.1-.1.3-.1.4,0-.1,0-2.8-1.5-2.9-1.6Z"/>
          <path class="cls-1" d="m121.9,140.89c.3-.2.5,0,.5.3s-.2.7-.5.9c-.3.2-.5,0-.5-.3,0-.4.3-.8.5-.9Z"/>
        </g>
      </g>
      <g>
        <path class="cls-28" d="m111.5,65.19l-1.4-.8c.5.3.8.9.8,1.8,0,1.7-1.2,3.9-2.7,4.7-.8.4-1.5.5-1.9.2l1.4.8c.5.3,1.2.2,1.9-.2,1.5-.9,2.7-3,2.7-4.7,0-.9-.3-1.5-.8-1.8Z"/>
        <path class="cls-28" d="m111,62.99c-.7-.4-1.7-.4-2.8.3-2.2,1.3-3.9,4.3-3.9,6.8,0,1.2.4,2.1,1.1,2.5l1.4.8c-.7-.4-1.1-1.3-1.1-2.5,0-2.5,1.7-5.5,3.9-6.8,1.1-.6,2.1-.7,2.8-.3-.5-.3-1-.5-1.4-.8Z"/>
        <path class="cls-16" d="m109.5,64.09c2.2-1.3,3.9-.2,3.9,2.2s-1.7,5.5-3.9,6.8-3.9.2-3.9-2.2,1.7-5.6,3.9-6.8Zm0,7.6c1.5-.9,2.7-3,2.7-4.7s-1.2-2.4-2.7-1.6c-1.5.9-2.7,3-2.7,4.7,0,1.8,1.2,2.5,2.7,1.6h0Z"/>
      </g>
      <path class="cls-6" d="m27.4,81.09c2,1.1,3.6,3.9,3.6,6.2v10.6c0,2.3-1.6,3.2-3.6,2l-4.8-2.8c-2-1.1-3.6-3.9-3.6-6.2v-10.6c0-2.3,1.6-3.2,3.6-2l4.8,2.8Z"/>
      <g>
        <g>
          <path class="cls-30" d="m23.9,90.09c.2-.1.6-.1.9.1.7.4,1.3,1.4,1.3,2.3,0,.4-.1.7-.4.8-.3.1-.5.3-.8.4.2-.1.4-.4.4-.8,0-.8-.6-1.8-1.3-2.3-.4-.2-.7-.2-.9-.1.3-.1.5-.3.8-.4Z"/>
          <path class="cls-38" d="m24,90.59c-.7-.4-1.3-.1-1.3.7s.6,1.8,1.3,2.3c.7.4,1.3.1,1.3-.7,0-.8-.5-1.9-1.3-2.3Z"/>
        </g>
        <g>
          <path class="cls-41" d="m23.9,83.09c.2-.1.6-.1.9.1.7.4,1.3,1.4,1.3,2.3,0,.4-.1.7-.4.8-.3.1-.5.3-.8.4.2-.1.4-.4.4-.8,0-.8-.6-1.8-1.3-2.2-.4-.2-.7-.2-.9-.1.3-.2.5-.4.8-.5Z"/>
          <path class="cls-8" d="m24,83.59c-.7-.4-1.3-.1-1.3.7s.6,1.8,1.3,2.2c.7.4,1.3.1,1.3-.7,0-.7-.5-1.7-1.3-2.2Z"/>
        </g>
      </g>
    </g>
  </g>
</svg>