<?xml version="1.0" encoding="UTF-8"?>
<svg id="Layer_2" data-name="Layer 2" xmlns="http://www.w3.org/2000/svg" xmlns:xlink="http://www.w3.org/1999/xlink" viewBox="0 0 131.3 131.97">
  <defs>
    <style>
      .cls-1 {
        fill: #292a2b;
      }

      .cls-2 {
        fill: #5c5e60;
      }

      .cls-3 {
        fill: #4c4c4c;
      }

      .cls-4 {
        fill: #5b5751;
      }

      .cls-5 {
        fill: #101011;
      }

      .cls-6 {
        isolation: isolate;
      }

      .cls-7 {
        fill: #e51010;
      }

      .cls-8 {
        fill: #e81c1c;
      }

      .cls-9 {
        opacity: .8;
      }

      .cls-10 {
        fill: #ea1b1b;
      }

      .cls-11 {
        clip-path: url(#clippath-1);
      }

      .cls-12 {
        fill: #b5b8bd;
      }

      .cls-13 {
        fill: #b3963a;
      }

      .cls-14 {
        fill: #616365;
      }

      .cls-15 {
        fill: #33322f;
      }

      .cls-16 {
        fill: #d61a1a;
      }

      .cls-17 {
        fill: #eda51a;
      }

      .cls-18 {
        fill: #414141;
      }

      .cls-19 {
        fill: #3a3a3a;
      }

      .cls-20 {
        clip-path: url(#clippath);
      }

      .cls-21 {
        fill: #a01212;
      }

      .cls-22 {
        fill: none;
      }

      .cls-23 {
        fill: #ce0909;
      }

      .cls-24 {
        fill: #141414;
      }

      .cls-25 {
        fill: #bcbcbc;
      }

      .cls-26 {
        fill: #ccc;
      }

      .cls-27 {
        fill: #d32a2a;
      }

      .cls-28 {
        fill: #e84242;
      }

      .cls-29 {
        fill: #ff5a5a;
      }

      .cls-30 {
        fill: #f73c3c;
      }

      .cls-31 {
        fill: #c4c7cc;
      }

      .cls-32 {
        fill: #95e0e5;
      }

      .cls-33 {
        fill: #7c1111;
      }

      .cls-34 {
        fill: #b0f6ff;
      }

      .cls-35 {
        fill: #d3e5f4;
      }

      .cls-36 {
        fill: #3d3b38;
      }

      .cls-37 {
        fill: #ff7373;
      }
    </style>
    <clipPath id="clippath">
      <path class="cls-22" d="m131.3,8.24c-.1.4-.2.7-.2,1,0,.1-.1.2-.2.3l.2-1c.1-.1.2-.2.2-.3Z"/>
    </clipPath>
    <clipPath id="clippath-1">
      <path class="cls-22" d="m65.2,49.34c-.1.4-.2.7-.2,1,0,.1-.1.2-.2.3l.2-1c.1-.1.2-.2.2-.3Z"/>
    </clipPath>
  </defs>
  <g id="Layer_1-2" data-name="Layer 1">
    <g>
      <g>
        <path class="cls-3" d="m105.6,102.64l-25.8,15c-12.2,7.1-32.2,7.1-44.5,0l-25.9-15C3.2,99.04.1,94.34.1,89.64c0,11-.1-2-.1,9,0,4.7,3.1,9.4,9.3,13l25.9,15c12.3,7.1,32.2,7.1,44.5,0l25.8-15c6.1-3.5,9.1-8.2,9.1-12.8,0-11,.1,2,.1-9,0,4.7-3,9.3-9.1,12.8Z"/>
        <path class="cls-18" d="m105.5,76.94c12.3,7.1,12.4,18.7.1,25.8l-25.8,15c-12.2,7.1-32.2,7.1-44.5,0l-25.9-15c-12.3-7.1-12.4-18.7-.1-25.8l25.8-15c12.2-7.1,32.2-7.1,44.5,0l25.9,15Z"/>
      </g>
      <g>
        <g>
          <path class="cls-26" d="m98.5.24c.4.4.7,1.3.5,1.9l-1.6,6.7c-.1.6-.6.7-1.1.3-.4-.4-.7-1.3-.5-1.9l1.6-6.7c.2-.6.7-.7,1.1-.3Z"/>
          <g>
            <polygon class="cls-1" points="119.1 49.54 115.7 48.34 115.1 52.34 119.1 49.54"/>
            <polygon class="cls-1" points="100.1 7.04 99.2 11.34 94.8 9.54 100.1 7.04"/>
            <g>
              <path class="cls-31" d="m116.2,32.44h0c-6-17.1-22.2-29.7-31.8-24.1-1.5.8-2.9,1.7-4.4,2.5,8.3-4.8,21.6,3.7,29,17.7,5.5,10.3,7.8,25.7-.9,30.8,1.5-.8,2.9-1.7,4.4-2.5,6.5-3.8,7.4-14.1,3.7-24.4Z"/>
              <path class="cls-12" d="m94.2,12.24c11,6.3,19.9,21.7,19.8,34.3,0,12.6-9,17.7-19.9,11.4-11-6.3-19.9-21.7-19.8-34.3,0-12.6,8.9-17.7,19.9-11.4Z"/>
            </g>
            <path class="cls-1" d="m100.6,45.24c.2-.8.4-1.7.4-2.7,0-5.8-4.1-12.9-9.2-15.9-.2-.1-.3-.2-.5-.3l3-14.6c-.8-.5-1.5-1-2.3-1.5-12.2-7.1-22.2-1.4-22.2,12.7s9.8,31.2,22.1,38.2c11,6.3,20.1,2.4,21.9-8.6l-13.2-7.3Z"/>
            <path class="cls-19" d="m83.2,4.74l-6.9,4c5-2.9,11.6-1.4,18,3l5.9-4.7c-5.3-3.3-11.8-5.3-17-2.3Z"/>
            <path class="cls-5" d="m113.7,52.64c-.7,4.4-2.5,8.1-6.1,10.1,2.3-1.3,4.6-2.7,6.9-4,2.5-1.5,4.6-5.6,4.6-9.2l-5.4,3.1Z"/>
          </g>
          <g>
            <path class="cls-19" d="m98,37.14h0c-2.4-6.7-8.7-11.6-12.5-9.4-.6.3-2.9,1.6-3.4,2,3.3-1.9,8.5,1.5,11.4,6.9,2.1,4,3.1,10.1-.3,12.1.6-.3,2.9-1.6,3.4-2,2.5-1.5,2.8-5.6,1.4-9.6Z"/>
            <path class="cls-24" d="m87.6,30.24c4.3,2.5,7.8,8.5,7.8,13.5s-3.5,6.9-7.8,4.5c-4.3-2.5-7.8-8.5-7.8-13.5s3.5-7,7.8-4.5Z"/>
          </g>
          <polygon class="cls-25" points="92.5 9.94 97 5.24 98.1 .44 93.4 4.74 92.5 9.94"/>
          <g class="cls-9">
            <g class="cls-6">
              <g class="cls-20">
                <g class="cls-6">
                  <path class="cls-35" d="m131.3,8.24l-.2,1c0,.1-.1.2-.2.3l.2-1c.1-.1.2-.2.2-.3h0Z"/>
                </g>
              </g>
            </g>
            <path class="cls-32" d="m95.9,4.34c-.4-.1-.8-.3-1.1-.5-.7-.4-1.1-.9-1-1.2-.1.4-.2.7-.2,1.1-.1.4.3.8,1,1.2.3.2.7.3,1.1.5l1.1.4.2-1-1.1-.5Z"/>
            <path class="cls-32" d="m122.8,16.44c-.5.5-2.2.5-3.7,0l-20.8-9.4c-.4-.1-.7-.3-1-.5-.6-.4-1-.8-.9-1.1l-.2,1c-.1.3.3.8.9,1.1.3.2.6.3,1,.5l20.8,9.4c1.5.5,3.2.5,3.7,0l8.3-7.9.2-1-8.3,7.9Z"/>
            <path class="cls-34" d="m130.4,7.14c.8.5,1.1,1,.7,1.4l-8.3,7.9c-.5.5-2.2.5-3.7,0l-20.8-9.4c-.4-.1-.7-.3-1-.5-.8-.5-1.1-1-.7-1.4l.4-.4-1.1-.4c-.4-.1-.8-.3-1.1-.5-.9-.5-1.2-1.1-.8-1.5l1.5-1.5c.6-.6,2.4-.6,4,0l1.1.4.4-.4c.5-.5,2.2-.5,3.7,0l24.6,5.8c.4.2.8.3,1.1.5Z"/>
          </g>
          <path class="cls-26" d="m93.8,2.84c.4.4.7,1.3.5,1.9l-1.6,6.7c-.1.6-.6.7-1.1.3-.4-.4-.7-1.3-.5-1.9l1.6-6.7c.2-.6.7-.7,1.1-.3Z"/>
          <path class="cls-14" d="m91.9,10.64c.2.1.4.5.4.7,0,.3-.2.4-.4.2-.2-.1-.4-.5-.4-.7s.2-.4.4-.2Z"/>
        </g>
        <g class="cls-6">
          <polygon class="cls-29" points="96 85.14 51.3 59.14 62.8 52.54 107.4 78.54 96 85.14"/>
          <polygon class="cls-7" points="61.5 105.04 16.8 79.14 23.4 64.54 60.4 80.64 61.5 105.04"/>
          <polygon class="cls-13" points="60.4 80.64 23.4 64.54 44.6 52.24 81.7 68.34 60.4 80.64"/>
          <polygon class="cls-29" points="50 111.64 5.4 85.74 16.8 79.14 61.5 105.04 50 111.64"/>
          <polygon class="cls-7" points="50.1 121.34 5.4 95.34 5.4 85.74 50 111.64 50.1 121.34"/>
          <polygon class="cls-30" points="81.7 68.34 96 85.14 107.4 78.54 107.5 88.14 50.1 121.34 50 111.64 61.5 105.04 60.4 80.64 81.7 68.34"/>
        </g>
        <polygon class="cls-23" points="50 111.64 107.4 78.54 107.5 88.14 50.1 121.34 50 111.64"/>
        <g>
          <path class="cls-10" d="m93.9,44.84c-2.3-9.8-12.1-20-16.9-17.1-1.2.8-2.5,1.5-3.7,2.2,1.4-.8,3.4-.6,5.7.8,8.7,5.2,15,21.2,9.6,24.5l3.7-2.2c2.5-1.5,2.3-5.5,1.6-8.2Z"/>
          <path class="cls-30" d="m79.1,30.74c-1.5-.9-2.9-1.3-4-1.3-5.2.2-10.4.4-15.6.5,8.6-.3,21.4,15.2,23.7,28.8.6,3.8.3,6.8-.8,8.7,2.5-4.5,5.1-9.1,7.6-13.6,2.9-5.2-3.3-18.5-10.9-23.1Z"/>
          <path class="cls-30" d="m60.3,66.64c-5.8-16.8-22-29.4-26.8-20.8-2.5,4.5-5.1,9.1-7.6,13.6,2.3-4.2,9.1-.8,14.2,7,5.4,8.2,5.9,17.3.7,17.5l15.6-.5c5.6-.3,7.1-7.5,3.9-16.8Z"/>
          <path class="cls-29" d="m83.51,58.87c-2.65-15.88-19.03-33.08-26.76-28.32-3.66,2.23-7.33,4.45-10.89,6.57-3.66,2.23-7.33,4.45-10.89,6.57,7.73-4.65,24.11,12.54,26.76,28.32.92,5.56-.2,9.31-2.75,10.82l10.89-6.57,10.89-6.57c2.54-1.52,3.66-5.26,2.75-10.82Z"/>
          <path class="cls-17" d="m43.7,74.14c-1.6-5.5-5.9-12.2-10.9-15.2-2.4-1.4-4.4-1.6-5.7-.8-1.2.8-2.5,1.5-3.7,2.2,1.4-.8,3.4-.6,5.7.8,6.1,3.6,12,13.7,11.6,20.5-.2,3.2-1.9,4-1.9,4h0l3.7-2.2c2.6-1.6,2-6.3,1.2-9.3Z"/>
          <path class="cls-2" d="m29.1,61.24c5.2,3.1,10.3,10.9,11.4,17.5,1.1,6.5-2.3,9.3-7.5,6.2-5.2-3.1-10.3-10.9-11.4-17.5-1.1-6.6,2.3-9.3,7.5-6.2Z"/>
        </g>
        <g>
          <path class="cls-26" d="m32.5,41.34c.4.4.7,1.3.5,1.8l-1.6,6.7c-.1.6-.6.7-1.1.3-.4-.4-.7-1.3-.5-1.9l1.6-6.7c.1-.5.6-.6,1.1-.2Z"/>
          <g>
            <polygon class="cls-1" points="53 90.64 49.7 89.54 49 93.44 53 90.64"/>
            <polygon class="cls-1" points="34 48.14 33.1 52.44 28.8 50.64 34 48.14"/>
            <g>
              <path class="cls-31" d="m50.1,73.54h0c-6-17.1-22.2-29.7-31.8-24.1-1.5.8-2.9,1.7-4.4,2.5,8.3-4.8,21.6,3.7,29,17.7,5.5,10.3,7.8,25.7-.9,30.8,1.5-.8,2.9-1.7,4.4-2.5,6.5-3.7,7.4-14.1,3.7-24.4Z"/>
              <path class="cls-12" d="m28.1,53.34c11,6.3,19.9,21.7,19.8,34.3,0,12.6-9,17.7-19.9,11.4-11-6.3-19.9-21.7-19.8-34.3,0-12.6,8.9-17.7,19.9-11.4Z"/>
            </g>
            <path class="cls-1" d="m34.5,86.34c.2-.8.4-1.7.4-2.7,0-5.8-4.1-12.9-9.2-15.9-.2-.1-.3-.2-.5-.3l3-14.6c-.8-.5-1.5-1-2.3-1.5-12.2-7.1-22.2-1.4-22.2,12.7s9.8,31.2,22.1,38.2c11,6.3,20.1,2.4,21.9-8.6l-13.2-7.3Z"/>
            <path class="cls-19" d="m17.1,45.84l-6.9,4c5-2.9,11.6-1.4,18,3l5.9-4.7c-5.3-3.3-11.8-5.3-17-2.3Z"/>
            <path class="cls-5" d="m47.7,93.74c-.7,4.4-2.5,8.1-6.1,10.1,2.3-1.3,4.6-2.7,6.9-4,2.5-1.5,4.6-5.6,4.6-9.2l-5.4,3.1Z"/>
          </g>
          <g>
            <path class="cls-19" d="m31.9,78.24h0c-2.4-6.7-8.7-11.6-12.5-9.4-.6.3-2.9,1.6-3.4,2,3.2-1.9,8.5,1.5,11.4,6.9,2.1,4,3.1,10.1-.3,12.1.6-.3,2.9-1.6,3.4-2,2.5-1.5,2.8-5.6,1.4-9.6Z"/>
            <path class="cls-24" d="m21.5,71.34c4.3,2.5,7.8,8.5,7.8,13.5s-3.5,6.9-7.8,4.5c-4.3-2.5-7.8-8.5-7.8-13.5,0-5,3.5-7,7.8-4.5Z"/>
          </g>
          <polygon class="cls-25" points="26.4 51.04 30.9 46.44 32 41.64 27.3 45.84 26.4 51.04"/>
          <g class="cls-9">
            <g class="cls-6">
              <g class="cls-11">
                <g class="cls-6">
                  <path class="cls-35" d="m65.2,49.34l-.2,1c0,.1-.1.2-.2.3l.2-1c.1-.1.2-.2.2-.3h0Z"/>
                </g>
              </g>
            </g>
            <path class="cls-32" d="m29.8,45.54c-.4-.1-.8-.3-1.1-.5-.7-.4-1.1-.9-1-1.2-.1.4-.2.7-.2,1-.1.4.3.8,1,1.2.3.2.7.3,1.1.5l1.1.4.2-1-1.1-.4Z"/>
            <path class="cls-32" d="m56.7,57.54c-.5.5-2.2.5-3.7,0l-20.8-9.4c-.4-.1-.7-.3-1-.5-.6-.4-1-.8-.9-1.1l-.2,1c-.1.3.3.8.9,1.1.3.2.6.3,1,.5l20.8,9.4c1.5.5,3.2.5,3.7,0l8.3-7.9.2-1-8.3,7.9Z"/>
            <path class="cls-34" d="m64.3,48.24c.8.5,1.1,1,.7,1.4l-8.3,7.9c-.5.5-2.2.5-3.7,0l-20.8-9.4c-.4-.1-.7-.3-1-.5-.8-.5-1.1-1-.7-1.4l.4-.4-1.1-.4c-.4-.1-.8-.3-1.1-.5-.9-.5-1.2-1.1-.8-1.5l1.5-1.5c.6-.6,2.4-.6,4,0l1.1.4.4-.4c.5-.5,2.2-.5,3.7,0l24.6,5.8c.5.2.8.3,1.1.5Z"/>
          </g>
          <path class="cls-26" d="m27.8,43.94c.4.4.7,1.3.5,1.8l-1.6,6.7c-.1.6-.6.7-1.1.3-.4-.4-.7-1.3-.5-1.9l1.6-6.7c.1-.5.6-.6,1.1-.2Z"/>
          <path class="cls-14" d="m25.8,51.74c.2.1.4.5.4.7,0,.3-.2.4-.4.2-.2-.1-.4-.5-.4-.7s.2-.3.4-.2Z"/>
        </g>
        <g class="cls-6">
          <polygon class="cls-21" points="75.3 92.74 75.6 92.54 75.2 97.14 74.9 97.24 75.3 92.74"/>
          <polygon class="cls-16" points="71.5 82.84 71.7 82.64 75.6 92.54 75.3 92.74 71.5 82.84"/>
          <polygon class="cls-8" points="68.1 79.54 68.4 79.34 71.7 82.64 71.5 82.84 68.1 79.54"/>
          <polygon class="cls-33" points="68.1 79.54 71.5 82.84 75.3 92.74 74.9 97.24 68.1 79.54"/>
        </g>
        <g class="cls-6">
          <polygon class="cls-21" points="84.1 87.74 84.3 87.54 84 92.04 83.7 92.24 84.1 87.74"/>
          <polygon class="cls-16" points="80.2 77.74 80.5 77.54 84.3 87.54 84.1 87.74 80.2 77.74"/>
          <polygon class="cls-8" points="76.9 74.54 77.2 74.34 80.5 77.54 80.2 77.74 76.9 74.54"/>
          <polygon class="cls-33" points="76.9 74.54 80.2 77.74 84.1 87.74 83.7 92.24 76.9 74.54"/>
        </g>
        <g class="cls-6">
          <polygon class="cls-15" points="75.7 90.84 75.3 90.74 73 83.84 73.3 83.84 75.7 90.84"/>
          <polygon class="cls-36" points="73.3 83.84 73 83.84 78.4 80.64 78.7 80.64 73.3 83.84"/>
          <polygon class="cls-4" points="78.7 80.64 81.1 87.64 75.7 90.84 73.3 83.84 78.7 80.64"/>
        </g>
        <g class="cls-6">
          <polygon class="cls-27" points="77.4 84.34 80.6 82.44 82.2 87.14 79 88.94 77.4 84.34"/>
          <polygon class="cls-37" points="74.8 84.24 78 82.44 80.6 82.44 77.4 84.34 74.8 84.24"/>
          <polygon class="cls-28" points="77.4 84.34 79 88.94 76.4 88.94 74.8 84.24 77.4 84.34"/>
        </g>
      </g>
    </g>
  </g>
</svg>