<?xml version="1.0" encoding="UTF-8"?>
<svg id="Layer_2" data-name="Layer 2" xmlns="http://www.w3.org/2000/svg" xmlns:xlink="http://www.w3.org/1999/xlink" viewBox="0 0 142.1 211.33">
  <defs>
    <style>
      .cls-1 {
        fill: #141516;
      }

      .cls-2 {
        fill: #2c2c2d;
      }

      .cls-3 {
        fill: #161617;
      }

      .cls-4 {
        fill: #4c4c4c;
      }

      .cls-5 {
        fill: #262627;
      }

      .cls-6 {
        fill: #edf0f4;
      }

      .cls-7 {
        fill: #ce3a3a;
      }

      .cls-8 {
        fill: #e22323;
      }

      .cls-9 {
        fill: #f8bc3b;
      }

      .cls-10 {
        clip-path: url(#clippath-2);
      }

      .cls-11 {
        isolation: isolate;
      }

      .cls-12 {
        fill: #e20e0e;
      }

      .cls-13 {
        fill: #e83838;
      }

      .cls-14 {
        fill: #303030;
      }

      .cls-15 {
        clip-path: url(#clippath-6);
      }

      .cls-16 {
        fill: #1c1c1c;
      }

      .cls-17 {
        fill: #ef2626;
      }

      .cls-18 {
        fill: #e9b73e;
      }

      .cls-19 {
        fill: #cccfd2;
      }

      .cls-20 {
        clip-path: url(#clippath-1);
      }

      .cls-21 {
        clip-path: url(#clippath-4);
      }

      .cls-22 {
        fill: #f33;
      }

      .cls-23 {
        fill: #eaeaea;
      }

      .cls-24 {
        fill: #181818;
      }

      .cls-25 {
        fill: #414141;
      }

      .cls-26 {
        fill: #323435;
      }

      .cls-27 {
        fill: #e83f3f;
      }

      .cls-28 {
        clip-path: url(#clippath);
      }

      .cls-29 {
        fill: none;
      }

      .cls-30 {
        fill: #ce0909;
      }

      .cls-31 {
        clip-path: url(#clippath-3);
      }

      .cls-32 {
        fill: #f9ba35;
      }

      .cls-33 {
        fill: #2b2b2c;
      }

      .cls-34 {
        fill: #cfd0d1;
      }

      .cls-35 {
        fill: #ff5a5a;
      }

      .cls-36 {
        fill: #f73c3c;
      }

      .cls-37 {
        fill: #525354;
      }

      .cls-38 {
        clip-path: url(#clippath-5);
      }

      .cls-39 {
        fill: #dd2c2c;
      }

      .cls-40 {
        fill: #8e2828;
      }

      .cls-41 {
        fill: #ffce57;
      }
    </style>
    <clipPath id="clippath">
      <path class="cls-29" d="m106.1,162.3v2.3c0,.6-.4,1.2-1.1,1.6-1.5.9-4,.9-5.6,0-.8-.4-1.2-1-1.2-1.6h0v-2.3c0,.6.4,1.2,1.2,1.6,1.5.9,4,.9,5.6,0,.7-.5,1.1-1,1.1-1.6Z"/>
    </clipPath>
    <clipPath id="clippath-1">
      <path class="cls-29" d="m61.5,187.3v2.3c0,.6-.4,1.2-1.1,1.6-1.5.9-4,.9-5.6,0-.8-.4-1.2-1-1.2-1.6h0v-2.3c0,.6.4,1.2,1.2,1.6,1.5.9,4,.9,5.6,0,.8-.4,1.1-1,1.1-1.6Z"/>
    </clipPath>
    <clipPath id="clippath-2">
      <path class="cls-29" d="m16.5,161.7v2.3c0,.6-.4,1.2-1.1,1.6-1.5.9-4,.9-5.6,0-.8-.4-1.2-1-1.2-1.6h0v-2.3c0,.6.4,1.2,1.2,1.6,1.5.9,4,.9,5.6,0,.7-.4,1.1-1,1.1-1.6Z"/>
    </clipPath>
    <clipPath id="clippath-3">
      <path class="cls-29" d="m86.4,120.7v39.8c0,1.2-.2,2.4-.7,3.6-2.2,5.3-8.8,9.3-17,11-4.8,1-10.1,1.2-15.4.5-9.3-1.3-16.3-5.2-19.2-10.1v-39.8c2.9,4.9,9.9,8.8,19.2,10.1,5.3.7,10.6.5,15.4-.5,8.2-1.7,14.8-5.7,17-11,.4-1.2.7-2.4.7-3.6Z"/>
    </clipPath>
    <clipPath id="clippath-4">
      <path class="cls-29" d="m80.2,112.4v6.9c0,2.9-1.9,5.9-5.8,8.1-7.7,4.5-20.3,4.5-28.1,0-3.9-2.3-5.9-5.2-5.9-8.2h0v-6.9c0,3,2,5.9,5.9,8.2,7.8,4.5,20.4,4.5,28.1,0,3.8-2.3,5.7-5.2,5.8-8.1Z"/>
    </clipPath>
    <clipPath id="clippath-5">
      <path class="cls-29" d="m80.2,112.6c0-2.9-1.9-5.8-5.6-8.1-7.7-4.6-20.3-4.7-28.2-.3-4,2.3-6,5.2-6,8.3v-6.3h0c0-3,2-6,6-8.3,7.9-4.4,20.5-4.3,28.2.3,3.8,2.3,5.7,5.2,5.6,8.1v6.3Z"/>
    </clipPath>
    <clipPath id="clippath-6">
      <path class="cls-29" d="m71.8,96.9c-6.9-2.8-16.2-2.9-23.1-.1,1.2-.5,2.4-1,3.6-1.5,4.7-1.9,11.1-1.9,15.8,0,1.3.6,2.5,1.1,3.7,1.6Z"/>
    </clipPath>
  </defs>
  <g id="Layer_1-2" data-name="Layer 1">
    <g>
      <g>
        <path class="cls-4" d="m105.6,182l-25.8,15c-12.2,7.1-32.2,7.1-44.5,0l-25.9-15C3.2,178.4.1,173.7.1,169c0,11-.1-2-.1,9,0,4.7,3.1,9.4,9.3,13l25.9,15c12.3,7.1,32.2,7.1,44.5,0l25.8-15c6.1-3.5,9.1-8.2,9.1-12.8,0-11,.1,2,.1-9,0,4.6-3,9.3-9.1,12.8Z"/>
        <path class="cls-25" d="m105.4,156.2c12.3,7.1,12.4,18.7.1,25.8l-25.8,15c-12.2,7.1-32.2,7.1-44.5,0l-25.9-15c-12.3-7.1-12.4-18.7-.1-25.8l25.8-15c12.2-7.1,32.2-7.1,44.5,0l25.9,15Z"/>
      </g>
      <g>
        <g class="cls-11">
          <polygon class="cls-3" points="87.4 105.9 94.8 101.6 91 104.8 83.7 109.1 87.4 105.9"/>
          <polygon class="cls-16" points="75.4 92.3 82.7 88 88.1 88.1 80.8 92.4 75.4 92.3"/>
          <polygon class="cls-5" points="86.1 98.5 93.5 94.2 94.8 101.6 87.4 105.9 86.1 98.5"/>
          <polygon class="cls-33" points="80.8 92.4 88.1 88.1 93.5 94.2 86.1 98.5 80.8 92.4"/>
          <polygon class="cls-24" points="80.8 92.4 86.1 98.5 87.4 105.9 83.7 109.1 77.7 105.7 74 98.2 75.4 92.3 80.8 92.4"/>
        </g>
        <g>
          <g class="cls-11">
            <polygon class="cls-30" points="110.6 164.3 110.5 166.4 57.7 197.1 57.7 195 110.6 164.3"/>
            <polygon class="cls-36" points="57.7 195 57.7 197.1 4.6 166.4 4.6 164.3 57.7 195"/>
            <polygon class="cls-35" points="110.6 164.3 57.7 195 4.6 164.3 57.4 133.6 110.6 164.3"/>
          </g>
          <g class="cls-11">
            <g class="cls-11">
              <g class="cls-28">
                <path class="cls-1" d="m106.1,162.3v2.3c0,.6-.4,1.2-1.1,1.6-1.5.9-4,.9-5.6,0-.8-.4-1.2-1-1.2-1.6v-2.3c0,.6.4,1.2,1.2,1.6,1.5.9,4,.9,5.6,0,.7-.5,1.1-1,1.1-1.6h0Z"/>
              </g>
            </g>
            <path class="cls-26" d="m104.9,160.6c1.5.9,1.6,2.3,0,3.2-1.5.9-4,.9-5.6,0-1.5-.9-1.6-2.3,0-3.2,1.6-.9,4.1-.9,5.6,0Z"/>
          </g>
          <g class="cls-11">
            <g class="cls-11">
              <g class="cls-20">
                <path class="cls-1" d="m61.5,187.3v2.3c0,.6-.4,1.2-1.1,1.6-1.5.9-4,.9-5.6,0-.8-.4-1.2-1-1.2-1.6v-2.3c0,.6.4,1.2,1.2,1.6,1.5.9,4,.9,5.6,0,.8-.4,1.1-1,1.1-1.6h0Z"/>
              </g>
            </g>
            <path class="cls-26" d="m60.4,185.7c1.5.9,1.6,2.3,0,3.2-1.5.9-4,.9-5.6,0-1.5-.9-1.6-2.3,0-3.2,1.5-.9,4-.9,5.6,0Z"/>
          </g>
          <g class="cls-11">
            <g class="cls-11">
              <g class="cls-10">
                <path class="cls-1" d="m16.5,161.7v2.3c0,.6-.4,1.2-1.1,1.6-1.5.9-4,.9-5.6,0-.8-.4-1.2-1-1.2-1.6v-2.3c0,.6.4,1.2,1.2,1.6,1.5.9,4,.9,5.6,0,.7-.4,1.1-1,1.1-1.6h0Z"/>
              </g>
            </g>
            <path class="cls-26" d="m15.3,160.1c1.5.9,1.6,2.3,0,3.2-1.5.9-4,.9-5.6,0-1.5-.9-1.6-2.3,0-3.2,1.6-.9,4.1-.9,5.6,0Z"/>
          </g>
        </g>
        <g>
          <path class="cls-30" d="m28.3,124.9c-2.7-.4-4.5-1.8-4.5-3.3v39.8c0,1.5,1.8,2.9,4.5,3.3l5.8.8v-39.8l-5.8-.8Z"/>
          <g>
            <path id="SVGID" class="cls-9" d="m86.4,120.7v39.8c0,1.2-.2,2.4-.7,3.6-2.2,5.3-8.8,9.3-17,11-4.8,1-10.1,1.2-15.4.5-9.3-1.3-16.3-5.2-19.2-10.1v-39.8c2.9,4.9,9.9,8.8,19.2,10.1,5.3.7,10.6.5,15.4-.5,8.2-1.7,14.8-5.7,17-11,.4-1.2.7-2.4.7-3.6Z"/>
            <g class="cls-31">
              <g class="cls-11">
                <path class="cls-36" d="m86.4,120.7v39.8c0,1.2-.2,2.4-.7,3.6-2.2,5.3-8.8,9.3-17,11-4.8,1-10.1,1.2-15.4.5-9.3-1.3-16.3-5.2-19.2-10.1v-39.8c2.9,4.9,9.9,8.8,19.2,10.1,5.3.7,10.6.5,15.4-.5,8.2-1.7,14.8-5.7,17-11,.4-1.2.7-2.4.7-3.6h0Z"/>
              </g>
            </g>
          </g>
          <path class="cls-35" d="m31.6,108.7c1-.2,2.2-.3,3.3-.1l5.8.8c2.7-1.5,6-2.7,9.5-3.4,4.8-1,10.1-1.2,15.4-.5,14.5,2,23.4,10.4,20,18.8-2.2,5.3-8.8,9.3-17,11-4.8,1-10.1,1.2-15.4.5-9.3-1.3-16.3-5.2-19.2-10.1l-5.8-.8c-3.1-.4-5-2.2-4.3-4l4-9.8c.6-1.1,2-2,3.7-2.4Z"/>
        </g>
        <g class="cls-11">
          <g class="cls-11">
            <g class="cls-21">
              <path class="cls-14" d="m80.2,112.4v6.9c0,2.9-1.9,5.9-5.8,8.1-7.7,4.5-20.3,4.5-28.1,0-3.9-2.3-5.9-5.2-5.9-8.2v-6.9c0,3,2,5.9,5.9,8.2,7.8,4.5,20.4,4.5,28.1,0,3.8-2.3,5.7-5.2,5.8-8.1h0Z"/>
            </g>
          </g>
          <path class="cls-41" d="m74.3,104.2c7.8,4.5,7.8,11.8.1,16.3-7.7,4.5-20.3,4.5-28.1,0-7.8-4.5-7.8-11.8-.1-16.3,7.7-4.5,20.3-4.5,28.1,0Z"/>
        </g>
        <g>
          <g class="cls-11">
            <g class="cls-38">
              <g class="cls-11">
                <path class="cls-6" d="m80.2,112.6v-6.3c0-2.9-1.9-5.8-5.6-8.1-7.7-4.6-20.3-4.7-28.2-.3-4,2.3-6,5.2-6,8.3v6.3c0-3,2-6,6-8.3,7.9-4.4,20.5-4.3,28.2.3,3.7,2.3,5.6,5.2,5.6,8.1h0Z"/>
              </g>
            </g>
          </g>
          <g class="cls-11">
            <g class="cls-15">
              <g class="cls-11">
                <path class="cls-6" d="m71.8,96.9l-3.6-1.5c-4.7-2-11.1-2-15.8,0l-3.6,1.5c6.8-2.9,16.1-2.9,23,0h0Z"/>
              </g>
            </g>
          </g>
          <path class="cls-19" d="m74.1,120.8c-7.9,4.4-20.5,4.3-28.2-.3-7.7-4.6-7.5-11.9.4-16.3s20.5-4.3,28.2.3,7.5,11.9-.4,16.3Z"/>
          <path class="cls-35" d="m69.8,107.5c-5.4,3-14,2.9-19.3-.2s-5.1-8.1.3-11.2c5.4-3,14-2.9,19.3.2s5.1,8.1-.3,11.2Z"/>
          <path class="cls-36" d="m78.9,110.5c3.11-4.7.4-9.73-4.41-12.53-1.6-.9-2.4-.97-6.31-2.57,4.81,2,7.72,6.1,4.31,10-1.8,2.1-4.81,3.3-7.52,3.8-.4.1-.6.1-.7.1-13.83,2.4-23.29-7.25-13.17-12.95.5-.3.74-.95,1.24-1.15-1.2.5-2.41,1-3.61,1.5-.8.3-1.6.7-2.41,1.1-7.92,4.4-8.37,11.75-.65,16.35,10.23,6.3,28.02,4.05,33.23-3.65Z"/>
          <path class="cls-30" d="m74.1,114.6c-7.9,4.4-20.5,4.3-28.2-.3-3.8-2.3-5.7-5.2-5.6-8.1v6.3c0,2.9,1.9,5.8,5.6,8.1,7.7,4.6,20.3,4.7,28.2.3,4-2.3,6.49-5.57,6.1-8.5v-6.3c.12,2.04-2,6.2-6.1,8.5Z"/>
        </g>
        <g class="cls-11">
          <polygon class="cls-7" points="60.8 43.7 79.3 33 79.3 37.2 60.8 48 60.8 43.7"/>
          <polygon class="cls-27" points="50.5 29.5 69 18.8 87.2 29.3 68.7 40.1 50.5 29.5"/>
          <polygon class="cls-40" points="68.7 40.1 60.8 43.7 60.8 48 50.4 42 50.5 29.5 68.7 40.1"/>
        </g>
        <g>
          <polygon class="cls-30" points="82.4 116.5 89.7 112.3 83.5 116 76.3 120.2 82.4 116.5"/>
          <path class="cls-36" d="m90,108.3l-3.2-10.6-7.2,4.2,2.88,10.79c.5,1.7.4,3.2-.3,4l7.52-4.39c.7-.9.8-2.4.3-4Z"/>
          <path class="cls-35" d="m79.6,101.9l7.2-4.2c-.5-1.7-1.7-3.2-2.9-3.8l-17.3-10c-.6-.3-1.1-.4-1.5-.1-2.4,1.4-4.8,2.8-7.2,4.2.4-.2.9-.2,1.5.1l17.3,10c1.4.8,2.5,2.4,2.9,3.8Z"/>
          <path class="cls-8" d="m76.7,98.1c1.2.7,2.4,2.2,2.9,3.8l3.1,10.5c.5,1.7.4,3.2-.3,4l-6.1,3.7c-.5.3-.9.4-1.5.1-.4-.2-.8-.6-1.1-1.1l-1.3-2.9c-.5-.8-1.2-1.4-1.8-1.8l-11.1-9.3c-1.1-.7-2.1-2.3-2.1-3.6v-12.3c0-1.3.9-1.8,2.1-1.2l17.2,10.1Z"/>
        </g>
        <g>
          <path class="cls-36" d="m71.6,89.2l-4.1,2.4c6.6,5.1,9.3,16.3,4.6,19,1.4-.8,2.7-1.6,4.1-2.4,4.7-2.7,2-14-4.6-19Z"/>
          <path class="cls-39" d="m57.2,51.5l4.1-2.4,5,29.5c.2,1.2.6,2.4,1.3,3.5l4,7.1-4.1,2.4-2.8-5.2c-3.5-3.6-3.7-8.6-4.4-13.3l-3.1-21.6Z"/>
          <path class="cls-36" d="m61.6,41.8c-1.7-5.1-6.7-9.6-9.8-7.8l-4.1,2.4c.6-.4,1.4-.5,2.2-.3,5.5,1,10.6,11.5,7.2,15.5l4.1-2.4c1.6-1.9,1.2-5.1.4-7.4Z"/>
          <path class="cls-30" d="m50,36c5.6,1,10.5,11.6,7.2,15.5l3.5,22.4c.2,1.2,1.3,6.8,1.9,8l4.9,9.7c2.9,2.2,5.4,6,6.5,10.1,1.5,5.9-.6,10-4.7,9.3s-8.7-6-10.2-11.9c-1.1-4.1-.3-7.4,1.6-8.7l-2.3-4.3c-2.2-4.2-3.7-8.6-4.4-13.3l-3.6-22.5c-1.8-1.7-3.4-4.3-4.1-7.1-1.2-4.5.5-7.8,3.7-7.2Z"/>
        </g>
        <g>
          <path class="cls-35" d="m61.1,93l-3.5,3.7c3-3.1,9.6,3.7,9.5,10,0,2.2-1,3.5-2.4,3.7,1.7-.3,3.4-.5,5-.8,1.7-.3,2.8-1.9,2.9-4.5.1-7.7-7.9-15.8-11.5-12.1Z"/>
          <path class="cls-8" d="m56.6,99.6c.1-3.5,2.5-4.8,5.4-2.8,2.9,1.9,5.2,6.3,5.1,9.8s-2.5,4.8-5.4,2.8c-2.9-1.9-5.2-6.3-5.1-9.8Z"/>
        </g>
        <g class="cls-11">
          <polygon class="cls-7" points="77.3 20.9 77.3 26.7 63.7 34.4 63.7 28.6 77.3 20.9"/>
          <polygon class="cls-40" points="63.7 28.6 63.7 34.4 55.8 29.9 55.8 24.1 63.7 28.6"/>
          <polygon class="cls-18" points="77.3 20.9 63.7 28.6 55.8 24.1 69.5 16.3 77.3 20.9"/>
        </g>
        <g>
          <polygon class="cls-17" points="74.9 13 79.9 12.9 77.9 6.8 68.4 6.3 74.9 13"/>
          <polygon class="cls-17" points="59.4 27.7 68.7 25.6 69.9 18.7 59.7 15.5 59.4 27.7"/>
          <polygon class="cls-17" points="65.2 32.6 53.4 25.8 47.7 20.9 59.4 27.7 65.2 32.6"/>
          <polygon class="cls-22" points="69.7 7 57.9 .2 66.1 0 77.9 6.8 69.7 7"/>
          <polygon class="cls-22" points="59.4 27.7 47.7 20.9 49.7 9.5 61.4 16.3 59.4 27.7"/>
          <polygon class="cls-35" points="61.4 16.3 49.7 9.5 57.9 .2 69.7 7 61.4 16.3"/>
          <polygon class="cls-32" points="74.9 13 79.9 12.9 81.2 18.4 77.7 25.4 72.2 28.6 68.7 25.6 69.9 18.7 74.9 13"/>
          <polygon class="cls-22" points="61.4 16.3 69.9 18.7 74.9 13 69.7 7 61.4 16.3"/>
          <polygon class="cls-12" points="65.2 32.6 72.2 28.6 68.2 24.5 59.4 27.7 65.2 32.6"/>
        </g>
        <g>
          <path class="cls-22" d="m136.1,38.2c-1.9,1.1-4.9,1.1-6.7,0l-41.6-24c-1.4-.8-3.6-.8-5,0l-10.1,5.9c-1.9,1.1-4.9,1.1-6.8,0-.9-.5-1.4-1.3-1.4-2v12.1c0,.7.5,1.4,1.4,2,1.9,1.1,4.9,1.1,6.8,0l10.1-5.9c1.4-.8,3.6-.8,4.9,0l41.6,24c1.9,1.1,4.9,1.1,6.7,0,.9-.5,1.4-1.2,1.4-1.9v-12.1c.1.7-.4,1.4-1.3,1.9Z"/>
          <path class="cls-35" d="m136.1,34.3c1.9,1.1,1.9,2.8,0,3.9-1.9,1.1-4.9,1.1-6.7,0l-41.6-24c-1.4-.8-3.6-.8-5,0l-10.1,5.9c-1.9,1.1-4.9,1.1-6.8,0s-1.9-2.8,0-3.9l16-9.3c1.9-1.1,4.9-1.1,6.7,0l3.4,2,44.1,25.4Z"/>
        </g>
        <g class="cls-11">
          <path class="cls-17" d="m129.5,52.3l-2.8-3.5s1,.7,1.3-.1c.7-2.5,0-8.3,0-8.3l2.1,5.1-.6,6.8Z"/>
          <path class="cls-35" d="m130,45.4l-2.1-5.1s2.9.9,6.2,0c2.5-.7,3.3-1.6,3.3-1.6l2.1,5.1-9.5,1.6Z"/>
          <polygon class="cls-12" points="139.5 43.7 139 50.6 129.5 52.3 130 45.4 139.5 43.7"/>
        </g>
        <g>
          <path class="cls-26" d="m140.5,47.8c-.5-1.8-2.7-2.9-5.4-2.6-3.1.4-5.7,2.6-5.8,4.9,0,.3,0,.6.1.9l1.5,5.2c-.1-.3-.1-.6-.1-.9.1-2.3,2.7-4.5,5.8-4.9,2.7-.3,4.9.8,5.4,2.6l-1.5-5.2Z"/>
          <path class="cls-1" d="m136.6,50.5c3.1-.4,5.6,1.2,5.5,3.5-.1,2.3-2.7,4.5-5.8,4.9s-5.6-1.2-5.5-3.5c.1-2.4,2.7-4.6,5.8-4.9Z"/>
        </g>
        <g>
          <path class="cls-23" d="m137.1,51.5c-.1-.3-.4-.4-.8-.4-.5.1-.9.4-.9.7v.1l.1.3v-.1c0-.3.4-.7.9-.7.4,0,.7.1.8.4l-.1-.3Z"/>
          <path class="cls-34" d="m136.3,51.4c.5-.1.8.2.8.5s-.4.7-.9.7-.8-.2-.8-.5c.1-.3.5-.6.9-.7Z"/>
        </g>
        <g>
          <path class="cls-23" d="m141.8,53.9c-.1-.3-.4-.4-.8-.4-.5.1-.9.4-.9.7v.1l.1.3v-.1c0-.3.4-.7.9-.7.4,0,.7.1.8.4l-.1-.3Z"/>
          <path class="cls-34" d="m141.1,53.8c.5-.1.8.2.8.5s-.4.7-.9.7c-.5.1-.8-.2-.8-.5,0-.3.4-.6.9-.7Z"/>
        </g>
        <g>
          <path class="cls-23" d="m133.1,55.6c-.1-.3-.4-.4-.8-.4-.5.1-.9.4-.9.7v.1l.1.3v-.1c0-.3.4-.7.9-.7.4,0,.7.1.8.4l-.1-.3Z"/>
          <path class="cls-34" d="m132.4,55.5c.5-.1.8.2.8.5s-.4.7-.9.7c-.5.1-.8-.2-.8-.5s.4-.6.9-.7Z"/>
        </g>
        <g>
          <path class="cls-23" d="m137.9,57.8c-.1-.3-.4-.4-.8-.4-.5.1-.9.4-.9.7v.1l.1.3v-.1c0-.3.4-.7.9-.7.4,0,.7.1.8.4l-.1-.3Z"/>
          <path class="cls-34" d="m137.2,57.8c.5-.1.8.2.8.5s-.4.7-.9.7c-.5.1-.8-.2-.8-.5,0-.4.4-.7.9-.7Z"/>
        </g>
        <g>
          <path class="cls-37" d="m58.8,101.1h0c-.3-.8-1-1.3-1.4-1.1-.1,0-.3.2-.4.2.4-.2,1,.2,1.3.8.2.5.3,1.1,0,1.4.1,0,.3-.2.4-.2.2-.2.3-.7.1-1.1Z"/>
          <path class="cls-14" d="m57.6,100.3c.5.3.9,1,.9,1.5,0,.6-.4.8-.9.5s-.9-1-.9-1.5c.1-.5.5-.8.9-.5Z"/>
        </g>
        <g>
          <g>
            <path class="cls-37" d="m90.8,18.2h0c-.2-.5-.7-.9-.9-.7,0,0-.2.1-.3.1.2-.1.6.1.9.5.2.3.2.8,0,.9,0,0,.2-.1.3-.1,0-.1.1-.4,0-.7Z"/>
            <path class="cls-14" d="m90,17.6c.3.2.6.6.6,1s-.3.5-.6.3-.6-.6-.6-1c0-.3.3-.4.6-.3Z"/>
          </g>
          <g>
            <path class="cls-37" d="m98.7,22.7h0c-.2-.5-.7-.9-.9-.7,0,0-.2.1-.3.1.2-.1.6.1.9.5.2.3.2.8,0,.9,0,0,.2-.1.3-.1.1-.1.1-.4,0-.7Z"/>
            <path class="cls-14" d="m97.9,22.2c.3.2.6.6.6,1s-.3.5-.6.3-.6-.6-.6-1c0-.4.3-.5.6-.3Z"/>
          </g>
          <g>
            <path class="cls-37" d="m106.6,27.2h0c-.2-.5-.7-.9-.9-.7,0,0-.2.1-.3.1.2-.1.6.1.9.5.2.3.2.8,0,.9,0,0,.2-.1.3-.1.1-.1.1-.4,0-.7Z"/>
            <path class="cls-14" d="m105.8,26.7c.3.2.6.6.6,1s-.3.5-.6.3-.6-.6-.6-1,.3-.5.6-.3Z"/>
          </g>
          <g>
            <path class="cls-37" d="m114.5,31.7h0c-.2-.5-.7-.9-.9-.7,0,0-.2.1-.3.1.2-.1.6.1.9.5.2.3.2.8,0,.9,0,0,.2-.1.3-.1.1-.1.1-.4,0-.7Z"/>
            <path class="cls-14" d="m113.7,31.2c.3.2.6.6.6,1s-.3.5-.6.3-.6-.6-.6-1c0-.3.3-.5.6-.3Z"/>
          </g>
          <g>
            <path class="cls-37" d="m122.4,36.2h0c-.2-.5-.7-.9-.9-.7,0,0-.2.1-.3.1.2-.1.6.1.9.5.2.3.2.8,0,.9,0,0,.2-.1.3-.1.1-.1.1-.4,0-.7Z"/>
            <path class="cls-14" d="m121.6,35.7c.3.2.6.6.6,1s-.3.5-.6.3-.6-.6-.6-1c.1-.3.3-.5.6-.3Z"/>
          </g>
        </g>
        <g>
          <path class="cls-37" d="m66.1,106.9h0c-.3-.8-1-1.3-1.4-1.1-.1,0-.3.2-.4.2.4-.2,1,.2,1.3.8.2.5.3,1.1,0,1.4.1,0,.3-.2.4-.2.2-.2.2-.6.1-1.1Z"/>
          <path class="cls-14" d="m64.9,106.2c.5.3.9,1,.9,1.5,0,.6-.4.8-.9.5s-.9-1-.9-1.5c0-.6.4-.8.9-.5Z"/>
        </g>
        <g>
          <g>
            <path class="cls-37" d="m48.6,42.3h0c-.2-.7-.9-1.2-1.3-1-.1,0-.3.2-.3.2.3-.2.9.1,1.1.7.2.4.3,1,0,1.2.1,0,.3-.2.3-.2.3,0,.3-.5.2-.9Z"/>
            <path class="cls-14" d="m47.5,41.6c.4.3.8.9.8,1.4s-.4.7-.8.4-.8-.9-.8-1.4c0-.4.4-.6.8-.4Z"/>
          </g>
          <g>
            <path class="cls-37" d="m55.9,44.7h0c-.2-.7-.9-1.2-1.3-1-.1,0-.3.2-.3.2.3-.2.9.1,1.1.7.2.4.3,1,0,1.2.1,0,.3-.2.4-.2.2-.1.2-.5.1-.9Z"/>
            <path class="cls-14" d="m54.8,44c.4.3.8.9.8,1.4s-.4.7-.8.4-.8-.9-.8-1.4c.1-.4.4-.6.8-.4Z"/>
          </g>
        </g>
        <g>
          <path class="cls-13" d="m47.8,142.9c-2.6-.6-5.4-1.8-7.1-3l-.2,10.9c1.7,1.2,3.9,2.2,6.5,2.8.9.2,4.8.8,7.9.9v-10.2c-3.4-.3-6.3-1.2-7.1-1.4Z"/>
          <path class="cls-13" d="m63.5,144.3c2.7-.2,5.2-.7,7.1-1.3l.2,9.7c-1.7,1.2-4.6,1.8-6.8,1.8-.9,0-4.6-.1-7.7,0v-10.2c3.8.2,4.6.2,7.2,0Z"/>
        </g>
        <g>
          <path class="cls-30" d="m41.4,149.8l.2-9.3c-.3-.2-.7-.4-.9-.6l-.2,10.9c1.7,1.2,3.9,2.2,6.5,2.8.9.2,4.8.8,7.9.9v-1.1c-2.9-.1-6.2-.6-6.9-.8-2.7-.7-4.9-1.6-6.6-2.8Z"/>
          <path class="cls-30" d="m65.2,153.5c-.9,0-4.6-.1-7.7,0v-9.1c-.3,0-.7,0-1.1-.1v10.2c3.1,0,6.7.1,7.7,0,2.2-.1,5.1-.6,6.8-1.8v-.4c-1.7.7-4,1.1-5.7,1.2Z"/>
        </g>
        <path class="cls-2" d="m23.8,139.8c-.7-.9-2.4-3.1-3.2-4.3-2-3-4.6-6.6-3.7-10.8.6-3.1,3-6,7.1-8.7,1.3-.9,2.8-1.8,4.3-2.7,14.8-9.1,37.2-22.9,19.8-56.2-10.4-20-9.1-32.8-6.2-40.1,3.3-8,10.1-11.1,11-11.1l-1,1.1-2.2,2.5c-.1,0-2.8,2.4-5.6,8.6-4.4,9.4-1.7,22.7,6.1,37.8,18.5,35.4-6.1,50.5-20.7,59.5-1.5.9-3,1.8-4.3,2.7-3.6,2.3-5.6,4.7-6.1,7.1-.6,3.2,1.5,6.2,3.3,8.9.9,1.3.5.6,1.2,1.7l.2,4h0Z"/>
      </g>
    </g>
  </g>
</svg>