<?xml version="1.0" encoding="UTF-8"?>
<svg id="Layer_2" data-name="Layer 2" xmlns="http://www.w3.org/2000/svg" xmlns:xlink="http://www.w3.org/1999/xlink" viewBox="0 0 165.7 176.1">
  <defs>
    <style>
      .cls-1 {
        fill: #c5c5c5;
      }

      .cls-2 {
        fill: #858788;
      }

      .cls-3 {
        fill: #3f3f3f;
      }

      .cls-4 {
        fill: #d8d8d8;
      }

      .cls-5 {
        fill: #484a4b;
      }

      .cls-6, .cls-7 {
        isolation: isolate;
      }

      .cls-8 {
        fill: #75787a;
      }

      .cls-9 {
        fill: #949697;
      }

      .cls-10 {
        fill: #8e8e8e;
      }

      .cls-11 {
        fill: #eaeaea;
      }

      .cls-12 {
        fill: #7a7d7f;
      }

      .cls-7 {
        fill: #0f0f0f;
        opacity: .13;
      }

      .cls-13 {
        clip-path: url(#clippath);
      }

      .cls-14 {
        fill: none;
      }

      .cls-15 {
        fill: #ce0909;
      }

      .cls-16 {
        fill: #b1b1b1;
      }

      .cls-17 {
        fill: #979b9e;
      }

      .cls-18 {
        fill: #ff5a5a;
      }

      .cls-19 {
        fill: #f73c3c;
      }

      .cls-20 {
        fill: #c6c6c6;
      }

      .cls-21 {
        fill: #1e1e1e;
      }

      .cls-22 {
        fill: #5c5d5e;
      }
    </style>
    <clipPath id="clippath">
      <path class="cls-14" d="m149.1,106.9l6.6-3.5s-.1,0-.1.1l-6.5,3.4h0Z"/>
    </clipPath>
  </defs>
  <g id="Layer_1-2" data-name="Layer 1">
    <g>
      <g>
        <path class="cls-11" d="m164.6,125.4l-.7-4.3c0,.1-1.6.4-1.6.3l.7,4.3c.2.9,1.5.9,1.6-.1v-.2Z"/>
        <path class="cls-11" d="m163.8,121c.4,0-.9.4-1.4.3-.4,0,.9-.3,1.4-.3Z"/>
      </g>
      <g>
        <path class="cls-20" d="m165.2,118.6l-1.6-7.8c.1.4-5.1,1.5-5.2,1.1l1.6,7.8c.7,3,5.2,2.8,5.3-.6-.1-.2-.1-.3-.1-.5Z"/>
        <path class="cls-20" d="m163.3,110.7c1.5.1-3,1.4-4.7,1.2-1.5,0,3.1-1.3,4.7-1.2Z"/>
      </g>
      <g>
        <g class="cls-6">
          <polygon class="cls-16" points="81.6 107.7 81.6 111.9 110.1 128.4 110.1 124.2 81.6 107.7"/>
          <polygon class="cls-10" points="110.1 124.2 110.1 128.4 128.4 117.9 128.4 113.7 110.1 124.2"/>
          <polygon class="cls-1" points="81.6 107.7 110.1 124.2 128.4 113.7 99.9 97.1 81.6 107.7"/>
        </g>
        <g>
          <g>
            <path class="cls-10" d="m102.9,94.8c-.2-.2-.5-.6-.6-1v-.1c-.4-.9-.1-80.3.1-80.8.1-.3.2-.5.4-.7h0l-7.3,4.2c-.3.2-.5.5-.5,1-.3,100.6-.4,79.6,0,80.5.4,1,1.6,2.1,2.4,1.7,2.4-1.4,4.8-2.8,7.3-4.2-.6.4-1.3-.1-1.8-.6Z"/>
            <path class="cls-10" d="m110.5,97.5c0-67.1,0-79.9.7-80.3-2.4,1.4-4.8,2.8-7.3,4.2-.3.2-.5.5-.5,1-.3,100.1-.6,79.7.3,81.1.5.7,1.4,1.5,2.1,1.1,2.4-1.4,4.8-2.8,7.3-4.2-.9.6-2.6-1.3-2.6-2.9Z"/>
            <path class="cls-16" d="m91,7.1l19.8,11.4-.3,100.3-19.8-11.4.3-100.3Zm15.4,96.5l.3-79.3c0-1-.7-2.2-1.6-2.7-.9-.5-1.6-.1-1.6.9l-.3,79.3c0,1,.7,2.2,1.6,2.7s1.6.1,1.6-.9h0Zm-8.5-4.9l.3-79.3c0-1-.7-2.2-1.6-2.7-.9-.5-1.6-.1-1.6.9l-.3,79.3c0,1,.7,2.2,1.6,2.7.9.5,1.6.1,1.6-.9h0Z"/>
            <polygon class="cls-10" points="110.7 18.5 118 14.3 117.7 114.6 110.4 118.8 110.7 18.5"/>
          </g>
          <polygon class="cls-1" points="91 7.1 98.2 2.9 118 14.3 110.7 18.5 91 7.1"/>
        </g>
      </g>
      <g>
        <g class="cls-6">
          <polygon class="cls-16" points="0 155.3 .1 159.5 28.6 176.1 28.6 171.9 0 155.3"/>
          <polygon class="cls-10" points="28.6 171.9 28.6 176.1 46.9 165.5 46.9 161.3 28.6 171.9"/>
          <polygon class="cls-1" points="0 155.3 28.6 171.9 46.9 161.3 18.3 144.7 0 155.3"/>
        </g>
        <g>
          <g>
            <path class="cls-10" d="m21.4,142.4c-.2-.2-.5-.6-.6-1v-.1c-.4-.9-.1-80.3.1-80.8.1-.3.2-.5.4-.7h0l-7.3,4.2c-.3.2-.5.5-.5,1-.3,100.6-.4,79.6,0,80.5.4,1,1.6,2.1,2.4,1.7,2.4-1.4,4.8-2.8,7.3-4.2-.6.4-1.4-.1-1.8-.6Z"/>
            <path class="cls-10" d="m29,145.2c0-67.1,0-79.9.7-80.3-2.4,1.4-4.8,2.8-7.3,4.2-.3.2-.5.5-.5,1-.3,100.1-.6,79.7.3,81.1.5.7,1.4,1.5,2.1,1.1,2.4-1.4,4.8-2.8,7.3-4.2-.9.5-2.6-1.4-2.6-2.9Z"/>
            <path class="cls-16" d="m9.4,54.7l19.8,11.4-.3,100.3-19.8-11.4.3-100.3Zm15.5,96.5l.3-79.3c0-1-.7-2.2-1.6-2.7-.9-.5-1.6-.1-1.6.9l-.3,79.3c0,1,.7,2.2,1.6,2.7.9.5,1.6.1,1.6-.9h0Zm-8.6-4.9l.3-79.3c0-1-.7-2.2-1.6-2.7-.9-.5-1.6-.1-1.6.9l-.3,79.3c0,1,.7,2.2,1.6,2.7.9.5,1.6.1,1.6-.9h0Z"/>
            <polygon class="cls-10" points="29.2 66.1 36.4 61.9 36.1 162.2 28.9 166.4 29.2 66.1"/>
          </g>
          <polygon class="cls-1" points="9.4 54.7 16.7 50.5 36.4 61.9 29.2 66.1 9.4 54.7"/>
        </g>
      </g>
      <g>
        <path class="cls-3" d="m102.2,64.1c-20.9-41.5-19.8-40.1-22.4-42.2-1.3-1-3.1-1.9-4.6-1.4l-1.5.9c2.8-1,6.2,2.4,7.7,5.3,20.6,40.9,19.8,38.8,20.3,41,.5,2.3.1,4.5-1.4,5.4.5-.3,1-.6,1.5-.9,2.4-1.3,1.8-5.3.4-8.1Z"/>
        <path class="cls-21" d="m73.7,21.5c2.3-.9,5.8,1.5,7.7,5.3l19.3,38.2c1.9,3.8,1.6,7.5-.8,8.4-2.3.9-5.8-1.5-7.7-5.3l-19.3-38.2c-1.9-3.8-1.5-7.6.8-8.4Z"/>
      </g>
      <g>
        <path class="cls-18" d="m105.3,71.8c-.9-4-3.7-8.2-7.1-10.1l-8-4.6c-2.1-1.2-3.9-1.3-5.3-.5l-16.4,9.5c1.4-.8,3.2-.7,5.3.5,6.2,3.6,13.5,7.8,15.4,17.4v9.2c0,2.3-.8,4-2.2,4.8,5.5-3.2,10.9-6.4,16.4-9.5,1.3-.8,2.2-2.4,2.2-4.8.1-9.3.2-10-.3-11.9Z"/>
        <path class="cls-19" d="m81.9,71.2c4.1,2.4,7.4,8.1,7.4,12.8v9.2c0,4.7-3.3,6.6-7.5,4.2l-8-4.6c-4.1-2.4-7.4-8.1-7.4-12.8v-9.2c0-4.7,3.3-6.6,7.5-4.2l8,4.6Z"/>
      </g>
      <g>
        <path class="cls-3" d="m79.2,79.8c-20.9-41.5-19.8-40.1-22.4-42.2-1.3-1-3.1-1.9-4.6-1.4l-1.5.9c2.8-1,6.2,2.4,7.7,5.3,20.6,40.9,19.8,38.8,20.3,41,.5,2.3.1,4.5-1.4,5.4.5-.3,1-.6,1.5-.9,2.4-1.2,1.8-5.3.4-8.1Z"/>
        <path class="cls-21" d="m50.7,37.2c2.3-.9,5.8,1.5,7.7,5.3l19.3,38.2c1.9,3.8,1.6,7.5-.8,8.4-2.3.9-5.8-1.5-7.7-5.3l-19.3-38.2c-1.9-3.8-1.5-7.5.8-8.4Z"/>
      </g>
      <g class="cls-6">
        <polygon class="cls-22" points="26.2 64.4 24.4 63.4 24.4 58.6 26.2 59.6 26.2 64.4"/>
        <polygon class="cls-9" points="26.2 59.6 24.4 58.6 113.7 7 115.5 8 26.2 59.6"/>
        <polygon class="cls-2" points="115.5 8 115.5 12.8 26.2 64.4 26.2 59.6 115.5 8"/>
      </g>
      <g class="cls-6">
        <polygon class="cls-22" points="13.8 57.5 12 56.4 12 51.6 13.8 52.6 13.8 57.5"/>
        <polygon class="cls-9" points="13.8 52.6 12 51.6 101.3 0 103.2 1 13.8 52.6"/>
        <polygon class="cls-2" points="103.2 1 103.2 5.9 13.8 57.5 13.8 52.6 103.2 1"/>
      </g>
      <g class="cls-6">
        <polygon class="cls-10" points="89.1 17.5 89.1 23.9 74.3 32.5 74.3 26.1 89.1 17.5"/>
        <polygon class="cls-16" points="74.3 26.1 74.3 32.5 59.5 23.9 59.5 17.5 74.3 26.1"/>
        <polygon class="cls-1" points="89.1 17.5 74.3 26.1 59.5 17.5 74.2 8.9 89.1 17.5"/>
      </g>
      <g class="cls-6">
        <polygon class="cls-10" points="64 31.9 63.9 38.3 49.2 46.9 49.2 40.5 64 31.9"/>
        <polygon class="cls-16" points="49.2 40.5 49.2 46.9 34.3 38.3 34.3 31.9 49.2 40.5"/>
        <polygon class="cls-1" points="64 31.9 49.2 40.5 34.3 31.9 49.1 23.3 64 31.9"/>
      </g>
      <g>
        <g class="cls-6">
          <polygon class="cls-19" points="94 90.9 93.6 90.6 93.6 79.6 94 79.8 94 90.9"/>
          <polygon class="cls-18" points="94 79.8 93.6 79.6 103.2 74.1 103.6 74.3 94 79.8"/>
          <polygon class="cls-15" points="103.6 74.3 103.6 85.3 94 90.9 94 79.8 103.6 74.3"/>
        </g>
        <g>
          <path class="cls-18" d="m102.1,77.3c-.8-.5-1.9-.4-3.1.3-2.4,1.4-4.3,4.7-4.3,7.5,0,1.4.5,2.3,1.3,2.8.9.5,24.6,14.5,25.4,15-.8-.5-1.3-1.4-1.3-2.8,0-2.8,1.9-6.1,4.3-7.5,1.2-.7,2.3-.8,3.1-.3-.8-.4-24.5-14.5-25.4-15Z"/>
          <path class="cls-8" d="m124.5,92.7c2.4-1.4,4.4-.3,4.4,2.5s-1.9,6.1-4.3,7.5c-2.4,1.4-4.4.3-4.4-2.5-.1-2.8,1.9-6.1,4.3-7.5Z"/>
        </g>
        <path class="cls-7" d="m95.4,81.9c-.5,1.1-.7,2.2-.7,3.2,0,1.4.5,2.3,1.3,2.8.9.5,24.6,14.5,25.4,15-.8-.5-1.3-1.4-1.3-2.8,0-1,.3-2.1.7-3.1-3.8-2.2-24.1-14.2-24.8-14.7-.2,0-.4-.2-.6-.4Z"/>
        <g class="cls-6">
          <polygon class="cls-19" points="119.7 106 119.3 105.7 119.3 94.7 119.6 94.9 119.7 106"/>
          <polygon class="cls-18" points="119.6 94.9 119.3 94.7 128.9 89.2 129.2 89.4 119.6 94.9"/>
          <polygon class="cls-15" points="129.2 89.4 129.3 100.4 119.7 106 119.6 94.9 129.2 89.4"/>
        </g>
      </g>
      <g>
        <path class="cls-18" d="m127.1,93.9c-.6-.4-1.4-.3-2.4.2-1.8,1.1-3.3,3.6-3.3,5.7,0,1,.4,1.8,1,2.1.7.4,3.9,2.3,4.6,2.7-.6-.3-1-1.1-1-2.1,0-2.1,1.5-4.7,3.3-5.7.9-.5,1.8-.6,2.4-.2-.7-.4-3.9-2.3-4.6-2.7Z"/>
        <path class="cls-8" d="m129.3,96.8c1.8-1.1,3.3-.2,3.3,1.9s-1.5,4.7-3.3,5.7c-1.8,1.1-3.3.2-3.3-1.9s1.5-4.6,3.3-5.7Z"/>
      </g>
      <path class="cls-7" d="m122.1,97.2c-.4.9-.7,1.8-.7,2.7,0,1,.4,1.8,1,2.1.7.4,3.9,2.3,4.6,2.7-.6-.3-1-1.1-1-2.1,0-.8.2-1.8.6-2.6-1-.6-3.7-2.2-4.3-2.5,0-.2-.1-.2-.2-.3Z"/>
      <g>
        <path class="cls-4" d="m131.8,95.2c-.8-.4-1.8-.4-2.9.3-2.3,1.3-4.1,4.5-4.1,7.1,0,1.3.5,2.2,1.2,2.6.8.5,1.3.8,2.1,1.2-.7-.4-1.2-1.3-1.2-2.6,0-2.6,1.8-5.8,4.1-7.1,1.1-.7,2.2-.7,2.9-.3-.8-.4-1.3-.7-2.1-1.2Z"/>
        <path class="cls-8" d="m131,96.7c2.3-1.3,4.1-.3,4.1,2.4s-1.8,5.8-4.1,7.1c-2.3,1.3-4.1.3-4.1-2.4s1.8-5.7,4.1-7.1Z"/>
      </g>
      <g>
        <path class="cls-18" d="m133.5,97.6c-.6-.4-1.4-.3-2.4.2-1.8,1.1-3.3,3.6-3.3,5.7,0,1,.4,1.8,1,2.1.7.4,3.9,2.3,4.6,2.7-.6-.3-1-1.1-1-2.1,0-2.1,1.5-4.7,3.3-5.7.9-.5,1.8-.6,2.4-.2-.7-.3-3.9-2.3-4.6-2.7Z"/>
        <path class="cls-8" d="m135.7,100.6c1.8-1.1,3.3-.2,3.3,1.9s-1.5,4.7-3.3,5.7c-1.8,1.1-3.3.2-3.3-1.9s1.5-4.7,3.3-5.7Z"/>
      </g>
      <path class="cls-7" d="m128.5,100.9c-.4.9-.7,1.8-.7,2.7,0,1,.4,1.8,1,2.1.7.4,3.9,2.3,4.6,2.7-.6-.3-1-1.1-1-2.1,0-.8.2-1.8.6-2.6-1-.6-3.7-2.2-4.3-2.5,0-.1-.1-.2-.2-.3Z"/>
      <path class="cls-7" d="m135.4,103.6c-.4.9-.7,1.8-.7,2.6,0,1,.4,1.8,1,2.1.7.4,3.9,2.3,4.6,2.7-.6-.3-1-1.1-1-2.1,0-.8.2-1.8.6-2.6-1-.6-3.7-2.2-4.3-2.5-.1,0-.1-.1-.2-.2Z"/>
      <g>
        <path class="cls-4" d="m138.2,99c-.8-.4-1.8-.4-2.9.3-2.3,1.3-4.1,4.5-4.1,7.1,0,1.3.5,2.2,1.2,2.6.8.5,1.3.8,2.1,1.2-.7-.4-1.2-1.3-1.2-2.6,0-2.6,1.8-5.8,4.1-7.1,1.1-.7,2.2-.7,2.9-.3-.8-.5-1.3-.8-2.1-1.2Z"/>
        <path class="cls-8" d="m137.4,100.5c2.3-1.3,4.1-.3,4.1,2.4s-1.8,5.8-4.1,7.1c-2.3,1.3-4.1.3-4.1-2.4,0-2.6,1.8-5.8,4.1-7.1Z"/>
      </g>
      <g>
        <path class="cls-18" d="m140,101.2c-.6-.4-1.4-.3-2.4.2-1.8,1.1-3.3,3.6-3.3,5.7,0,1,.4,1.8,1,2.1.7.4,3.9,2.3,4.6,2.7-.6-.3-1-1.1-1-2.1,0-2.1,1.5-4.7,3.3-5.7.9-.5,1.8-.6,2.4-.2-.6-.4-3.9-2.3-4.6-2.7Z"/>
        <path class="cls-8" d="m142.3,104.1c1.8-1.1,3.3-.2,3.3,1.9s-1.5,4.7-3.3,5.7c-1.8,1.1-3.3.2-3.3-1.9-.1-2.1,1.4-4.6,3.3-5.7Z"/>
      </g>
      <path class="cls-7" d="m135,104.5c-.4.9-.7,1.8-.7,2.7,0,1,.4,1.8,1,2.1.7.4,3.9,2.3,4.6,2.7-.6-.3-1-1.1-1-2.1,0-.8.2-1.8.6-2.6-1-.6-3.7-2.2-4.3-2.5,0-.2-.1-.2-.2-.3Z"/>
      <g>
        <path class="cls-4" d="m144.7,102.5c-.8-.4-1.8-.4-2.9.3-2.3,1.3-4.1,4.5-4.1,7.1,0,1.3.5,2.2,1.2,2.6.8.5,1.3.8,2.1,1.2-.7-.4-1.2-1.3-1.2-2.6,0-2.6,1.8-5.8,4.1-7.1,1.1-.7,2.2-.7,2.9-.3-.8-.4-1.3-.7-2.1-1.2Z"/>
        <path class="cls-8" d="m143.9,104c2.3-1.3,4.1-.3,4.1,2.4s-1.8,5.8-4.1,7.1c-2.3,1.3-4.1.3-4.1-2.4,0-2.6,1.8-5.7,4.1-7.1Z"/>
      </g>
      <g>
        <path class="cls-18" d="m146.6,104.5c-.7-.4-1.6-.3-2.6.3-2,1.1-3.6,3.9-3.6,6.2,0,1.1.4,1.9,1,2.3.7.4,5.6,3,6.3,3.4-.6-.4-.6-1.1-.6-2.2,0-2.3-.3-5.6,1.7-6.7,1-.6.8-.9,1.4-.5-.5-.6-2.9-2.4-3.6-2.8Z"/>
        <path class="cls-7" d="m140.8,108.9c-.2.7-.4,1.4-.4,2,0,1.1.4,1.9,1,2.3.7.4,5.6,3,6.3,3.4-.6-.4-.6-1.1-.6-2.2v-1.8c-1.5-.8-5.2-2.7-5.8-3.1-.1-.1-.3-.3-.5-.6Z"/>
        <path class="cls-15" d="m147.2,108.1c1.3-1.9,3.2-1.7,4.1.3,1,2.1.7,5.3-.6,7.1-1.3,1.9-3.2,1.7-4.1-.3-.9-2.1-.7-5.3.6-7.1Z"/>
      </g>
      <g>
        <g>
          <g class="cls-6">
            <g class="cls-13">
              <g class="cls-6">
                <path class="cls-17" d="m155.7,103.5l-6.6,3.5s.1,0,.1-.1l6.5-3.4q0-.1,0,0h0Z"/>
              </g>
            </g>
          </g>
          <path class="cls-18" d="m155.1,109c-1.2-2.1-.9-4.6.6-5.5l-6.6,3.5c-1.5.9-2.9,3.6-2.2,6,.5,2,2,3.3,3.3,3l9.8-4.6c-1.6.7-3.8-.3-4.9-2.4Z"/>
          <path class="cls-15" d="m155.7,103.5c1.5-.9,3.8.1,5,2.3,1.2,2.1.9,4.6-.6,5.5s-3.8-.1-5-2.3-1-4.6.6-5.5Z"/>
        </g>
        <path class="cls-7" d="m156,110.3l-8.6,4.1c.7,1.2,1.8,1.9,2.7,1.6l9.8-4.6c-1.2.5-2.7.1-3.9-1.1Z"/>
      </g>
      <g>
        <path class="cls-12" d="m158.9,83.4c0,.2-.5.5-1.6.8-2.5.8-5.9,1.2-6,.8l6.8,32.4c.2.7,7.8-.9,7.6-1.6l-6.8-32.4Z"/>
        <path class="cls-5" d="m158.2,83.2c1.2,0,.8.5-.9,1s-4.1,1-5.3.9c-2.8,0,3.1-1.9,6.2-1.9Z"/>
      </g>
      <path d="m155.7,83.4c-.2-.8-4.7-19.1-13.9-23.9-2.6-1.4-5.3-1.5-8.1-.5-13.8,5.2-35.6,3.4-44.3,1.3-2.2-.5-4.1-1.2-5.8-1.8-3-1-4.9-1.6-6.3-.8-1,.5-1.3,2.1-1.4,4.1v.1l1.3-.8c.1-1.2.4-2,.8-2.3.8-.6,2.8.1,5.2,1,1.6.6,3.6,1.3,6,1.8,8.8,2.1,31,3.9,45-1.4,2.4-.9,4.8-.8,7,.4,8.7,4.6,13.2,22.9,13.3,23.1.1.3.3.5.6.5h.2c.2-.1.5-.4.4-.8Z"/>
    </g>
  </g>
</svg>