<?xml version="1.0" encoding="UTF-8"?>
<svg id="Layer_2" data-name="Layer 2" xmlns="http://www.w3.org/2000/svg" viewBox="0 0 162.7 147.3">
  <defs>
    <style>
      .cls-1 {
        fill: #4c4c4c;
      }

      .cls-2 {
        fill: #86651f;
      }

      .cls-3 {
        fill: #4c4c4b;
      }

      .cls-4 {
        fill: #bababa;
      }

      .cls-5 {
        isolation: isolate;
      }

      .cls-6 {
        fill: #6b6b6b;
      }

      .cls-7 {
        fill: #333;
      }

      .cls-8 {
        fill: #b5b8bd;
      }

      .cls-9 {
        fill: #ba4f4f;
      }

      .cls-10 {
        fill: #494846;
      }

      .cls-11 {
        fill: #ff5a5a;
      }

      .cls-12 {
        fill: #f73c3c;
      }

      .cls-13 {
        fill: #6d6d6d;
      }

      .cls-14 {
        fill: #333332;
      }

      .cls-15 {
        fill: #c6c6c6;
      }
    </style>
  </defs>
  <g id="Layer_1-2" data-name="Layer 1">
    <g>
      <g>
        <g class="cls-5">
          <polygon class="cls-1" points="57.1 147.3 12.7 121.5 12.5 84.5 57 110.3 57.1 147.3"/>
          <polygon class="cls-4" points="57 110.3 12.5 84.5 15.3 82.9 59.8 108.7 57 110.3"/>
          <polygon class="cls-7" points="59.8 108.7 59.9 145.7 57.1 147.3 57 110.3 59.8 108.7"/>
        </g>
        <g class="cls-5">
          <polygon class="cls-6" points="147.4 95 103 69.2 102.9 32.3 147.3 58.1 147.4 95"/>
          <polygon class="cls-4" points="147.3 58.1 102.9 32.3 105.7 30.6 150.1 56.5 147.3 58.1"/>
          <polygon class="cls-14" points="150.1 56.5 150.2 93.4 147.4 95 147.3 58.1 150.1 56.5"/>
        </g>
      </g>
      <g>
        <path class="cls-12" d="m17.5,31.7h0c5.4-15.3,19.8-26.5,28.4-21.5,1.3.8,13.9,8.2,15.2,9-7.4-4.3-19.3,3.3-25.9,15.8-4.9,9.2-7,23,.8,27.5-1.3-.8-13.9-8.2-15.2-9-5.8-3.4-6.6-12.6-3.3-21.8Z"/>
        <path class="cls-8" d="m48.4,20.4c-9.8,5.7-17.7,19.4-17.7,30.7s8,15.8,17.8,10.1c9.8-5.7,17.7-19.4,17.7-30.7,0-11.2-8-15.7-17.8-10.1Z"/>
      </g>
      <polygon class="cls-6" points="99.7 32.9 99.8 41.8 111 48.3 111 39.4 99.7 32.9"/>
      <polygon class="cls-1" points="44.4 116.2 44.5 125.1 162.7 56.8 162.7 47.9 44.4 116.2"/>
      <polygon class="cls-6" points=".1 90.4 .1 99.3 44.5 125.1 44.4 116.2 .1 90.4"/>
      <polygon class="cls-15" points="118.3 22.1 99.7 32.9 109.6 38.6 128.2 27.9 118.3 22.1"/>
      <g>
        <path class="cls-11" d="m24.4,49.2h0C36.1,16.1,67.3-8.2,86,2.6c2.8,1.6,6.1,3.4,8.9,5-16.1-9.3-41.8,7.2-56.2,34.2-10.6,20-15.2,49.8,1.6,59.6-2.8-1.6-6.1-3.4-8.9-5-12.3-7.2-14-27.2-7-47.2Z"/>
        <g>
          <path class="cls-9" d="m50.5,102.6c-12.2,0-19.8-9.9-19.8-25.8-.1-23.9,16.8-53.1,37.6-65.1,5.8-3.4,11.4-5.1,16.5-5.1,12.2,0,19.8,9.9,19.8,25.8.1,23.9-16.8,53.1-37.6,65.1-5.8,3.4-11.4,5.1-16.5,5.1h0Z"/>
          <path class="cls-8" d="m84.8,8.1c11.3,0,18.3,9.3,18.3,24.3.1,23.4-16.5,52.1-36.9,63.8-5.5,3.2-11,4.9-15.8,4.9-11.3,0-18.3-9.3-18.3-24.3-.1-23.4,16.5-52.1,36.9-63.8,5.5-3.2,11-4.9,15.8-4.9m0-3c-5.2,0-11.1,1.7-17.3,5.3-21.3,12.3-38.4,42-38.4,66.4,0,17.3,8.7,27.3,21.3,27.3,5.2,0,11.1-1.7,17.3-5.3,21.3-12.3,38.4-42,38.4-66.4,0-17.3-8.7-27.3-21.3-27.3h0Z"/>
        </g>
      </g>
      <path class="cls-6" d="m126.9,47.6c0-.3-.2-.5-.5-.7-.7-.4-1.9-.4-2.6,0l-81.1,46.8c-.4.2-.5.5-.5.8v8.9c0-.3.2-.5.5-.8l81.1-46.8c.7-.4,1.9-.4,2.6,0,.4.2.5.5.5.7.1-2.9,0-5.9,0-8.9Z"/>
      <path class="cls-15" d="m128.2,27.9l-18.6,10.7,1.4.8L29.9,86.2l-11.3-6.6L0,90.3l44.4,25.8,118.2-68.3-34.4-19.9Zm-1.8,20.5l-81.1,46.8c-.7.4-1.9.4-2.6,0s-.7-1.1,0-1.5l81.1-46.8c.7-.4,1.9-.4,2.6,0,.7.4.7,1.1,0,1.5Z"/>
      <g>
        <g class="cls-5">
          <polygon class="cls-2" points="135 52.9 135 56.4 110.4 42.2 110.4 38.8 135 52.9"/>
          <path class="cls-10" d="m134.9,38.8c6.8,3.9,6.8,10.2.1,14.1l-24.5-14.2c6.7-3.8,17.6-3.8,24.4.1Z"/>
        </g>
        <g class="cls-5">
          <path class="cls-14" d="m135.1,52.9v-5.7l-3.5,2v9.1l3.5-2h0c3.3-1.9,4.9-4.4,4.9-6.9v-3.4c0,2.4-1.7,4.9-4.9,6.9Z"/>
          <polygon class="cls-13" points="110.2 36.8 113.7 34.8 135.1 47.2 131.7 49.2 110.2 36.8"/>
          <polygon class="cls-3" points="131.7 49.2 131.6 58.3 110.2 46 110.2 36.8 131.7 49.2"/>
        </g>
      </g>
    </g>
  </g>
</svg>